<svg
      
      width="240"
      height="59"
      viewBox="0 0 240 59"
      fill="none"
      xmlns="http://www.w3.org/2000/svg"
    >
      <rect
        x="0.476542"
        y="11.4255"
        width="231"
        height="47.1524"
        rx="10.5"
        transform="rotate(-2.75535 0.476542 11.4255)"
        fill="#539A69"
        stroke="black"
      />
      <rect
        x="5.5"
        y="9.5"
        width="231"
        height="47"
        rx="10.5"
        fill="#68F794"
        stroke="black"
      />
      <path
        d="M226.559 6.60671C226.877 5.72595 228.123 5.72595 228.441 6.60671L229.061 8.32578C230.172 11.4042 232.596 13.8282 235.674 14.939L237.393 15.5594C238.274 15.8772 238.274 17.1228 237.393 17.4406L235.674 18.061C232.596 19.1718 230.172 21.5958 229.061 24.6742L228.441 26.3933C228.123 27.274 226.877 27.274 226.559 26.3933L225.939 24.6742C224.828 21.5958 222.404 19.1718 219.326 18.061L217.607 17.4406C216.726 17.1228 216.726 15.8772 217.607 15.5594L219.326 14.939C222.404 13.8282 224.828 11.4042 225.939 8.32578L226.559 6.60671Z"
        fill="#FCFF51"
        stroke="black"
        stroke-linejoin="round"
      />
      <path
        d="M36.49 40L31.99 29.425H29.86L25.36 40H27.715L28.675 37.645H33.115L34.075 40H36.49ZM32.29 35.605H29.5L30.895 32.2L32.29 35.605ZM45.5747 40V29.05H43.2947V33.01C42.7547 32.365 42.0047 31.81 40.7897 31.81C38.8847 31.81 37.1297 33.28 37.1297 35.965V35.995C37.1297 38.68 38.9147 40.15 40.7897 40.15C41.9747 40.15 42.7397 39.595 43.2947 38.845V40H45.5747ZM43.3247 35.995C43.3247 37.33 42.4397 38.215 41.3747 38.215C40.3097 38.215 39.4097 37.33 39.4097 35.995V35.965C39.4097 34.615 40.3097 33.745 41.3747 33.745C42.4397 33.745 43.3247 34.63 43.3247 35.965V35.995ZM55.6968 40V29.05H53.4168V33.01C52.8768 32.365 52.1268 31.81 50.9118 31.81C49.0068 31.81 47.2518 33.28 47.2518 35.965V35.995C47.2518 38.68 49.0368 40.15 50.9118 40.15C52.0968 40.15 52.8618 39.595 53.4168 38.845V40H55.6968ZM53.4468 35.995C53.4468 37.33 52.5618 38.215 51.4968 38.215C50.4318 38.215 49.5318 37.33 49.5318 35.995V35.965C49.5318 34.615 50.4318 33.745 51.4968 33.745C52.5618 33.745 53.4468 34.63 53.4468 35.965V35.995ZM64.6159 40V29.05H62.3359V40H64.6159ZM69.2023 31.075V29.05H66.8023V31.075H69.2023ZM69.1423 40V31.96H66.8623V40H69.1423ZM79.3687 42.4V31.96H77.0887V33.01C76.5487 32.365 75.7987 31.81 74.5837 31.81C72.6787 31.81 70.9237 33.28 70.9237 35.965V35.995C70.9237 38.68 72.7087 40.15 74.5837 40.15C75.7687 40.15 76.5337 39.595 77.0887 38.845V42.4H79.3687ZM77.1187 35.995C77.1187 37.33 76.2337 38.215 75.1687 38.215C74.1037 38.215 73.2037 37.33 73.2037 35.995V35.965C73.2037 34.615 74.1037 33.745 75.1687 33.745C76.2337 33.745 77.1187 34.63 77.1187 35.965V35.995ZM88.7107 40V31.96H86.4307V36.445C86.4307 37.525 85.8757 38.08 85.0057 38.08C84.1357 38.08 83.6257 37.525 83.6257 36.445V31.96H81.3457V37.165C81.3457 39.01 82.3507 40.15 84.0757 40.15C85.2307 40.15 85.9057 39.535 86.4307 38.86V40H88.7107ZM93.1964 31.075V29.05H90.7964V31.075H93.1964ZM93.1364 40V31.96H90.8564V40H93.1364ZM103.363 40V29.05H101.083V33.01C100.543 32.365 99.7928 31.81 98.5778 31.81C96.6728 31.81 94.9178 33.28 94.9178 35.965V35.995C94.9178 38.68 96.7028 40.15 98.5778 40.15C99.7628 40.15 100.528 39.595 101.083 38.845V40H103.363ZM101.113 35.995C101.113 37.33 100.228 38.215 99.1628 38.215C98.0978 38.215 97.1978 37.33 97.1978 35.995V35.965C97.1978 34.615 98.0978 33.745 99.1628 33.745C100.228 33.745 101.113 34.63 101.113 35.965V35.995ZM107.845 31.075V29.05H105.445V31.075H107.845ZM107.785 40V31.96H105.505V40H107.785ZM114.441 39.67V37.84C114.111 38.02 113.736 38.125 113.316 38.125C112.806 38.125 112.581 37.87 112.581 37.345V33.91H114.471V31.96H112.581V29.905H110.301V31.96H109.341V33.91H110.301V37.72C110.301 39.58 111.246 40.135 112.641 40.135C113.406 40.135 113.961 39.955 114.441 39.67ZM123.802 31.96H121.432L119.677 37.435L117.847 31.96H115.432L118.582 40.03C118.387 40.435 118.177 40.555 117.787 40.555C117.487 40.555 117.112 40.42 116.812 40.24L116.047 41.89C116.632 42.235 117.247 42.445 118.072 42.445C119.437 42.445 120.097 41.83 120.712 40.195L123.802 31.96ZM132.088 31.075V29.05H129.688V31.075H132.088ZM132.028 40V31.96H129.748V40H132.028ZM141.534 40V34.795C141.534 32.95 140.529 31.81 138.804 31.81C137.649 31.81 136.974 32.425 136.449 33.1V31.96H134.169V40H136.449V35.515C136.449 34.435 137.004 33.88 137.874 33.88C138.744 33.88 139.254 34.435 139.254 35.515V40H141.534ZM148.03 39.67V37.84C147.7 38.02 147.325 38.125 146.905 38.125C146.395 38.125 146.17 37.87 146.17 37.345V33.91H148.06V31.96H146.17V29.905H143.89V31.96H142.93V33.91H143.89V37.72C143.89 39.58 144.835 40.135 146.23 40.135C146.995 40.135 147.55 39.955 148.03 39.67ZM157.831 35.995V35.965C157.831 33.655 155.986 31.81 153.496 31.81C150.991 31.81 149.131 33.685 149.131 35.995V36.025C149.131 38.335 150.976 40.18 153.466 40.18C155.971 40.18 157.831 38.305 157.831 35.995ZM155.581 36.025C155.581 37.21 154.801 38.215 153.496 38.215C152.236 38.215 151.381 37.18 151.381 35.995V35.965C151.381 34.78 152.161 33.775 153.466 33.775C154.726 33.775 155.581 34.81 155.581 35.995V36.025ZM173.849 29.5H171.359L168.614 36.895L165.869 29.5H163.319L167.564 40.075H169.604L173.849 29.5ZM178.844 31.42C179.669 31.42 180.254 31.9 180.254 32.785C180.254 33.655 179.744 34.225 178.439 35.305L174.944 38.17V40H182.714V38.005H178.139L179.849 36.685C181.709 35.245 182.609 34.36 182.609 32.605C182.609 30.64 181.229 29.35 178.994 29.35C177.119 29.35 176.114 30.115 175.079 31.525L176.699 32.83C177.479 31.87 178.034 31.42 178.844 31.42ZM197.622 33.16V33.13C197.622 30.985 196.107 29.5 193.602 29.5H189.312V40H191.622V36.85H193.377C195.732 36.85 197.622 35.59 197.622 33.16ZM195.282 33.205C195.282 34.105 194.607 34.795 193.452 34.795H191.622V31.585H193.407C194.562 31.585 195.282 32.14 195.282 33.175V33.205ZM207.328 35.995V35.965C207.328 33.655 205.483 31.81 202.993 31.81C200.488 31.81 198.628 33.685 198.628 35.995V36.025C198.628 38.335 200.473 40.18 202.963 40.18C205.468 40.18 207.328 38.305 207.328 35.995ZM205.078 36.025C205.078 37.21 204.298 38.215 202.993 38.215C201.733 38.215 200.878 37.18 200.878 35.995V35.965C200.878 34.78 201.658 33.775 202.963 33.775C204.223 33.775 205.078 34.81 205.078 35.995V36.025ZM217.289 35.995V35.965C217.289 33.655 215.444 31.81 212.954 31.81C210.449 31.81 208.589 33.685 208.589 35.995V36.025C208.589 38.335 210.434 40.18 212.924 40.18C215.429 40.18 217.289 38.305 217.289 35.995ZM215.039 36.025C215.039 37.21 214.259 38.215 212.954 38.215C211.694 38.215 210.839 37.18 210.839 35.995V35.965C210.839 34.78 211.619 33.775 212.924 33.775C214.184 33.775 215.039 34.81 215.039 35.995V36.025ZM221.325 40V29.05H219.045V40H221.325Z"
        fill="black"
      />
    </svg>