<svg
      
      width="16"
      height="6"
      viewBox="0 0 16 6"
      fill="none"
      xmlns="http://www.w3.org/2000/svg"
    >
      <path
        opacity="0.65"
        d="M15.2418 5.77383C15.2495 5.77383 15.2563 5.77383 15.2631 5.77185L15.2874 5.76988L15.3039 5.76691L15.3292 5.76296C15.333 5.76296 15.3379 5.76 15.3428 5.76C15.3509 5.75797 15.359 5.75566 15.367 5.75308L15.3806 5.75111L15.4059 5.74419C15.4107 5.74123 15.4156 5.74123 15.4195 5.73925L15.4428 5.73234C15.4476 5.72967 15.4529 5.72799 15.4583 5.7274L15.4787 5.72048L15.4972 5.71357L15.5156 5.70665C15.5224 5.70467 15.5292 5.69974 15.5351 5.69776L15.5516 5.69085L15.572 5.67899L15.5856 5.67208L15.6089 5.65825L15.6205 5.65133L15.6429 5.6375L15.6545 5.63059C15.6615 5.62599 15.668 5.62069 15.6739 5.61478C15.6783 5.61211 15.6822 5.60878 15.6856 5.6049C15.6931 5.60104 15.6997 5.59566 15.705 5.58909C15.7089 5.58415 15.7157 5.57922 15.7206 5.57526C15.7458 5.55401 15.7695 5.53089 15.7914 5.50611C15.7953 5.50117 15.8002 5.49623 15.8021 5.49129C15.807 5.48734 15.8118 5.48043 15.8157 5.47549C15.8206 5.46858 15.8254 5.46166 15.8313 5.45672L15.841 5.44487L15.8565 5.42511L15.8633 5.41325L15.8769 5.38954L15.8837 5.37868L15.8973 5.35497L15.9041 5.34114L15.9158 5.32039L15.9226 5.30656L15.9323 5.28582L15.9391 5.26705L15.9459 5.24828L15.9527 5.22852C15.9551 5.22325 15.9564 5.21754 15.9565 5.21173L15.9633 5.18802C15.9663 5.18407 15.9663 5.17913 15.9682 5.17419L15.975 5.14851L15.9769 5.13468C15.9794 5.12664 15.981 5.11836 15.9818 5.10998C15.9818 5.10504 15.9847 5.1001 15.9847 5.09615C15.9867 5.08627 15.9867 5.07639 15.9886 5.07046L15.9915 5.05367L15.9935 5.02897C15.9935 5.02206 15.9935 5.01514 15.9954 5.00823C15.9954 5.00033 15.9954 4.99341 15.9983 4.98847C16.0006 4.96086 16.0006 4.9331 15.9983 4.90549C15.9983 4.89857 15.9983 4.89166 15.9954 4.88771C15.9954 4.88079 15.9954 4.87388 15.9935 4.86696L15.9915 4.84128L15.9886 4.82448L15.9847 4.79979C15.9847 4.79485 15.9818 4.78991 15.9818 4.78596C15.9799 4.77608 15.9769 4.7662 15.9769 4.76027L15.975 4.74644L15.9682 4.72076C15.9663 4.71582 15.9663 4.71088 15.9633 4.70693L15.9565 4.68322C15.9543 4.67826 15.9529 4.67289 15.9527 4.66741L15.9459 4.64667L15.9391 4.6279L15.9323 4.60913L15.9226 4.58937L15.9158 4.57455C15.9119 4.56764 15.909 4.56072 15.9041 4.5548L15.8973 4.53998L15.8837 4.51726L15.8769 4.5054L15.8633 4.4817L15.8565 4.47083C15.852 4.46339 15.8468 4.45644 15.841 4.45008C15.8384 4.44565 15.8351 4.44165 15.8313 4.43823C15.8274 4.43098 15.8221 4.4246 15.8157 4.41946C15.8109 4.41551 15.806 4.40761 15.8021 4.40365L15.7885 4.38982L15.7613 4.36019L11.7232 0.244729C11.6472 0.16716 11.5569 0.105611 11.4575 0.0636147C11.3581 0.0216182 11.2515 0 11.1438 0C11.0362 0 10.9296 0.0216182 10.8302 0.0636147C10.7308 0.105611 10.6405 0.16716 10.5645 0.244729C10.4883 0.322008 10.4278 0.413841 10.3865 0.514961C10.3452 0.616081 10.3239 0.724498 10.3239 0.833992C10.3239 0.943486 10.3452 1.0519 10.3865 1.15302C10.4278 1.25414 10.4883 1.34598 10.5645 1.42326L13.2052 4.11026H0.819679C0.602287 4.11026 0.393798 4.1981 0.240079 4.35446C0.0863589 4.51082 0 4.72289 0 4.94402C0 5.16514 0.0863589 5.37721 0.240079 5.53358C0.393798 5.68994 0.602287 5.77778 0.819679 5.77778L15.1835 5.77679H15.2243C15.2311 5.77679 15.2379 5.77383 15.2418 5.77383Z"
        fill="#7E8A93"
      />
    </svg>