<svg
      
      width="24"
      height="24"
      viewBox="0 0 24 24"
      fill="none"
      xmlns="http://www.w3.org/2000/svg"
    >
      <rect width="24" height="24" rx="8" fill="#5FAB43" />
      <path
        opacity="0.5"
        fill-rule="evenodd"
        clip-rule="evenodd"
        d="M12.9814 7.52848C12.8837 7.45031 12.7514 7.38461 12.4619 7.38461V5.53845C13.0956 5.53845 13.6555 5.70352 14.1347 6.08688C14.5739 6.43824 14.8746 6.91888 15.1219 7.40981L18.8145 13.872L18.826 13.8949C19.1269 14.4967 19.3331 15.4088 18.8984 16.2368C18.429 17.131 17.4296 17.5385 16.1542 17.5385H12.4628L12.4619 15.6923H16.1542C17.0942 15.6923 17.2487 15.4074 17.2639 15.3786C17.3128 15.2855 17.3345 15.0519 17.1847 14.7408L13.4939 8.28187L13.4824 8.25896C13.2704 7.83494 13.1121 7.63305 12.9814 7.52848Z"
        fill="white"
      />
      <path
        fill-rule="evenodd"
        clip-rule="evenodd"
        d="M11.5299 7.57449C11.7055 7.45676 12.1622 7.38461 12.4619 7.38461V5.53845C11.8385 5.53845 11.0152 5.69705 10.5021 6.04087C9.99916 6.37793 9.61875 6.8572 9.33492 7.42072L5.86584 13.8829L5.85985 13.8949C5.55894 14.4967 5.35276 15.4088 5.78741 16.2368C6.25689 17.131 7.25626 17.5384 8.53163 17.5384H12.461L12.4619 15.6923H8.53163C7.59161 15.6923 7.43713 15.4074 7.42199 15.3786C7.37258 15.2845 7.35094 15.0471 7.50586 14.7311L10.9739 8.27094L10.9798 8.25895C11.1569 7.90485 11.3479 7.69646 11.5299 7.57449Z"
        fill="white"
      />
    </svg>