<svg
      
      width="24"
      height="24"
      viewBox="0 0 24 24"
      fill="none"
      xmlns="http://www.w3.org/2000/svg"
    >
      <rect
        x="0.5"
        y="0.5"
        width="23"
        height="23"
        rx="7.5"
        stroke="currentColor"
      />
      <path
        opacity="0.5"
        fill-rule="evenodd"
        clip-rule="evenodd"
        d="M12.9809 7.52848C12.8832 7.45031 12.7509 7.38461 12.4614 7.38461V5.53845C13.0951 5.53845 13.655 5.70352 14.1342 6.08688C14.5734 6.43824 14.8741 6.91888 15.1214 7.40981L18.8141 13.872L18.8255 13.8949C19.1264 14.4967 19.3326 15.4088 18.8979 16.2368C18.4285 17.131 17.4291 17.5385 16.1537 17.5385H12.4623L12.4614 15.6923H16.1537C17.0938 15.6923 17.2482 15.4074 17.2634 15.3786C17.3123 15.2855 17.334 15.0519 17.1842 14.7408L13.4934 8.28187L13.482 8.25896C13.2699 7.83494 13.1117 7.63305 12.9809 7.52848Z"
        fill="currentColor"
      />
      <path
        fill-rule="evenodd"
        clip-rule="evenodd"
        d="M11.5294 7.57449C11.7051 7.45676 12.1617 7.38461 12.4614 7.38461V5.53845C11.838 5.53845 11.0147 5.69705 10.5016 6.04087C9.99868 6.37793 9.61826 6.8572 9.33444 7.42072L5.86535 13.8829L5.85936 13.8949C5.55845 14.4967 5.35227 15.4088 5.78692 16.2368C6.2564 17.131 7.25577 17.5384 8.53114 17.5384H12.4605L12.4614 15.6923H8.53114C7.59112 15.6923 7.43664 15.4074 7.4215 15.3786C7.37209 15.2845 7.35045 15.0471 7.50537 14.7311L10.9734 8.27094L10.9794 8.25895C11.1564 7.90485 11.3474 7.69646 11.5294 7.57449Z"
        fill="currentColor"
      />
    </svg>