<svg
      
      width="16"
      height="16"
      viewBox="0 0 16 16"
      fill="none"
      xmlns="http://www.w3.org/2000/svg"
    >
      <path
        d="M2.86238 9.50529L3.40647 8.13033C3.52816 7.82285 3.36226 7.62362 3.03781 7.6876L1.72637 7.94641C1.40196 8.01035 0.945117 8.2541 0.711273 8.48795L0.425048 8.77417C0.191204 9.00801 0.191204 9.39067 0.425048 9.62451L1.58406 10.7835L2.86238 9.50529ZM4.53254 13.732L5.70703 14.9065C5.94087 15.1403 6.32353 15.1403 6.55737 14.9065L6.8436 14.6203C7.07744 14.3864 7.32778 13.9311 7.39993 13.6084L7.67281 12.3878C7.74509 12.0651 7.54772 11.8876 7.23433 11.9934L5.72625 12.5025"
        fill="#E88A46"
      />
      <path
        d="M10.9948 8.68451C12.9584 6.52192 12.5499 4.05934 12.329 3.21592C12.329 3.21592 12.2275 2.86214 11.8163 2.80976C5.48588 2.00329 3.40764 9.667 3.40764 9.667C3.40764 9.667 3.22839 10.6134 3.96019 11.3051C4.84242 12.1389 5.5326 11.9272 5.5326 11.9272C5.5326 11.9272 6.94443 11.7434 8.3341 10.8065C9.15093 10.2558 10.1327 9.63341 10.9948 8.68451V8.68451Z"
        fill="#00D6AF"
      />
      <path
        d="M8.09371 4.85795C7.93621 5.01542 7.81127 5.20237 7.72603 5.40813C7.64079 5.61388 7.59691 5.83442 7.5969 6.05713C7.59689 6.27985 7.64075 6.50039 7.72597 6.70615C7.8112 6.91191 7.93612 7.09888 8.0936 7.25636C8.25109 7.41385 8.43805 7.53877 8.64381 7.62399C8.84958 7.70922 9.07011 7.75308 9.29283 7.75307C9.51555 7.75306 9.73608 7.70918 9.94184 7.62393C10.1476 7.53869 10.3345 7.41375 10.492 7.25625C10.6495 7.09878 10.7744 6.91183 10.8597 6.70608C10.9449 6.50032 10.9888 6.27979 10.9888 6.05707C10.9888 5.83436 10.945 5.61382 10.8598 5.40805C10.7745 5.20229 10.6496 5.01533 10.4921 4.85784C10.3346 4.70036 10.1477 4.57544 9.94191 4.49021C9.73615 4.40499 9.51561 4.36113 9.29289 4.36114C9.07018 4.36115 8.84964 4.40503 8.64389 4.49027C8.43813 4.57551 8.25118 4.70045 8.09371 4.85795V4.85795Z"
        fill="#172128"
      />
    </svg>