<svg
      
      width="266"
      height="79"
      viewBox="0 0 266 79"
      fill="none"
      xmlns="http://www.w3.org/2000/svg"
    >
      <rect
        y="27"
        width="23"
        height="24"
        rx="8"
        fill="#C4C4C4"
        fill-opacity="0.05"
      />
      <rect width="23" height="23" rx="8" fill="#C4C4C4" fill-opacity="0.05" />
      <rect
        y="56"
        width="23"
        height="23"
        rx="8"
        fill="#C4C4C4"
        fill-opacity="0.05"
      />
      <rect
        x="27"
        y="27"
        width="23"
        height="24"
        rx="8"
        fill="#C4C4C4"
        fill-opacity="0.05"
      />
      <rect
        x="27"
        width="23"
        height="23"
        rx="8"
        fill="#C4C4C4"
        fill-opacity="0.05"
      />
      <rect
        x="27"
        y="56"
        width="23"
        height="23"
        rx="8"
        fill="#C4C4C4"
        fill-opacity="0.05"
      />
      <rect
        x="54"
        y="27"
        width="23"
        height="24"
        rx="8"
        fill="#C4C4C4"
        fill-opacity="0.05"
      />
      <rect
        x="54"
        width="23"
        height="23"
        rx="8"
        fill="#C4C4C4"
        fill-opacity="0.05"
      />
      <rect
        x="54"
        y="56"
        width="23"
        height="23"
        rx="8"
        fill="#C4C4C4"
        fill-opacity="0.05"
      />
      <rect
        x="81"
        y="27"
        width="23"
        height="24"
        rx="8"
        fill="#C4C4C4"
        fill-opacity="0.05"
      />
      <rect
        x="81"
        width="23"
        height="23"
        rx="8"
        fill="#C4C4C4"
        fill-opacity="0.05"
      />
      <rect
        x="81"
        y="56"
        width="23"
        height="23"
        rx="8"
        fill="#C4C4C4"
        fill-opacity="0.05"
      />
      <rect
        x="108"
        y="27"
        width="23"
        height="24"
        rx="8"
        fill="#C4C4C4"
        fill-opacity="0.05"
      />
      <rect
        x="108"
        width="23"
        height="23"
        rx="8"
        fill="#C4C4C4"
        fill-opacity="0.05"
      />
      <rect
        x="108"
        y="56"
        width="23"
        height="23"
        rx="8"
        fill="#C4C4C4"
        fill-opacity="0.05"
      />
      <rect
        x="135"
        y="27"
        width="23"
        height="24"
        rx="8"
        fill="#C4C4C4"
        fill-opacity="0.05"
      />
      <rect
        x="135"
        width="23"
        height="23"
        rx="8"
        fill="#C4C4C4"
        fill-opacity="0.05"
      />
      <rect
        x="135"
        y="56"
        width="23"
        height="23"
        rx="8"
        fill="#C4C4C4"
        fill-opacity="0.05"
      />
      <rect
        x="162"
        y="27"
        width="23"
        height="24"
        rx="8"
        fill="#C4C4C4"
        fill-opacity="0.05"
      />
      <rect
        x="162"
        width="23"
        height="23"
        rx="8"
        fill="#C4C4C4"
        fill-opacity="0.05"
      />
      <rect
        x="162"
        y="56"
        width="23"
        height="23"
        rx="8"
        fill="#C4C4C4"
        fill-opacity="0.05"
      />
      <rect
        x="189"
        y="27"
        width="23"
        height="24"
        rx="8"
        fill="#C4C4C4"
        fill-opacity="0.05"
      />
      <rect
        x="189"
        width="23"
        height="23"
        rx="8"
        fill="#C4C4C4"
        fill-opacity="0.05"
      />
      <rect
        x="189"
        y="56"
        width="23"
        height="23"
        rx="8"
        fill="#C4C4C4"
        fill-opacity="0.05"
      />
      <rect
        x="216"
        y="27"
        width="23"
        height="24"
        rx="8"
        fill="#C4C4C4"
        fill-opacity="0.05"
      />
      <rect
        x="216"
        width="23"
        height="23"
        rx="8"
        fill="#C4C4C4"
        fill-opacity="0.05"
      />
      <rect
        x="216"
        y="56"
        width="23"
        height="23"
        rx="8"
        fill="#C4C4C4"
        fill-opacity="0.05"
      />
      <rect
        x="243"
        y="27"
        width="23"
        height="24"
        rx="8"
        fill="#C4C4C4"
        fill-opacity="0.05"
      />
      <rect
        x="243"
        width="23"
        height="23"
        rx="8"
        fill="#C4C4C4"
        fill-opacity="0.05"
      />
      <rect
        x="243"
        y="56"
        width="23"
        height="23"
        rx="8"
        fill="#C4C4C4"
        fill-opacity="0.05"
      />
    </svg>