<svg
      width="453"
      height="352"
      viewBox="0 0 453 352"
      fill="none"
      xmlns="http://www.w3.org/2000/svg"
    >
      <path
        opacity="0.6"
        d="M349.874 185.533C343.704 174.845 329.799 169.569 311.695 170.178C293.664 170.785 271.881 177.245 250.675 189.489C229.468 201.733 212.982 217.367 203.441 232.679C193.861 248.053 191.478 262.733 197.648 273.421C203.819 284.108 217.723 289.384 235.827 288.775C253.858 288.168 275.641 281.708 296.848 269.464C318.055 257.22 334.541 241.586 344.082 226.274C353.662 210.9 356.045 196.22 349.874 185.533Z"
        fill="url(#paint0_linear_1201_134)"
        stroke="url(#paint1_linear_1201_134)"
        stroke-width="3"
      />
      <path
        opacity="0.6"
        d="M329.678 212.347C325.256 204.689 316.216 200.409 304.802 199.964C293.412 199.521 279.89 202.929 266.991 210.377C254.092 217.824 244.38 227.83 239.068 237.916C233.746 248.022 232.933 257.992 237.355 265.65C241.776 273.309 250.817 277.589 262.23 278.033C273.621 278.476 287.142 275.068 300.041 267.621C312.94 260.173 322.653 250.168 327.964 240.082C333.286 229.975 334.099 220.006 329.678 212.347Z"
        fill="url(#paint2_linear_1201_134)"
        stroke="url(#paint3_linear_1201_134)"
        stroke-width="3"
      />
      <path
        d="M380.84 152.247C371.294 135.712 349.824 127.612 322.014 128.548C294.301 129.48 260.844 139.407 228.285 158.205C195.726 177.003 170.401 201.014 155.737 224.548C141.021 248.164 137.302 270.808 146.848 287.342C156.394 303.877 177.864 311.977 205.674 311.042C233.387 310.109 266.844 300.182 299.403 281.384C331.962 262.586 357.287 238.575 371.951 215.042C386.667 191.425 390.387 168.782 380.84 152.247Z"
        stroke="url(#paint4_linear_1201_134)"
        stroke-width="4"
      />
      <path
        opacity="0.6"
        d="M409.933 149.219C428.082 190.703 396.969 247.313 333.877 290.526"
        stroke="url(#paint5_linear_1201_134)"
        stroke-width="8"
        stroke-linecap="round"
        stroke-linejoin="round"
      />
      <path
        opacity="0.6"
        d="M170.964 177.308C170.964 177.308 125.999 222.807 115.937 246.265C107.855 265.108 107.219 283.807 115.888 298.823C121.741 308.961 131.169 316.265 142.942 320.686"
        stroke="url(#paint6_linear_1201_134)"
        stroke-width="7"
        stroke-linecap="round"
        stroke-linejoin="round"
      />
      <g filter="url(#filter0_f_1201_134)">
        <path
          d="M351.5 180.403C356.71 193.403 363.997 236.754 295.999 271.829C228 306.903 203.17 282.764 191.5 271.829C158.5 240.904 8 89.9043 8 89.9043L308 89.9033C308 89.9033 343.729 161.013 351.5 180.403Z"
          fill="url(#paint7_linear_1201_134)"
        />
      </g>
      <path
        d="M235.16 163.631C258.717 152.747 283.281 151.852 296.173 166.316C296.283 166.44 296.376 166.578 296.452 166.726C297.178 168.158 301.215 176.121 302.432 178.753C312.147 199.781 296.921 227.951 269.484 240.627C242.047 253.304 219.854 242.942 214.657 238.271C210.665 234.682 204.114 225.404 202.864 223.613C202.723 223.411 202.624 223.19 202.569 222.951C197.995 203.011 210.44 175.052 235.16 163.631Z"
        fill="#00C6A2"
        stroke="black"
        stroke-linejoin="bevel"
      />
      <ellipse
        cx="247.923"
        cy="192.657"
        rx="41.9425"
        ry="54.7258"
        transform="rotate(-114.798 247.923 192.657)"
        fill="#5BFAB7"
        stroke="black"
        stroke-linejoin="bevel"
      />
      <ellipse
        cx="247.925"
        cy="192.657"
        rx="35.3162"
        ry="46.0799"
        transform="rotate(-114.798 247.925 192.657)"
        fill="#163C3F"
        stroke="black"
        stroke-linejoin="bevel"
      />
      <line
        x1="222.8"
        y1="242.748"
        x2="216.068"
        y2="233.108"
        stroke="black"
        stroke-linecap="round"
      />
      <line
        x1="232.283"
        y1="245.702"
        x2="225.551"
        y2="236.061"
        stroke="black"
        stroke-linecap="round"
      />
      <line
        x1="301.929"
        y1="207.575"
        x2="297.283"
        y2="200.307"
        stroke="black"
        stroke-linecap="round"
      />
      <line
        x1="253.576"
        y1="245.677"
        x2="246.844"
        y2="236.036"
        stroke="black"
        stroke-linecap="round"
      />
      <line
        x1="304.251"
        y1="201.644"
        x2="299.605"
        y2="194.376"
        stroke="black"
        stroke-linecap="round"
      />
      <path
        fill-rule="evenodd"
        clip-rule="evenodd"
        d="M226.493 187.916L213.812 204.647L258.399 214.202L252.384 196.862C252.524 196.847 252.668 196.832 252.816 196.816C257.263 196.344 264.963 195.527 270.785 187.308C272.468 184.931 272.592 182.42 271.737 180.236L247.965 188.78L243.365 182.765L226.493 187.916ZM229.643 183.759L244.586 179.197L249.186 185.212L270.199 177.708C268.596 175.839 266.226 174.511 263.707 174.215L239.29 171.03L229.643 183.759Z"
        fill="#5BFAB7"
      />
      <path
        d="M213.812 204.647L213.414 204.345L213.707 205.136L213.812 204.647ZM226.493 187.916L226.347 187.438L226.094 187.614L226.493 187.916ZM258.399 214.202L258.295 214.691L258.872 214.038L258.399 214.202ZM252.384 196.862L252.33 196.365L251.911 197.026L252.384 196.862ZM252.816 196.816L252.869 197.313L252.869 197.313L252.816 196.816ZM270.785 187.308L270.377 187.019L270.785 187.308ZM271.737 180.236L272.203 180.054L271.568 179.766L271.737 180.236ZM247.965 188.78L247.568 189.084L248.134 189.251L247.965 188.78ZM243.365 182.765L243.762 182.461L243.219 182.286L243.365 182.765ZM229.643 183.759L229.245 183.457L229.789 184.237L229.643 183.759ZM244.586 179.197L244.983 178.893L244.44 178.718L244.586 179.197ZM249.186 185.212L248.789 185.516L249.354 185.683L249.186 185.212ZM270.199 177.708L270.367 178.179L270.578 177.382L270.199 177.708ZM263.707 174.215L263.643 174.71L263.649 174.711L263.707 174.215ZM239.29 171.03L239.355 170.534L238.892 170.728L239.29 171.03ZM214.21 204.949L226.891 188.218L226.094 187.614L213.414 204.345L214.21 204.949ZM258.504 213.713L213.917 204.158L213.707 205.136L258.295 214.691L258.504 213.713ZM251.911 197.026L257.927 214.366L258.872 214.038L252.856 196.698L251.911 197.026ZM252.764 196.319C252.616 196.334 252.471 196.35 252.33 196.365L252.437 197.359C252.577 197.344 252.721 197.329 252.869 197.313L252.764 196.319ZM270.377 187.019C264.69 195.047 257.191 195.849 252.764 196.319L252.869 197.313C257.334 196.839 265.236 196.007 271.193 187.597L270.377 187.019ZM271.271 180.419C272.068 182.453 271.959 184.785 270.377 187.019L271.193 187.597C272.978 185.077 273.116 182.388 272.203 180.054L271.271 180.419ZM271.568 179.766L247.796 188.31L248.134 189.251L271.906 180.707L271.568 179.766ZM248.362 188.477L243.762 182.461L242.968 183.068L247.568 189.084L248.362 188.477ZM243.219 182.286L226.347 187.438L226.639 188.394L243.511 183.243L243.219 182.286ZM229.789 184.237L244.732 179.675L244.44 178.718L229.497 183.28L229.789 184.237ZM244.188 179.5L248.789 185.516L249.583 184.909L244.983 178.893L244.188 179.5ZM249.354 185.683L270.367 178.179L270.031 177.237L249.018 184.741L249.354 185.683ZM263.649 174.711C266.037 174.992 268.294 176.255 269.819 178.033L270.578 177.382C268.898 175.423 266.416 174.03 263.766 173.718L263.649 174.711ZM239.226 171.526L263.643 174.71L263.772 173.719L239.355 170.534L239.226 171.526ZM230.042 184.061L239.689 171.332L238.892 170.728L229.245 183.457L230.042 184.061Z"
        fill="black"
      />
      <path
        d="M286.613 175.008L269.745 172.361L281.343 186.122L286.613 175.008Z"
        fill="#5BFAB7"
        stroke="black"
        stroke-linejoin="bevel"
      />
      <defs>
        <filter
          id="filter0_f_1201_134"
          x="0"
          y="81.9033"
          width="362.67"
          height="216.239"
          filterUnits="userSpaceOnUse"
          color-interpolation-filters="sRGB"
        >
          <feFlood flood-opacity="0" result="BackgroundImageFix" />
          <feBlend
            mode="normal"
            in="SourceGraphic"
            in2="BackgroundImageFix"
            result="shape"
          />
          <feGaussianBlur
            stdDeviation="4"
            result="effect1_foregroundBlur_1201_134"
          />
        </filter>
        <linearGradient
          id="paint0_linear_1201_134"
          x1="220.698"
          y1="205.064"
          x2="272.525"
          y2="294.831"
          gradientUnits="userSpaceOnUse"
        >
          <stop stop-color="#0054B9" />
          <stop offset="1" stop-color="#0054B9" stop-opacity="0" />
        </linearGradient>
        <linearGradient
          id="paint1_linear_1201_134"
          x1="297.598"
          y1="270.763"
          x2="249.925"
          y2="188.19"
          gradientUnits="userSpaceOnUse"
        >
          <stop stop-color="#3AFFF2" />
          <stop offset="1" stop-color="#3AFFF2" stop-opacity="0" />
        </linearGradient>
        <linearGradient
          id="paint2_linear_1201_134"
          x1="248.322"
          y1="219.423"
          x2="285.882"
          y2="284.479"
          gradientUnits="userSpaceOnUse"
        >
          <stop stop-color="#00B9AE" />
          <stop offset="1" stop-color="#0054B9" stop-opacity="0" />
        </linearGradient>
        <linearGradient
          id="paint3_linear_1201_134"
          x1="300.791"
          y1="268.92"
          x2="266.241"
          y2="209.078"
          gradientUnits="userSpaceOnUse"
        >
          <stop stop-color="#3AFFF2" />
          <stop offset="1" stop-color="#3AFFF2" stop-opacity="0" />
        </linearGradient>
        <linearGradient
          id="paint4_linear_1201_134"
          x1="300.403"
          y1="283.116"
          x2="227.285"
          y2="156.473"
          gradientUnits="userSpaceOnUse"
        >
          <stop stop-color="#00FFEE" />
          <stop offset="1" stop-color="#3AFFF2" stop-opacity="0" />
        </linearGradient>
        <linearGradient
          id="paint5_linear_1201_134"
          x1="332.973"
          y1="289.062"
          x2="265.639"
          y2="172.436"
          gradientUnits="userSpaceOnUse"
        >
          <stop stop-color="#3AFFF2" />
          <stop offset="1" stop-color="#3AFFF2" stop-opacity="0" />
        </linearGradient>
        <linearGradient
          id="paint6_linear_1201_134"
          x1="247.646"
          y1="304.137"
          x2="177.165"
          y2="182.061"
          gradientUnits="userSpaceOnUse"
        >
          <stop stop-color="#3AFFF2" />
          <stop offset="1" stop-color="#3AFFF2" stop-opacity="0" />
        </linearGradient>
        <linearGradient
          id="paint7_linear_1201_134"
          x1="274.347"
          y1="299.773"
          x2="192.527"
          y2="158.972"
          gradientUnits="userSpaceOnUse"
        >
          <stop offset="0.0677083" stop-color="#00FFC2" />
          <stop offset="1" stop-color="#003EDE" stop-opacity="0" />
        </linearGradient>
      </defs>
    </svg>