<svg
      
      width="14"
      height="16"
      viewBox="0 0 14 16"
      fill="none"
      xmlns="http://www.w3.org/2000/svg"
    >
      <path
        fill-rule="evenodd"
        clip-rule="evenodd"
        d="M1.65065 4.85957C2.37535 2.68546 4.74661 1.49901 7.05386 1.33262C8.19303 1.25047 9.21539 1.42951 9.90117 1.79064C10.5636 2.13946 10.8438 2.60393 10.7849 3.17821C10.639 4.6006 9.30253 5.61703 7.67232 6.14548C6.88444 6.40089 6.10536 6.5126 5.51626 6.50145C5.21916 6.49583 5.00064 6.45943 4.86346 6.41362C4.83148 6.40294 4.80837 6.39338 4.79227 6.38581C4.74559 6.23598 4.77513 6.06703 4.98237 5.83106C5.23557 5.54275 5.69194 5.2488 6.28436 5.01722C6.86695 4.78948 7.52426 4.64451 8.1266 4.61452C8.53065 4.59441 8.99127 4.57806 9.28093 4.74575C9.28093 4.74575 9.65607 4.6574 10.0312 4.18304C10.4063 3.70868 10.1726 3.70868 10.1726 3.70868C9.57126 3.36056 8.79795 3.26648 8.06132 3.30316C7.30964 3.34058 6.51327 3.51799 5.80632 3.79434C5.1092 4.06686 4.44015 4.45872 3.99582 4.96465C3.53365 5.49091 3.2702 6.21206 3.61787 6.98464C3.79326 7.37438 4.16275 7.56389 4.44759 7.65901C4.75488 7.76162 5.11729 7.80713 5.49141 7.81421C6.24476 7.82847 7.16934 7.68878 8.0772 7.39449C9.83849 6.82355 11.8618 5.5474 12.0911 3.31218C12.2197 2.05765 11.5035 1.15052 10.5129 0.628889C9.54576 0.119574 8.25866 -0.0706614 6.95942 0.0230334C4.38985 0.208338 1.36846 1.55409 0.405034 4.44437C-0.334768 6.66377 0.0371044 9.02169 0.733916 11.0182C1.43322 13.0219 2.48648 14.7398 3.21931 15.7332C3.43456 16.025 3.84557 16.087 4.13734 15.8718C4.42911 15.6565 4.49115 15.2455 4.27591 14.9537C3.60197 14.0402 2.62009 12.438 1.97358 10.5856C1.32457 8.72602 1.03994 6.69167 1.65065 4.85957ZM4.76067 6.3681C4.76067 6.3681 4.76174 6.36875 4.7635 6.37022C4.76149 6.36886 4.76067 6.3681 4.76067 6.3681ZM11.6699 5.59419C12.072 5.82875 12.4366 6.29262 12.5149 6.88438C12.5901 7.45371 12.4119 8.24773 11.5275 9.16756C10.5286 10.2064 8.9539 10.6103 7.45108 10.6664C6.71258 10.694 6.02498 10.6358 5.49011 10.5448C5.22252 10.4993 5.00094 10.4469 4.83537 10.3963C4.68573 10.3505 4.61711 10.3166 4.60113 10.3087C4.59745 10.3069 4.59656 10.3065 4.59811 10.3076C4.30308 10.0968 3.89306 10.1652 3.68232 10.4602C3.47158 10.7552 3.53992 11.1653 3.83495 11.376C4.00738 11.4992 4.23899 11.5869 4.45128 11.6518C4.6821 11.7224 4.96022 11.7865 5.27 11.8392C5.88985 11.9446 6.66765 12.0095 7.50004 11.9785C9.13902 11.9173 11.1281 11.4772 12.4739 10.0776C13.5707 8.93693 13.9552 7.76146 13.8165 6.71231C13.6808 5.68559 13.0548 4.88198 12.3315 4.46005L11.6699 5.59419Z"
        fill="currentColor"
      />
    </svg>