
<svg width="91" height="30" viewBox="0 0 91 30" fill="none" xmlns="http://www.w3.org/2000/svg">
<rect width="91" height="30" rx="6" fill="url(#paint0_linear_17896_1432)"/>
<path opacity="0.1" fill-rule="evenodd" clip-rule="evenodd" d="M30.0632 3.00009C30.7167 2.99445 31.3437 3.26321 31.7972 3.74337L39.833 12.2497C40.7457 13.2159 40.7183 14.7545 39.7717 15.6862C38.8252 16.6179 37.3179 16.5899 36.4051 15.6237L32.4643 11.4521V24.5696C32.4643 25.9119 31.3983 27 30.0833 27C28.7684 27 27.7024 25.9119 27.7024 24.5696V11.6018L15.4559 25.0116C15.0105 25.4994 14.3883 25.7789 13.7352 25.7847C13.082 25.7906 12.4551 25.5222 12.0014 25.0426L3.66809 16.2324C2.75473 15.2668 2.78117 13.7282 3.72716 12.7959C4.67314 11.8636 6.18045 11.8906 7.09381 12.8562L11.3333 17.3383V6.34177C11.3333 4.99951 12.3993 3.91139 13.7143 3.91139C15.0293 3.91139 16.0952 4.99951 16.0952 6.34177V17.183L28.3417 3.77316C28.7873 3.28525 29.4098 3.00572 30.0632 3.00009Z" fill="white"/>
<path fill-rule="evenodd" clip-rule="evenodd" d="M61.6053 10.786V18.8026L65.9474 15.7398L66.3816 16.0993L62.7404 20.941C61.3876 22.1127 59 21.3199 59 19.6989V9.80103C59 8.12449 61.5273 7.36084 62.8317 8.64323L72.8947 18.5366V10.849L68.9868 13.5829L68.5526 13.2234L71.6496 8.70381C72.9422 7.39767 75.5 8.15441 75.5 9.84299V19.5216C75.5 21.1982 72.9727 21.9618 71.6683 20.6794L61.6053 10.786Z" fill="white"/>
<path d="M27.506 17.312V17.284C27.506 15.968 26.806 15.31 25.672 14.876C26.372 14.484 26.96 13.868 26.96 12.762V12.734C26.96 11.194 25.728 10.2 23.726 10.2H19.176V20H23.838C26.05 20 27.506 19.104 27.506 17.312ZM24.818 13.126C24.818 13.854 24.216 14.162 23.264 14.162H21.276V12.09H23.404C24.314 12.09 24.818 12.454 24.818 13.098V13.126ZM25.364 17.046C25.364 17.774 24.79 18.11 23.838 18.11H21.276V15.954H23.768C24.874 15.954 25.364 16.36 25.364 17.018V17.046ZM37.6655 15.73V10.2H35.5095V15.814C35.5095 17.368 34.7115 18.166 33.3955 18.166C32.0795 18.166 31.2815 17.34 31.2815 15.744V10.2H29.1255V15.8C29.1255 18.684 30.7355 20.154 33.3675 20.154C35.9995 20.154 37.6655 18.698 37.6655 15.73ZM48.5415 10.2H46.0915L43.7115 14.134L41.3735 10.2H38.8535L42.6195 16.136V20H44.7755V16.094L48.5415 10.2Z" fill="white"/>
<defs>
<linearGradient id="paint0_linear_17896_1432" x1="86.9853" y1="15" x2="2.80613e-07" y2="15" gradientUnits="userSpaceOnUse">
<stop stop-color="#00C6A2"/>
<stop offset="1" stop-color="#0E57D7"/>
</linearGradient>
</defs>
</svg>
