<svg
      width="58"
      height="20"
      viewBox="0 0 58 20"
      fill="none"
      xmlns="http://www.w3.org/2000/svg"
    >
      <rect
        width="58"
        height="20"
        rx="6"
        fill="url(#paint0_linear_17896_1382)"
      />
      <path
        opacity="0.1"
        fill-rule="evenodd"
        clip-rule="evenodd"
        d="M20.0421 2.00006C20.4778 1.9963 20.8958 2.17547 21.1982 2.49558L26.5553 8.16646C27.1638 8.81061 27.1455 9.83633 26.5145 10.4575C25.8835 11.0786 24.8786 11.06 24.2701 10.4158L21.6429 7.63472V16.3797C21.6429 17.2746 20.9322 18 20.0556 18C19.1789 18 18.4683 17.2746 18.4683 16.3797V7.73451L10.3039 16.6744C10.007 16.9996 9.59222 17.1859 9.15677 17.1898C8.72132 17.1937 8.30342 17.0148 8.00095 16.695L2.4454 10.8216C1.83648 10.1779 1.85411 9.15214 2.48477 8.53059C3.11543 7.90904 4.1203 7.92703 4.72921 8.57078L7.55556 11.5588V4.22785C7.55556 3.33301 8.26622 2.6076 9.14286 2.6076C10.0195 2.6076 10.7302 3.33301 10.7302 4.22785V11.4554L18.8945 2.51544C19.1916 2.19017 19.6065 2.00381 20.0421 2.00006Z"
        fill="white"
      />
      <path
        fill-rule="evenodd"
        clip-rule="evenodd"
        d="M40.7368 7.85734V13.2017L43.6316 11.1599L43.9211 11.3995L41.4936 14.6273C40.5917 15.4085 39 14.8799 39 13.7993V7.20068C39 6.08299 40.6849 5.57389 41.5545 6.42882L48.2632 13.0244V7.8993L45.6579 9.7219L45.3684 9.48224L47.4331 6.46921C48.2948 5.59845 50 6.10294 50 7.22866V13.6811C50 14.7988 48.3151 15.3079 47.4455 14.4529L40.7368 7.85734Z"
        fill="white"
      />
      <path
        d="M16.148 12.696V12.672C16.148 11.544 15.548 10.98 14.576 10.608C15.176 10.272 15.68 9.744 15.68 8.796V8.772C15.68 7.452 14.624 6.6 12.908 6.6H9.008V15H13.004C14.9 15 16.148 14.232 16.148 12.696ZM13.844 9.108C13.844 9.732 13.328 9.996 12.512 9.996H10.808V8.22H12.632C13.412 8.22 13.844 8.532 13.844 9.084V9.108ZM14.312 12.468C14.312 13.092 13.82 13.38 13.004 13.38H10.808V11.532H12.944C13.892 11.532 14.312 11.88 14.312 12.444V12.468ZM24.8562 11.34V6.6H23.0082V11.412C23.0082 12.744 22.3242 13.428 21.1962 13.428C20.0682 13.428 19.3842 12.72 19.3842 11.352V6.6H17.5362V11.4C17.5362 13.872 18.9162 15.132 21.1722 15.132C23.4282 15.132 24.8562 13.884 24.8562 11.34ZM34.1785 6.6H32.0785L30.0385 9.972L28.0345 6.6H25.8745L29.1025 11.688V15H30.9505V11.652L34.1785 6.6Z"
        fill="white"
      />
      <defs>
        <linearGradient
          id="paint0_linear_17896_1382"
          x1="55.4412"
          y1="10"
          x2="1.78852e-07"
          y2="10"
          gradientUnits="userSpaceOnUse"
        >
          <stop stop-color="#00C6A2" />
          <stop offset="1" stop-color="#0E57D7" />
        </linearGradient>
      </defs>
    </svg>