<svg
      
      width="56"
      height="26"
      viewBox="0 0 56 26"
      fill="none"
      xmlns="http://www.w3.org/2000/svg"
    >
      <rect
        opacity="0.8"
        width="56"
        height="26"
        rx="13"
        fill="url(#paint0_linear_4274_15)"
        fill-opacity="0.9"
      />
      <path
        opacity="0.1"
        fill-rule="evenodd"
        clip-rule="evenodd"
        d="M36.259 2.00008C36.8689 1.99491 37.4541 2.24127 37.8774 2.68142L45.3774 10.4789C46.2293 11.3646 46.2038 12.775 45.3203 13.629C44.4368 14.4831 43.03 14.4574 42.1781 13.5717L38.5 9.74774V21.7722C38.5 23.0026 37.5051 24 36.2778 24C35.0505 24 34.0556 23.0026 34.0556 21.7722V9.88495L22.6255 22.1773C22.2098 22.6244 21.6291 22.8806 21.0195 22.886C20.4098 22.8913 19.8248 22.6454 19.4013 22.2057L11.6236 14.1297C10.7711 13.2446 10.7958 11.8342 11.6787 10.9796C12.5616 10.1249 13.9684 10.1497 14.8209 11.0348L18.7778 15.1434V5.06329C18.7778 3.83288 19.7727 2.83544 21 2.83544C22.2273 2.83544 23.2222 3.83288 23.2222 5.06329V15.0011L34.6523 2.70873C35.0682 2.26148 35.6491 2.00524 36.259 2.00008Z"
        fill="white"
        fill-opacity="0.9"
      />
      <path
        fill-rule="evenodd"
        clip-rule="evenodd"
        d="M38.7368 9.85734V15.2017L41.6316 13.1599L41.9211 13.3995L39.4936 16.6273C38.5917 17.4085 37 16.8799 37 15.7993V9.20068C37 8.08299 38.6849 7.57389 39.5545 8.42882L46.2632 15.0244V9.8993L43.6579 11.7219L43.3684 11.4822L45.4331 8.46921C46.2948 7.59845 48 8.10294 48 9.22866V15.6811C48 16.7988 46.3151 17.3079 45.4455 16.4529L38.7368 9.85734Z"
        fill="white"
      />
      <path
        d="M15.148 14.696V14.672C15.148 14.112 15.008 13.676 14.728 13.364C14.448 13.044 14.064 12.792 13.576 12.608C13.728 12.528 13.868 12.432 13.996 12.32C14.132 12.208 14.248 12.08 14.344 11.936C14.448 11.784 14.528 11.616 14.584 11.432C14.648 11.248 14.68 11.036 14.68 10.796V10.772C14.68 10.108 14.432 9.58 13.936 9.188C13.448 8.796 12.772 8.6 11.908 8.6H8.008V17H12.004C12.476 17 12.904 16.952 13.288 16.856C13.68 16.76 14.012 16.616 14.284 16.424C14.564 16.232 14.776 15.992 14.92 15.704C15.072 15.416 15.148 15.08 15.148 14.696ZM12.844 11.108C12.844 11.42 12.724 11.648 12.484 11.792C12.244 11.928 11.92 11.996 11.512 11.996H9.808V10.22H11.632C12.024 10.22 12.324 10.296 12.532 10.448C12.74 10.592 12.844 10.804 12.844 11.084V11.108ZM13.312 14.468C13.312 14.78 13.196 15.012 12.964 15.164C12.732 15.308 12.412 15.38 12.004 15.38H9.808V13.532H11.944C12.424 13.532 12.772 13.616 12.988 13.784C13.204 13.944 13.312 14.164 13.312 14.444V14.468ZM23.8562 13.34V8.6H22.0082V13.412C22.0082 14.084 21.8482 14.588 21.5282 14.924C21.2082 15.26 20.7642 15.428 20.1962 15.428C19.6282 15.428 19.1842 15.256 18.8642 14.912C18.5442 14.56 18.3842 14.04 18.3842 13.352V8.6H16.5362V13.4C16.5362 14.64 16.8602 15.572 17.5082 16.196C18.1562 16.82 19.0442 17.132 20.1722 17.132C20.7322 17.132 21.2402 17.056 21.6962 16.904C22.1522 16.744 22.5402 16.508 22.8602 16.196C23.1802 15.876 23.4242 15.48 23.5922 15.008C23.7682 14.536 23.8562 13.98 23.8562 13.34ZM33.1785 8.6H31.0785L29.0385 11.972L27.0345 8.6H24.8745L28.1025 13.688V17H29.9505V13.652L33.1785 8.6Z"
        fill="white"
      />
      <defs>
        <linearGradient
          id="paint0_linear_4274_15"
          x1="53.5294"
          y1="13"
          x2="1.72685e-07"
          y2="13"
          gradientUnits="userSpaceOnUse"
        >
          <stop stop-color="#00C6A2" />
          <stop offset="1" stop-color="#0E57D7" />
        </linearGradient>
      </defs>
    </svg>