<svg
      width="16"
      height="16"
      viewBox="0 0 16 16"
      fill="none"
      xmlns="http://www.w3.org/2000/svg"
    >
      <path
        d="M5.6213 3.24316H4.66995V4.67019H3.24292V5.62154H4.66995V7.04857H5.6213V5.62154H7.04833V4.67019H5.6213V3.24316ZM6.15406 9.17008L5.14562 10.1833L4.13719 9.17008L3.46173 9.84554L4.47492 10.854L3.46173 11.8624L4.13719 12.5379L5.14562 11.5247L6.15406 12.5379L6.82951 11.8624L5.81633 10.854L6.82951 9.84554L6.15406 9.17008ZM8.95103 4.67019H12.7564V5.62154H8.95103V4.67019ZM8.95103 10.3783H12.7564V11.3297H8.95103V10.3783Z"
        fill="#00C6A2"
      />
      <path
        d="M10.3782 12.2813C10.3782 12.4075 10.4283 12.5285 10.5175 12.6177C10.6067 12.7069 10.7277 12.757 10.8539 12.757C10.98 12.757 11.101 12.7069 11.1902 12.6177C11.2794 12.5285 11.3295 12.4075 11.3295 12.2813C11.3295 12.1552 11.2794 12.0342 11.1902 11.945C11.101 11.8558 10.98 11.8057 10.8539 11.8057C10.7277 11.8057 10.6067 11.8558 10.5175 11.945C10.4283 12.0342 10.3782 12.1552 10.3782 12.2813Z"
        fill="#00C6A2"
      />
      <path
        d="M10.3782 9.42685C10.3782 9.553 10.4283 9.67399 10.5175 9.7632C10.6067 9.85241 10.7277 9.90252 10.8539 9.90252C10.98 9.90252 11.101 9.85241 11.1902 9.7632C11.2794 9.67399 11.3295 9.553 11.3295 9.42685C11.3295 9.30069 11.2794 9.1797 11.1902 9.09049C11.101 9.00129 10.98 8.95117 10.8539 8.95117C10.7277 8.95117 10.6067 9.00129 10.5175 9.09049C10.4283 9.1797 10.3782 9.30069 10.3782 9.42685Z"
        fill="#00C6A2"
      />
      <path
        fill-rule="evenodd"
        clip-rule="evenodd"
        d="M0 3.24324C0 1.45205 1.45205 0 3.24324 0H12.7568C14.548 0 16 1.45205 16 3.24324V12.7568C16 14.548 14.548 16 12.7568 16H3.24324C1.45205 16 0 14.548 0 12.7568V3.24324ZM3.24324 1.2973C2.16853 1.2973 1.2973 2.16853 1.2973 3.24324V12.7568C1.2973 13.8315 2.16853 14.7027 3.24324 14.7027H12.7568C13.8315 14.7027 14.7027 13.8315 14.7027 12.7568V3.24324C14.7027 2.16853 13.8315 1.2973 12.7568 1.2973H3.24324Z"
        fill="#00C6A2"
      />
    </svg>