<svg
      
      width="22"
      height="22"
      viewBox="0 0 22 22"
      fill="none"
      xmlns="http://www.w3.org/2000/svg"
    >
      <circle cx="11" cy="11" r="11" fill="#061824" />
      <circle cx="11" cy="11" r="10.5" stroke="white" stroke-opacity="0.3" />
      <path
        fill-rule="evenodd"
        clip-rule="evenodd"
        d="M6.91679 13.5212C6.51406 13.924 6.51406 14.5769 6.91679 14.9796C7.31952 15.3824 7.97247 15.3824 8.3752 14.9796L11.2921 12.0627L14.2091 14.9796C14.6118 15.3824 15.2648 15.3824 15.6675 14.9796C16.0702 14.5769 16.0702 13.924 15.6675 13.5212L12.7505 10.6043L15.6672 7.68759C16.07 7.28487 16.07 6.63191 15.6672 6.22919C15.2645 5.82646 14.6116 5.82646 14.2088 6.22919L11.2921 9.14587L8.37545 6.22919C7.97272 5.82646 7.31977 5.82646 6.91705 6.22919C6.51432 6.63191 6.51432 7.28487 6.91705 7.68759L9.83373 10.6043L6.91679 13.5212Z"
        fill="#7E8A93"
      />
    </svg>