<svg
      
      width="12"
      height="14"
      viewBox="0 0 12 14"
      fill="none"
      xmlns="http://www.w3.org/2000/svg"
    >
      <path
        d="M8.73379 10.6034C8.44615 10.6034 8.21339 10.8364 8.21339 11.1237V11.5311C8.21339 11.7781 8.01265 11.979 7.76568 11.979H1.489C1.24201 11.979 1.04077 11.778 1.04077 11.5311V5.25437C1.04077 5.00738 1.24202 4.80666 1.489 4.80666H1.85033C2.13797 4.80666 2.37072 4.57365 2.37072 4.28626C2.37072 3.99887 2.13797 3.76587 1.85033 3.76587H1.489C0.667753 3.76587 0 4.43364 0 5.25436V11.5311C0 12.352 0.667767 13.0198 1.489 13.0198H7.76569C8.58643 13.0198 9.25418 12.352 9.25418 11.5311V11.1237C9.25418 10.8364 9.02143 10.6034 8.73379 10.6034Z"
        fill="currentColor"
      />
      <path
        d="M10.4391 0.980225H4.30726C3.44638 0.980225 2.74609 1.68051 2.74609 2.54139V8.673C2.74609 9.53388 3.44638 10.2342 4.30726 10.2342H10.4391C11.3 10.2342 12.0003 9.53388 12.0003 8.673V2.54139C12.0003 1.68051 11.3 0.980225 10.4391 0.980225ZM10.9595 8.673C10.9595 8.95988 10.7262 9.19339 10.4391 9.19339H4.30726C4.02013 9.19339 3.78687 8.95988 3.78687 8.673V2.54139C3.78687 2.25451 4.02013 2.021 4.30726 2.021H10.4391C10.7262 2.021 10.9595 2.25451 10.9595 2.54139V8.673Z"
        fill="currentColor"
      />
    </svg>