<svg
      
      width="36"
      height="36"
      viewBox="0 0 36 36"
      fill="none"
      xmlns="http://www.w3.org/2000/svg"
    >
      <path
        d="M36 18C36 27.9411 27.9411 36 18 36C8.05888 36 0 27.9411 0 18C0 8.05888 8.05888 0 18 0C27.9411 0 36 8.05888 36 18Z"
        fill="#11191F"
      />
      <path
        fill-rule="evenodd"
        clip-rule="evenodd"
        d="M18 35.1429C27.4677 35.1429 35.1429 27.4677 35.1429 18C35.1429 8.53226 27.4677 0.857143 18 0.857143C8.53226 0.857143 0.857143 8.53226 0.857143 18C0.857143 27.4677 8.53226 35.1429 18 35.1429ZM18 36C27.9411 36 36 27.9411 36 18C36 8.05888 27.9411 0 18 0C8.05888 0 0 8.05888 0 18C0 27.9411 8.05888 36 18 36Z"
        fill="#575C63"
      />
      <path
        d="M18.4574 23.7142C18.576 23.7142 18.6934 23.7373 18.803 23.7821C18.9126 23.827 19.0122 23.8928 19.0961 23.9757C19.1799 24.0586 19.2465 24.157 19.2919 24.2654C19.3373 24.3737 19.3606 24.4898 19.3606 24.6071V25.6785C19.3606 25.9154 19.2655 26.1425 19.0961 26.3099C18.9267 26.4774 18.6969 26.5714 18.4574 26.5714H17.3735C17.1339 26.5714 16.9042 26.4774 16.7348 26.3099C16.5654 26.1425 16.4702 25.9154 16.4702 25.6785V24.6071C16.4702 24.4898 16.4936 24.3737 16.539 24.2654C16.5843 24.157 16.6509 24.0586 16.7348 23.9757C16.8186 23.8928 16.9182 23.827 17.0278 23.7821C17.1374 23.7373 17.2548 23.7142 17.3735 23.7142H18.4574ZM17.9154 9.43139C19.0784 9.3929 20.2192 9.75195 21.1456 10.448C22.0719 11.1441 22.7272 12.1346 23.0009 13.2526C23.2747 14.3706 23.1501 15.5477 22.6482 16.5854C22.1463 17.6232 21.2979 18.4582 20.2458 18.9497C20.0039 19.0532 19.7944 19.2187 19.6388 19.429C19.4831 19.6393 19.3871 19.8869 19.3606 20.1462V22.1105C19.3606 22.3473 19.2655 22.5745 19.0961 22.7419C18.9267 22.9094 18.6969 23.0034 18.4574 23.0034H17.3735C17.1339 23.0034 16.9042 22.9094 16.7348 22.7419C16.5654 22.5745 16.4702 22.3473 16.4702 22.1105V20.1462C16.469 19.3486 16.6978 18.5672 17.1297 17.8935C17.5617 17.2199 18.1789 16.6818 18.909 16.3424C19.2508 16.1681 19.5396 15.9071 19.7457 15.5861C19.9518 15.2651 20.0678 14.8956 20.0818 14.5156C20.0958 14.1357 20.0072 13.7589 19.8252 13.4239C19.6432 13.0889 19.3744 12.8079 19.0462 12.6095C18.7181 12.4112 18.3425 12.3027 17.9579 12.2953C17.5733 12.2878 17.1937 12.3816 16.8579 12.5671C16.5222 12.7526 16.2424 13.023 16.0473 13.3507C15.8521 13.6783 15.7487 14.0514 15.7476 14.4316V14.5923C15.7476 14.8291 15.6524 15.0563 15.483 15.2237C15.3136 15.3912 15.0839 15.4852 14.8443 15.4852H13.7604C13.6418 15.4852 13.5244 15.4621 13.4148 15.4173C13.3052 15.3724 13.2056 15.3066 13.1217 15.2237C13.0379 15.1408 12.9713 15.0424 12.9259 14.934C12.8805 14.8257 12.8572 14.7096 12.8572 14.5923V14.4316C12.8619 13.1069 13.3964 11.8378 14.344 10.9011C15.2915 9.96441 16.5753 9.4361 17.9154 9.43139Z"
        fill="#73818B"
      />
      <path
        fill-rule="evenodd"
        clip-rule="evenodd"
        d="M32.5713 18C32.5713 26.0476 26.0475 32.5714 17.9999 32.5714C9.95232 32.5714 3.42847 26.0476 3.42847 18C3.42847 9.95244 9.95232 3.42859 17.9999 3.42859C26.0475 3.42859 32.5713 9.95244 32.5713 18ZM17.9999 31.7143C25.5741 31.7143 31.7142 25.5742 31.7142 18C31.7142 10.4258 25.5741 4.28573 17.9999 4.28573C10.4257 4.28573 4.28561 10.4258 4.28561 18C4.28561 25.5742 10.4257 31.7143 17.9999 31.7143Z"
        fill="#73818B"
        fill-opacity="0.5"
      />
    </svg>