<svg
      
      width="9"
      height="9"
      viewBox="0 0 9 9"
      fill="none"
      xmlns="http://www.w3.org/2000/svg"
    >
      <path
        fill-rule="evenodd"
        clip-rule="evenodd"
        d="M6.68575 0.145028C6.22709 -0.128649 5.59615 -0.00362327 5.27652 0.424281L5.07102 0.699388C4.52587 0.481298 3.9422 0.326334 3.33166 0.244898L2.2032 2.06039C2.75877 2.11581 3.29384 2.23188 3.79993 2.40101L0.18186 7.24459C-0.137777 7.67249 -0.025075 8.24124 0.433587 8.51491C0.892249 8.78859 1.52319 8.66357 1.84282 8.23566L5.55022 3.2725C6.04753 3.61612 6.48936 4.02079 6.86163 4.47395C7.18231 4.45644 7.65236 4.44554 7.99996 4.50027C8.26254 4.54161 8.57557 4.63936 8.84757 4.73757C8.5142 3.52628 7.76894 2.45978 6.75213 1.66348L6.93748 1.41535C7.25712 0.987449 7.14441 0.418705 6.68575 0.145028Z"
        fill="#55636F"
      />
      <circle cx="7" cy="7" r="2" fill="#62C440" />
    </svg>