<svg
      width="22"
      height="22"
      viewBox="0 0 22 22"
      fill="none"
      xmlns="http://www.w3.org/2000/svg"
    >
      <rect width="22" height="22" rx="8" fill="#2F3E48" />
      <path
        d="M9.18388 12.1655H6.50055C6.15022 12.1655 5.90855 11.8148 6.03322 11.4877L8.69955 4.48899C8.73562 4.39431 8.79961 4.31281 8.88304 4.25531C8.96646 4.19781 9.06539 4.16701 9.16672 4.16699H13.6661C14.0211 4.16699 14.2631 4.52666 14.1291 4.85549L12.5766 8.66616H15.4992C15.9291 8.66616 16.1584 9.17283 15.8749 9.49583L8.70922 17.6608C8.36088 18.0578 7.71505 17.7138 7.85022 17.2033L9.18388 12.1655Z"
        fill="#7E8A93"
      />
      <path
        d="M9.18388 12.1645H6.50055C6.15022 12.1645 5.90855 11.8138 6.03322 11.4867L8.69955 4.48802C8.73562 4.39333 8.79961 4.31184 8.88304 4.25433C8.96646 4.19683 9.06539 4.16603 9.16672 4.16602H13.6661C14.0211 4.16602 14.2631 4.52568 14.1291 4.85452L12.5766 8.66518H15.4992C15.9291 8.66518 16.1584 9.17185 15.8749 9.49485L8.70922 17.6599C8.36088 18.0568 7.71505 17.7129 7.85022 17.2024L9.18388 12.1645Z"
        fill="#7E8A93"
      />
    </svg>