<svg
      width="211"
      height="194"
      viewBox="0 0 211 194"
      fill="none"
      xmlns="http://www.w3.org/2000/svg"
    >
      <path
        d="M181.829 37.5775C197.923 58.3309 176.788 101.661 134.624 134.357C92.4601 167.053 45.233 176.735 29.1397 155.982C13.0463 135.228 34.1808 91.8986 76.3449 59.2022C118.509 26.5057 165.736 16.824 181.829 37.5775Z"
        fill="#FF00A8"
      />
      <path
        d="M138.621 103.463L101.474 155.081C101.474 155.081 105.468 153.071 108.633 151.263C111.799 149.454 113.884 148.399 113.884 148.399L147.682 111.996C150.266 109.177 149.886 104.751 146.86 102.413C144.294 100.431 140.607 100.901 138.621 103.463Z"
        fill="#9EFF00"
      />
      <circle
        cx="123.671"
        cy="76.9801"
        r="41.4969"
        transform="rotate(-26.5165 123.671 76.9801)"
        fill="#7F43FF"
      />
      <path
        d="M19.093 72.5967C19.093 72.5967 16.3304 73.8511 17.3191 76.1878C18.3079 78.5245 21.0039 77.6149 21.0039 77.6149L103.23 53.5079C106.936 52.4216 108.892 48.3732 107.441 44.7951C106.238 41.8279 102.88 40.3714 99.8915 41.5208L19.093 72.5967Z"
        fill="#9EFF00"
      />
      <path
        d="M10.131 147.354C10.131 147.354 7.73631 149.202 9.22039 151.259C10.7045 153.315 13.1122 151.818 13.1122 151.818L110.58 95.9417C113.936 94.0179 114.918 89.6291 112.702 86.4588C110.861 83.8261 107.258 83.1397 104.578 84.9112L10.131 147.354Z"
        fill="#9EFF00"
      />
      <ellipse
        cx="149.534"
        cy="61.9874"
        rx="15.8251"
        ry="24.6168"
        transform="rotate(-26.5165 149.534 61.9874)"
        fill="black"
      />
      <path
        d="M74.3239 127.502C70.7187 123.402 69.8174 112.125 69.8174 112.125C69.8174 112.125 67.7573 123.402 64.6671 127.502C61.5769 131.603 57.3709 133.91 55.6541 134.551C57.8001 134.978 61.5769 136.985 64.6671 141.599C67.7573 146.212 69.8174 158.899 69.8174 158.899C69.805 158.689 70.4612 148.006 74.3239 141.599C77.0904 137.01 80.5472 135.191 83.3369 134.551C81.4056 133.91 77.9291 131.603 74.3239 127.502Z"
        fill="white"
      />
      <path
        d="M115.487 52.9409C113.634 58.8253 115.488 73.7324 124.383 81.5783"
        stroke="white"
        stroke-width="3"
        stroke-linecap="round"
      />
      <path
        d="M149.208 47.2792C152.441 49.7528 159.286 56.8937 160.811 65.6688"
        stroke="white"
        stroke-width="3"
        stroke-linecap="round"
      />
    </svg>