<svg
      
      width="10"
      height="10"
      viewBox="0 0 10 10"
      fill="none"
      xmlns="http://www.w3.org/2000/svg"
    >
      <path
        d="M8.84781 1.80566C8.64781 1.56445 8.42538 1.34277 8.1844 1.14355C7.32099 0.429688 6.21269 0 5.00489 0C2.24586 0 0.00976562 2.23828 0.00976562 5C0.00976562 6.20898 0.439034 7.31836 1.15318 8.18359C1.3522 8.4248 1.57367 8.64746 1.81464 8.84766C2.67903 9.56738 3.79123 10 5.00489 10C7.76391 10 10 7.76172 10 5C10 3.78516 9.56781 2.67187 8.84781 1.80566V1.80566ZM1.26538 6.58105C1.05367 6.08105 0.946351 5.54883 0.946351 5C0.946351 4.45117 1.05367 3.91895 1.26538 3.41895C1.46928 2.93555 1.76294 2.50098 2.13562 2.12695C2.5083 1.75391 2.94245 1.46094 3.42635 1.25586C3.92489 1.04492 4.45659 0.9375 5.00489 0.9375C5.55318 0.9375 6.08489 1.04492 6.5844 1.25586C6.80391 1.34863 7.01269 1.45996 7.21074 1.58789C7.37659 1.69531 7.40001 1.92969 7.25952 2.07031L2.07806 7.25684C1.93855 7.39648 1.7044 7.37402 1.59611 7.20801C1.4683 7.00977 1.35806 6.80078 1.26538 6.58105V6.58105ZM7.87513 7.87305C7.50245 8.24609 7.0683 8.53906 6.5844 8.74414C6.08489 8.95508 5.55318 9.0625 5.00489 9.0625C4.45659 9.0625 3.92489 8.95508 3.42538 8.74316C3.20196 8.64844 2.9883 8.53516 2.78733 8.40332C2.62245 8.29492 2.59903 8.06152 2.73855 7.92188L7.92391 2.73145C8.06342 2.5918 8.29659 2.61426 8.40489 2.78027C8.53659 2.98242 8.64977 3.19531 8.7444 3.41895C8.95611 3.91895 9.06342 4.45117 9.06342 5C9.06342 5.54883 8.95611 6.08105 8.7444 6.58105C8.5405 7.06445 8.24781 7.49902 7.87513 7.87305Z"
        fill="#73818B"
      />
    </svg>