<svg
      
      width="24"
      height="24"
      viewBox="0 0 24 24"
      fill="none"
      xmlns="http://www.w3.org/2000/svg"
    >
      <path
        d="M12 24C5.3724 24 0 18.6276 0 12C0 5.3724 5.3724 0 12 0C18.6276 0 24 5.3724 24 12C24 18.6276 18.6276 24 12 24ZM12 21.6C14.5461 21.6 16.9879 20.5886 18.7882 18.7882C20.5886 16.9879 21.6 14.5461 21.6 12C21.6 9.45392 20.5886 7.01212 18.7882 5.21177C16.9879 3.41143 14.5461 2.4 12 2.4C9.45392 2.4 7.01212 3.41143 5.21177 5.21177C3.41143 7.01212 2.4 9.45392 2.4 12C2.4 14.5461 3.41143 16.9879 5.21177 18.7882C7.01212 20.5886 9.45392 21.6 12 21.6ZM20.4852 3.5148C20.7102 3.73983 20.8365 4.045 20.8365 4.3632C20.8365 4.6814 20.7102 4.98657 20.4852 5.2116L5.2116 20.4852C4.98528 20.7038 4.68215 20.8247 4.36752 20.822C4.05288 20.8193 3.75191 20.6931 3.52942 20.4706C3.30693 20.2481 3.18073 19.9471 3.17799 19.6325C3.17526 19.3178 3.29621 19.0147 3.5148 18.7884L18.7884 3.5148C19.0134 3.28983 19.3186 3.16346 19.6368 3.16346C19.955 3.16346 20.2602 3.28983 20.4852 3.5148Z"
        fill="#73818B"
      />
    </svg>