<svg
      width="20"
      height="20"
      viewBox="0 0 20 20"
      fill="none"
      xmlns="http://www.w3.org/2000/svg"
    >
      <path
        d="M10 20C4.477 20 0 15.523 0 10C0 4.477 4.477 0 10 0C15.523 0 20 4.477 20 10C20 15.523 15.523 20 10 20ZM10 18C12.1217 18 14.1566 17.1571 15.6569 15.6569C17.1571 14.1566 18 12.1217 18 10C18 7.87827 17.1571 5.84344 15.6569 4.34315C14.1566 2.84285 12.1217 2 10 2C7.87827 2 5.84344 2.84285 4.34315 4.34315C2.84285 5.84344 2 7.87827 2 10C2 12.1217 2.84285 14.1566 4.34315 15.6569C5.84344 17.1571 7.87827 18 10 18ZM17.071 2.929C17.2585 3.11653 17.3638 3.37084 17.3638 3.636C17.3638 3.90116 17.2585 4.15547 17.071 4.343L4.343 17.071C4.1544 17.2532 3.9018 17.354 3.6396 17.3517C3.3774 17.3494 3.12659 17.2442 2.94118 17.0588C2.75577 16.8734 2.6506 16.6226 2.64833 16.3604C2.64605 16.0982 2.74684 15.8456 2.929 15.657L15.657 2.929C15.8445 2.74153 16.0988 2.63621 16.364 2.63621C16.6292 2.63621 16.8835 2.74153 17.071 2.929Z"
        fill="#73818B"
      />
    </svg>