<svg
      
      width="16"
      height="16"
      viewBox="0 0 16 16"
      fill="none"
      xmlns="http://www.w3.org/2000/svg"
    >
      <path
        d="M8.00034 14.9797C4.1517 14.9797 1.02051 11.8485 1.02051 7.99986C1.02051 4.15122 4.15168 1.02002 8.00034 1.02002C11.849 1.02002 14.9802 4.15121 14.9802 7.99986C14.9802 11.8485 11.849 14.9797 8.00034 14.9797ZM8.00034 2.02367C4.70513 2.02367 2.02415 4.70466 2.02415 7.99986C2.02415 11.2951 4.70513 13.976 8.00034 13.976C11.2955 13.976 13.9765 11.2951 13.9765 7.99985C13.9765 4.70464 11.2955 2.02367 8.00034 2.02367Z"
        fill="#00C6A2"
      />
      <path
        d="M9.57323 10.1276L9.535 10.0724L9.41498 10.019H9.35982C9.2957 10.019 9.22553 10.0359 9.00608 10.1436L8.65451 10.3809C8.5582 10.4419 8.45151 10.4932 8.33658 10.5334C8.2156 10.5762 8.08785 10.6101 7.95743 10.634C7.86718 10.6507 7.79507 10.6626 7.71692 10.6584C7.60779 10.6454 7.57706 10.6026 7.56593 10.5866C7.53327 10.5409 7.5219 10.4552 7.53351 10.3451C7.55068 10.1837 7.59666 9.96235 7.66997 9.687C7.74546 9.40511 7.81902 9.16025 7.88942 8.95314C7.96008 8.74627 8.0433 8.5302 8.13937 8.30349C8.23397 8.07943 8.30996 7.91708 8.36512 7.82029C8.41569 7.73077 8.49166 7.63157 8.59159 7.52389C8.6862 7.42056 8.90782 7.17862 8.78007 6.94609C8.71063 6.82075 8.58868 6.7455 8.39729 6.7334C8.3039 6.7334 8.20057 6.75372 8.08177 6.7951C7.95789 6.83841 7.87926 6.87132 7.84852 6.88873C7.81683 6.90591 7.76772 6.93761 7.55116 7.11496C7.33606 7.29038 7.27533 7.3608 7.24338 7.422C7.21217 7.48104 7.18798 7.56428 7.17007 7.77816C7.16329 7.85777 7.13282 8.01626 7.02272 8.32741L6.71083 9.32646L6.45967 10.0158C6.39482 10.2512 6.37039 10.4552 6.38491 10.6386C6.39845 10.8169 6.43427 10.9834 6.49136 11.1327C6.55427 11.2984 6.64161 11.4337 6.7505 11.5343C6.86978 11.6452 7.01714 11.7141 7.17973 11.7376C7.224 11.7456 7.27288 11.7499 7.32611 11.7499C7.45991 11.7499 7.61574 11.7231 7.80302 11.6674C8.03529 11.5982 8.22692 11.5285 8.38784 11.4547C8.54947 11.3819 8.70142 11.297 8.84054 11.2024C8.9666 11.1155 9.09702 11.0223 9.23082 10.9219C9.40237 10.793 9.51101 10.6609 9.564 10.5167C9.60855 10.3928 9.65912 10.252 9.57323 10.1276Z"
        fill="#00C6A2"
      />
      <path
        d="M7.56035 5.87862C7.64101 5.94606 7.74118 5.98293 7.8608 5.98989C8.00131 6.0038 8.19676 5.91966 8.44643 5.73671C8.69543 5.5538 8.82761 5.40844 8.84153 5.29922C8.85544 5.19003 8.81857 5.02173 8.73093 4.79289C8.64262 4.56476 8.56053 4.41866 8.48332 4.3554C8.40544 4.29209 8.31432 4.25732 8.2093 4.25036C8.00481 4.24341 7.82255 4.33662 7.6605 4.52928C7.49914 4.72263 7.3955 4.87773 7.34961 4.9932C7.3037 5.10935 7.28143 5.19212 7.28143 5.24081C7.27448 5.32565 7.29883 5.43625 7.35517 5.57326C7.41147 5.71027 7.47965 5.81254 7.56035 5.87862Z"
        fill="#00C6A2"
      />
    </svg>