<svg
      width="36"
      height="36"
      viewBox="0 0 36 36"
      fill="none"
      xmlns="http://www.w3.org/2000/svg"
    >
      <path
        fill-rule="evenodd"
        clip-rule="evenodd"
        d="M18 4C10.268 4 4 10.268 4 18C4 25.732 10.268 32 18 32C25.732 32 32 25.732 32 18H36C36 27.9411 27.9411 36 18 36C8.05887 36 0 27.9411 0 18C0 8.05887 8.05887 0 18 0V4ZM26.3113 6.73273C25.249 5.94761 24.0727 5.30979 22.8125 4.84851L24.1875 1.09226C25.811 1.68656 27.3242 2.50745 28.6887 3.51591L26.3113 6.73273ZM31.7111 13.3944C30.8156 11.6034 29.7195 10.2355 28.9302 9.25094L32.0512 6.74906L32.0885 6.79553C32.8854 7.78942 34.2015 9.43086 35.2889 11.6056L31.7111 13.3944Z"
        fill="#2C373F"
      />
    </svg>