<svg
      width="51"
      height="20"
      viewBox="0 0 51 20"
      fill="none"
      xmlns="http://www.w3.org/2000/svg"
    >
      <path
        d="M42 0H10C4.47715 0 4.76837e-07 4.47715 4.76837e-07 10V10C4.76837e-07 15.5228 4.47715 20 10 20H42V0Z"
        fill="url(#paint0_linear_17888_1205)"
      />
      <path
        d="M12.26 8.06C12.028 7.572 11.692 7.196 11.252 6.932C10.812 6.66 10.3 6.524 9.716 6.524C9.132 6.524 8.604 6.66 8.132 6.932C7.668 7.196 7.3 7.58 7.028 8.084C6.764 8.58 6.632 9.156 6.632 9.812C6.632 10.468 6.764 11.044 7.028 11.54C7.3 12.036 7.668 12.42 8.132 12.692C8.604 12.956 9.132 13.088 9.716 13.088C10.532 13.088 11.204 12.844 11.732 12.356C12.26 11.868 12.568 11.208 12.656 10.376H9.32V9.488H13.82V10.328C13.756 11.016 13.54 11.648 13.172 12.224C12.804 12.792 12.32 13.244 11.72 13.58C11.12 13.908 10.452 14.072 9.716 14.072C8.94 14.072 8.232 13.892 7.592 13.532C6.952 13.164 6.444 12.656 6.068 12.008C5.7 11.36 5.516 10.628 5.516 9.812C5.516 8.996 5.7 8.264 6.068 7.616C6.444 6.96 6.952 6.452 7.592 6.092C8.232 5.724 8.94 5.54 9.716 5.54C10.604 5.54 11.388 5.76 12.068 6.2C12.756 6.64 13.256 7.26 13.568 8.06H12.26ZM21.2638 10.46C21.2638 10.668 21.2518 10.888 21.2278 11.12H15.9718C16.0118 11.768 16.2318 12.276 16.6318 12.644C17.0398 13.004 17.5318 13.184 18.1078 13.184C18.5798 13.184 18.9718 13.076 19.2838 12.86C19.6038 12.636 19.8278 12.34 19.9558 11.972H21.1318C20.9558 12.604 20.6038 13.12 20.0758 13.52C19.5478 13.912 18.8918 14.108 18.1078 14.108C17.4838 14.108 16.9238 13.968 16.4278 13.688C15.9398 13.408 15.5558 13.012 15.2758 12.5C14.9958 11.98 14.8558 11.38 14.8558 10.7C14.8558 10.02 14.9918 9.424 15.2638 8.912C15.5358 8.4 15.9158 8.008 16.4038 7.736C16.8998 7.456 17.4678 7.316 18.1078 7.316C18.7318 7.316 19.2838 7.452 19.7638 7.724C20.2438 7.996 20.6118 8.372 20.8678 8.852C21.1318 9.324 21.2638 9.86 21.2638 10.46ZM20.1358 10.232C20.1358 9.816 20.0438 9.46 19.8598 9.164C19.6758 8.86 19.4238 8.632 19.1038 8.48C18.7918 8.32 18.4438 8.24 18.0598 8.24C17.5078 8.24 17.0358 8.416 16.6438 8.768C16.2598 9.12 16.0398 9.608 15.9838 10.232H20.1358ZM24.0373 8.324V12.2C24.0373 12.52 24.1053 12.748 24.2413 12.884C24.3773 13.012 24.6133 13.076 24.9492 13.076H25.7533V14H24.7693C24.1613 14 23.7053 13.86 23.4013 13.58C23.0973 13.3 22.9453 12.84 22.9453 12.2V8.324H22.0933V7.424H22.9453V5.768H24.0373V7.424H25.7533V8.324H24.0373Z"
        fill="#001320"
      />
      <circle cx="41" cy="10" r="9.5" fill="black" stroke="#00C6A2" />
      <path
        fill-rule="evenodd"
        clip-rule="evenodd"
        d="M39.6096 9.08521V14.6229H37.8079V12.2206H36.0693V11.0195H37.8079V9.57807H36.0693V8.37692H37.8079V6.9803C37.8079 5.86318 39.2471 5.41147 39.8854 6.32825L43.4533 11.4523V6.09476H45.255V8.37692H47.0004V9.57807H45.255V11.0195H47.0004V12.2206H45.255V13.5572C45.255 14.6744 43.8158 15.1261 43.1775 14.2093L39.6096 9.08521Z"
        fill="white"
      />
      <defs>
        <linearGradient
          id="paint0_linear_17888_1205"
          x1="21"
          y1="0"
          x2="21"
          y2="20"
          gradientUnits="userSpaceOnUse"
        >
          <stop stop-color="#00FFD1" />
          <stop offset="1" stop-color="#008B72" />
        </linearGradient>
      </defs>
    </svg>