<svg
      
      width="66"
      height="59"
      viewBox="0 0 66 59"
      fill="none"
      xmlns="http://www.w3.org/2000/svg"
    >
      <path
        fill-rule="evenodd"
        clip-rule="evenodd"
        d="M64.7311 31.1907V39.4612C64.7311 49.7598 50.6026 58.1085 33.1742 58.1085C15.7457 58.1085 1.61719 49.7598 1.61719 39.4612L1.61732 31.2298C1.61723 31.2114 1.61719 31.193 1.61719 31.1746C1.61719 31.1561 1.61723 31.1376 1.61732 31.1191L1.61733 30.536C1.62397 30.5249 1.63062 30.5138 1.63729 30.5027C2.23589 20.5153 16.1264 12.5273 33.1742 12.5273C50.2218 12.5273 64.1122 20.5152 64.711 30.5025C64.7177 30.5136 64.7244 30.5248 64.7311 30.536V31.1586C64.7311 31.1639 64.7311 31.1693 64.7311 31.1746C64.7311 31.18 64.7311 31.1853 64.7311 31.1907Z"
        fill="#0D0D0D"
        fill-opacity="0.6"
      />
      <path
        d="M59.1635 37.6546C59.1635 42.2101 56.0355 46.4236 50.7862 49.5254C45.548 52.6207 38.279 54.5513 30.2229 54.5513C22.1668 54.5513 14.8977 52.6207 9.65956 49.5254C4.41024 46.4236 1.28223 42.2101 1.28223 37.6546L1.28229 32.7288L1.28234 30.343L1.28236 29.6023L1.28236 29.468C3.22857 26.3212 7.19249 24.1366 12.342 22.7416C17.5363 21.3345 23.8379 20.7578 30.2229 20.7578C36.6079 20.7578 42.9095 21.3345 48.1039 22.7416C53.2534 24.1366 57.2173 26.3212 59.1635 29.468V29.4727V29.4788V29.4852V29.4916V29.4981V29.5048V29.5116V29.5185V29.5255V29.5327V29.54V29.5473V29.5548V29.5625V29.5702V29.5781V29.586V29.5941V29.6023V29.6106V29.619V29.6276V29.6362V29.645V29.6538V29.6628V29.6719V29.6811V29.6904V29.6999V29.7094V29.719V29.7288V29.7386V29.7486V29.7587V29.7688V29.7791V29.7895V29.8V29.8106V29.8213V29.8321V29.843V29.854V29.8651V29.8763V29.8876V29.899V29.9105V29.9221V29.9338V29.9456V29.9575V29.9695V29.9816V29.9938V30.0061V30.0184V30.0309V30.0435V30.0562V30.0689V30.0818V30.0947V30.1078V30.1209V30.1341V30.1474V30.1608V30.1743V30.1879V30.2015V30.2153V30.2291V30.2431V30.2571V30.2712V30.2854V30.2997V30.314V30.3285V30.343V30.3576V30.3723V30.3871V30.402V30.4169V30.4319V30.447V30.4622V30.4775V30.4928V30.5083V30.5238V30.5394V30.555V30.5708V30.5866V30.6025V30.6184V30.6345V30.6506V30.6668V30.683V30.6994V30.7158V30.7322V30.7488V30.7654V30.7821V30.7989V30.8157V30.8326V30.8496V30.8666V30.8838V30.9009V30.9182V30.9355V30.9529V30.9703V30.9878V31.0054V31.023V31.0407V31.0585V31.0763V31.0942V31.1122V31.1302V31.1483V31.1664V31.1846V31.2028V31.2212V31.2395V31.258V31.2765V31.295V31.3136V31.3323V31.351V31.3697V31.3886V31.4075V31.4264V31.4454V31.4644V31.4835V31.5027V31.5218V31.5411V31.5604V31.5797V31.5991V31.6186V31.6381V31.6576V31.6772V31.6969V31.7165V31.7363V31.7561V31.7759V31.7957V31.8157V31.8356V31.8556V31.8757V31.8958V31.9159V31.9361V31.9563V31.9765V31.9968V32.0171V32.0375V32.0579V32.0784V32.0989V32.1194V32.1399V32.1605V32.1812V32.2018V32.2225V32.2433V32.2641V32.2849V32.3057V32.3266V32.3475V32.3684V32.3894V32.4104V32.4314V32.4525V32.4736V32.4947V32.5158V32.537V32.5582V32.5794V32.6007V32.622V32.6433V32.6646V32.686V32.7073V32.7287V32.7502V32.7716V32.7931V32.8146V32.8361V32.8576V32.8792V32.9008V32.9224V32.944V32.9656V32.9873V33.0089V33.0306V33.0523V33.0741V33.0958V33.1175V33.1393V33.1611V33.1829V33.2047V33.2265V33.2483V33.2702V33.292V33.3139V33.3358V33.3577V33.3796V33.4015V33.4234V33.4453V33.4672V33.4892V33.5111V33.5331V33.555V33.577V33.599V33.6209V33.6429V33.6649V33.6869V33.7089V33.7308V33.7528V33.7748V33.7968V33.8188V33.8408V33.8628V33.8848V33.9068V33.9287V33.9507V33.9727V33.9947V34.0166V34.0386V34.0606V34.0825V34.1045V34.1264V34.1483V34.1703V34.1922V34.2141V34.236V34.2579V34.2798V34.3017V34.3235V34.3454V34.3672V34.389V34.4109V34.4327V34.4545V34.4762V34.498V34.5197V34.5415V34.5632V34.5849V34.6066V34.6282V34.6499V34.6715V34.6931V34.7147V34.7363V34.7578V34.7793V34.8009V34.8223V34.8438V34.8652V34.8867V34.9081V34.9294V34.9508V34.9721V34.9934V35.0147V35.0359V35.0571V35.0783V35.0995V35.1206V35.1417V35.1628V35.1839V35.2049V35.2259V35.2468V35.2677V35.2886V35.3095V35.3303V35.3511V35.3719V35.3926V35.4133V35.434V35.4546V35.4752V35.4957V35.5162V35.5367V35.5571V35.5775V35.5979V35.6182V35.6385V35.6587V35.6789V35.6991V35.7192V35.7393V35.7593V35.7793V35.7992V35.8191V35.839V35.8588V35.8785V35.8983V35.9179V35.9376V35.9571V35.9767V35.9961V36.0156V36.0349V36.0543V36.0736V36.0928V36.112V36.1311V36.1502V36.1692V36.1882V36.2071V36.2259V36.2447V36.2635V36.2822V36.3008V36.3194V36.3379V36.3564V36.3748V36.3932V36.4115V36.4297V36.4479V36.466V36.484V36.502V36.52V36.5378V36.5556V36.5734V36.5911V36.6087V36.6262V36.6437V36.6611V36.6785V36.6958V36.713V36.7301V36.7472V36.7642V36.7812V36.7981V36.8149V36.8316V36.8483V36.8649V36.8814V36.8979V36.9143V36.9306V36.9468V36.963V36.9791V36.9951V37.011V37.0269V37.0427V37.0584V37.074V37.0896V37.105V37.1204V37.1357V37.151V37.1661V37.1812V37.1962V37.2111V37.226V37.2407V37.2554V37.27V37.2845V37.2989V37.3132V37.3275V37.3416V37.3557V37.3697V37.3836V37.3974V37.4111V37.4248V37.4383V37.4518V37.4651V37.4784V37.4916V37.5047V37.5177V37.5306V37.5434V37.5562V37.5688V37.5813V37.5938V37.6061V37.6184V37.6305V37.6426V37.6546Z"
        fill="#172128"
        stroke="#73818B"
      />
      <path
        d="M59.1635 29.9241C59.1635 34.4796 56.0355 38.6931 50.7862 41.795C45.548 44.8902 38.279 46.8208 30.2229 46.8208C22.1668 46.8208 14.8977 44.8902 9.65956 41.795C4.41024 38.6931 1.28223 34.4796 1.28223 29.9241C1.28223 25.3685 4.41024 21.1551 9.65956 18.0532C14.8977 14.9579 22.1668 13.0273 30.2229 13.0273C38.279 13.0273 45.548 14.9579 50.7862 18.0532C56.0355 21.1551 59.1635 25.3685 59.1635 29.9241Z"
        fill="#172128"
        stroke="#73818B"
      />
      <path
        d="M55.5947 29.9245C55.5947 33.9056 52.8656 37.5986 48.2623 40.3236C43.67 43.042 37.2932 44.7395 30.2227 44.7395C23.1522 44.7395 16.7753 43.042 12.183 40.3236C7.57971 37.5986 4.85059 33.9056 4.85059 29.9245C4.85059 25.9433 7.57971 22.2503 12.183 19.5253C16.7753 16.8069 23.1522 15.1094 30.2227 15.1094C37.2932 15.1094 43.67 16.8069 48.2623 19.5253C52.8656 22.2503 55.5947 25.9433 55.5947 29.9245Z"
        fill="#172128"
        stroke="#73818B"
      />
      <path d="M3.30957 36.7637V44.3469" stroke="#73818B" />
      <path d="M7.02637 40.4805V48.0637" stroke="#73818B" />
      <path d="M10.7451 42.8594V50.4426" stroke="#73818B" />
      <path d="M14.4619 44.3477V52.0795" stroke="#73818B" />
      <path d="M18.0293 45.5371L18.0293 53.269" stroke="#73818B" />
      <path d="M21.5986 46.4277L21.5986 54.1596" stroke="#73818B" />
      <path d="M25.167 47.0215L25.167 54.7534" stroke="#73818B" />
      <path d="M28.7363 47.3223L28.7363 55.0542" stroke="#73818B" />
      <path d="M32.3057 47.0215L32.3057 54.7534" stroke="#73818B" />
      <path d="M35.873 46.7266L35.873 54.4584" stroke="#73818B" />
      <path d="M39.4424 46.4277L39.4424 54.1596" stroke="#73818B" />
      <path d="M43.0098 45.5371L43.0098 53.269" stroke="#73818B" />
      <path d="M46.5791 44.3477L46.5791 52.0795" stroke="#73818B" />
      <path d="M50.1475 42.5645L50.1475 50.2963" stroke="#73818B" />
      <path d="M53.7158 40.1836L53.7158 47.9155" stroke="#73818B" />
      <path d="M57.2852 36.6152L57.2852 44.3471" stroke="#73818B" />
      <path
        d="M65.4272 25.1272C65.4272 29.6828 62.2992 33.8962 57.0499 36.9981C51.8117 40.0934 44.5426 42.024 36.4865 42.024C28.4304 42.024 21.1614 40.0934 15.9232 36.9981C10.6739 33.8962 7.5459 29.6828 7.5459 25.1272L7.54597 20.2014L7.54601 17.8157L7.54603 17.075L7.54603 16.9407C9.49225 13.7938 13.4562 11.6093 18.6056 10.2143C23.8 8.80717 30.1016 8.23047 36.4865 8.23047C42.8715 8.23047 49.1731 8.80717 54.3675 10.2143C59.517 11.6093 63.481 13.7938 65.4272 16.9407V16.9453V16.9515V16.9578V16.9642V16.9708V16.9775V16.9843V16.9912V16.9982V17.0053V17.0126V17.02V17.0275V17.0351V17.0429V17.0507V17.0587V17.0668V17.075V17.0833V17.0917V17.1002V17.1089V17.1176V17.1265V17.1355V17.1446V17.1538V17.1631V17.1725V17.182V17.1917V17.2014V17.2113V17.2212V17.2313V17.2415V17.2518V17.2621V17.2726V17.2832V17.2939V17.3047V17.3156V17.3266V17.3377V17.3489V17.3602V17.3716V17.3831V17.3948V17.4065V17.4183V17.4302V17.4422V17.4542V17.4664V17.4787V17.4911V17.5036V17.5162V17.5288V17.5416V17.5544V17.5674V17.5804V17.5935V17.6068V17.6201V17.6335V17.647V17.6605V17.6742V17.688V17.7018V17.7157V17.7298V17.7439V17.7581V17.7723V17.7867V17.8011V17.8157V17.8303V17.845V17.8598V17.8746V17.8896V17.9046V17.9197V17.9349V17.9502V17.9655V17.9809V17.9964V18.012V18.0277V18.0434V18.0592V18.0751V18.0911V18.1071V18.1232V18.1394V18.1557V18.172V18.1884V18.2049V18.2215V18.2381V18.2548V18.2715V18.2884V18.3053V18.3223V18.3393V18.3564V18.3736V18.3908V18.4081V18.4255V18.443V18.4605V18.478V18.4957V18.5134V18.5312V18.549V18.5669V18.5848V18.6028V18.6209V18.6391V18.6572V18.6755V18.6938V18.7122V18.7306V18.7491V18.7677V18.7863V18.8049V18.8236V18.8424V18.8612V18.8801V18.899V18.918V18.9371V18.9562V18.9753V18.9945V19.0138V19.0331V19.0524V19.0718V19.0912V19.1107V19.1303V19.1499V19.1695V19.1892V19.2089V19.2287V19.2485V19.2684V19.2883V19.3083V19.3283V19.3483V19.3684V19.3885V19.4087V19.4289V19.4492V19.4695V19.4898V19.5102V19.5306V19.551V19.5715V19.592V19.6126V19.6332V19.6538V19.6745V19.6952V19.7159V19.7367V19.7575V19.7784V19.7992V19.8201V19.8411V19.862V19.883V19.9041V19.9251V19.9462V19.9673V19.9885V20.0097V20.0309V20.0521V20.0733V20.0946V20.1159V20.1373V20.1586V20.18V20.2014V20.2228V20.2443V20.2657V20.2872V20.3088V20.3303V20.3519V20.3734V20.395V20.4166V20.4383V20.4599V20.4816V20.5033V20.525V20.5467V20.5684V20.5902V20.612V20.6337V20.6555V20.6773V20.6992V20.721V20.7428V20.7647V20.7866V20.8084V20.8303V20.8522V20.8741V20.896V20.918V20.9399V20.9618V20.9838V21.0057V21.0277V21.0497V21.0716V21.0936V21.1156V21.1375V21.1595V21.1815V21.2035V21.2255V21.2475V21.2695V21.2915V21.3134V21.3354V21.3574V21.3794V21.4014V21.4234V21.4454V21.4673V21.4893V21.5113V21.5332V21.5552V21.5771V21.5991V21.621V21.6429V21.6649V21.6868V21.7087V21.7306V21.7524V21.7743V21.7962V21.818V21.8399V21.8617V21.8835V21.9053V21.9271V21.9489V21.9706V21.9924V22.0141V22.0358V22.0575V22.0792V22.1009V22.1225V22.1442V22.1658V22.1874V22.2089V22.2305V22.252V22.2735V22.295V22.3165V22.3379V22.3593V22.3807V22.4021V22.4234V22.4448V22.4661V22.4873V22.5086V22.5298V22.551V22.5721V22.5933V22.6144V22.6355V22.6565V22.6775V22.6985V22.7195V22.7404V22.7613V22.7822V22.803V22.8238V22.8445V22.8653V22.886V22.9066V22.9272V22.9478V22.9684V22.9889V23.0094V23.0298V23.0502V23.0705V23.0909V23.1111V23.1314V23.1516V23.1717V23.1918V23.2119V23.232V23.2519V23.2719V23.2918V23.3116V23.3314V23.3512V23.3709V23.3906V23.4102V23.4298V23.4493V23.4688V23.4882V23.5076V23.5269V23.5462V23.5654V23.5846V23.6037V23.6228V23.6418V23.6608V23.6797V23.6986V23.7174V23.7361V23.7548V23.7735V23.7921V23.8106V23.8291V23.8475V23.8658V23.8841V23.9023V23.9205V23.9386V23.9567V23.9747V23.9926V24.0105V24.0283V24.046V24.0637V24.0813V24.0989V24.1164V24.1338V24.1511V24.1684V24.1856V24.2028V24.2199V24.2369V24.2539V24.2707V24.2875V24.3043V24.321V24.3376V24.3541V24.3705V24.3869V24.4032V24.4195V24.4356V24.4517V24.4677V24.4837V24.4995V24.5153V24.531V24.5467V24.5622V24.5777V24.5931V24.6084V24.6236V24.6388V24.6539V24.6689V24.6838V24.6986V24.7134V24.728V24.7426V24.7571V24.7715V24.7859V24.8001V24.8143V24.8284V24.8423V24.8562V24.8701V24.8838V24.8974V24.911V24.9244V24.9378V24.9511V24.9643V24.9774V24.9904V25.0033V25.0161V25.0288V25.0415V25.054V25.0664V25.0788V25.091V25.1032V25.1152V25.1272Z"
        fill="#172128"
        stroke="#73818B"
      />
      <path
        d="M65.4272 17.3967C65.4272 21.9523 62.2992 26.1658 57.0499 29.2676C51.8117 32.3629 44.5426 34.2935 36.4865 34.2935C28.4304 34.2935 21.1614 32.3629 15.9232 29.2676C10.6739 26.1658 7.5459 21.9523 7.5459 17.3967C7.5459 12.8412 10.6739 8.62772 15.9232 5.52585C21.1614 2.43059 28.4304 0.5 36.4865 0.5C44.5426 0.5 51.8117 2.43059 57.0499 5.52585C62.2992 8.62772 65.4272 12.8412 65.4272 17.3967Z"
        fill="#172128"
        stroke="#73818B"
      />
      <path
        d="M61.8584 17.3971C61.8584 21.3783 59.1293 25.0713 54.526 27.7962C49.9337 30.5147 43.5569 32.2122 36.4863 32.2122C29.4158 32.2122 23.039 30.5147 18.4467 27.7962C13.8434 25.0713 11.1143 21.3783 11.1143 17.3971C11.1143 13.416 13.8434 9.72294 18.4467 6.99798C23.039 4.27955 29.4158 2.58203 36.4863 2.58203C43.5569 2.58203 49.9337 4.27955 54.526 6.99798C59.1293 9.72294 61.8584 13.416 61.8584 17.3971Z"
        fill="#172128"
        stroke="#73818B"
      />
      <path d="M9.57324 24.2363V31.8195" stroke="#73818B" />
      <path d="M13.29 27.9531V35.5363" stroke="#73818B" />
      <path d="M17.0088 30.332V37.9152" stroke="#73818B" />
      <path d="M20.7256 31.8203V39.5522" stroke="#73818B" />
      <path d="M24.293 33.0098L24.293 40.7417" stroke="#73818B" />
      <path d="M27.8623 33.9004L27.8623 41.6323" stroke="#73818B" />
      <path d="M31.4307 34.4941L31.4307 42.226" stroke="#73818B" />
      <path d="M35 34.7949L35 42.5268" stroke="#73818B" />
      <path d="M38.5693 34.4941L38.5693 42.226" stroke="#73818B" />
      <path d="M42.1367 34.1992L42.1367 41.9311" stroke="#73818B" />
      <path d="M45.7061 33.9004L45.7061 41.6323" stroke="#73818B" />
      <path d="M49.2734 33.0098L49.2734 40.7417" stroke="#73818B" />
      <path d="M52.8428 31.8203L52.8428 39.5522" stroke="#73818B" />
      <path d="M56.4111 30.0371L56.4111 37.769" stroke="#73818B" />
      <path d="M59.9795 27.6562L59.9795 35.3881" stroke="#73818B" />
      <path d="M63.5488 24.0879L63.5488 31.8198" stroke="#73818B" />
    </svg>