<svg
      
      width="111"
      height="77"
      viewBox="0 0 111 77"
      fill="none"
      xmlns="http://www.w3.org/2000/svg"
    >
      <path
        fill-rule="evenodd"
        clip-rule="evenodd"
        d="M64.7311 42.095V50.3655C64.7311 60.6641 50.6026 69.0128 33.1742 69.0128C15.7457 69.0128 1.61719 60.6641 1.61719 50.3655L1.61732 42.1341C1.61723 42.1157 1.61719 42.0973 1.61719 42.0789C1.61719 42.0604 1.61723 42.0419 1.61732 42.0234L1.61733 41.4403C1.62397 41.4292 1.63062 41.4181 1.63729 41.407C2.23589 31.4196 16.1264 23.4316 33.1742 23.4316C50.2218 23.4316 64.1122 31.4195 64.711 41.4068C64.7177 41.4179 64.7244 41.4291 64.7311 41.4403V42.0629C64.7311 42.0682 64.7311 42.0736 64.7311 42.0789C64.7311 42.0843 64.7311 42.0896 64.7311 42.095Z"
        fill="#0D0D0D"
        fill-opacity="0.6"
      />
      <path
        d="M59.1635 48.5569C59.1635 53.1124 56.0355 57.3259 50.7862 60.4278C45.548 63.5231 38.279 65.4536 30.2229 65.4536C22.1668 65.4536 14.8977 63.5231 9.65956 60.4278C4.41024 57.3259 1.28223 53.1124 1.28223 48.5569L1.28229 43.6311L1.28234 41.2454L1.28236 40.5047L1.28236 40.3704C3.22857 37.2235 7.19249 35.039 12.342 33.644C17.5363 32.2369 23.8379 31.6602 30.2229 31.6602C36.6079 31.6602 42.9095 32.2369 48.1039 33.644C53.2534 35.039 57.2173 37.2235 59.1635 40.3703V40.375V40.3812V40.3875V40.3939V40.4005V40.4072V40.4139V40.4209V40.4279V40.435V40.4423V40.4497V40.4572V40.4648V40.4725V40.4804V40.4884V40.4964V40.5046V40.513V40.5214V40.5299V40.5386V40.5473V40.5562V40.5652V40.5743V40.5835V40.5928V40.6022V40.6117V40.6214V40.6311V40.641V40.6509V40.661V40.6712V40.6815V40.6918V40.7023V40.7129V40.7236V40.7344V40.7453V40.7563V40.7674V40.7786V40.7899V40.8013V40.8128V40.8244V40.8361V40.8479V40.8598V40.8718V40.8839V40.8961V40.9084V40.9208V40.9333V40.9458V40.9585V40.9713V40.9841V40.9971V41.0101V41.0232V41.0364V41.0498V41.0632V41.0766V41.0902V41.1039V41.1176V41.1315V41.1454V41.1594V41.1735V41.1877V41.202V41.2164V41.2308V41.2454V41.26V41.2747V41.2895V41.3043V41.3193V41.3343V41.3494V41.3646V41.3798V41.3952V41.4106V41.4261V41.4417V41.4574V41.4731V41.4889V41.5048V41.5208V41.5368V41.5529V41.5691V41.5854V41.6017V41.6181V41.6346V41.6511V41.6678V41.6845V41.7012V41.7181V41.735V41.7519V41.769V41.7861V41.8033V41.8205V41.8378V41.8552V41.8727V41.8902V41.9077V41.9254V41.9431V41.9608V41.9787V41.9966V42.0145V42.0325V42.0506V42.0687V42.0869V42.1052V42.1235V42.1419V42.1603V42.1788V42.1973V42.2159V42.2346V42.2533V42.2721V42.2909V42.3098V42.3287V42.3477V42.3668V42.3859V42.405V42.4242V42.4434V42.4627V42.4821V42.5015V42.5209V42.5404V42.56V42.5796V42.5992V42.6189V42.6386V42.6584V42.6782V42.6981V42.718V42.738V42.758V42.778V42.7981V42.8182V42.8384V42.8586V42.8789V42.8992V42.9195V42.9399V42.9603V42.9807V43.0012V43.0217V43.0423V43.0629V43.0835V43.1042V43.1249V43.1456V43.1664V43.1872V43.208V43.2289V43.2498V43.2708V43.2917V43.3127V43.3338V43.3548V43.3759V43.397V43.4182V43.4393V43.4605V43.4818V43.503V43.5243V43.5456V43.5669V43.5883V43.6097V43.6311V43.6525V43.674V43.6954V43.7169V43.7384V43.76V43.7815V43.8031V43.8247V43.8463V43.868V43.8896V43.9113V43.933V43.9547V43.9764V43.9981V44.0199V44.0417V44.0634V44.0852V44.107V44.1289V44.1507V44.1725V44.1944V44.2163V44.2381V44.26V44.2819V44.3038V44.3257V44.3477V44.3696V44.3915V44.4135V44.4354V44.4574V44.4793V44.5013V44.5233V44.5453V44.5672V44.5892V44.6112V44.6332V44.6552V44.6772V44.6992V44.7211V44.7431V44.7651V44.7871V44.8091V44.8311V44.8531V44.875V44.897V44.919V44.9409V44.9629V44.9849V45.0068V45.0288V45.0507V45.0726V45.0945V45.1165V45.1384V45.1602V45.1821V45.204V45.2259V45.2477V45.2696V45.2914V45.3132V45.335V45.3568V45.3786V45.4003V45.4221V45.4438V45.4655V45.4872V45.5089V45.5306V45.5522V45.5738V45.5954V45.617V45.6386V45.6602V45.6817V45.7032V45.7247V45.7461V45.7676V45.789V45.8104V45.8318V45.8531V45.8744V45.8957V45.917V45.9383V45.9595V45.9807V46.0018V46.023V46.0441V46.0652V46.0862V46.1072V46.1282V46.1492V46.1701V46.191V46.2118V46.2327V46.2535V46.2742V46.295V46.3156V46.3363V46.3569V46.3775V46.3981V46.4186V46.439V46.4595V46.4799V46.5002V46.5206V46.5408V46.5611V46.5813V46.6014V46.6215V46.6416V46.6616V46.6816V46.7016V46.7215V46.7413V46.7611V46.7809V46.8006V46.8203V46.8399V46.8595V46.879V46.8985V46.9179V46.9373V46.9566V46.9759V46.9951V47.0143V47.0334V47.0525V47.0715V47.0905V47.1094V47.1283V47.1471V47.1658V47.1845V47.2032V47.2217V47.2403V47.2587V47.2772V47.2955V47.3138V47.332V47.3502V47.3683V47.3864V47.4044V47.4223V47.4402V47.458V47.4757V47.4934V47.511V47.5286V47.546V47.5635V47.5808V47.5981V47.6153V47.6325V47.6496V47.6666V47.6835V47.7004V47.7172V47.734V47.7506V47.7672V47.7838V47.8002V47.8166V47.8329V47.8492V47.8653V47.8814V47.8974V47.9134V47.9292V47.945V47.9607V47.9763V47.9919V48.0074V48.0228V48.0381V48.0533V48.0685V48.0836V48.0986V48.1135V48.1283V48.1431V48.1577V48.1723V48.1868V48.2012V48.2156V48.2298V48.244V48.258V48.272V48.2859V48.2997V48.3135V48.3271V48.3407V48.3541V48.3675V48.3808V48.394V48.407V48.4201V48.433V48.4458V48.4585V48.4711V48.4837V48.4961V48.5085V48.5207V48.5329V48.5449V48.5569Z"
        fill="#172128"
        stroke="#73818B"
      />
      <path
        d="M59.1635 40.8264C59.1635 45.382 56.0355 49.5955 50.7862 52.6973C45.548 55.7926 38.279 57.7232 30.2229 57.7232C22.1668 57.7232 14.8977 55.7926 9.65956 52.6973C4.41024 49.5955 1.28223 45.382 1.28223 40.8264C1.28223 36.2709 4.41024 32.0574 9.65956 28.9555C14.8977 25.8603 22.1668 23.9297 30.2229 23.9297C38.279 23.9297 45.548 25.8603 50.7862 28.9555C56.0355 32.0574 59.1635 36.2709 59.1635 40.8264Z"
        fill="#172128"
        stroke="#73818B"
      />
      <path
        d="M55.5947 40.8268C55.5947 44.808 52.8656 48.501 48.2623 51.2259C43.67 53.9444 37.2932 55.6419 30.2227 55.6419C23.1522 55.6419 16.7753 53.9444 12.183 51.2259C7.57971 48.501 4.85059 44.808 4.85059 40.8268C4.85059 36.8456 7.57971 33.1526 12.183 30.4277C16.7753 27.7092 23.1522 26.0117 30.2227 26.0117C37.2932 26.0117 43.67 27.7092 48.2623 30.4277C52.8656 33.1526 55.5947 36.8456 55.5947 40.8268Z"
        fill="#172128"
        stroke="#73818B"
      />
      <path d="M3.30957 47.666V55.2492" stroke="#73818B" />
      <path d="M7.02637 51.3828V58.966" stroke="#73818B" />
      <path d="M10.7451 53.7617V61.3449" stroke="#73818B" />
      <path d="M14.4619 55.25V62.9819" stroke="#73818B" />
      <path d="M18.0293 56.4395L18.0293 64.1713" stroke="#73818B" />
      <path d="M21.5986 57.3301L21.5986 65.062" stroke="#73818B" />
      <path d="M25.167 57.9238L25.167 65.6557" stroke="#73818B" />
      <path d="M28.7363 58.2246L28.7363 65.9565" stroke="#73818B" />
      <path d="M32.3057 57.9238L32.3057 65.6557" stroke="#73818B" />
      <path d="M35.873 57.6289L35.873 65.3608" stroke="#73818B" />
      <path d="M39.4424 57.3301L39.4424 65.062" stroke="#73818B" />
      <path d="M43.0098 56.4395L43.0098 64.1713" stroke="#73818B" />
      <path d="M46.5791 55.25L46.5791 62.9819" stroke="#73818B" />
      <path d="M50.1475 53.4668L50.1475 61.1987" stroke="#73818B" />
      <path d="M53.7158 51.0859L53.7158 58.8178" stroke="#73818B" />
      <path d="M57.2852 47.5176L57.2852 55.2495" stroke="#73818B" />
      <path
        d="M65.4272 36.0296C65.4272 40.5851 62.2992 44.7986 57.0499 47.9004C51.8117 50.9957 44.5426 52.9263 36.4865 52.9263C28.4304 52.9263 21.1614 50.9957 15.9232 47.9004C10.6739 44.7986 7.5459 40.5851 7.5459 36.0296L7.54597 31.1038L7.54601 28.718L7.54603 27.9773L7.54603 27.843C9.49225 24.6962 13.4562 22.5116 18.6056 21.1166C23.8 19.7095 30.1016 19.1328 36.4865 19.1328C42.8715 19.1328 49.1731 19.7095 54.3675 21.1166C59.517 22.5116 63.481 24.6962 65.4272 27.843V27.8477V27.8538V27.8602V27.8666V27.8731V27.8798V27.8866V27.8935V27.9005V27.9077V27.915V27.9223V27.9298V27.9375V27.9452V27.9531V27.961V27.9691V27.9773V27.9856V27.994V28.0026V28.0112V28.02V28.0288V28.0378V28.0469V28.0561V28.0654V28.0749V28.0844V28.094V28.1038V28.1136V28.1236V28.1337V28.1438V28.1541V28.1645V28.175V28.1856V28.1963V28.2071V28.218V28.229V28.2401V28.2513V28.2626V28.274V28.2855V28.2971V28.3088V28.3206V28.3325V28.3445V28.3566V28.3688V28.3811V28.3934V28.4059V28.4185V28.4312V28.4439V28.4568V28.4697V28.4828V28.4959V28.5091V28.5224V28.5358V28.5493V28.5629V28.5765V28.5903V28.6041V28.6181V28.6321V28.6462V28.6604V28.6747V28.689V28.7035V28.718V28.7326V28.7473V28.7621V28.777V28.7919V28.8069V28.822V28.8372V28.8525V28.8678V28.8833V28.8988V28.9144V28.93V28.9458V28.9616V28.9775V28.9934V29.0095V29.0256V29.0418V29.058V29.0744V29.0908V29.1072V29.1238V29.1404V29.1571V29.1739V29.1907V29.2076V29.2246V29.2416V29.2588V29.2759V29.2932V29.3105V29.3279V29.3453V29.3628V29.3804V29.398V29.4157V29.4335V29.4513V29.4692V29.4872V29.5052V29.5233V29.5414V29.5596V29.5778V29.5962V29.6145V29.633V29.6515V29.67V29.6886V29.7073V29.726V29.7447V29.7636V29.7825V29.8014V29.8204V29.8394V29.8585V29.8777V29.8968V29.9161V29.9354V29.9547V29.9741V29.9936V30.0131V30.0326V30.0522V30.0719V30.0915V30.1113V30.1311V30.1509V30.1707V30.1907V30.2106V30.2306V30.2507V30.2708V30.2909V30.3111V30.3313V30.3515V30.3718V30.3921V30.4125V30.4329V30.4534V30.4739V30.4944V30.5149V30.5355V30.5562V30.5768V30.5975V30.6183V30.6391V30.6599V30.6807V30.7016V30.7225V30.7434V30.7644V30.7854V30.8064V30.8275V30.8486V30.8697V30.8908V30.912V30.9332V30.9544V30.9757V30.997V31.0183V31.0396V31.061V31.0823V31.1037V31.1252V31.1466V31.1681V31.1896V31.2111V31.2326V31.2542V31.2758V31.2974V31.319V31.3406V31.3623V31.3839V31.4056V31.4273V31.4491V31.4708V31.4925V31.5143V31.5361V31.5579V31.5797V31.6015V31.6233V31.6452V31.667V31.6889V31.7108V31.7327V31.7546V31.7765V31.7984V31.8203V31.8422V31.8642V31.8861V31.9081V31.93V31.952V31.974V31.9959V32.0179V32.0399V32.0619V32.0839V32.1058V32.1278V32.1498V32.1718V32.1938V32.2158V32.2378V32.2598V32.2818V32.3037V32.3257V32.3477V32.3697V32.3916V32.4136V32.4356V32.4575V32.4795V32.5014V32.5233V32.5453V32.5672V32.5891V32.611V32.6329V32.6548V32.6767V32.6985V32.7204V32.7422V32.764V32.7859V32.8077V32.8295V32.8512V32.873V32.8947V32.9165V32.9382V32.9599V32.9816V33.0032V33.0249V33.0465V33.0681V33.0897V33.1113V33.1328V33.1543V33.1759V33.1973V33.2188V33.2402V33.2617V33.2831V33.3044V33.3258V33.3471V33.3684V33.3897V33.4109V33.4321V33.4533V33.4745V33.4956V33.5167V33.5378V33.5589V33.5799V33.6009V33.6218V33.6427V33.6636V33.6845V33.7053V33.7261V33.7469V33.7676V33.7883V33.809V33.8296V33.8502V33.8707V33.8912V33.9117V33.9321V33.9525V33.9729V33.9932V34.0135V34.0337V34.0539V34.0741V34.0942V34.1143V34.1343V34.1543V34.1742V34.1941V34.214V34.2338V34.2535V34.2733V34.2929V34.3126V34.3321V34.3517V34.3711V34.3906V34.4099V34.4293V34.4486V34.4678V34.487V34.5061V34.5252V34.5442V34.5632V34.5821V34.6009V34.6197V34.6385V34.6572V34.6758V34.6944V34.7129V34.7314V34.7498V34.7682V34.7865V34.8047V34.8229V34.841V34.859V34.877V34.895V34.9128V34.9306V34.9484V34.9661V34.9837V35.0012V35.0187V35.0361V35.0535V35.0708V35.088V35.1051V35.1222V35.1392V35.1562V35.1731V35.1899V35.2066V35.2233V35.2399V35.2564V35.2729V35.2893V35.3056V35.3218V35.338V35.3541V35.3701V35.386V35.4019V35.4177V35.4334V35.449V35.4646V35.48V35.4954V35.5107V35.526V35.5411V35.5562V35.5712V35.5861V35.601V35.6157V35.6304V35.645V35.6595V35.6739V35.6882V35.7025V35.7166V35.7307V35.7447V35.7586V35.7724V35.7861V35.7998V35.8133V35.8268V35.8401V35.8534V35.8666V35.8797V35.8927V35.9056V35.9184V35.9312V35.9438V35.9563V35.9688V35.9811V35.9934V36.0055V36.0176V36.0296Z"
        fill="#172128"
        stroke="#73818B"
      />
      <path
        d="M65.4272 28.2991C65.4272 32.8546 62.2992 37.0681 57.0499 40.17C51.8117 43.2652 44.5426 45.1958 36.4865 45.1958C28.4304 45.1958 21.1614 43.2652 15.9232 40.17C10.6739 37.0681 7.5459 32.8546 7.5459 28.2991C7.5459 23.7435 10.6739 19.5301 15.9232 16.4282C21.1614 13.3329 28.4304 11.4023 36.4865 11.4023C44.5426 11.4023 51.8117 13.3329 57.0499 16.4282C62.2992 19.5301 65.4272 23.7435 65.4272 28.2991Z"
        fill="#172128"
        stroke="#73818B"
      />
      <path
        d="M61.8584 28.2995C61.8584 32.2806 59.1293 35.9736 54.526 38.6986C49.9337 41.417 43.5569 43.1145 36.4863 43.1145C29.4158 43.1145 23.039 41.417 18.4467 38.6986C13.8434 35.9736 11.1143 32.2806 11.1143 28.2995C11.1143 24.3183 13.8434 20.6253 18.4467 17.9003C23.039 15.1819 29.4158 13.4844 36.4863 13.4844C43.5569 13.4844 49.9337 15.1819 54.526 17.9003C59.1293 20.6253 61.8584 24.3183 61.8584 28.2995Z"
        fill="#172128"
        stroke="#73818B"
      />
      <path d="M9.57324 35.1387V42.7219" stroke="#73818B" />
      <path d="M13.29 38.8555V46.4387" stroke="#73818B" />
      <path d="M17.0088 41.2344V48.8176" stroke="#73818B" />
      <path d="M20.7256 42.7227V50.4545" stroke="#73818B" />
      <path d="M24.293 43.9121L24.293 51.644" stroke="#73818B" />
      <path d="M27.8623 44.8027L27.8623 52.5346" stroke="#73818B" />
      <path d="M31.4307 45.3965L31.4307 53.1284" stroke="#73818B" />
      <path d="M35 45.6973L35 53.4292" stroke="#73818B" />
      <path d="M38.5693 45.3965L38.5693 53.1284" stroke="#73818B" />
      <path d="M42.1367 45.1016L42.1367 52.8334" stroke="#73818B" />
      <path d="M45.7061 44.8027L45.7061 52.5346" stroke="#73818B" />
      <path d="M49.2734 43.9121L49.2734 51.644" stroke="#73818B" />
      <path d="M52.8428 42.7227L52.8428 50.4545" stroke="#73818B" />
      <path d="M56.4111 40.9395L56.4111 48.6713" stroke="#73818B" />
      <path d="M59.9795 38.5586L59.9795 46.2905" stroke="#73818B" />
      <path d="M63.5488 34.9902L63.5488 42.7221" stroke="#73818B" />
      <path
        fill-rule="evenodd"
        clip-rule="evenodd"
        d="M98.4909 55.1883C98.5065 55.1694 98.522 55.1504 98.5375 55.1314C98.553 55.1123 98.5684 55.0932 98.5837 55.0741L98.9412 54.6345C98.943 54.6217 98.9448 54.6089 98.9466 54.5961C104.781 46.4686 99.0413 31.5092 85.8138 20.7559C72.5866 10.0029 56.7708 7.43863 50.0054 14.8088C49.9931 14.8133 49.9807 14.8177 49.9684 14.8222L44.3382 21.7476C37.8418 29.7388 43.5384 45.1292 57.0619 56.123C70.5854 67.1169 86.8148 69.5511 93.3111 61.5599L98.4909 55.1883Z"
        fill="#0D0D0D"
        fill-opacity="0.6"
      />
      <path
        d="M87.9606 58.8747C85.0869 62.4096 80.0019 63.7058 73.972 62.8014C67.955 61.899 61.0968 58.8117 54.8457 53.7299C48.5947 48.6481 44.1721 42.5647 42.0601 36.8587C39.9435 31.1406 40.1742 25.898 43.0479 22.3631L46.1551 18.541L47.6601 16.6899L48.1273 16.1151L48.2121 16.0109C51.7073 14.7968 56.161 15.6022 61.0367 17.768C65.9548 19.9528 71.2083 23.4803 76.1627 27.508C81.1171 31.5356 85.643 35.9582 88.786 40.3267C91.9017 44.6574 93.5995 48.8529 93.1246 52.5224L93.1217 52.526L93.1178 52.5308L93.1138 52.5357L93.1098 52.5407L93.1056 52.5458L93.1014 52.551L93.0971 52.5562L93.0928 52.5616L93.0883 52.567L93.0838 52.5726L93.0792 52.5782L93.0746 52.584L93.0699 52.5898L93.0651 52.5957L93.0602 52.6017L93.0552 52.6078L93.0502 52.614L93.0451 52.6202L93.0399 52.6266L93.0347 52.633L93.0294 52.6396L93.024 52.6462L93.0185 52.6529L93.013 52.6597L93.0074 52.6666L93.0017 52.6736L92.996 52.6806L92.9902 52.6878L92.9843 52.695L92.9784 52.7023L92.9724 52.7097L92.9663 52.7172L92.9601 52.7247L92.9539 52.7324L92.9476 52.7401L92.9413 52.7479L92.9349 52.7558L92.9284 52.7638L92.9218 52.7718L92.9152 52.78L92.9085 52.7882L92.9018 52.7965L92.895 52.8049L92.8881 52.8133L92.8812 52.8219L92.8742 52.8305L92.8671 52.8392L92.86 52.848L92.8528 52.8568L92.8455 52.8657L92.8382 52.8747L92.8308 52.8838L92.8234 52.893L92.8159 52.9022L92.8083 52.9115L92.8007 52.9209L92.793 52.9304L92.7852 52.9399L92.7774 52.9495L92.7695 52.9592L92.7616 52.9689L92.7536 52.9788L92.7456 52.9887L92.7375 52.9986L92.7293 53.0087L92.7211 53.0188L92.7128 53.029L92.7045 53.0392L92.6961 53.0496L92.6876 53.06L92.6791 53.0704L92.6705 53.081L92.6619 53.0916L92.6532 53.1023L92.6445 53.113L92.6357 53.1238L92.6269 53.1347L92.618 53.1456L92.609 53.1566L92.6 53.1677L92.591 53.1789L92.5818 53.1901L92.5727 53.2014L92.5635 53.2127L92.5542 53.2241L92.5449 53.2356L92.5355 53.2471L92.5261 53.2587L92.5166 53.2704L92.5071 53.2821L92.4975 53.2939L92.4878 53.3057L92.4782 53.3176L92.4684 53.3296L92.4587 53.3416L92.4488 53.3537L92.439 53.3659L92.429 53.3781L92.4191 53.3903L92.409 53.4027L92.399 53.4151L92.3888 53.4275L92.3787 53.44L92.3685 53.4526L92.3582 53.4652L92.3479 53.4779L92.3375 53.4906L92.3272 53.5034L92.3167 53.5162L92.3062 53.5291L92.2957 53.5421L92.2851 53.5551L92.2745 53.5681L92.2638 53.5813L92.2531 53.5944L92.2424 53.6077L92.2316 53.6209L92.2207 53.6343L92.2099 53.6476L92.199 53.6611L92.188 53.6746L92.177 53.6881L92.1659 53.7017L92.1549 53.7153L92.1437 53.729L92.1326 53.7427L92.1214 53.7565L92.1101 53.7704L92.0988 53.7842L92.0875 53.7982L92.0761 53.8122L92.0647 53.8262L92.0533 53.8403L92.0418 53.8544L92.0303 53.8685L92.0187 53.8827L92.0072 53.897L91.9955 53.9113L91.9839 53.9257L91.9722 53.94L91.9604 53.9545L91.9487 53.969L91.9369 53.9835L91.925 53.998L91.9131 54.0126L91.9012 54.0273L91.8893 54.042L91.8773 54.0567L91.8653 54.0715L91.8533 54.0863L91.8412 54.1012L91.8291 54.1161L91.8169 54.131L91.8048 54.146L91.7926 54.161L91.7803 54.176L91.768 54.1911L91.7558 54.2063L91.7434 54.2214L91.7311 54.2366L91.7187 54.2519L91.7063 54.2671L91.6938 54.2824L91.6813 54.2978L91.6688 54.3132L91.6563 54.3286L91.6437 54.344L91.6311 54.3595L91.6185 54.3751L91.6059 54.3906L91.5932 54.4062L91.5805 54.4218L91.5678 54.4375L91.555 54.4531L91.5423 54.4689L91.5295 54.4846L91.5166 54.5004L91.5038 54.5162L91.4909 54.532L91.478 54.5479L91.4651 54.5638L91.4521 54.5797L91.4392 54.5957L91.4262 54.6117L91.4132 54.6277L91.4001 54.6437L91.3871 54.6598L91.374 54.6759L91.3609 54.692L91.3478 54.7081L91.3346 54.7243L91.3214 54.7405L91.3083 54.7567L91.2951 54.773L91.2818 54.7892L91.2686 54.8055L91.2553 54.8218L91.242 54.8382L91.2287 54.8545L91.2154 54.8709L91.2021 54.8873L91.1887 54.9038L91.1753 54.9202L91.1619 54.9367L91.1485 54.9532L91.1351 54.9697L91.1217 54.9862L91.1082 55.0028L91.0948 55.0193L91.0813 55.0359L91.0678 55.0525L91.0542 55.0692L91.0407 55.0858L91.0272 55.1025L91.0136 55.1192L91 55.1359L90.9865 55.1526L90.9729 55.1693L90.9592 55.186L90.9456 55.2028L90.932 55.2196L90.9183 55.2364L90.9047 55.2532L90.891 55.27L90.8773 55.2868L90.8636 55.3036L90.8499 55.3205L90.8362 55.3374L90.8225 55.3542L90.8088 55.3711L90.795 55.388L90.7813 55.4049L90.7675 55.4219L90.7538 55.4388L90.74 55.4557L90.7262 55.4727L90.7124 55.4896L90.6986 55.5066L90.6848 55.5236L90.671 55.5406L90.6572 55.5576L90.6434 55.5746L90.6296 55.5916L90.6157 55.6086L90.6019 55.6256L90.5881 55.6426L90.5742 55.6596L90.5604 55.6767L90.5465 55.6937L90.5327 55.7107L90.5188 55.7278L90.505 55.7448L90.4911 55.7619L90.4772 55.7789L90.4634 55.796L90.4495 55.8131L90.4356 55.8301L90.4218 55.8472L90.4079 55.8642L90.394 55.8813L90.3802 55.8984L90.3663 55.9154L90.3524 55.9325L90.3385 55.9496L90.3247 55.9666L90.3108 55.9837L90.2969 56.0007L90.2831 56.0178L90.2692 56.0348L90.2554 56.0519L90.2415 56.0689L90.2276 56.086L90.2138 56.103L90.2 56.12L90.1861 56.1371L90.1723 56.1541L90.1584 56.1711L90.1446 56.1881L90.1308 56.2051L90.117 56.2221L90.1032 56.2391L90.0894 56.2561L90.0756 56.273L90.0618 56.29L90.048 56.307L90.0342 56.3239L90.0204 56.3408L90.0067 56.3578L89.9929 56.3747L89.9792 56.3916L89.9654 56.4085L89.9517 56.4254L89.938 56.4423L89.9243 56.4591L89.9106 56.476L89.8969 56.4928L89.8832 56.5096L89.8696 56.5264L89.8559 56.5432L89.8423 56.56L89.8286 56.5768L89.815 56.5935L89.8014 56.6103L89.7878 56.627L89.7742 56.6437L89.7607 56.6604L89.7471 56.6771L89.7336 56.6937L89.7201 56.7104L89.7065 56.727L89.693 56.7436L89.6796 56.7602L89.6661 56.7767L89.6526 56.7933L89.6392 56.8098L89.6258 56.8263L89.6124 56.8428L89.599 56.8593L89.5856 56.8757L89.5723 56.8921L89.559 56.9085L89.5456 56.9249L89.5323 56.9413L89.5191 56.9576L89.5058 56.9739L89.4926 56.9902L89.4794 57.0064L89.4662 57.0227L89.453 57.0389L89.4398 57.0551L89.4267 57.0712L89.4136 57.0874L89.4005 57.1035L89.3874 57.1196L89.3743 57.1356L89.3613 57.1516L89.3483 57.1676L89.3353 57.1836L89.3224 57.1996L89.3094 57.2155L89.2965 57.2314L89.2836 57.2472L89.2707 57.2631L89.2579 57.2788L89.2451 57.2946L89.2323 57.3103L89.2195 57.3261L89.2068 57.3417L89.1941 57.3574L89.1814 57.373L89.1687 57.3885L89.1561 57.4041L89.1435 57.4196L89.1309 57.4351L89.1184 57.4505L89.1058 57.4659L89.0933 57.4813L89.0809 57.4966L89.0684 57.5119L89.056 57.5272L89.0436 57.5424L89.0313 57.5576L89.019 57.5727L89.0067 57.5879L88.9944 57.6029L88.9822 57.618L88.97 57.633L88.9579 57.6479L88.9457 57.6629L88.9336 57.6777L88.9216 57.6926L88.9095 57.7074L88.8975 57.7221L88.8856 57.7369L88.8736 57.7515L88.8617 57.7662L88.8499 57.7808L88.838 57.7953L88.8263 57.8098L88.8145 57.8243L88.8028 57.8387L88.7911 57.8531L88.7794 57.8674L88.7678 57.8817L88.7562 57.8959L88.7447 57.9101L88.7332 57.9243L88.7217 57.9384L88.7103 57.9524L88.6989 57.9664L88.6876 57.9804L88.6763 57.9943L88.665 58.0082L88.6538 58.022L88.6426 58.0358L88.6314 58.0495L88.6203 58.0632L88.6092 58.0768L88.5982 58.0903L88.5872 58.1039L88.5763 58.1173L88.5654 58.1307L88.5545 58.1441L88.5437 58.1574L88.5329 58.1707L88.5222 58.1839L88.5115 58.197L88.5008 58.2101L88.4902 58.2232L88.4797 58.2362L88.4691 58.2491L88.4587 58.262L88.4482 58.2748L88.4379 58.2876L88.4275 58.3003L88.4172 58.3129L88.407 58.3255L88.3968 58.3381L88.3867 58.3506L88.3766 58.363L88.3665 58.3753L88.3565 58.3877L88.3465 58.3999L88.3366 58.4121L88.3268 58.4242L88.317 58.4363L88.3072 58.4483L88.2975 58.4602L88.2878 58.4721L88.2782 58.484L88.2686 58.4957L88.2591 58.5074L88.2497 58.5191L88.2403 58.5306L88.2309 58.5421L88.2216 58.5536L88.2124 58.565L88.2032 58.5763L88.194 58.5875L88.1849 58.5987L88.1759 58.6098L88.1669 58.6209L88.1579 58.6319L88.1491 58.6428L88.1402 58.6537L88.1315 58.6645L88.1228 58.6752L88.1141 58.6858L88.1055 58.6964L88.097 58.7069L88.0885 58.7174L88.08 58.7277L88.0717 58.738L88.0633 58.7483L88.0551 58.7584L88.0469 58.7685L88.0387 58.7785L88.0306 58.7885L88.0226 58.7984L88.0147 58.8082L88.0067 58.8179L87.9989 58.8275L87.9911 58.8371L87.9834 58.8466L87.9757 58.8561L87.9681 58.8654L87.9606 58.8747Z"
        fill="#172128"
        stroke="#73818B"
      />
      <path
        d="M92.8365 52.8767C89.9629 56.4115 84.8779 57.7078 78.848 56.8034C72.831 55.9009 65.9728 52.8136 59.7217 47.7318C53.4706 42.65 49.048 36.5667 46.936 30.8607C44.8195 25.1425 45.0502 19.8999 47.9239 16.3651C50.7975 12.8302 55.8825 11.534 61.9124 12.4384C67.9294 13.3408 74.7876 16.4281 81.0387 21.5099C87.2898 26.5917 91.7124 32.6751 93.8244 38.3811C95.9409 44.0992 95.7102 49.3418 92.8365 52.8767Z"
        fill="#172128"
        stroke="#73818B"
      />
      <path
        d="M90.0667 50.6245C87.5554 53.7137 83.1082 54.8577 77.8173 54.0684C72.5392 53.2809 66.5203 50.5756 61.034 46.1155C55.5477 41.6554 51.6704 36.3157 49.8218 31.3095C47.9688 26.2913 48.1807 21.7042 50.692 18.6151C53.2034 15.5259 57.6506 14.3819 62.9414 15.1712C68.2196 15.9587 74.2384 18.664 79.7247 23.1241C85.2111 27.5842 89.0883 32.9239 90.9369 37.9301C92.7899 42.9483 92.578 47.5354 90.0667 50.6245Z"
        fill="#172128"
        stroke="#73818B"
      />
      <path d="M45.1836 22.9512L40.4001 28.8353" stroke="#73818B" />
      <path d="M45.7217 28.1797L40.9382 34.0638" stroke="#73818B" />
      <path d="M47.1064 32.3711L42.323 38.2552" stroke="#73818B" />
      <path d="M49.0527 35.8691L44.1755 41.8687" stroke="#73818B" />
      <path d="M51.0713 39.0449L46.194 45.0444" stroke="#73818B" />
      <path d="M53.2773 41.9883L48.4001 47.9878" stroke="#73818B" />
      <path d="M55.6719 44.6992L50.7946 50.6987" stroke="#73818B" />
      <path d="M58.252 47.1816L53.3747 53.1812" stroke="#73818B" />
      <path d="M61.21 49.2012L56.3327 55.2007" stroke="#73818B" />
      <path d="M64.165 51.2227L59.2878 57.2222" stroke="#73818B" />
      <path d="M67.123 53.2441L62.2458 59.2437" stroke="#73818B" />
      <path d="M70.4541 54.8027L65.5768 60.8023" stroke="#73818B" />
      <path d="M73.9736 56.1289L69.0964 62.1284" stroke="#73818B" />
      <path d="M77.8672 56.998L72.9899 62.9976" stroke="#73818B" />
      <path d="M82.1387 57.4004L77.2614 63.3999" stroke="#73818B" />
      <path d="M87.1582 56.8828L82.2809 62.8823" stroke="#73818B" />
    </svg>