<svg
      width="176"
      height="118"
      viewBox="0 0 176 118"
      fill="none"
      xmlns="http://www.w3.org/2000/svg"
    >
      <path
        d="M168.584 78.2671L153.368 78.2671"
        stroke="#00FFF0"
        stroke-miterlimit="10"
      />
      <path
        d="M173.844 91.8595L152.392 88.4141"
        stroke="#00FFF0"
        stroke-miterlimit="10"
      />
      <path
        d="M12.52 103.682L28.905 98.2485"
        stroke="#00FFF0"
        stroke-miterlimit="10"
      />
      <path
        d="M3.47565 106.677L9.79761 104.582"
        stroke="#00FFF0"
        stroke-miterlimit="10"
      />
      <path
        d="M12.5199 90.5764L26.0115 88.4116"
        stroke="#00FFF0"
        stroke-miterlimit="10"
      />
      <path
        d="M-2.17421e-05 78.2646L25.0369 78.2646"
        stroke="#00FFF0"
        stroke-miterlimit="10"
      />
      <path
        d="M9.86322 65.5269L26.0115 68.1185"
        stroke="#00FFF0"
        stroke-miterlimit="10"
      />
      <path
        d="M15.2856 53.7666L28.905 58.2814"
        stroke="#00FFF0"
        stroke-miterlimit="10"
      />
      <path
        d="M14.7679 39.1323L33.6296 49.0503"
        stroke="#00FFF0"
        stroke-miterlimit="10"
      />
      <path
        d="M28.0174 31.5176L40.0457 40.7068"
        stroke="#00FFF0"
        stroke-miterlimit="10"
      />
      <path
        d="M33.9575 18.3096L47.9558 33.5057"
        stroke="#00FFF0"
        stroke-miterlimit="10"
      />
      <path
        d="M52.3966 20.2187L57.1179 27.6616"
        stroke="#00FFF0"
        stroke-miterlimit="10"
      />
      <path
        d="M46.1934 10.4346L48.5564 14.156"
        stroke="#00FFF0"
        stroke-miterlimit="10"
      />
      <path
        d="M61.5275 9.02051L67.2576 23.3585"
        stroke="#00FFF0"
        stroke-miterlimit="10"
      />
      <path
        d="M75.5163 7.58789L78.0593 20.7228"
        stroke="#00FFF0"
        stroke-miterlimit="10"
      />
      <path
        d="M89.2019 0L89.2019 15.1832"
        stroke="#00FFF0"
        stroke-miterlimit="10"
      />
      <path
        d="M103.528 4.28564L100.346 20.7236"
        stroke="#00FFF0"
        stroke-miterlimit="10"
      />
      <path
        d="M115.504 12.4653L111.147 23.3579"
        stroke="#00FFF0"
        stroke-miterlimit="10"
      />
      <path
        d="M133.884 7.7998L121.287 27.6617"
        stroke="#00FFF0"
        stroke-miterlimit="10"
      />
      <path
        d="M140.974 22.0835L130.447 33.5064"
        stroke="#00FFF0"
        stroke-miterlimit="10"
      />
      <path
        d="M150.053 31.771L138.357 40.7058"
        stroke="#00FFF0"
        stroke-miterlimit="10"
      />
      <path
        d="M155.592 27.54L152.21 30.123"
        stroke="#00FFF0"
        stroke-miterlimit="10"
      />
      <path
        d="M163.635 39.1323L144.774 49.0503"
        stroke="#00FFF0"
        stroke-miterlimit="10"
      />
      <path
        d="M164.891 53.1812L149.501 58.2825"
        stroke="#00FFF0"
        stroke-miterlimit="10"
      />
      <path
        d="M175.199 49.7617L170.265 51.4003"
        stroke="#00FFF0"
        stroke-miterlimit="10"
      />
      <path
        d="M173.844 64.6733L152.391 68.1188"
        stroke="#00FFF0"
        stroke-miterlimit="10"
      />
      <path
        d="M75 100.001H19L57 69.001L75 100.001Z"
        fill="#0D0D0D"
        fill-opacity="0.6"
      />
      <path
        d="M60.2378 94.5812L18.5432 99.4818L13.9457 82.9182L31.2248 55.6376L48.872 53.877L60.2378 94.5812Z"
        fill="#00875E"
        stroke="#00FFF0"
      />
      <path
        d="M26.8983 72.0834C24.42 76.0619 21.7024 79.3457 19.3242 81.4412C18.1326 82.4911 17.0482 83.2231 16.1401 83.6036C15.2173 83.9903 14.588 83.9716 14.1927 83.7253C13.7973 83.4791 13.503 82.9225 13.4433 81.9237C13.3844 80.9409 13.5633 79.6449 13.9803 78.1124C14.8125 75.054 16.5617 71.1669 19.0399 67.1884C21.5181 63.2099 24.2358 59.9261 26.614 57.8306C27.8055 56.7807 28.8899 56.0487 29.798 55.6682C30.7208 55.2814 31.3502 55.3002 31.7455 55.5464C32.1408 55.7927 32.4351 56.3493 32.4949 57.3481C32.5537 58.3309 32.3748 59.6269 31.9578 61.1593C31.1256 64.2178 29.3765 68.1049 26.8983 72.0834Z"
        fill="#00875E"
        stroke="#00FFF0"
      />
      <path
        d="M13.9834 83.5405L29.1024 90.4701L24.6927 76.6109L39.8118 79.1308L30.9923 65.9016L45.4814 67.1615L32.2522 55.8223"
        stroke="#00FFF0"
      />
      <path
        d="M94.2061 70.5778L100.864 29.1275L118.054 29.2222L139.587 53.2873L136.467 70.7456L94.2061 70.5778Z"
        fill="#00875E"
        stroke="#00FFF0"
      />
      <path
        d="M124.943 44.6385C121.791 41.1691 119.373 37.6587 118.006 34.7992C117.32 33.3664 116.912 32.1235 116.794 31.146C116.673 30.1527 116.863 29.5524 117.208 29.2392C117.552 28.926 118.168 28.7947 119.145 29.0096C120.107 29.2211 121.305 29.7467 122.666 30.5659C125.381 32.2008 128.644 34.9438 131.795 38.4133C134.947 41.8827 137.365 45.393 138.732 48.2526C139.418 49.6854 139.826 50.9283 139.944 51.9058C140.065 52.8991 139.875 53.4994 139.53 53.8126C139.186 54.1258 138.57 54.2571 137.593 54.0422C136.631 53.8307 135.433 53.3051 134.072 52.4859C131.357 50.851 128.094 48.1079 124.943 44.6385Z"
        fill="#00875E"
        stroke="#00FFF0"
      />
      <path
        d="M117.443 29.0889L106.653 41.7445L121.189 41.2823L114.641 55.1407L129.774 50.2641L124.61 63.8601L139.127 54.2255"
        stroke="#00FFF0"
      />
      <path
        fill-rule="evenodd"
        clip-rule="evenodd"
        d="M100.913 77.5602V85.3683C100.913 95.0905 87.5753 102.972 71.1222 102.972C54.6692 102.972 41.3314 95.0905 41.3314 85.3683L41.3315 77.5967C41.3315 77.5793 41.3314 77.562 41.3314 77.5446C41.3314 77.5271 41.3315 77.5096 41.3316 77.4921L41.3316 76.9426C41.3378 76.9321 41.3441 76.9217 41.3503 76.9113C41.9145 67.4824 55.028 59.9409 71.1222 59.9409C87.2164 59.9409 100.33 67.4823 100.894 76.9111C100.9 76.9216 100.907 76.9321 100.913 76.9426V77.529C100.913 77.5342 100.913 77.5394 100.913 77.5446C100.913 77.5498 100.913 77.555 100.913 77.5602Z"
        fill="#0D0D0D"
        fill-opacity="0.6"
      />
      <path
        d="M95.6284 83.6589C95.6284 87.9456 92.6848 91.9157 87.7336 94.8414C82.7937 97.7604 75.9365 99.582 68.3354 99.582C60.7343 99.582 53.8772 97.7604 48.9372 94.8414C43.9861 91.9157 41.0425 87.9456 41.0425 83.6589L41.0425 79.0088L41.0426 76.7566L41.0426 76.0574L41.0426 75.9385C42.8757 72.9806 46.6072 70.923 51.4626 69.6077C56.3629 68.2802 62.3091 67.7358 68.3354 67.7358C74.3617 67.7358 80.3079 68.2802 85.2083 69.6077C90.0638 70.923 93.7952 72.9806 95.6284 75.9385V75.9408V75.9468V75.9528V75.959V75.9653V75.9717V75.9782V75.9849V75.9916V75.9985V76.0055V76.0125V76.0197V76.027V76.0345V76.042V76.0496V76.0573V76.0652V76.0731V76.0812V76.0894V76.0976V76.106V76.1145V76.1231V76.1318V76.1405V76.1494V76.1584V76.1675V76.1767V76.186V76.1954V76.205V76.2146V76.2243V76.2341V76.244V76.254V76.2641V76.2742V76.2845V76.2949V76.3054V76.316V76.3267V76.3374V76.3483V76.3592V76.3703V76.3814V76.3927V76.404V76.4154V76.4269V76.4385V76.4502V76.462V76.4738V76.4858V76.4978V76.51V76.5222V76.5345V76.5469V76.5594V76.5719V76.5846V76.5973V76.6102V76.6231V76.636V76.6491V76.6623V76.6755V76.6888V76.7022V76.7157V76.7292V76.7429V76.7566V76.7704V76.7843V76.7982V76.8123V76.8264V76.8406V76.8548V76.8692V76.8836V76.8981V76.9126V76.9272V76.942V76.9567V76.9716V76.9865V77.0015V77.0166V77.0317V77.0469V77.0622V77.0776V77.093V77.1085V77.1241V77.1397V77.1554V77.1711V77.187V77.2029V77.2188V77.2348V77.2509V77.2671V77.2833V77.2996V77.3159V77.3323V77.3488V77.3653V77.3819V77.3986V77.4153V77.432V77.4489V77.4658V77.4827V77.4997V77.5168V77.5339V77.5511V77.5683V77.5856V77.6029V77.6203V77.6378V77.6553V77.6729V77.6905V77.7082V77.7259V77.7436V77.7615V77.7793V77.7973V77.8152V77.8333V77.8513V77.8695V77.8876V77.9059V77.9241V77.9424V77.9608V77.9792V77.9976V78.0161V78.0347V78.0533V78.0719V78.0906V78.1093V78.128V78.1468V78.1657V78.1846V78.2035V78.2224V78.2414V78.2605V78.2796V78.2987V78.3178V78.337V78.3563V78.3755V78.3948V78.4142V78.4336V78.453V78.4724V78.4919V78.5114V78.5309V78.5505V78.5701V78.5898V78.6095V78.6292V78.6489V78.6687V78.6884V78.7083V78.7281V78.748V78.7679V78.7878V78.8078V78.8278V78.8478V78.8679V78.8879V78.908V78.9281V78.9483V78.9684V78.9886V79.0088V79.029V79.0493V79.0696V79.0899V79.1102V79.1305V79.1508V79.1712V79.1916V79.212V79.2324V79.2529V79.2733V79.2938V79.3143V79.3348V79.3553V79.3759V79.3964V79.417V79.4375V79.4581V79.4787V79.4993V79.52V79.5406V79.5612V79.5819V79.6025V79.6232V79.6439V79.6646V79.6853V79.706V79.7267V79.7474V79.7681V79.7889V79.8096V79.8303V79.8511V79.8718V79.8926V79.9133V79.9341V79.9548V79.9756V79.9963V80.0171V80.0379V80.0586V80.0794V80.1001V80.1209V80.1416V80.1624V80.1831V80.2039V80.2246V80.2454V80.2661V80.2868V80.3075V80.3283V80.349V80.3697V80.3904V80.411V80.4317V80.4524V80.473V80.4937V80.5143V80.535V80.5556V80.5762V80.5968V80.6174V80.6379V80.6585V80.679V80.6996V80.7201V80.7406V80.7611V80.7815V80.802V80.8224V80.8428V80.8632V80.8836V80.904V80.9243V80.9446V80.9649V80.9852V81.0055V81.0257V81.046V81.0662V81.0863V81.1065V81.1266V81.1467V81.1668V81.1869V81.2069V81.2269V81.2469V81.2668V81.2868V81.3067V81.3265V81.3464V81.3662V81.386V81.4057V81.4254V81.4451V81.4648V81.4844V81.504V81.5236V81.5431V81.5626V81.5821V81.6015V81.6209V81.6403V81.6596V81.6789V81.6982V81.7174V81.7366V81.7557V81.7748V81.7939V81.8129V81.8319V81.8508V81.8698V81.8886V81.9074V81.9262V81.945V81.9637V81.9823V82.0009V82.0195V82.038V82.0565V82.0749V82.0933V82.1117V82.13V82.1482V82.1664V82.1846V82.2027V82.2207V82.2387V82.2567V82.2746V82.2925V82.3103V82.328V82.3457V82.3634V82.381V82.3985V82.416V82.4334V82.4508V82.4681V82.4854V82.5026V82.5198V82.5369V82.5539V82.5709V82.5878V82.6047V82.6215V82.6383V82.655V82.6716V82.6882V82.7047V82.7211V82.7375V82.7538V82.7701V82.7863V82.8024V82.8185V82.8345V82.8504V82.8663V82.8821V82.8978V82.9135V82.9291V82.9446V82.9601V82.9755V82.9908V83.0061V83.0213V83.0364V83.0514V83.0664V83.0813V83.0961V83.1109V83.1256V83.1402V83.1547V83.1692V83.1836V83.1979V83.2121V83.2263V83.2403V83.2543V83.2683V83.2821V83.2959V83.3096V83.3232V83.3367V83.3502V83.3635V83.3768V83.39V83.4031V83.4162V83.4291V83.442V83.4548V83.4675V83.4801V83.4927V83.5051V83.5175V83.5298V83.5419V83.554V83.5661V83.578V83.5898V83.6016V83.6132V83.6248V83.6363V83.6476V83.6589Z"
        fill="#172128"
        stroke="#00C6A2"
      />
      <path
        d="M95.6284 76.3621C95.6284 80.6488 92.6848 84.6188 87.7336 87.5445C82.7937 90.4636 75.9365 92.2852 68.3354 92.2852C60.7343 92.2852 53.8772 90.4636 48.9372 87.5445C43.9861 84.6188 41.0425 80.6488 41.0425 76.3621C41.0425 72.0754 43.9861 68.1053 48.9372 65.1796C53.8772 62.2606 60.7343 60.439 68.3354 60.439C75.9365 60.439 82.7937 62.2606 87.7336 65.1796C92.6848 68.1053 95.6284 72.0754 95.6284 76.3621Z"
        fill="#172128"
        stroke="#00C6A2"
      />
      <path
        d="M92.2593 76.3632C92.2593 80.1077 89.6923 83.5864 85.351 86.1563C81.0207 88.7196 75.0059 90.3212 68.3352 90.3212C61.6646 90.3212 55.6498 88.7196 51.3195 86.1563C46.9782 83.5864 44.4111 80.1077 44.4111 76.3632C44.4111 72.6188 46.9782 69.14 51.3195 66.5702C55.6498 64.0069 61.6646 62.4053 68.3352 62.4053C75.0059 62.4053 81.0207 64.0069 85.351 66.5702C89.6923 69.14 92.2593 72.6188 92.2593 76.3632Z"
        fill="#172128"
        stroke="#00C6A2"
      />
      <path d="M42.928 82.8188V89.9776" stroke="#00C6A2" />
      <path d="M46.437 86.3281V93.4869" stroke="#00C6A2" />
      <path d="M49.948 88.5732V95.732" stroke="#00C6A2" />
      <path d="M53.4562 89.9775V97.2767" stroke="#00C6A2" />
      <path d="M56.8247 91.1011L56.8247 98.4002" stroke="#00C6A2" />
      <path d="M60.1943 91.9419L60.1943 99.2411" stroke="#00C6A2" />
      <path d="M63.5629 92.5034L63.5629 99.8026" stroke="#00C6A2" />
      <path d="M66.9325 92.7861L66.9325 100.085" stroke="#00C6A2" />
      <path d="M70.3021 92.5034L70.3021 99.8026" stroke="#00C6A2" />
      <path d="M73.6697 92.2246L73.6697 99.5238" stroke="#00C6A2" />
      <path d="M77.0393 91.9419L77.0393 99.2411" stroke="#00C6A2" />
      <path d="M80.407 91.1011L80.407 98.4002" stroke="#00C6A2" />
      <path d="M83.7765 89.9775L83.7765 97.2767" stroke="#00C6A2" />
      <path d="M87.1451 88.2939L87.1451 95.5931" stroke="#00C6A2" />
      <path d="M90.5138 86.0474L90.5138 93.3465" stroke="#00C6A2" />
      <path d="M93.8833 82.6787L93.8833 89.9779" stroke="#00C6A2" />
      <path
        d="M101.542 71.8347C101.542 76.1214 98.598 80.0915 93.6468 83.0171C88.7069 85.9362 81.8497 87.7578 74.2486 87.7578C66.6475 87.7578 59.7904 85.9362 54.8504 83.0171C49.8993 80.0915 46.9557 76.1214 46.9557 71.8347L46.9558 67.1846L46.9558 64.9324L46.9558 64.2331L46.9558 64.1143C48.7889 61.1564 52.5204 59.0988 57.3758 57.7835C62.2761 56.456 68.2224 55.9116 74.2486 55.9116C80.2749 55.9116 86.2211 56.456 91.1216 57.7835C95.977 59.0988 99.7084 61.1564 101.542 64.1143V64.1166V64.1225V64.1286V64.1348V64.1411V64.1475V64.154V64.1607V64.1674V64.1743V64.1812V64.1883V64.1955V64.2028V64.2102V64.2178V64.2254V64.2331V64.241V64.2489V64.257V64.2651V64.2734V64.2818V64.2903V64.2989V64.3075V64.3163V64.3252V64.3342V64.3433V64.3525V64.3618V64.3712V64.3807V64.3903V64.4V64.4098V64.4197V64.4297V64.4398V64.45V64.4603V64.4707V64.4812V64.4918V64.5024V64.5132V64.5241V64.535V64.5461V64.5572V64.5684V64.5798V64.5912V64.6027V64.6143V64.626V64.6378V64.6496V64.6616V64.6736V64.6858V64.698V64.7103V64.7227V64.7352V64.7477V64.7604V64.7731V64.7859V64.7988V64.8118V64.8249V64.838V64.8513V64.8646V64.878V64.8915V64.905V64.9187V64.9324V64.9462V64.9601V64.974V64.988V65.0021V65.0163V65.0306V65.0449V65.0593V65.0738V65.0884V65.103V65.1177V65.1325V65.1474V65.1623V65.1773V65.1924V65.2075V65.2227V65.238V65.2534V65.2688V65.2843V65.2998V65.3155V65.3312V65.3469V65.3627V65.3786V65.3946V65.4106V65.4267V65.4429V65.4591V65.4754V65.4917V65.5081V65.5246V65.5411V65.5577V65.5743V65.5911V65.6078V65.6247V65.6415V65.6585V65.6755V65.6926V65.7097V65.7269V65.7441V65.7614V65.7787V65.7961V65.8136V65.8311V65.8487V65.8663V65.8839V65.9017V65.9194V65.9373V65.9551V65.973V65.991V66.009V66.0271V66.0452V66.0634V66.0816V66.0999V66.1182V66.1366V66.155V66.1734V66.1919V66.2105V66.229V66.2477V66.2663V66.2851V66.3038V66.3226V66.3415V66.3603V66.3793V66.3982V66.4172V66.4363V66.4553V66.4745V66.4936V66.5128V66.532V66.5513V66.5706V66.59V66.6093V66.6287V66.6482V66.6677V66.6872V66.7067V66.7263V66.7459V66.7656V66.7852V66.8049V66.8247V66.8444V66.8642V66.8841V66.9039V66.9238V66.9437V66.9636V66.9836V67.0036V67.0236V67.0436V67.0637V67.0838V67.1039V67.124V67.1442V67.1644V67.1846V67.2048V67.2251V67.2453V67.2656V67.2859V67.3063V67.3266V67.347V67.3674V67.3878V67.4082V67.4287V67.4491V67.4696V67.4901V67.5106V67.5311V67.5516V67.5722V67.5927V67.6133V67.6339V67.6545V67.6751V67.6957V67.7164V67.737V67.7577V67.7783V67.799V67.8197V67.8404V67.8611V67.8818V67.9025V67.9232V67.9439V67.9646V67.9854V68.0061V68.0269V68.0476V68.0683V68.0891V68.1099V68.1306V68.1514V68.1721V68.1929V68.2136V68.2344V68.2552V68.2759V68.2967V68.3174V68.3382V68.3589V68.3797V68.4004V68.4211V68.4419V68.4626V68.4833V68.504V68.5247V68.5454V68.5661V68.5868V68.6075V68.6282V68.6488V68.6695V68.6901V68.7107V68.7314V68.752V68.7726V68.7931V68.8137V68.8343V68.8548V68.8753V68.8959V68.9164V68.9368V68.9573V68.9778V68.9982V69.0186V69.039V69.0594V69.0798V69.1001V69.1204V69.1407V69.161V69.1813V69.2015V69.2217V69.2419V69.2621V69.2823V69.3024V69.3225V69.3426V69.3626V69.3827V69.4027V69.4227V69.4426V69.4625V69.4824V69.5023V69.5221V69.542V69.5617V69.5815V69.6012V69.6209V69.6406V69.6602V69.6798V69.6994V69.7189V69.7384V69.7579V69.7773V69.7967V69.8161V69.8354V69.8547V69.8739V69.8932V69.9123V69.9315V69.9506V69.9697V69.9887V70.0077V70.0266V70.0455V70.0644V70.0832V70.102V70.1208V70.1395V70.1581V70.1767V70.1953V70.2138V70.2323V70.2507V70.2691V70.2875V70.3058V70.324V70.3422V70.3604V70.3785V70.3965V70.4145V70.4325V70.4504V70.4682V70.486V70.5038V70.5215V70.5392V70.5567V70.5743V70.5918V70.6092V70.6266V70.6439V70.6612V70.6784V70.6956V70.7127V70.7297V70.7467V70.7636V70.7805V70.7973V70.814V70.8307V70.8474V70.8639V70.8804V70.8969V70.9133V70.9296V70.9459V70.962V70.9782V70.9942V71.0102V71.0262V71.042V71.0579V71.0736V71.0893V71.1049V71.1204V71.1359V71.1513V71.1666V71.1818V71.197V71.2121V71.2272V71.2422V71.2571V71.2719V71.2867V71.3013V71.316V71.3305V71.3449V71.3593V71.3736V71.3879V71.402V71.4161V71.4301V71.444V71.4579V71.4717V71.4853V71.499V71.5125V71.5259V71.5393V71.5526V71.5658V71.5789V71.592V71.6049V71.6178V71.6306V71.6433V71.6559V71.6684V71.6809V71.6933V71.7055V71.7177V71.7298V71.7418V71.7538V71.7656V71.7773V71.789V71.8006V71.812V71.8234V71.8347Z"
        fill="#172128"
        stroke="#00C6A2"
      />
      <path
        d="M101.542 64.5378C101.542 68.8245 98.598 72.7946 93.6469 75.7203C88.7069 78.6393 81.8497 80.4609 74.2486 80.4609C66.6475 80.4609 59.7904 78.6393 54.8504 75.7203C49.8993 72.7946 46.9557 68.8245 46.9557 64.5378C46.9557 60.2512 49.8993 56.2811 54.8504 53.3554C59.7904 50.4364 66.6475 48.6147 74.2486 48.6147C81.8497 48.6147 88.7069 50.4364 93.6469 53.3554C98.598 56.2811 101.542 60.2512 101.542 64.5378Z"
        fill="#172128"
        stroke="#00C6A2"
      />
      <path
        d="M98.1725 64.539C98.1725 68.2835 95.6055 71.7622 91.2642 74.332C86.9339 76.8954 80.9191 78.4969 74.2484 78.4969C67.5778 78.4969 61.563 76.8954 57.2327 74.332C52.8914 71.7622 50.3243 68.2835 50.3243 64.539C50.3243 60.7945 52.8914 57.3158 57.2327 54.746C61.563 52.1826 67.5778 50.5811 74.2484 50.5811C80.9191 50.5811 86.9339 52.1826 91.2642 54.746C95.6055 57.3158 98.1725 60.7945 98.1725 64.539Z"
        fill="#172128"
        stroke="#00C6A2"
      />
      <path d="M48.8412 70.9946V78.1534" stroke="#00C6A2" />
      <path d="M52.3502 74.5039V81.6627" stroke="#00C6A2" />
      <path d="M55.8612 76.749V83.9078" stroke="#00C6A2" />
      <path d="M59.3694 78.1533V85.4525" stroke="#00C6A2" />
      <path d="M62.7379 79.2769L62.7379 86.576" stroke="#00C6A2" />
      <path d="M66.1075 80.1177L66.1075 87.4168" stroke="#00C6A2" />
      <path d="M69.4761 80.6792L69.4761 87.9784" stroke="#00C6A2" />
      <path d="M72.8457 80.9619L72.8457 88.2611" stroke="#00C6A2" />
      <path d="M76.2153 80.6792L76.2153 87.9784" stroke="#00C6A2" />
      <path d="M79.5829 80.4004L79.5829 87.6995" stroke="#00C6A2" />
      <path d="M82.9525 80.1177L82.9525 87.4168" stroke="#00C6A2" />
      <path d="M86.3202 79.2769L86.3202 86.576" stroke="#00C6A2" />
      <path d="M89.6897 78.1533L89.6897 85.4525" stroke="#00C6A2" />
      <path d="M93.0583 76.4697L93.0583 83.7689" stroke="#00C6A2" />
      <path d="M96.427 74.2231L96.427 81.5223" stroke="#00C6A2" />
      <path d="M99.7965 70.8545L99.7965 78.1536" stroke="#00C6A2" />
      <path
        d="M96.0051 57.2354C95.3187 61.4668 91.7774 64.9143 86.4217 67.0094C81.0781 69.0998 74.0177 69.7999 66.5147 68.5828C59.0117 67.3657 52.5347 64.4696 48.1259 60.7971C43.7071 57.1164 41.4372 52.7262 42.1236 48.4949L42.8682 43.9048L43.2289 41.6816L43.3409 40.9914L43.3599 40.8741C45.643 38.2478 49.6558 36.8143 54.6592 36.2934C59.7089 35.7677 65.6655 36.1825 71.614 37.1475C77.5626 38.1124 83.3449 39.6019 87.9695 41.6969C92.5517 43.7727 95.9055 46.4013 97.2414 49.6146L97.241 49.6168L97.24 49.6227L97.2391 49.6287L97.2381 49.6348L97.2371 49.641L97.236 49.6474L97.235 49.6538L97.2339 49.6603L97.2329 49.667L97.2318 49.6738L97.2306 49.6807L97.2295 49.6877L97.2283 49.6948L97.2272 49.702L97.226 49.7093L97.2248 49.7167L97.2236 49.7242L97.2223 49.7319L97.2211 49.7396L97.2198 49.7475L97.2185 49.7554L97.2172 49.7635L97.2159 49.7716L97.2145 49.7799L97.2132 49.7883L97.2118 49.7967L97.2104 49.8053L97.209 49.814L97.2076 49.8228L97.2061 49.8317L97.2047 49.8406L97.2032 49.8497L97.2017 49.8589L97.2002 49.8682L97.1987 49.8776L97.1972 49.8871L97.1956 49.8966L97.194 49.9063L97.1924 49.9161L97.1908 49.9259L97.1892 49.9359L97.1876 49.946L97.1859 49.9561L97.1843 49.9664L97.1826 49.9767L97.1809 49.9872L97.1792 49.9977L97.1775 50.0083L97.1757 50.0191L97.174 50.0299L97.1722 50.0408L97.1704 50.0518L97.1686 50.0629L97.1668 50.074L97.165 50.0853L97.1632 50.0967L97.1613 50.1081L97.1594 50.1197L97.1575 50.1313L97.1556 50.143L97.1537 50.1548L97.1518 50.1667L97.1499 50.1787L97.1479 50.1907L97.1459 50.2029L97.1439 50.2151L97.1419 50.2274L97.1399 50.2398L97.1379 50.2523L97.1359 50.2649L97.1338 50.2775L97.1317 50.2903L97.1297 50.3031L97.1276 50.316L97.1255 50.329L97.1233 50.3421L97.1212 50.3552L97.1191 50.3684L97.1169 50.3817L97.1147 50.3951L97.1126 50.4086L97.1104 50.4221L97.1082 50.4357L97.1059 50.4494L97.1037 50.4632L97.1014 50.477L97.0992 50.491L97.0969 50.505L97.0946 50.5191L97.0923 50.5332L97.09 50.5474L97.0877 50.5617L97.0854 50.5761L97.083 50.5906L97.0807 50.6051L97.0783 50.6197L97.0759 50.6343L97.0735 50.6491L97.0711 50.6639L97.0687 50.6787L97.0663 50.6937L97.0639 50.7087L97.0614 50.7238L97.059 50.7389L97.0565 50.7542L97.054 50.7695L97.0515 50.7848L97.049 50.8002L97.0465 50.8157L97.044 50.8313L97.0414 50.8469L97.0389 50.8626L97.0363 50.8784L97.0338 50.8942L97.0312 50.9101L97.0286 50.926L97.026 50.942L97.0234 50.9581L97.0208 50.9742L97.0182 50.9904L97.0155 51.0067L97.0129 51.023L97.0102 51.0393L97.0076 51.0558L97.0049 51.0723L97.0022 51.0888L96.9995 51.1054L96.9968 51.1221L96.9941 51.1388L96.9914 51.1556L96.9886 51.1725L96.9859 51.1894L96.9831 51.2063L96.9804 51.2233L96.9776 51.2404L96.9748 51.2575L96.9721 51.2747L96.9693 51.2919L96.9665 51.3092L96.9636 51.3266L96.9608 51.3439L96.958 51.3614L96.9552 51.3789L96.9523 51.3964L96.9495 51.414L96.9466 51.4317L96.9437 51.4493L96.9408 51.4671L96.938 51.4849L96.9351 51.5027L96.9322 51.5206L96.9293 51.5385L96.9263 51.5565L96.9234 51.5746L96.9205 51.5926L96.9175 51.6108L96.9146 51.6289L96.9116 51.6471L96.9087 51.6654L96.9057 51.6837L96.9027 51.702L96.8998 51.7204L96.8968 51.7389L96.8938 51.7573L96.8908 51.7758L96.8878 51.7944L96.8847 51.813L96.8817 51.8316L96.8787 51.8503L96.8756 51.869L96.8726 51.8878L96.8696 51.9066L96.8665 51.9254L96.8634 51.9443L96.8604 51.9632L96.8573 51.9821L96.8542 52.0011L96.8511 52.0201L96.848 52.0392L96.8449 52.0583L96.8418 52.0774L96.8387 52.0966L96.8356 52.1158L96.8325 52.135L96.8294 52.1543L96.8262 52.1736L96.8231 52.1929L96.82 52.2122L96.8168 52.2316L96.8137 52.251L96.8105 52.2705L96.8074 52.29L96.8042 52.3095L96.801 52.329L96.7979 52.3486L96.7947 52.3682L96.7915 52.3878L96.7883 52.4075L96.7851 52.4271L96.7819 52.4468L96.7787 52.4666L96.7755 52.4863L96.7723 52.5061L96.7691 52.5259L96.7659 52.5458L96.7626 52.5656L96.7594 52.5855L96.7562 52.6054L96.753 52.6253L96.7497 52.6453L96.7465 52.6652L96.7432 52.6852L96.74 52.7052L96.7368 52.7252L96.7335 52.7453L96.7302 52.7654L96.727 52.7855L96.7237 52.8056L96.7205 52.8257L96.7172 52.8458L96.7139 52.866L96.7106 52.8862L96.7074 52.9064L96.7041 52.9266L96.7008 52.9468L96.6975 52.967L96.6942 52.9873L96.691 53.0076L96.6877 53.0278L96.6844 53.0481L96.6811 53.0684L96.6778 53.0888L96.6745 53.1091L96.6712 53.1294L96.6679 53.1498L96.6646 53.1702L96.6613 53.1905L96.658 53.2109L96.6547 53.2313L96.6513 53.2517L96.648 53.2721L96.6447 53.2926L96.6414 53.313L96.6381 53.3334L96.6348 53.3539L96.6315 53.3743L96.6281 53.3948L96.6248 53.4152L96.6215 53.4357L96.6182 53.4562L96.6149 53.4766L96.6115 53.4971L96.6082 53.5176L96.6049 53.5381L96.6016 53.5586L96.5982 53.5791L96.5949 53.5996L96.5916 53.62L96.5883 53.6405L96.585 53.661L96.5816 53.6815L96.5783 53.702L96.575 53.7225L96.5717 53.743L96.5683 53.7635L96.565 53.784L96.5617 53.8044L96.5584 53.8249L96.555 53.8454L96.5517 53.8659L96.5484 53.8863L96.5451 53.9068L96.5418 53.9272L96.5385 53.9477L96.5351 53.9681L96.5318 53.9885L96.5285 54.009L96.5252 54.0294L96.5219 54.0498L96.5186 54.0702L96.5153 54.0906L96.512 54.111L96.5087 54.1314L96.5054 54.1517L96.5021 54.1721L96.4988 54.1924L96.4955 54.2127L96.4922 54.2331L96.4889 54.2534L96.4856 54.2737L96.4823 54.2939L96.479 54.3142L96.4757 54.3344L96.4724 54.3547L96.4691 54.3749L96.4659 54.3951L96.4626 54.4153L96.4593 54.4355L96.4561 54.4556L96.4528 54.4757L96.4495 54.4959L96.4463 54.516L96.443 54.536L96.4398 54.5561L96.4365 54.5762L96.4333 54.5962L96.43 54.6162L96.4268 54.6362L96.4235 54.6561L96.4203 54.6761L96.4171 54.696L96.4138 54.7159L96.4106 54.7357L96.4074 54.7556L96.4042 54.7754L96.401 54.7952L96.3978 54.815L96.3946 54.8347L96.3914 54.8544L96.3882 54.8741L96.385 54.8938L96.3818 54.9134L96.3786 54.9331L96.3754 54.9526L96.3723 54.9722L96.3691 54.9917L96.3659 55.0112L96.3628 55.0307L96.3596 55.0501L96.3565 55.0696L96.3533 55.0889L96.3502 55.1083L96.3471 55.1276L96.3439 55.1469L96.3408 55.1661L96.3377 55.1853L96.3346 55.2045L96.3315 55.2237L96.3284 55.2428L96.3253 55.2619L96.3222 55.2809L96.3191 55.2999L96.316 55.3189L96.3129 55.3378L96.3099 55.3567L96.3068 55.3756L96.3038 55.3944L96.3007 55.4132L96.2977 55.4319L96.2946 55.4506L96.2916 55.4693L96.2886 55.4879L96.2856 55.5065L96.2826 55.525L96.2796 55.5435L96.2766 55.562L96.2736 55.5804L96.2706 55.5988L96.2676 55.6171L96.2647 55.6354L96.2617 55.6536L96.2588 55.6718L96.2558 55.69L96.2529 55.7081L96.25 55.7261L96.247 55.7442L96.2441 55.7621L96.2412 55.78L96.2383 55.7979L96.2354 55.8157L96.2325 55.8335L96.2297 55.8512L96.2268 55.8689L96.2239 55.8865L96.2211 55.9041L96.2182 55.9216L96.2154 55.9391L96.2126 55.9565L96.2098 55.9739L96.207 55.9912L96.2042 56.0085L96.2014 56.0257L96.1986 56.0428L96.1958 56.0599L96.193 56.077L96.1903 56.094L96.1875 56.1109L96.1848 56.1278L96.1821 56.1446L96.1793 56.1614L96.1766 56.1781L96.1739 56.1948L96.1712 56.2113L96.1686 56.2279L96.1659 56.2444L96.1632 56.2608L96.1606 56.2771L96.1579 56.2934L96.1553 56.3097L96.1527 56.3258L96.1501 56.3419L96.1475 56.358L96.1449 56.374L96.1423 56.3899L96.1397 56.4057L96.1371 56.4215L96.1346 56.4373L96.1321 56.4529L96.1295 56.4685L96.127 56.4841L96.1245 56.4995L96.122 56.5149L96.1195 56.5303L96.117 56.5455L96.1146 56.5607L96.1121 56.5759L96.1097 56.5909L96.1072 56.6059L96.1048 56.6208L96.1024 56.6357L96.1 56.6505L96.0976 56.6652L96.0953 56.6798L96.0929 56.6944L96.0905 56.7089L96.0882 56.7233L96.0859 56.7377L96.0836 56.7519L96.0813 56.7661L96.079 56.7803L96.0767 56.7943L96.0744 56.8083L96.0722 56.8222L96.0699 56.836L96.0677 56.8497L96.0655 56.8634L96.0633 56.877L96.0611 56.8905L96.0589 56.904L96.0567 56.9173L96.0546 56.9306L96.0524 56.9438L96.0503 56.9569L96.0482 56.9699L96.0461 56.9829L96.044 56.9958L96.0419 57.0085L96.0399 57.0213L96.0378 57.0339L96.0358 57.0464L96.0338 57.0589L96.0318 57.0713L96.0298 57.0835L96.0278 57.0957L96.0258 57.1079L96.0239 57.1199L96.0219 57.1318L96.02 57.1437L96.0181 57.1555L96.0162 57.1672L96.0143 57.1787L96.0125 57.1903L96.0106 57.2017L96.0088 57.213L96.0069 57.2242L96.0051 57.2354Z"
        fill="#172128"
        stroke="#00C6A2"
      />
      <path
        d="M97.1735 50.0318C96.4871 54.2631 92.9458 57.7106 87.59 59.8058C82.2464 61.8962 75.186 62.5963 67.683 61.3792C60.18 60.162 53.703 57.2659 49.2942 53.5935C44.8754 49.9128 42.6055 45.5226 43.2919 41.2913C43.9783 37.0599 47.5196 33.6124 52.8754 31.5173C58.219 29.4269 65.2794 28.7268 72.7824 29.9439C80.2854 31.161 86.7624 34.0571 91.1712 37.7295C95.59 41.4102 97.8599 45.8004 97.1735 50.0318Z"
        fill="#172128"
        stroke="#00C6A2"
      />
      <path
        d="M93.8472 49.4921C93.2476 53.1883 90.1566 56.2111 85.4598 58.0526C80.775 59.8895 74.5813 60.5073 67.9967 59.4391C61.4122 58.371 55.7314 55.827 51.8675 52.6033C47.9937 49.3715 46.0168 45.5266 46.6163 41.8305C47.2159 38.1343 50.3069 35.1115 55.0037 33.27C59.6885 31.4331 65.8822 30.8153 72.4668 31.8834C79.0513 32.9516 84.7321 35.4956 88.596 38.7192C92.4698 41.9511 94.4467 45.796 93.8472 49.4921Z"
        fill="#172128"
        stroke="#00C6A2"
      />
      <path d="M44.1212 47.9658L42.9749 55.0322" stroke="#00C6A2" />
      <path d="M47.0208 51.9937L45.8745 59.0601" stroke="#00C6A2" />
      <path d="M50.126 54.7695L48.9797 61.8359" stroke="#00C6A2" />
      <path d="M53.3658 56.7197L52.1971 63.9247" stroke="#00C6A2" />
      <path d="M56.5111 58.3682L55.3423 65.5731" stroke="#00C6A2" />
      <path d="M59.7023 59.7393L58.5335 66.9442" stroke="#00C6A2" />
      <path d="M62.9373 60.8315L61.7685 68.0365" stroke="#00C6A2" />
      <path d="M66.2172 61.647L65.0484 68.8519" stroke="#00C6A2" />
      <path d="M69.5876 61.9102L68.4189 69.1151" stroke="#00C6A2" />
      <path d="M72.9583 62.1738L71.7895 69.3788" stroke="#00C6A2" />
      <path d="M76.3297 62.4351L75.1609 69.64" stroke="#00C6A2" />
      <path d="M79.7891 62.1445L78.6203 69.3495" stroke="#00C6A2" />
      <path d="M83.2942 61.5747L82.1254 68.7797" stroke="#00C6A2" />
      <path d="M86.889 60.4512L85.7203 67.6561" stroke="#00C6A2" />
      <path d="M90.5747 58.772L89.4059 65.9769" stroke="#00C6A2" />
      <path d="M94.4387 55.9863L93.2699 63.1913" stroke="#00C6A2" />
      <path
        fill-rule="evenodd"
        clip-rule="evenodd"
        d="M87.0094 55.5772C93.3951 48.6171 108.327 51.0374 120.815 61.1895C133.303 71.3408 138.721 85.4628 133.213 93.1356C133.212 93.1482 133.21 93.1607 133.208 93.1733L127.893 99.7112C121.76 107.255 106.439 104.957 93.6727 94.5786C80.9061 84.2 75.5283 69.671 81.6611 62.1271L86.518 56.1528C86.5435 56.1207 86.5692 56.0888 86.5951 56.0569C86.621 56.025 86.6471 55.9932 86.6734 55.9617L86.9762 55.5893C86.9872 55.5852 86.9983 55.5812 87.0094 55.5772Z"
        fill="#0D0D0D"
        fill-opacity="0.6"
      />
      <path
        fill-rule="evenodd"
        clip-rule="evenodd"
        d="M164.567 90.0858C164.578 90.0596 164.588 90.0334 164.599 90.0071C164.61 89.9808 164.62 89.9545 164.63 89.9281L164.818 89.4601C164.816 89.4485 164.814 89.4369 164.812 89.4253C167.729 80.667 158.575 69.058 143.976 63.2058C129.378 57.3539 114.741 59.426 110.799 67.7728C110.79 67.7802 110.78 67.7875 110.77 67.7949L107.706 75.4379C104.171 84.2571 113.404 96.2565 128.329 102.239C143.254 108.222 158.219 105.922 161.754 97.1032L164.567 90.0858Z"
        fill="#0D0D0D"
        fill-opacity="0.6"
      />
      <path
        d="M122.821 97.1586C120.117 100.485 115.329 101.709 109.641 100.856C103.967 100.004 97.4971 97.0924 91.599 92.2977C85.701 87.5029 81.5293 81.7639 79.5375 76.3828C77.5412 70.9894 77.7615 66.052 80.4655 62.7258L83.3989 59.1176L84.8196 57.3701L85.2607 56.8275L85.3357 56.7353C88.6239 55.5964 92.8173 56.3536 97.4145 58.3958C102.054 60.4569 107.012 63.7854 111.688 67.5868C116.364 71.3882 120.634 75.5614 123.599 79.6827C126.537 83.7661 128.135 87.7165 127.691 91.168L127.69 91.1698L127.686 91.1744L127.682 91.1791L127.678 91.1839L127.674 91.1888L127.67 91.1938L127.666 91.1988L127.662 91.204L127.658 91.2092L127.653 91.2146L127.649 91.22L127.644 91.2255L127.64 91.231L127.635 91.2367L127.631 91.2425L127.626 91.2483L127.621 91.2542L127.616 91.2602L127.611 91.2663L127.606 91.2725L127.601 91.2787L127.596 91.2851L127.591 91.2915L127.586 91.298L127.58 91.3046L127.575 91.3112L127.569 91.318L127.564 91.3248L127.558 91.3317L127.552 91.3387L127.547 91.3457L127.541 91.3529L127.535 91.3601L127.529 91.3674L127.523 91.3747L127.517 91.3822L127.511 91.3897L127.505 91.3973L127.499 91.405L127.492 91.4128L127.486 91.4206L127.479 91.4285L127.473 91.4365L127.466 91.4446L127.46 91.4527L127.453 91.4609L127.446 91.4692L127.44 91.4775L127.433 91.486L127.426 91.4945L127.419 91.503L127.412 91.5117L127.405 91.5204L127.398 91.5292L127.39 91.5381L127.383 91.547L127.376 91.556L127.368 91.5651L127.361 91.5742L127.354 91.5834L127.346 91.5927L127.338 91.602L127.331 91.6114L127.323 91.6209L127.315 91.6305L127.307 91.6401L127.3 91.6498L127.292 91.6595L127.284 91.6693L127.276 91.6792L127.268 91.6892L127.259 91.6992L127.251 91.7093L127.243 91.7194L127.235 91.7296L127.226 91.7399L127.218 91.7502L127.209 91.7606L127.201 91.7711L127.192 91.7816L127.184 91.7922L127.175 91.8028L127.166 91.8135L127.158 91.8243L127.149 91.8351L127.14 91.846L127.131 91.8569L127.122 91.8679L127.113 91.879L127.104 91.8901L127.095 91.9013L127.086 91.9126L127.077 91.9239L127.068 91.9352L127.058 91.9466L127.049 91.9581L127.04 91.9696L127.03 91.9812L127.021 91.9928L127.011 92.0045L127.002 92.0163L126.992 92.0281L126.982 92.04L126.973 92.0519L126.963 92.0638L126.953 92.0758L126.943 92.0879L126.934 92.1L126.924 92.1122L126.914 92.1245L126.904 92.1367L126.894 92.1491L126.884 92.1614L126.873 92.1739L126.863 92.1864L126.853 92.1989L126.843 92.2115L126.833 92.2241L126.822 92.2368L126.812 92.2495L126.802 92.2623L126.791 92.2751L126.781 92.288L126.77 92.3009L126.76 92.3139L126.749 92.3269L126.738 92.34L126.728 92.3531L126.717 92.3662L126.706 92.3794L126.696 92.3927L126.685 92.4059L126.674 92.4193L126.663 92.4326L126.652 92.4461L126.641 92.4595L126.63 92.473L126.619 92.4866L126.608 92.5001L126.597 92.5138L126.586 92.5274L126.575 92.5412L126.564 92.5549L126.553 92.5687L126.541 92.5825L126.53 92.5964L126.519 92.6103L126.507 92.6242L126.496 92.6382L126.485 92.6523L126.473 92.6663L126.462 92.6804L126.45 92.6946L126.439 92.7087L126.427 92.7229L126.416 92.7372L126.404 92.7515L126.392 92.7658L126.381 92.7801L126.369 92.7945L126.357 92.8089L126.345 92.8234L126.334 92.8379L126.322 92.8524L126.31 92.867L126.298 92.8815L126.286 92.8962L126.274 92.9108L126.262 92.9255L126.25 92.9402L126.239 92.955L126.226 92.9697L126.214 92.9845L126.202 92.9994L126.19 93.0142L126.178 93.0291L126.166 93.0441L126.154 93.059L126.142 93.074L126.13 93.089L126.117 93.104L126.105 93.1191L126.093 93.1342L126.081 93.1493L126.068 93.1644L126.056 93.1796L126.044 93.1948L126.031 93.21L126.019 93.2252L126.006 93.2405L125.994 93.2558L125.981 93.2711L125.969 93.2864L125.957 93.3018L125.944 93.3172L125.932 93.3326L125.919 93.348L125.906 93.3635L125.894 93.3789L125.881 93.3944L125.869 93.4099L125.856 93.4255L125.843 93.441L125.831 93.4566L125.818 93.4722L125.805 93.4878L125.793 93.5034L125.78 93.519L125.767 93.5347L125.754 93.5504L125.742 93.5661L125.729 93.5818L125.716 93.5975L125.703 93.6133L125.691 93.629L125.678 93.6448L125.665 93.6606L125.652 93.6764L125.639 93.6922L125.626 93.7081L125.613 93.7239L125.6 93.7398L125.588 93.7556L125.575 93.7715L125.562 93.7874L125.549 93.8033L125.536 93.8193L125.523 93.8352L125.51 93.8511L125.497 93.8671L125.484 93.8831L125.471 93.899L125.458 93.915L125.445 93.931L125.432 93.947L125.419 93.963L125.406 93.979L125.393 93.9951L125.38 94.0111L125.367 94.0271L125.354 94.0432L125.341 94.0592L125.328 94.0753L125.315 94.0914L125.302 94.1074L125.289 94.1235L125.275 94.1396L125.262 94.1557L125.249 94.1718L125.236 94.1878L125.223 94.2039L125.21 94.22L125.197 94.2361L125.184 94.2522L125.171 94.2683L125.158 94.2844L125.145 94.3006L125.132 94.3167L125.118 94.3328L125.105 94.3489L125.092 94.365L125.079 94.3811L125.066 94.3972L125.053 94.4133L125.04 94.4294L125.027 94.4455L125.014 94.4616L125.001 94.4777L124.988 94.4938L124.974 94.5099L124.961 94.526L124.948 94.5421L124.935 94.5581L124.922 94.5742L124.909 94.5903L124.896 94.6063L124.883 94.6224L124.87 94.6384L124.857 94.6545L124.844 94.6705L124.831 94.6866L124.818 94.7026L124.805 94.7186L124.792 94.7346L124.779 94.7506L124.766 94.7666L124.753 94.7826L124.74 94.7985L124.727 94.8145L124.714 94.8305L124.701 94.8464L124.688 94.8623L124.675 94.8782L124.662 94.8941L124.649 94.91L124.636 94.9259L124.623 94.9418L124.61 94.9576L124.598 94.9735L124.585 94.9893L124.572 95.0051L124.559 95.0209L124.546 95.0367L124.533 95.0525L124.521 95.0682L124.508 95.084L124.495 95.0997L124.482 95.1154L124.469 95.1311L124.457 95.1468L124.444 95.1624L124.431 95.1781L124.419 95.1937L124.406 95.2093L124.393 95.2249L124.381 95.2404L124.368 95.256L124.355 95.2715L124.343 95.287L124.33 95.3025L124.318 95.3179L124.305 95.3334L124.292 95.3488L124.28 95.3642L124.267 95.3796L124.255 95.3949L124.242 95.4103L124.23 95.4256L124.218 95.4408L124.205 95.4561L124.193 95.4713L124.18 95.4865L124.168 95.5017L124.156 95.5169L124.144 95.532L124.131 95.5471L124.119 95.5622L124.107 95.5772L124.095 95.5923L124.082 95.6073L124.07 95.6222L124.058 95.6372L124.046 95.6521L124.034 95.667L124.022 95.6818L124.01 95.6967L123.998 95.7114L123.986 95.7262L123.974 95.7409L123.962 95.7556L123.95 95.7703L123.938 95.785L123.926 95.7996L123.914 95.8141L123.902 95.8287L123.891 95.8432L123.879 95.8577L123.867 95.8721L123.855 95.8865L123.844 95.9009L123.832 95.9152L123.82 95.9295L123.809 95.9438L123.797 95.958L123.786 95.9722L123.774 95.9864L123.763 96.0005L123.751 96.0146L123.74 96.0287L123.728 96.0427L123.717 96.0566L123.706 96.0706L123.694 96.0845L123.683 96.0983L123.672 96.1121L123.661 96.1259L123.65 96.1396L123.638 96.1533L123.627 96.167L123.616 96.1806L123.605 96.1942L123.594 96.2077L123.583 96.2212L123.572 96.2346L123.561 96.248L123.551 96.2614L123.54 96.2747L123.529 96.288L123.518 96.3012L123.507 96.3144L123.497 96.3275L123.486 96.3406L123.476 96.3537L123.465 96.3666L123.454 96.3796L123.444 96.3925L123.434 96.4054L123.423 96.4182L123.413 96.4309L123.402 96.4436L123.392 96.4563L123.382 96.4689L123.372 96.4815L123.361 96.494L123.351 96.5065L123.341 96.5189L123.331 96.5312L123.321 96.5436L123.311 96.5558L123.301 96.568L123.291 96.5802L123.282 96.5923L123.272 96.6044L123.262 96.6164L123.252 96.6283L123.243 96.6402L123.233 96.652L123.223 96.6638L123.214 96.6756L123.204 96.6872L123.195 96.6988L123.186 96.7104L123.176 96.7219L123.167 96.7334L123.158 96.7448L123.148 96.7561L123.139 96.7674L123.13 96.7786L123.121 96.7898L123.112 96.8009L123.103 96.8119L123.094 96.8229L123.085 96.8338L123.076 96.8447L123.068 96.8555L123.059 96.8662L123.05 96.8769L123.042 96.8875L123.033 96.8981L123.024 96.9086L123.016 96.919L123.007 96.9294L122.999 96.9397L122.991 96.95L122.983 96.9601L122.974 96.9703L122.966 96.9803L122.958 96.9903L122.95 97.0002L122.942 97.0101L122.934 97.0199L122.926 97.0296L122.918 97.0393L122.91 97.0489L122.903 97.0584L122.895 97.0678L122.887 97.0772L122.88 97.0866L122.872 97.0958L122.865 97.105L122.857 97.1141L122.85 97.1232L122.843 97.1321L122.835 97.141L122.828 97.1499L122.821 97.1586Z"
        fill="#172128"
        stroke="#00C6A2"
      />
      <path
        d="M127.424 91.496C124.72 94.8223 119.932 96.046 114.245 95.193C108.57 94.3419 102.1 91.4299 96.2023 86.6351C90.3043 81.8403 86.1326 76.1013 84.1408 70.7202C82.1445 65.3268 82.3647 60.3894 85.0688 57.0632C87.7728 53.737 92.5612 52.5133 98.2485 53.3663C103.923 54.2174 110.393 57.1294 116.291 61.9242C122.189 66.719 126.361 72.4579 128.352 77.8391C130.349 83.2324 130.128 88.1698 127.424 91.496Z"
        fill="#172128"
        stroke="#00C6A2"
      />
      <path
        d="M124.809 89.3705C122.447 92.276 118.261 93.356 113.271 92.6115C108.294 91.869 102.617 89.3176 97.4407 85.1097C92.2646 80.9019 88.6077 75.865 86.8646 71.1444C85.1171 66.4119 85.3196 62.0933 87.6816 59.1878C90.0436 56.2823 94.2299 55.2023 99.2195 55.9467C104.197 56.6893 109.874 59.2407 115.05 63.4485C120.226 67.6564 123.883 72.6933 125.626 77.4138C127.374 82.1464 127.171 86.465 124.809 89.3705Z"
        fill="#172128"
        stroke="#00C6A2"
      />
      <path d="M82.4604 63.2622L77.9447 68.817" stroke="#00C6A2" />
      <path d="M82.9685 68.1992L78.4527 73.754" stroke="#00C6A2" />
      <path d="M84.2754 72.1548L79.7596 77.7096" stroke="#00C6A2" />
      <path d="M86.1129 75.457L81.5086 81.1208" stroke="#00C6A2" />
      <path d="M88.0186 78.457L83.4142 84.1208" stroke="#00C6A2" />
      <path d="M90.1008 81.2349L85.4965 86.8986" stroke="#00C6A2" />
      <path d="M92.3615 83.7939L87.7571 89.4577" stroke="#00C6A2" />
      <path d="M94.7968 86.1382L90.1924 91.8019" stroke="#00C6A2" />
      <path d="M97.59 88.0439L92.9857 93.7077" stroke="#00C6A2" />
      <path d="M100.379 89.9517L95.775 95.6154" stroke="#00C6A2" />
      <path d="M103.171 91.8613L98.5671 97.5251" stroke="#00C6A2" />
      <path d="M106.317 93.332L101.712 98.9958" stroke="#00C6A2" />
      <path d="M109.639 94.5845L105.034 100.248" stroke="#00C6A2" />
      <path d="M113.314 95.4033L108.71 101.067" stroke="#00C6A2" />
      <path d="M117.347 95.7837L112.743 101.447" stroke="#00C6A2" />
      <path d="M122.086 95.2964L117.482 100.96" stroke="#00C6A2" />
      <path
        d="M158.746 92.5896C157.364 96.6473 153.298 99.4562 147.668 100.629C142.05 101.799 134.972 101.313 127.777 98.8619C120.582 96.411 114.678 92.4757 110.943 88.1196C107.2 83.7538 105.694 79.0466 107.076 74.9889L108.575 70.5872L109.302 68.4553L109.527 67.7934L109.566 67.6809C112.254 65.472 116.45 64.7275 121.47 65.048C126.537 65.3714 132.341 66.7735 138.045 68.7166C143.75 70.6597 149.203 73.0923 153.414 75.929C157.586 78.7396 160.454 81.8905 161.236 85.2815L161.235 85.2837L161.233 85.2893L161.231 85.295L161.229 85.3009L161.227 85.3069L161.225 85.3129L161.223 85.3191L161.221 85.3254L161.219 85.3318L161.216 85.3383L161.214 85.3449L161.212 85.3516L161.21 85.3584L161.207 85.3653L161.205 85.3723L161.202 85.3794L161.2 85.3867L161.198 85.394L161.195 85.4014L161.192 85.4089L161.19 85.4166L161.187 85.4243L161.185 85.4321L161.182 85.44L161.179 85.4481L161.176 85.4562L161.174 85.4644L161.171 85.4727L161.168 85.4812L161.165 85.4897L161.162 85.4983L161.159 85.507L161.156 85.5158L161.153 85.5247L161.15 85.5337L161.147 85.5428L161.144 85.552L161.141 85.5613L161.137 85.5706L161.134 85.5801L161.131 85.5897L161.128 85.5993L161.124 85.609L161.121 85.6189L161.118 85.6288L161.114 85.6388L161.111 85.6489L161.107 85.6591L161.104 85.6694L161.1 85.6798L161.097 85.6902L161.093 85.7008L161.089 85.7114L161.086 85.7221L161.082 85.7329L161.078 85.7438L161.075 85.7548L161.071 85.7659L161.067 85.777L161.063 85.7882L161.059 85.7996L161.055 85.811L161.052 85.8224L161.048 85.834L161.044 85.8457L161.04 85.8574L161.036 85.8692L161.032 85.8811L161.028 85.8931L161.023 85.9051L161.019 85.9173L161.015 85.9295L161.011 85.9418L161.007 85.9541L161.002 85.9666L160.998 85.9791L160.994 85.9917L160.99 86.0044L160.985 86.0172L160.981 86.03L160.976 86.0429L160.972 86.0559L160.968 86.069L160.963 86.0821L160.959 86.0953L160.954 86.1086L160.95 86.1219L160.945 86.1354L160.94 86.1489L160.936 86.1624L160.931 86.1761L160.926 86.1898L160.922 86.2036L160.917 86.2174L160.912 86.2314L160.908 86.2453L160.903 86.2594L160.898 86.2735L160.893 86.2877L160.888 86.302L160.883 86.3163L160.878 86.3307L160.874 86.3452L160.869 86.3597L160.864 86.3743L160.859 86.389L160.854 86.4037L160.849 86.4185L160.843 86.4334L160.838 86.4483L160.833 86.4633L160.828 86.4783L160.823 86.4934L160.818 86.5086L160.813 86.5238L160.807 86.5391L160.802 86.5545L160.797 86.5699L160.792 86.5853L160.786 86.6009L160.781 86.6165L160.776 86.6321L160.77 86.6478L160.765 86.6636L160.76 86.6794L160.754 86.6953L160.749 86.7112L160.743 86.7272L160.738 86.7432L160.732 86.7593L160.727 86.7755L160.721 86.7917L160.716 86.8079L160.71 86.8243L160.705 86.8406L160.699 86.857L160.694 86.8735L160.688 86.89L160.682 86.9066L160.677 86.9232L160.671 86.9399L160.665 86.9566L160.66 86.9734L160.654 86.9902L160.648 87.0071L160.642 87.024L160.636 87.041L160.631 87.058L160.625 87.0751L160.619 87.0922L160.613 87.1093L160.607 87.1265L160.601 87.1438L160.596 87.1611L160.59 87.1784L160.584 87.1958L160.578 87.2132L160.572 87.2307L160.566 87.2482L160.56 87.2657L160.554 87.2833L160.548 87.3009L160.542 87.3186L160.536 87.3363L160.53 87.3541L160.524 87.3719L160.518 87.3897L160.512 87.4076L160.506 87.4255L160.499 87.4434L160.493 87.4614L160.487 87.4795L160.481 87.4975L160.475 87.5156L160.469 87.5337L160.462 87.5519L160.456 87.5701L160.45 87.5884L160.444 87.6066L160.438 87.6249L160.431 87.6433L160.425 87.6617L160.419 87.6801L160.413 87.6985L160.406 87.717L160.4 87.7355L160.394 87.754L160.387 87.7726L160.381 87.7912L160.375 87.8098L160.368 87.8284L160.362 87.8471L160.356 87.8658L160.349 87.8846L160.343 87.9033L160.336 87.9221L160.33 87.9409L160.324 87.9598L160.317 87.9787L160.311 87.9975L160.304 88.0165L160.298 88.0354L160.291 88.0544L160.285 88.0734L160.278 88.0924L160.272 88.1114L160.265 88.1305L160.259 88.1496L160.252 88.1687L160.246 88.1878L160.239 88.207L160.233 88.2261L160.226 88.2453L160.22 88.2645L160.213 88.2838L160.207 88.303L160.2 88.3223L160.193 88.3415L160.187 88.3608L160.18 88.3802L160.174 88.3995L160.167 88.4188L160.161 88.4382L160.154 88.4576L160.147 88.477L160.141 88.4964L160.134 88.5158L160.128 88.5353L160.121 88.5547L160.114 88.5742L160.108 88.5936L160.101 88.6131L160.094 88.6326L160.088 88.6521L160.081 88.6717L160.074 88.6912L160.068 88.7107L160.061 88.7303L160.054 88.7498L160.048 88.7694L160.041 88.789L160.034 88.8086L160.028 88.8282L160.021 88.8477L160.014 88.8674L160.008 88.887L160.001 88.9066L159.994 88.9262L159.988 88.9458L159.981 88.9655L159.974 88.9851L159.968 89.0047L159.961 89.0244L159.954 89.044L159.948 89.0637L159.941 89.0833L159.934 89.103L159.927 89.1226L159.921 89.1423L159.914 89.1619L159.907 89.1816L159.901 89.2012L159.894 89.2209L159.887 89.2405L159.881 89.2601L159.874 89.2798L159.867 89.2994L159.861 89.3191L159.854 89.3387L159.847 89.3583L159.84 89.3779L159.834 89.3976L159.827 89.4172L159.82 89.4368L159.814 89.4564L159.807 89.476L159.8 89.4956L159.794 89.5152L159.787 89.5347L159.78 89.5543L159.774 89.5738L159.767 89.5934L159.76 89.6129L159.754 89.6325L159.747 89.652L159.74 89.6715L159.734 89.691L159.727 89.7105L159.721 89.7299L159.714 89.7494L159.707 89.7688L159.701 89.7883L159.694 89.8077L159.687 89.8271L159.681 89.8465L159.674 89.8659L159.668 89.8852L159.661 89.9046L159.654 89.9239L159.648 89.9432L159.641 89.9625L159.635 89.9818L159.628 90.001L159.622 90.0203L159.615 90.0395L159.609 90.0587L159.602 90.0779L159.596 90.097L159.589 90.1162L159.582 90.1353L159.576 90.1544L159.569 90.1735L159.563 90.1925L159.556 90.2115L159.55 90.2305L159.544 90.2495L159.537 90.2685L159.531 90.2874L159.524 90.3063L159.518 90.3252L159.511 90.3441L159.505 90.3629L159.499 90.3817L159.492 90.4005L159.486 90.4193L159.479 90.438L159.473 90.4567L159.467 90.4754L159.46 90.494L159.454 90.5126L159.448 90.5312L159.441 90.5498L159.435 90.5683L159.429 90.5868L159.422 90.6052L159.416 90.6237L159.41 90.6421L159.404 90.6604L159.397 90.6787L159.391 90.697L159.385 90.7153L159.379 90.7335L159.372 90.7517L159.366 90.7699L159.36 90.788L159.354 90.8061L159.348 90.8241L159.342 90.8421L159.336 90.8601L159.329 90.8781L159.323 90.896L159.317 90.9138L159.311 90.9316L159.305 90.9494L159.299 90.9672L159.293 90.9849L159.287 91.0025L159.281 91.0201L159.275 91.0377L159.269 91.0552L159.263 91.0727L159.257 91.0902L159.251 91.1076L159.245 91.125L159.239 91.1423L159.234 91.1595L159.228 91.1768L159.222 91.194L159.216 91.2111L159.21 91.2282L159.204 91.2452L159.199 91.2622L159.193 91.2792L159.187 91.2961L159.181 91.3129L159.176 91.3297L159.17 91.3465L159.164 91.3632L159.159 91.3799L159.153 91.3965L159.147 91.413L159.142 91.4295L159.136 91.446L159.13 91.4624L159.125 91.4787L159.119 91.495L159.114 91.5113L159.108 91.5275L159.103 91.5436L159.097 91.5597L159.092 91.5757L159.086 91.5917L159.081 91.6076L159.076 91.6234L159.07 91.6392L159.065 91.655L159.059 91.6706L159.054 91.6863L159.049 91.7018L159.044 91.7173L159.038 91.7328L159.033 91.7482L159.028 91.7635L159.023 91.7788L159.017 91.794L159.012 91.8091L159.007 91.8242L159.002 91.8392L158.997 91.8542L158.992 91.8691L158.987 91.8839L158.982 91.8987L158.977 91.9134L158.972 91.928L158.967 91.9426L158.962 91.9571L158.957 91.9716L158.952 91.9859L158.947 92.0003L158.942 92.0145L158.938 92.0287L158.933 92.0428L158.928 92.0568L158.923 92.0708L158.918 92.0847L158.914 92.0985L158.909 92.1123L158.904 92.126L158.9 92.1396L158.895 92.1531L158.891 92.1666L158.886 92.18L158.881 92.1933L158.877 92.2066L158.872 92.2198L158.868 92.2329L158.864 92.2459L158.859 92.2589L158.855 92.2718L158.85 92.2846L158.846 92.2973L158.842 92.3099L158.837 92.3225L158.833 92.335L158.829 92.3474L158.825 92.3598L158.821 92.3721L158.816 92.3842L158.812 92.3963L158.808 92.4084L158.804 92.4203L158.8 92.4322L158.796 92.444L158.792 92.4557L158.788 92.4673L158.784 92.4788L158.78 92.4903L158.776 92.5017L158.773 92.5129L158.769 92.5241L158.765 92.5353L158.761 92.5463L158.757 92.5573L158.754 92.5681L158.75 92.5789L158.746 92.5896Z"
        fill="#172128"
        stroke="#00C6A2"
      />
      <path
        d="M161.099 85.6828C159.717 89.7406 155.65 92.5495 150.02 93.7224C144.403 94.8928 137.325 94.406 130.129 91.9551C122.934 89.5043 117.031 85.5689 113.296 81.2129C109.552 76.847 108.046 72.1399 109.428 68.0822C110.811 64.0244 114.877 61.2155 120.507 60.0426C126.125 58.8723 133.203 59.359 140.398 61.8099C147.593 64.2608 153.497 68.1961 157.231 72.5521C160.975 76.918 162.481 81.6251 161.099 85.6828Z"
        fill="#172128"
        stroke="#00C6A2"
      />
      <path
        d="M157.909 84.5974C156.702 88.1419 153.15 90.6071 148.212 91.6399C143.286 92.67 137.076 92.2467 130.762 90.0958C124.448 87.9449 119.27 84.4894 115.998 80.6668C112.717 76.8344 111.409 72.7137 112.616 69.1692C113.824 65.6248 117.375 63.1595 122.313 62.1268C127.239 61.0966 133.449 61.52 139.763 63.6709C146.078 65.8218 151.255 69.2772 154.527 73.0999C157.808 76.9323 159.116 81.0529 157.909 84.5974Z"
        fill="#172128"
        stroke="#00C6A2"
      />
      <path d="M109.133 74.8003L106.825 81.5767" stroke="#00C6A2" />
      <path d="M111.322 79.2554L109.014 86.0318" stroke="#00C6A2" />
      <path d="M113.92 82.5132L111.612 89.2896" stroke="#00C6A2" />
      <path d="M116.789 84.9727L114.436 91.882" stroke="#00C6A2" />
      <path d="M119.617 87.1221L117.263 94.0314" stroke="#00C6A2" />
      <path d="M122.533 89.0083L120.179 95.9176" stroke="#00C6A2" />
      <path d="M125.541 90.6235L123.188 97.5328" stroke="#00C6A2" />
      <path d="M128.64 91.9771L126.286 98.8864" stroke="#00C6A2" />
      <path d="M131.919 92.7944L129.565 99.7037" stroke="#00C6A2" />
      <path d="M135.199 93.6177L132.845 100.527" stroke="#00C6A2" />
      <path d="M138.478 94.4385L136.125 101.348" stroke="#00C6A2" />
      <path d="M141.939 94.7256L139.585 101.635" stroke="#00C6A2" />
      <path d="M145.49 94.749L143.136 101.658" stroke="#00C6A2" />
      <path d="M149.221 94.2417L146.868 101.151" stroke="#00C6A2" />
      <path d="M153.135 93.2002L150.781 100.11" stroke="#00C6A2" />
      <path d="M157.41 91.0991L155.056 98.0084" stroke="#00C6A2" />
    </svg>