<svg
      width="132"
      height="89"
      viewBox="0 0 132 89"
      fill="none"
      xmlns="http://www.w3.org/2000/svg"
    >
      <path
        fill-rule="evenodd"
        clip-rule="evenodd"
        d="M61.9127 52.5578V60.3687C61.9127 70.091 48.5749 77.9724 32.1219 77.9724C15.6689 77.9724 2.33105 70.091 2.33105 60.3687L2.33118 52.5972C2.3311 52.5798 2.33105 52.5624 2.33105 52.5451C2.33105 52.5276 2.3311 52.5101 2.33118 52.4926L2.33119 51.9431C2.33743 51.9326 2.34369 51.9222 2.34997 51.9118C2.91418 42.4829 16.0276 34.9414 32.1219 34.9414C48.216 34.9414 61.3293 42.4828 61.8938 51.9116C61.9001 51.9221 61.9064 51.9325 61.9127 51.9431V52.5323C61.9127 52.5366 61.9127 52.5408 61.9127 52.5451C61.9127 52.5493 61.9127 52.5536 61.9127 52.5578Z"
        fill="#0D0D0D"
        fill-opacity="0.6"
      />
      <path
        d="M56.6288 58.6594C56.6288 62.9461 53.6853 66.9162 48.7341 69.8419C43.7942 72.7609 36.937 74.5825 29.3359 74.5825C21.7348 74.5825 14.8777 72.7609 9.9377 69.8419C4.98655 66.9162 2.04297 62.9461 2.04297 58.6594L2.04303 54.0093L2.04308 51.7571L2.04309 51.0578L2.04309 50.939C3.87622 47.9811 7.60767 45.9235 12.4631 44.6082C17.3634 43.2807 23.3096 42.7363 29.3359 42.7363C35.3622 42.7363 41.3084 43.2807 46.2088 44.6082C51.0642 45.9235 54.7957 47.9811 56.6288 50.939V50.9413V50.9472V50.9533V50.9595V50.9658V50.9722V50.9787V50.9854V50.9921V50.999V51.006V51.013V51.0202V51.0275V51.0349V51.0425V51.0501V51.0578V51.0657V51.0736V51.0817V51.0898V51.0981V51.1065V51.115V51.1236V51.1322V51.141V51.1499V51.1589V51.168V51.1772V51.1865V51.1959V51.2054V51.215V51.2247V51.2345V51.2444V51.2544V51.2645V51.2747V51.285V51.2954V51.3059V51.3165V51.3271V51.3379V51.3488V51.3597V51.3708V51.3819V51.3932V51.4045V51.4159V51.4274V51.439V51.4507V51.4625V51.4743V51.4863V51.4983V51.5105V51.5227V51.535V51.5474V51.5599V51.5724V51.5851V51.5978V51.6106V51.6235V51.6365V51.6496V51.6628V51.676V51.6893V51.7027V51.7162V51.7297V51.7434V51.7571V51.7709V51.7848V51.7987V51.8127V51.8269V51.841V51.8553V51.8696V51.8841V51.8985V51.9131V51.9277V51.9424V51.9572V51.9721V51.987V52.002V52.0171V52.0322V52.0474V52.0627V52.0781V52.0935V52.109V52.1245V52.1402V52.1559V52.1716V52.1874V52.2033V52.2193V52.2353V52.2514V52.2676V52.2838V52.3001V52.3164V52.3328V52.3493V52.3658V52.3824V52.399V52.4158V52.4325V52.4494V52.4663V52.4832V52.5002V52.5173V52.5344V52.5516V52.5688V52.5861V52.6034V52.6208V52.6383V52.6558V52.6734V52.691V52.7086V52.7264V52.7441V52.762V52.7798V52.7978V52.8157V52.8338V52.8518V52.87V52.8881V52.9063V52.9246V52.9429V52.9613V52.9797V52.9981V53.0166V53.0352V53.0538V53.0724V53.0911V53.1098V53.1285V53.1473V53.1662V53.185V53.204V53.2229V53.2419V53.261V53.2801V53.2992V53.3183V53.3375V53.3568V53.376V53.3953V53.4147V53.434V53.4535V53.4729V53.4924V53.5119V53.5314V53.551V53.5706V53.5903V53.6099V53.6296V53.6494V53.6691V53.6889V53.7088V53.7286V53.7485V53.7684V53.7883V53.8083V53.8283V53.8483V53.8683V53.8884V53.9085V53.9286V53.9487V53.9689V53.9891V54.0093V54.0295V54.0498V54.07V54.0903V54.1107V54.131V54.1513V54.1717V54.1921V54.2125V54.2329V54.2534V54.2738V54.2943V54.3148V54.3353V54.3558V54.3763V54.3969V54.4174V54.438V54.4586V54.4792V54.4998V54.5204V54.5411V54.5617V54.5824V54.603V54.6237V54.6444V54.6651V54.6858V54.7065V54.7272V54.7479V54.7686V54.7893V54.8101V54.8308V54.8516V54.8723V54.8931V54.9138V54.9346V54.9553V54.9761V54.9968V55.0176V55.0384V55.0591V55.0799V55.1006V55.1214V55.1421V55.1629V55.1836V55.2044V55.2251V55.2459V55.2666V55.2873V55.308V55.3287V55.3495V55.3702V55.3908V55.4115V55.4322V55.4529V55.4735V55.4942V55.5148V55.5355V55.5561V55.5767V55.5973V55.6179V55.6384V55.659V55.6795V55.7001V55.7206V55.7411V55.7615V55.782V55.8025V55.8229V55.8433V55.8637V55.8841V55.9045V55.9248V55.9451V55.9654V55.9857V56.006V56.0262V56.0464V56.0666V56.0868V56.107V56.1271V56.1472V56.1673V56.1873V56.2074V56.2274V56.2474V56.2673V56.2872V56.3071V56.327V56.3469V56.3667V56.3865V56.4062V56.4259V56.4456V56.4653V56.4849V56.5045V56.5241V56.5436V56.5631V56.5826V56.602V56.6214V56.6408V56.6601V56.6794V56.6987V56.7179V56.7371V56.7562V56.7753V56.7944V56.8134V56.8324V56.8513V56.8702V56.8891V56.9079V56.9267V56.9455V56.9642V56.9828V57.0014V57.02V57.0385V57.057V57.0754V57.0938V57.1122V57.1305V57.1487V57.1669V57.1851V57.2032V57.2212V57.2392V57.2572V57.2751V57.293V57.3108V57.3285V57.3462V57.3639V57.3815V57.399V57.4165V57.4339V57.4513V57.4686V57.4859V57.5031V57.5203V57.5374V57.5544V57.5714V57.5883V57.6052V57.622V57.6388V57.6554V57.6721V57.6886V57.7052V57.7216V57.738V57.7543V57.7706V57.7868V57.8029V57.8189V57.835V57.8509V57.8668V57.8826V57.8983V57.914V57.9296V57.9451V57.9606V57.976V57.9913V58.0066V58.0217V58.0369V58.0519V58.0669V58.0818V58.0966V58.1114V58.126V58.1407V58.1552V58.1697V58.184V58.1983V58.2126V58.2267V58.2408V58.2548V58.2688V58.2826V58.2964V58.3101V58.3237V58.3372V58.3506V58.364V58.3773V58.3905V58.4036V58.4167V58.4296V58.4425V58.4553V58.468V58.4806V58.4932V58.5056V58.518V58.5302V58.5424V58.5545V58.5665V58.5785V58.5903V58.6021V58.6137V58.6253V58.6368V58.6481V58.6594Z"
        fill="#172128"
        stroke="#73818B"
      />
      <path
        d="M56.6289 51.3626C56.6289 55.6492 53.6853 59.6193 48.7341 62.545C43.7942 65.464 36.937 67.2857 29.3359 67.2857C21.7348 67.2857 14.8777 65.464 9.9377 62.545C4.98655 59.6193 2.04297 55.6492 2.04297 51.3626C2.04297 47.0759 4.98655 43.1058 9.9377 40.1801C14.8777 37.2611 21.7348 35.4395 29.3359 35.4395C36.937 35.4395 43.7942 37.2611 48.7341 40.1801C53.6853 43.1058 56.6289 47.0759 56.6289 51.3626Z"
        fill="#172128"
        stroke="#73818B"
      />
      <path
        d="M53.2593 51.3642C53.2593 55.1087 50.6923 58.5874 46.351 61.1572C42.0207 63.7206 36.0059 65.3221 29.3352 65.3221C22.6646 65.3221 16.6498 63.7206 12.3195 61.1572C7.97818 58.5874 5.41113 55.1087 5.41113 51.3642C5.41113 47.6197 7.97818 44.141 12.3195 41.5712C16.6498 39.0078 22.6646 37.4062 29.3352 37.4062C36.0059 37.4062 42.0207 39.0078 46.351 41.5712C50.6923 44.141 53.2593 47.6197 53.2593 51.3642Z"
        fill="#172128"
        stroke="#73818B"
      />
      <path d="M3.92871 57.8203V64.9791" stroke="#73818B" />
      <path d="M7.4375 61.3281V68.4869" stroke="#73818B" />
      <path d="M10.9482 63.5742V70.733" stroke="#73818B" />
      <path d="M14.457 64.9785V72.2777" stroke="#73818B" />
      <path d="M17.8252 66.1016L17.8252 73.4007" stroke="#73818B" />
      <path d="M21.1943 66.9414L21.1943 74.2406" stroke="#73818B" />
      <path d="M24.5635 67.5039L24.5635 74.8031" stroke="#73818B" />
      <path d="M27.9326 67.7871L27.9326 75.0863" stroke="#73818B" />
      <path d="M31.3027 67.5039L31.3027 74.8031" stroke="#73818B" />
      <path d="M34.6699 67.2246L34.6699 74.5238" stroke="#73818B" />
      <path d="M38.04 66.9414L38.04 74.2406" stroke="#73818B" />
      <path d="M41.4072 66.1016L41.4072 73.4007" stroke="#73818B" />
      <path d="M44.7773 64.9785L44.7773 72.2777" stroke="#73818B" />
      <path d="M48.1455 63.2949L48.1455 70.5941" stroke="#73818B" />
      <path d="M51.5146 61.0469L51.5146 68.346" stroke="#73818B" />
      <path d="M54.8838 57.6797L54.8838 64.9788" stroke="#73818B" />
      <path
        d="M62.5419 46.8352C62.5419 51.1219 59.5984 55.092 54.6472 58.0176C49.7072 60.9367 42.8501 62.7583 35.249 62.7583C27.6479 62.7583 20.7908 60.9367 15.8508 58.0176C10.8996 55.092 7.95605 51.1219 7.95605 46.8352L7.95612 42.1851L7.95616 39.9329L7.95618 39.2336L7.95618 39.1148C9.78931 36.1569 13.5208 34.0993 18.3761 32.7839C23.2765 31.4564 29.2227 30.9121 35.249 30.9121C41.2753 30.9121 47.2215 31.4564 52.1219 32.7839C56.9773 34.0993 60.7088 36.1569 62.5419 39.1148V39.1171V39.123V39.1291V39.1353V39.1416V39.148V39.1545V39.1612V39.1679V39.1748V39.1817V39.1888V39.196V39.2033V39.2107V39.2182V39.2259V39.2336V39.2415V39.2494V39.2575V39.2656V39.2739V39.2823V39.2908V39.2993V39.308V39.3168V39.3257V39.3347V39.3438V39.353V39.3623V39.3717V39.3812V39.3908V39.4005V39.4103V39.4202V39.4302V39.4403V39.4505V39.4608V39.4712V39.4817V39.4923V39.5029V39.5137V39.5246V39.5355V39.5466V39.5577V39.5689V39.5803V39.5917V39.6032V39.6148V39.6265V39.6383V39.6501V39.6621V39.6741V39.6863V39.6985V39.7108V39.7232V39.7357V39.7482V39.7609V39.7736V39.7864V39.7993V39.8123V39.8254V39.8385V39.8518V39.8651V39.8785V39.892V39.9055V39.9192V39.9329V39.9467V39.9605V39.9745V39.9885V40.0026V40.0168V40.0311V40.0454V40.0598V40.0743V40.0889V40.1035V40.1182V40.133V40.1479V40.1628V40.1778V40.1929V40.208V40.2232V40.2385V40.2539V40.2693V40.2848V40.3003V40.3159V40.3316V40.3474V40.3632V40.3791V40.3951V40.4111V40.4272V40.4433V40.4596V40.4758V40.4922V40.5086V40.5251V40.5416V40.5582V40.5748V40.5915V40.6083V40.6251V40.642V40.659V40.676V40.6931V40.7102V40.7273V40.7446V40.7619V40.7792V40.7966V40.8141V40.8316V40.8491V40.8668V40.8844V40.9021V40.9199V40.9377V40.9556V40.9735V40.9915V41.0095V41.0276V41.0457V41.0639V41.0821V41.1004V41.1187V41.1371V41.1555V41.1739V41.1924V41.2109V41.2295V41.2482V41.2668V41.2855V41.3043V41.3231V41.3419V41.3608V41.3797V41.3987V41.4177V41.4368V41.4558V41.475V41.4941V41.5133V41.5325V41.5518V41.5711V41.5904V41.6098V41.6292V41.6487V41.6682V41.6877V41.7072V41.7268V41.7464V41.766V41.7857V41.8054V41.8252V41.8449V41.8647V41.8845V41.9044V41.9243V41.9442V41.9641V41.9841V42.0041V42.0241V42.0441V42.0642V42.0843V42.1044V42.1245V42.1447V42.1649V42.1851V42.2053V42.2256V42.2458V42.2661V42.2864V42.3068V42.3271V42.3475V42.3679V42.3883V42.4087V42.4291V42.4496V42.4701V42.4906V42.5111V42.5316V42.5521V42.5727V42.5932V42.6138V42.6344V42.655V42.6756V42.6962V42.7169V42.7375V42.7582V42.7788V42.7995V42.8202V42.8409V42.8615V42.8823V42.903V42.9237V42.9444V42.9651V42.9859V43.0066V43.0273V43.0481V43.0688V43.0896V43.1103V43.1311V43.1519V43.1726V43.1934V43.2141V43.2349V43.2556V43.2764V43.2972V43.3179V43.3387V43.3594V43.3802V43.4009V43.4216V43.4424V43.4631V43.4838V43.5045V43.5252V43.5459V43.5666V43.5873V43.608V43.6287V43.6493V43.67V43.6906V43.7112V43.7319V43.7525V43.7731V43.7936V43.8142V43.8348V43.8553V43.8758V43.8963V43.9168V43.9373V43.9578V43.9783V43.9987V44.0191V44.0395V44.0599V44.0802V44.1006V44.1209V44.1412V44.1615V44.1818V44.202V44.2222V44.2424V44.2626V44.2828V44.3029V44.323V44.3431V44.3631V44.3832V44.4032V44.4231V44.4431V44.463V44.4829V44.5028V44.5226V44.5424V44.5622V44.582V44.6017V44.6214V44.6411V44.6607V44.6803V44.6999V44.7194V44.7389V44.7584V44.7778V44.7972V44.8166V44.8359V44.8552V44.8744V44.8937V44.9128V44.932V44.9511V44.9701V44.9892V45.0082V45.0271V45.046V45.0649V45.0837V45.1025V45.1212V45.1399V45.1586V45.1772V45.1958V45.2143V45.2328V45.2512V45.2696V45.2879V45.3062V45.3245V45.3427V45.3608V45.379V45.397V45.415V45.433V45.4509V45.4687V45.4865V45.5043V45.522V45.5396V45.5572V45.5748V45.5923V45.6097V45.6271V45.6444V45.6617V45.6789V45.6961V45.7132V45.7302V45.7472V45.7641V45.781V45.7978V45.8145V45.8312V45.8479V45.8644V45.8809V45.8974V45.9138V45.9301V45.9463V45.9625V45.9787V45.9947V46.0107V46.0267V46.0425V46.0583V46.0741V46.0897V46.1053V46.1209V46.1363V46.1517V46.1671V46.1823V46.1975V46.2126V46.2277V46.2427V46.2576V46.2724V46.2871V46.3018V46.3164V46.331V46.3454V46.3598V46.3741V46.3884V46.4025V46.4166V46.4306V46.4445V46.4584V46.4721V46.4858V46.4994V46.513V46.5264V46.5398V46.5531V46.5663V46.5794V46.5925V46.6054V46.6183V46.6311V46.6438V46.6564V46.6689V46.6814V46.6937V46.706V46.7182V46.7303V46.7423V46.7543V46.7661V46.7778V46.7895V46.8011V46.8125V46.8239V46.8352Z"
        fill="#172128"
        stroke="#73818B"
      />
      <path
        d="M62.5419 39.5383C62.5419 43.825 59.5984 47.7951 54.6472 50.7208C49.7072 53.6398 42.8501 55.4614 35.249 55.4614C27.6479 55.4614 20.7908 53.6398 15.8508 50.7208C10.8996 47.7951 7.95605 43.825 7.95605 39.5383C7.95605 35.2517 10.8996 31.2816 15.8508 28.3559C20.7908 25.4368 27.6479 23.6152 35.249 23.6152C42.8501 23.6152 49.7072 25.4368 54.6472 28.3559C59.5984 31.2816 62.5419 35.2517 62.5419 39.5383Z"
        fill="#172128"
        stroke="#73818B"
      />
      <path
        d="M59.1724 39.54C59.1724 43.2844 56.6054 46.7632 52.2641 49.333C47.9338 51.8963 41.919 53.4979 35.2483 53.4979C28.5777 53.4979 22.5628 51.8963 18.2326 49.333C13.8913 46.7632 11.3242 43.2844 11.3242 39.54C11.3242 35.7955 13.8913 32.3168 18.2326 29.7469C22.5628 27.1836 28.5777 25.582 35.2483 25.582C41.919 25.582 47.9338 27.1836 52.2641 29.7469C56.6054 32.3168 59.1724 35.7955 59.1724 39.54Z"
        fill="#172128"
        stroke="#73818B"
      />
      <path d="M9.8418 45.9961V53.1549" stroke="#73818B" />
      <path d="M13.3506 49.5039V56.6627" stroke="#73818B" />
      <path d="M16.8613 51.75V58.9088" stroke="#73818B" />
      <path d="M20.3701 53.1543V60.4535" stroke="#73818B" />
      <path d="M23.7383 54.2773L23.7383 61.5765" stroke="#73818B" />
      <path d="M27.1074 55.1172L27.1074 62.4163" stroke="#73818B" />
      <path d="M30.4766 55.6797L30.4766 62.9788" stroke="#73818B" />
      <path d="M33.8457 55.9629L33.8457 63.262" stroke="#73818B" />
      <path d="M37.2158 55.6797L37.2158 62.9788" stroke="#73818B" />
      <path d="M40.583 55.4004L40.583 62.6995" stroke="#73818B" />
      <path d="M43.9531 55.1172L43.9531 62.4163" stroke="#73818B" />
      <path d="M47.3203 54.2773L47.3203 61.5765" stroke="#73818B" />
      <path d="M50.6904 53.1543L50.6904 60.4535" stroke="#73818B" />
      <path d="M54.0586 51.4707L54.0586 58.7699" stroke="#73818B" />
      <path d="M57.4277 49.2227L57.4277 56.5218" stroke="#73818B" />
      <path d="M60.7969 45.8555L60.7969 53.1546" stroke="#73818B" />
      <path
        d="M57.0051 32.2349C56.3187 36.4663 52.7774 39.9138 47.4217 42.0089C42.0781 44.0993 35.0177 44.7994 27.5147 43.5823C20.0117 42.3652 13.5347 39.4691 9.12587 35.7966C4.70708 32.1159 2.43718 27.7258 3.12358 23.4944L3.86824 18.9043L4.22892 16.6811L4.3409 15.9909L4.35993 15.8736C6.64304 13.2474 10.6558 11.8138 15.6592 11.2929C20.7089 10.7672 26.6655 11.182 32.614 12.147C38.5626 13.1119 44.3449 14.6014 48.9695 16.6964C53.5517 18.7722 56.9055 21.4008 58.2414 24.6141L58.241 24.6163L58.24 24.6222L58.2391 24.6282L58.2381 24.6343L58.2371 24.6405L58.236 24.6469L58.235 24.6533L58.2339 24.6599L58.2329 24.6665L58.2318 24.6733L58.2306 24.6802L58.2295 24.6872L58.2283 24.6943L58.2272 24.7015L58.226 24.7088L58.2248 24.7162L58.2236 24.7237L58.2223 24.7314L58.2211 24.7391L58.2198 24.747L58.2185 24.7549L58.2172 24.763L58.2159 24.7711L58.2145 24.7794L58.2132 24.7878L58.2118 24.7963L58.2104 24.8048L58.209 24.8135L58.2076 24.8223L58.2061 24.8312L58.2047 24.8402L58.2032 24.8492L58.2017 24.8584L58.2002 24.8677L58.1987 24.8771L58.1972 24.8866L58.1956 24.8961L58.194 24.9058L58.1924 24.9156L58.1908 24.9255L58.1892 24.9354L58.1876 24.9455L58.1859 24.9556L58.1843 24.9659L58.1826 24.9762L58.1809 24.9867L58.1792 24.9972L58.1775 25.0079L58.1757 25.0186L58.174 25.0294L58.1722 25.0403L58.1704 25.0513L58.1686 25.0624L58.1668 25.0736L58.165 25.0848L58.1632 25.0962L58.1613 25.1076L58.1594 25.1192L58.1575 25.1308L58.1556 25.1425L58.1537 25.1543L58.1518 25.1662L58.1499 25.1782L58.1479 25.1902L58.1459 25.2024L58.1439 25.2146L58.1419 25.2269L58.1399 25.2393L58.1379 25.2518L58.1359 25.2644L58.1338 25.2771L58.1317 25.2898L58.1297 25.3026L58.1276 25.3155L58.1255 25.3285L58.1233 25.3416L58.1212 25.3547L58.1191 25.3679L58.1169 25.3812L58.1147 25.3946L58.1126 25.4081L58.1104 25.4216L58.1082 25.4352L58.1059 25.4489L58.1037 25.4627L58.1014 25.4766L58.0992 25.4905L58.0969 25.5045L58.0946 25.5186L58.0923 25.5327L58.09 25.5469L58.0877 25.5612L58.0854 25.5756L58.083 25.5901L58.0807 25.6046L58.0783 25.6192L58.0759 25.6338L58.0735 25.6486L58.0711 25.6634L58.0687 25.6783L58.0663 25.6932L58.0639 25.7082L58.0614 25.7233L58.059 25.7385L58.0565 25.7537L58.054 25.769L58.0515 25.7843L58.049 25.7998L58.0465 25.8152L58.044 25.8308L58.0414 25.8464L58.0389 25.8621L58.0363 25.8779L58.0338 25.8937L58.0312 25.9096L58.0286 25.9255L58.026 25.9415L58.0234 25.9576L58.0208 25.9737L58.0182 25.9899L58.0155 26.0062L58.0129 26.0225L58.0102 26.0389L58.0076 26.0553L58.0049 26.0718L58.0022 26.0883L57.9995 26.105L57.9968 26.1216L57.9941 26.1384L57.9914 26.1551L57.9886 26.172L57.9859 26.1889L57.9831 26.2058L57.9804 26.2229L57.9776 26.2399L57.9748 26.257L57.9721 26.2742L57.9693 26.2914L57.9665 26.3087L57.9636 26.3261L57.9608 26.3435L57.958 26.3609L57.9552 26.3784L57.9523 26.3959L57.9495 26.4135L57.9466 26.4312L57.9437 26.4489L57.9408 26.4666L57.938 26.4844L57.9351 26.5022L57.9322 26.5201L57.9293 26.5381L57.9263 26.556L57.9234 26.5741L57.9205 26.5921L57.9175 26.6103L57.9146 26.6284L57.9116 26.6466L57.9087 26.6649L57.9057 26.6832L57.9027 26.7015L57.8998 26.7199L57.8968 26.7384L57.8938 26.7568L57.8908 26.7754L57.8878 26.7939L57.8847 26.8125L57.8817 26.8311L57.8787 26.8498L57.8756 26.8685L57.8726 26.8873L57.8696 26.9061L57.8665 26.9249L57.8634 26.9438L57.8604 26.9627L57.8573 26.9817L57.8542 27.0006L57.8511 27.0197L57.848 27.0387L57.8449 27.0578L57.8418 27.0769L57.8387 27.0961L57.8356 27.1153L57.8325 27.1345L57.8294 27.1538L57.8262 27.1731L57.8231 27.1924L57.82 27.2118L57.8168 27.2311L57.8137 27.2506L57.8105 27.27L57.8074 27.2895L57.8042 27.309L57.801 27.3285L57.7979 27.3481L57.7947 27.3677L57.7915 27.3873L57.7883 27.407L57.7851 27.4267L57.7819 27.4464L57.7787 27.4661L57.7755 27.4858L57.7723 27.5056L57.7691 27.5254L57.7659 27.5453L57.7626 27.5651L57.7594 27.585L57.7562 27.6049L57.753 27.6248L57.7497 27.6448L57.7465 27.6647L57.7432 27.6847L57.74 27.7047L57.7368 27.7248L57.7335 27.7448L57.7302 27.7649L57.727 27.785L57.7237 27.8051L57.7205 27.8252L57.7172 27.8453L57.7139 27.8655L57.7106 27.8857L57.7074 27.9059L57.7041 27.9261L57.7008 27.9463L57.6975 27.9665L57.6942 27.9868L57.691 28.0071L57.6877 28.0274L57.6844 28.0476L57.6811 28.068L57.6778 28.0883L57.6745 28.1086L57.6712 28.129L57.6679 28.1493L57.6646 28.1697L57.6613 28.1901L57.658 28.2104L57.6547 28.2308L57.6513 28.2512L57.648 28.2717L57.6447 28.2921L57.6414 28.3125L57.6381 28.3329L57.6348 28.3534L57.6315 28.3738L57.6281 28.3943L57.6248 28.4148L57.6215 28.4352L57.6182 28.4557L57.6149 28.4762L57.6115 28.4966L57.6082 28.5171L57.6049 28.5376L57.6016 28.5581L57.5982 28.5786L57.5949 28.5991L57.5916 28.6196L57.5883 28.64L57.585 28.6605L57.5816 28.681L57.5783 28.7015L57.575 28.722L57.5717 28.7425L57.5683 28.763L57.565 28.7835L57.5617 28.8039L57.5584 28.8244L57.555 28.8449L57.5517 28.8654L57.5484 28.8858L57.5451 28.9063L57.5418 28.9267L57.5385 28.9472L57.5351 28.9676L57.5318 28.9881L57.5285 29.0085L57.5252 29.0289L57.5219 29.0493L57.5186 29.0697L57.5153 29.0901L57.512 29.1105L57.5087 29.1309L57.5054 29.1512L57.5021 29.1716L57.4988 29.1919L57.4955 29.2123L57.4922 29.2326L57.4889 29.2529L57.4856 29.2732L57.4823 29.2934L57.479 29.3137L57.4757 29.334L57.4724 29.3542L57.4691 29.3744L57.4659 29.3946L57.4626 29.4148L57.4593 29.435L57.4561 29.4551L57.4528 29.4753L57.4495 29.4954L57.4463 29.5155L57.443 29.5356L57.4398 29.5556L57.4365 29.5757L57.4333 29.5957L57.43 29.6157L57.4268 29.6357L57.4235 29.6556L57.4203 29.6756L57.4171 29.6955L57.4138 29.7154L57.4106 29.7352L57.4074 29.7551L57.4042 29.7749L57.401 29.7947L57.3978 29.8145L57.3946 29.8342L57.3914 29.854L57.3882 29.8736L57.385 29.8933L57.3818 29.913L57.3786 29.9326L57.3754 29.9522L57.3723 29.9717L57.3691 29.9912L57.3659 30.0107L57.3628 30.0302L57.3596 30.0497L57.3565 30.0691L57.3533 30.0884L57.3502 30.1078L57.3471 30.1271L57.3439 30.1464L57.3408 30.1656L57.3377 30.1848L57.3346 30.204L57.3315 30.2232L57.3284 30.2423L57.3253 30.2614L57.3222 30.2804L57.3191 30.2994L57.316 30.3184L57.3129 30.3373L57.3099 30.3562L57.3068 30.3751L57.3038 30.3939L57.3007 30.4127L57.2977 30.4314L57.2946 30.4501L57.2916 30.4688L57.2886 30.4874L57.2856 30.506L57.2826 30.5245L57.2796 30.543L57.2766 30.5615L57.2736 30.5799L57.2706 30.5983L57.2676 30.6166L57.2647 30.6349L57.2617 30.6531L57.2588 30.6713L57.2558 30.6895L57.2529 30.7076L57.25 30.7257L57.247 30.7437L57.2441 30.7616L57.2412 30.7796L57.2383 30.7974L57.2354 30.8152L57.2325 30.833L57.2297 30.8507L57.2268 30.8684L57.2239 30.886L57.2211 30.9036L57.2182 30.9211L57.2154 30.9386L57.2126 30.956L57.2098 30.9734L57.207 30.9907L57.2042 31.008L57.2014 31.0252L57.1986 31.0424L57.1958 31.0595L57.193 31.0765L57.1903 31.0935L57.1875 31.1104L57.1848 31.1273L57.1821 31.1441L57.1793 31.1609L57.1766 31.1776L57.1739 31.1943L57.1712 31.2109L57.1686 31.2274L57.1659 31.2439L57.1632 31.2603L57.1606 31.2766L57.1579 31.2929L57.1553 31.3092L57.1527 31.3253L57.1501 31.3414L57.1475 31.3575L57.1449 31.3735L57.1423 31.3894L57.1397 31.4053L57.1371 31.4211L57.1346 31.4368L57.1321 31.4525L57.1295 31.4681L57.127 31.4836L57.1245 31.4991L57.122 31.5145L57.1195 31.5298L57.117 31.5451L57.1146 31.5603L57.1121 31.5754L57.1097 31.5904L57.1072 31.6054L57.1048 31.6204L57.1024 31.6352L57.1 31.65L57.0976 31.6647L57.0953 31.6793L57.0929 31.6939L57.0905 31.7084L57.0882 31.7228L57.0859 31.7372L57.0836 31.7514L57.0813 31.7656L57.079 31.7798L57.0767 31.7938L57.0744 31.8078L57.0722 31.8217L57.0699 31.8355L57.0677 31.8493L57.0655 31.8629L57.0633 31.8765L57.0611 31.89L57.0589 31.9035L57.0567 31.9168L57.0546 31.9301L57.0524 31.9433L57.0503 31.9564L57.0482 31.9694L57.0461 31.9824L57.044 31.9953L57.0419 32.0081L57.0399 32.0208L57.0378 32.0334L57.0358 32.0459L57.0338 32.0584L57.0318 32.0708L57.0298 32.0831L57.0278 32.0953L57.0258 32.1074L57.0239 32.1194L57.0219 32.1314L57.02 32.1432L57.0181 32.155L57.0162 32.1667L57.0143 32.1783L57.0125 32.1898L57.0106 32.2012L57.0088 32.2125L57.0069 32.2237L57.0051 32.2349Z"
        fill="#172128"
        stroke="#73818B"
      />
      <path
        d="M58.1731 25.0318C57.4867 29.2631 53.9454 32.7106 48.5897 34.8058C43.246 36.8962 36.1857 37.5963 28.6827 36.3792C21.1796 35.162 14.7026 32.2659 10.2938 28.5935C5.87505 24.9128 3.60515 20.5226 4.29155 16.2913C4.97795 12.0599 8.51926 8.61238 13.875 6.51726C19.2186 4.42686 26.279 3.72675 33.782 4.94387C41.285 6.16099 47.762 9.05709 52.1708 12.7295C56.5896 16.4102 58.8595 20.8004 58.1731 25.0318Z"
        fill="#172128"
        stroke="#73818B"
      />
      <path
        d="M54.8468 24.4916C54.2472 28.1878 51.1563 31.2106 46.4595 33.0521C41.7746 34.889 35.581 35.5068 28.9964 34.4386C22.4118 33.3705 16.731 30.8265 12.8671 27.6028C8.9933 24.371 7.0164 20.5261 7.61598 16.83C8.21556 13.1338 11.3065 10.111 16.0033 8.26948C20.6881 6.43262 26.8818 5.81482 33.4664 6.88295C40.051 7.95109 45.7317 10.4951 49.5957 13.7187C53.4695 16.9506 55.4464 20.7955 54.8468 24.4916Z"
        fill="#172128"
        stroke="#73818B"
      />
      <path d="M5.12109 22.9668L3.9748 30.0332" stroke="#73818B" />
      <path d="M8.02051 26.9941L6.87421 34.0606" stroke="#73818B" />
      <path d="M11.126 29.7695L9.97968 36.8359" stroke="#73818B" />
      <path d="M14.3652 31.7207L13.1965 38.9257" stroke="#73818B" />
      <path d="M17.5107 33.3672L16.342 40.5722" stroke="#73818B" />
      <path d="M20.7021 34.7402L19.5334 41.9452" stroke="#73818B" />
      <path d="M23.9365 35.832L22.7678 43.037" stroke="#73818B" />
      <path d="M27.2168 36.6465L26.048 43.8515" stroke="#73818B" />
      <path d="M30.5869 36.9102L29.4181 44.1151" stroke="#73818B" />
      <path d="M33.958 37.1738L32.7892 44.3788" stroke="#73818B" />
      <path d="M37.3291 37.4355L36.1603 44.6405" stroke="#73818B" />
      <path d="M40.7891 37.1445L39.6203 44.3495" stroke="#73818B" />
      <path d="M44.2939 36.5742L43.1252 43.7792" stroke="#73818B" />
      <path d="M47.8887 35.4512L46.7199 42.6561" stroke="#73818B" />
      <path d="M51.5742 33.7715L50.4054 40.9765" stroke="#73818B" />
      <path d="M55.4385 30.9863L54.2697 38.1913" stroke="#73818B" />
      <path
        fill-rule="evenodd"
        clip-rule="evenodd"
        d="M48.0092 30.5782C54.3949 23.6181 69.3271 26.0384 81.8152 36.1905C94.3023 46.3418 99.7206 60.4638 94.2132 68.1365C94.2115 68.1491 94.2097 68.1617 94.2079 68.1743L88.8929 74.7122C82.7601 82.2561 67.4391 79.9582 54.6725 69.5796C41.9059 59.201 36.5281 44.672 42.6609 37.128L47.5178 31.1538C47.5432 31.1217 47.5689 31.0898 47.5948 31.0579C47.6208 31.026 47.6469 30.9942 47.6732 30.9626L47.9759 30.5903C47.987 30.5862 47.9981 30.5822 48.0092 30.5782Z"
        fill="#0D0D0D"
        fill-opacity="0.6"
      />
      <path
        fill-rule="evenodd"
        clip-rule="evenodd"
        d="M125.567 65.0853C125.578 65.0593 125.588 65.0332 125.599 65.0071C125.609 64.9809 125.62 64.9548 125.63 64.9286L125.818 64.4601C125.816 64.4485 125.814 64.4369 125.812 64.4253C128.729 55.667 119.575 44.058 104.976 38.2058C90.3777 32.3539 75.7408 34.426 71.7994 42.7728C71.7897 42.7802 71.78 42.7875 71.7704 42.7949L68.7065 50.4379C65.1712 59.2571 74.4043 71.2565 89.3292 77.2392C104.254 83.2219 119.219 80.9224 122.754 72.1032L125.567 65.0853Z"
        fill="#0D0D0D"
        fill-opacity="0.6"
      />
      <path
        d="M83.8204 72.1577C81.1164 75.4839 76.328 76.7076 70.6407 75.8546C64.9662 75.0035 58.4963 72.0915 52.5983 67.2967C46.7003 62.5019 42.5286 56.763 40.5368 51.3818C38.5405 45.9884 38.7607 41.0511 41.4648 37.7248L44.3981 34.1166L45.8189 32.3691L46.26 31.8265L46.3349 31.7343C49.6232 30.5954 53.8165 31.3527 58.4138 33.3948C63.0536 35.4559 68.0109 38.7844 72.6869 42.5858C77.363 46.3872 81.6336 50.5604 84.5986 54.6817C87.5364 58.7651 89.1339 62.7155 88.6905 66.167L88.689 66.1688L88.6853 66.1734L88.6814 66.1781L88.6775 66.1829L88.6736 66.1878L88.6695 66.1928L88.6654 66.1979L88.6612 66.203L88.657 66.2083L88.6526 66.2136L88.6482 66.219L88.6438 66.2245L88.6392 66.2301L88.6346 66.2357L88.6299 66.2415L88.6252 66.2473L88.6204 66.2532L88.6155 66.2592L88.6106 66.2653L88.6055 66.2715L88.6005 66.2777L88.5953 66.2841L88.5901 66.2905L88.5848 66.297L88.5795 66.3036L88.574 66.3102L88.5686 66.317L88.563 66.3238L88.5574 66.3307L88.5517 66.3377L88.546 66.3447L88.5402 66.3519L88.5343 66.3591L88.5284 66.3664L88.5224 66.3738L88.5163 66.3812L88.5102 66.3888L88.504 66.3964L88.4978 66.404L88.4915 66.4118L88.4851 66.4196L88.4787 66.4275L88.4722 66.4355L88.4656 66.4436L88.459 66.4517L88.4524 66.4599L88.4456 66.4682L88.4388 66.4766L88.432 66.485L88.4251 66.4935L88.4181 66.5021L88.4111 66.5107L88.404 66.5194L88.3968 66.5282L88.3896 66.5371L88.3824 66.546L88.3751 66.555L88.3677 66.5641L88.3603 66.5732L88.3528 66.5824L88.3452 66.5917L88.3376 66.601L88.33 66.6105L88.3223 66.6199L88.3145 66.6295L88.3067 66.6391L88.2988 66.6488L88.2909 66.6585L88.2829 66.6684L88.2749 66.6782L88.2668 66.6882L88.2587 66.6982L88.2505 66.7083L88.2422 66.7184L88.2339 66.7286L88.2256 66.7389L88.2172 66.7492L88.2087 66.7596L88.2002 66.7701L88.1917 66.7806L88.1831 66.7912L88.1744 66.8018L88.1657 66.8125L88.157 66.8233L88.1482 66.8341L88.1393 66.845L88.1304 66.856L88.1215 66.867L88.1125 66.878L88.1034 66.8892L88.0943 66.9003L88.0852 66.9116L88.076 66.9229L88.0668 66.9342L88.0575 66.9456L88.0482 66.9571L88.0388 66.9686L88.0294 66.9802L88.0199 66.9919L88.0104 67.0036L88.0009 67.0153L87.9913 67.0271L87.9816 67.039L87.9719 67.0509L87.9622 67.0629L87.9524 67.0749L87.9426 67.0869L87.9328 67.0991L87.9229 67.1112L87.9129 67.1235L87.9029 67.1358L87.8929 67.1481L87.8829 67.1605L87.8727 67.1729L87.8626 67.1854L87.8524 67.1979L87.8422 67.2105L87.8319 67.2231L87.8216 67.2358L87.8113 67.2486L87.8009 67.2613L87.7904 67.2742L87.78 67.287L87.7695 67.2999L87.7589 67.3129L87.7483 67.3259L87.7377 67.339L87.7271 67.3521L87.7164 67.3652L87.7057 67.3784L87.6949 67.3917L87.6841 67.405L87.6733 67.4183L87.6624 67.4317L87.6515 67.4451L87.6405 67.4585L87.6296 67.472L87.6186 67.4856L87.6075 67.4992L87.5964 67.5128L87.5853 67.5265L87.5742 67.5402L87.563 67.5539L87.5518 67.5677L87.5405 67.5815L87.5293 67.5954L87.518 67.6093L87.5066 67.6233L87.4953 67.6373L87.4839 67.6513L87.4724 67.6653L87.461 67.6794L87.4495 67.6936L87.4379 67.7078L87.4264 67.722L87.4148 67.7362L87.4032 67.7505L87.3916 67.7648L87.3799 67.7792L87.3682 67.7935L87.3565 67.808L87.3447 67.8224L87.333 67.8369L87.3211 67.8514L87.3093 67.866L87.2975 67.8806L87.2856 67.8952L87.2737 67.9098L87.2617 67.9245L87.2498 67.9392L87.2378 67.954L87.2258 67.9688L87.2137 67.9836L87.2017 67.9984L87.1896 68.0133L87.1775 68.0282L87.1653 68.0431L87.1532 68.058L87.141 68.073L87.1288 68.088L87.1166 68.103L87.1043 68.1181L87.0921 68.1332L87.0798 68.1483L87.0675 68.1635L87.0552 68.1786L87.0428 68.1938L87.0304 68.209L87.018 68.2243L87.0056 68.2395L86.9932 68.2548L86.9808 68.2701L86.9683 68.2855L86.9558 68.3008L86.9433 68.3162L86.9308 68.3316L86.9182 68.347L86.9057 68.3625L86.8931 68.378L86.8805 68.3934L86.8679 68.409L86.8553 68.4245L86.8426 68.44L86.83 68.4556L86.8173 68.4712L86.8046 68.4868L86.7919 68.5024L86.7792 68.5181L86.7665 68.5337L86.7537 68.5494L86.741 68.5651L86.7282 68.5808L86.7154 68.5966L86.7026 68.6123L86.6898 68.6281L86.677 68.6438L86.6641 68.6596L86.6513 68.6754L86.6384 68.6913L86.6255 68.7071L86.6127 68.7229L86.5998 68.7388L86.5869 68.7547L86.5739 68.7706L86.561 68.7865L86.5481 68.8024L86.5351 68.8183L86.5222 68.8342L86.5092 68.8502L86.4963 68.8661L86.4833 68.8821L86.4703 68.8981L86.4573 68.914L86.4443 68.93L86.4313 68.946L86.4183 68.962L86.4053 68.9781L86.3922 68.9941L86.3792 69.0101L86.3662 69.0262L86.3531 69.0422L86.3401 69.0583L86.327 69.0743L86.3139 69.0904L86.3009 69.1065L86.2878 69.1225L86.2747 69.1386L86.2617 69.1547L86.2486 69.1708L86.2355 69.1869L86.2224 69.203L86.2093 69.2191L86.1962 69.2352L86.1832 69.2513L86.1701 69.2674L86.157 69.2835L86.1439 69.2996L86.1308 69.3157L86.1177 69.3318L86.1046 69.3479L86.0915 69.364L86.0784 69.3801L86.0653 69.3962L86.0522 69.4123L86.0391 69.4284L86.026 69.4445L86.013 69.4606L85.9999 69.4767L85.9868 69.4928L85.9737 69.5089L85.9606 69.525L85.9476 69.5411L85.9345 69.5572L85.9214 69.5732L85.9084 69.5893L85.8953 69.6054L85.8822 69.6214L85.8692 69.6375L85.8561 69.6535L85.8431 69.6695L85.8301 69.6856L85.8171 69.7016L85.804 69.7176L85.791 69.7336L85.778 69.7496L85.765 69.7656L85.752 69.7816L85.739 69.7976L85.7261 69.8135L85.7131 69.8295L85.7001 69.8454L85.6872 69.8613L85.6743 69.8773L85.6613 69.8932L85.6484 69.9091L85.6355 69.9249L85.6226 69.9408L85.6097 69.9567L85.5968 69.9725L85.5839 69.9883L85.5711 70.0042L85.5582 70.02L85.5454 70.0357L85.5326 70.0515L85.5198 70.0673L85.507 70.083L85.4942 70.0987L85.4814 70.1144L85.4687 70.1301L85.4559 70.1458L85.4432 70.1615L85.4305 70.1771L85.4178 70.1927L85.4051 70.2083L85.3925 70.2239L85.3798 70.2395L85.3672 70.255L85.3545 70.2705L85.3419 70.286L85.3294 70.3015L85.3168 70.317L85.3042 70.3324L85.2917 70.3478L85.2792 70.3632L85.2667 70.3786L85.2542 70.394L85.2417 70.4093L85.2293 70.4246L85.2169 70.4399L85.2045 70.4551L85.1921 70.4704L85.1797 70.4856L85.1674 70.5007L85.1551 70.5159L85.1428 70.531L85.1305 70.5461L85.1182 70.5612L85.106 70.5763L85.0938 70.5913L85.0816 70.6063L85.0694 70.6213L85.0573 70.6362L85.0452 70.6511L85.0331 70.666L85.021 70.6809L85.0089 70.6957L84.9969 70.7105L84.9849 70.7252L84.9729 70.74L84.961 70.7547L84.949 70.7693L84.9371 70.784L84.9253 70.7986L84.9134 70.8132L84.9016 70.8277L84.8898 70.8422L84.878 70.8567L84.8663 70.8711L84.8546 70.8855L84.8429 70.8999L84.8312 70.9143L84.8196 70.9286L84.808 70.9428L84.7964 70.9571L84.7849 70.9713L84.7734 70.9854L84.7619 70.9995L84.7504 71.0136L84.739 71.0277L84.7276 71.0417L84.7163 71.0557L84.7049 71.0696L84.6937 71.0835L84.6824 71.0973L84.6712 71.1112L84.66 71.1249L84.6488 71.1387L84.6377 71.1524L84.6266 71.166L84.6155 71.1796L84.6045 71.1932L84.5935 71.2067L84.5825 71.2202L84.5716 71.2337L84.5607 71.2471L84.5498 71.2604L84.539 71.2737L84.5282 71.287L84.5175 71.3002L84.5067 71.3134L84.4961 71.3265L84.4854 71.3396L84.4748 71.3527L84.4643 71.3657L84.4537 71.3786L84.4432 71.3915L84.4328 71.4044L84.4224 71.4172L84.412 71.43L84.4017 71.4427L84.3914 71.4553L84.3811 71.4679L84.3709 71.4805L84.3607 71.493L84.3506 71.5055L84.3405 71.5179L84.3304 71.5303L84.3204 71.5426L84.3105 71.5548L84.3005 71.5671L84.2907 71.5792L84.2808 71.5913L84.271 71.6034L84.2613 71.6154L84.2515 71.6273L84.2419 71.6392L84.2323 71.6511L84.2227 71.6628L84.2131 71.6746L84.2036 71.6862L84.1942 71.6979L84.1848 71.7094L84.1754 71.7209L84.1661 71.7324L84.1569 71.7438L84.1477 71.7551L84.1385 71.7664L84.1294 71.7776L84.1203 71.7888L84.1113 71.7999L84.1023 71.8109L84.0934 71.8219L84.0845 71.8328L84.0756 71.8437L84.0669 71.8545L84.0581 71.8653L84.0494 71.8759L84.0408 71.8866L84.0322 71.8971L84.0237 71.9076L84.0152 71.9181L84.0068 71.9284L83.9984 71.9387L83.99 71.949L83.9818 71.9592L83.9735 71.9693L83.9654 71.9793L83.9573 71.9893L83.9492 71.9993L83.9412 72.0091L83.9332 72.0189L83.9253 72.0286L83.9174 72.0383L83.9096 72.0479L83.9019 72.0574L83.8942 72.0669L83.8866 72.0763L83.879 72.0856L83.8715 72.0948L83.864 72.104L83.8566 72.1131L83.8493 72.1222L83.842 72.1312L83.8347 72.1401L83.8275 72.1489L83.8204 72.1577Z"
        fill="#172128"
        stroke="#73818B"
      />
      <path
        d="M88.4239 66.4956C85.7199 69.8218 80.9315 71.0455 75.2442 70.1925C69.5697 69.3414 63.0998 66.4294 57.2018 61.6346C51.3038 56.8398 47.1321 51.1008 45.1403 45.7197C43.144 40.3263 43.3643 35.389 46.0683 32.0627C48.7723 28.7365 53.5607 27.5128 59.2481 28.3658C64.9226 29.2169 71.3924 32.1289 77.2904 36.9237C83.1885 41.7185 87.3602 47.4574 89.3519 52.8386C91.3482 58.232 91.128 63.1693 88.4239 66.4956Z"
        fill="#172128"
        stroke="#73818B"
      />
      <path
        d="M85.8085 64.371C83.4465 67.2764 79.2602 68.3565 74.2706 67.612C69.2936 66.8695 63.6161 64.3181 58.4401 60.1102C53.264 55.9023 49.6071 50.8655 47.864 46.1449C46.1165 41.4124 46.319 37.0938 48.681 34.1883C51.043 31.2828 55.2293 30.2028 60.2189 30.9472C65.1959 31.6897 70.8734 34.2412 76.0494 38.449C81.2255 42.6569 84.8824 47.6938 86.6255 52.4143C88.373 57.1469 88.1705 61.4655 85.8085 64.371Z"
        fill="#172128"
        stroke="#73818B"
      />
      <path d="M43.46 38.2617L38.9442 43.8165" stroke="#73818B" />
      <path d="M43.9678 43.1992L39.452 48.754" stroke="#73818B" />
      <path d="M45.2754 47.1543L40.7596 52.7091" stroke="#73818B" />
      <path d="M47.1123 50.457L42.508 56.1208" stroke="#73818B" />
      <path d="M49.0176 53.457L44.4133 59.1208" stroke="#73818B" />
      <path d="M51.1006 56.2344L46.4963 61.8981" stroke="#73818B" />
      <path d="M53.3613 58.793L48.757 64.4567" stroke="#73818B" />
      <path d="M55.7959 61.1387L51.1916 66.8024" stroke="#73818B" />
      <path d="M58.5898 63.043L53.9855 68.7067" stroke="#73818B" />
      <path d="M61.3789 64.9512L56.7746 70.6149" stroke="#73818B" />
      <path d="M64.1709 66.8613L59.5666 72.5251" stroke="#73818B" />
      <path d="M67.3164 68.332L62.7121 73.9958" stroke="#73818B" />
      <path d="M70.6377 69.584L66.0334 75.2477" stroke="#73818B" />
      <path d="M74.3135 70.4023L69.7092 76.0661" stroke="#73818B" />
      <path d="M78.3467 70.7832L73.7424 76.4469" stroke="#73818B" />
      <path d="M83.0859 70.2949L78.4816 75.9587" stroke="#73818B" />
      <path
        d="M119.747 67.5891C118.365 71.6468 114.298 74.4557 108.668 75.6287C103.051 76.799 95.9724 76.3123 88.7772 73.8614C81.5821 71.4105 75.6786 67.4752 71.9437 63.1192C68.2003 58.7533 66.6941 54.0461 68.0763 49.9884L69.5757 45.5867L70.302 43.4548L70.5274 42.7929L70.5658 42.6804C73.2547 40.4715 77.4503 39.727 82.4705 40.0475C87.5372 40.371 93.3413 41.773 99.0457 43.7161C104.75 45.6592 110.203 48.0918 114.414 50.9285C118.586 53.7391 121.455 56.89 122.236 60.281L122.235 60.2832L122.233 60.2888L122.231 60.2946L122.229 60.3004L122.227 60.3064L122.225 60.3124L122.223 60.3186L122.221 60.3249L122.219 60.3313L122.217 60.3378L122.214 60.3444L122.212 60.3511L122.21 60.3579L122.208 60.3648L122.205 60.3718L122.203 60.379L122.2 60.3862L122.198 60.3935L122.195 60.4009L122.193 60.4084L122.19 60.4161L122.187 60.4238L122.185 60.4316L122.182 60.4396L122.179 60.4476L122.177 60.4557L122.174 60.4639L122.171 60.4723L122.168 60.4807L122.165 60.4892L122.162 60.4978L122.159 60.5065L122.156 60.5153L122.153 60.5242L122.15 60.5332L122.147 60.5423L122.144 60.5515L122.141 60.5608L122.138 60.5701L122.134 60.5796L122.131 60.5892L122.128 60.5988L122.125 60.6086L122.121 60.6184L122.118 60.6283L122.114 60.6383L122.111 60.6484L122.107 60.6586L122.104 60.6689L122.1 60.6793L122.097 60.6897L122.093 60.7003L122.09 60.7109L122.086 60.7216L122.082 60.7324L122.079 60.7433L122.075 60.7543L122.071 60.7654L122.067 60.7765L122.063 60.7878L122.06 60.7991L122.056 60.8105L122.052 60.822L122.048 60.8335L122.044 60.8452L122.04 60.8569L122.036 60.8687L122.032 60.8806L122.028 60.8926L122.024 60.9046L122.02 60.9168L122.015 60.929L122.011 60.9413L122.007 60.9537L122.003 60.9661L121.998 60.9786L121.994 60.9912L121.99 61.0039L121.985 61.0167L121.981 61.0295L121.977 61.0424L121.972 61.0554L121.968 61.0685L121.963 61.0816L121.959 61.0948L121.954 61.1081L121.95 61.1214L121.945 61.1349L121.941 61.1484L121.936 61.1619L121.931 61.1756L121.927 61.1893L121.922 61.2031L121.917 61.2169L121.913 61.2309L121.908 61.2449L121.903 61.2589L121.898 61.273L121.893 61.2872L121.888 61.3015L121.884 61.3158L121.879 61.3302L121.874 61.3447L121.869 61.3592L121.864 61.3738L121.859 61.3885L121.854 61.4032L121.849 61.418L121.844 61.4329L121.839 61.4478L121.834 61.4628L121.828 61.4778L121.823 61.4929L121.818 61.5081L121.813 61.5233L121.808 61.5386L121.802 61.554L121.797 61.5694L121.792 61.5848L121.787 61.6004L121.781 61.616L121.776 61.6316L121.771 61.6473L121.765 61.6631L121.76 61.6789L121.755 61.6948L121.749 61.7107L121.744 61.7267L121.738 61.7427L121.733 61.7588L121.727 61.775L121.722 61.7912L121.716 61.8075L121.711 61.8238L121.705 61.8401L121.699 61.8565L121.694 61.873L121.688 61.8895L121.683 61.9061L121.677 61.9227L121.671 61.9394L121.665 61.9561L121.66 61.9729L121.654 61.9897L121.648 62.0066L121.643 62.0235L121.637 62.0405L121.631 62.0575L121.625 62.0746L121.619 62.0917L121.613 62.1088L121.608 62.126L121.602 62.1433L121.596 62.1606L121.59 62.1779L121.584 62.1953L121.578 62.2127L121.572 62.2302L121.566 62.2477L121.56 62.2652L121.554 62.2828L121.548 62.3004L121.542 62.3181L121.536 62.3358L121.53 62.3536L121.524 62.3714L121.518 62.3892L121.512 62.4071L121.506 62.425L121.5 62.443L121.494 62.4609L121.487 62.479L121.481 62.497L121.475 62.5151L121.469 62.5333L121.463 62.5514L121.456 62.5696L121.45 62.5879L121.444 62.6061L121.438 62.6245L121.432 62.6428L121.425 62.6612L121.419 62.6796L121.413 62.698L121.406 62.7165L121.4 62.735L121.394 62.7535L121.388 62.7721L121.381 62.7907L121.375 62.8093L121.369 62.8279L121.362 62.8466L121.356 62.8653L121.349 62.8841L121.343 62.9028L121.337 62.9216L121.33 62.9404L121.324 62.9593L121.317 62.9782L121.311 62.9971L121.304 63.016L121.298 63.0349L121.292 63.0539L121.285 63.0729L121.279 63.0919L121.272 63.1109L121.266 63.13L121.259 63.1491L121.253 63.1682L121.246 63.1873L121.24 63.2065L121.233 63.2256L121.227 63.2448L121.22 63.264L121.213 63.2833L121.207 63.3025L121.2 63.3218L121.194 63.3411L121.187 63.3604L121.181 63.3797L121.174 63.399L121.167 63.4184L121.161 63.4377L121.154 63.4571L121.148 63.4765L121.141 63.4959L121.134 63.5153L121.128 63.5348L121.121 63.5542L121.114 63.5737L121.108 63.5931L121.101 63.6126L121.095 63.6321L121.088 63.6516L121.081 63.6712L121.075 63.6907L121.068 63.7102L121.061 63.7298L121.055 63.7493L121.048 63.7689L121.041 63.7885L121.035 63.8081L121.028 63.8277L121.021 63.8473L121.015 63.8669L121.008 63.8865L121.001 63.9061L120.995 63.9257L120.988 63.9453L120.981 63.965L120.975 63.9846L120.968 64.0042L120.961 64.0239L120.954 64.0435L120.948 64.0632L120.941 64.0828L120.934 64.1025L120.928 64.1221L120.921 64.1418L120.914 64.1614L120.908 64.1811L120.901 64.2007L120.894 64.2204L120.888 64.24L120.881 64.2597L120.874 64.2793L120.867 64.2989L120.861 64.3186L120.854 64.3382L120.847 64.3578L120.841 64.3775L120.834 64.3971L120.827 64.4167L120.821 64.4363L120.814 64.4559L120.807 64.4755L120.801 64.4951L120.794 64.5147L120.787 64.5342L120.781 64.5538L120.774 64.5734L120.767 64.5929L120.761 64.6124L120.754 64.632L120.747 64.6515L120.741 64.671L120.734 64.6905L120.727 64.71L120.721 64.7294L120.714 64.7489L120.708 64.7683L120.701 64.7878L120.694 64.8072L120.688 64.8266L120.681 64.846L120.674 64.8654L120.668 64.8847L120.661 64.9041L120.655 64.9234L120.648 64.9427L120.642 64.962L120.635 64.9813L120.628 65.0005L120.622 65.0198L120.615 65.039L120.609 65.0582L120.602 65.0774L120.596 65.0965L120.589 65.1157L120.583 65.1348L120.576 65.1539L120.57 65.173L120.563 65.192L120.557 65.2111L120.55 65.2301L120.544 65.249L120.537 65.268L120.531 65.2869L120.524 65.3059L120.518 65.3247L120.512 65.3436L120.505 65.3624L120.499 65.3812L120.492 65.4L120.486 65.4188L120.48 65.4375L120.473 65.4562L120.467 65.4749L120.461 65.4935L120.454 65.5121L120.448 65.5307L120.442 65.5493L120.435 65.5678L120.429 65.5863L120.423 65.6047L120.416 65.6232L120.41 65.6416L120.404 65.6599L120.398 65.6783L120.391 65.6966L120.385 65.7148L120.379 65.733L120.373 65.7512L120.367 65.7694L120.36 65.7875L120.354 65.8056L120.348 65.8236L120.342 65.8417L120.336 65.8596L120.33 65.8776L120.324 65.8955L120.318 65.9133L120.311 65.9311L120.305 65.9489L120.299 65.9667L120.293 65.9844L120.287 66.002L120.281 66.0196L120.275 66.0372L120.269 66.0548L120.263 66.0722L120.257 66.0897L120.252 66.1071L120.246 66.1245L120.24 66.1418L120.234 66.1591L120.228 66.1763L120.222 66.1935L120.216 66.2106L120.21 66.2277L120.205 66.2447L120.199 66.2617L120.193 66.2787L120.187 66.2956L120.182 66.3125L120.176 66.3293L120.17 66.346L120.164 66.3627L120.159 66.3794L120.153 66.396L120.147 66.4125L120.142 66.429L120.136 66.4455L120.131 66.4619L120.125 66.4782L120.12 66.4945L120.114 66.5108L120.109 66.527L120.103 66.5431L120.098 66.5592L120.092 66.5752L120.087 66.5912L120.081 66.6071L120.076 66.6229L120.07 66.6387L120.065 66.6545L120.06 66.6702L120.054 66.6858L120.049 66.7013L120.044 66.7169L120.039 66.7323L120.033 66.7477L120.028 66.763L120.023 66.7783L120.018 66.7935L120.013 66.8086L120.007 66.8237L120.002 66.8388L119.997 66.8537L119.992 66.8686L119.987 66.8834L119.982 66.8982L119.977 66.9129L119.972 66.9276L119.967 66.9421L119.962 66.9566L119.957 66.9711L119.952 66.9855L119.947 66.9998L119.943 67.014L119.938 67.0282L119.933 67.0423L119.928 67.0563L119.923 67.0703L119.919 67.0842L119.914 67.098L119.909 67.1118L119.905 67.1255L119.9 67.1391L119.895 67.1526L119.891 67.1661L119.886 67.1795L119.882 67.1928L119.877 67.2061L119.873 67.2193L119.868 67.2324L119.864 67.2454L119.859 67.2584L119.855 67.2713L119.851 67.2841L119.846 67.2968L119.842 67.3095L119.838 67.322L119.833 67.3345L119.829 67.347L119.825 67.3593L119.821 67.3716L119.817 67.3838L119.813 67.3959L119.808 67.4079L119.804 67.4198L119.8 67.4317L119.796 67.4435L119.792 67.4552L119.788 67.4668L119.784 67.4783L119.781 67.4898L119.777 67.5012L119.773 67.5125L119.769 67.5237L119.765 67.5348L119.761 67.5458L119.758 67.5568L119.754 67.5676L119.75 67.5784L119.747 67.5891Z"
        fill="#172128"
        stroke="#73818B"
      />
      <path
        d="M122.099 60.6828C120.717 64.7406 116.651 67.5495 111.021 68.7224C105.403 69.8928 98.3249 69.406 91.1298 66.9551C83.9347 64.5043 78.0311 60.5689 74.2962 56.2129C70.5529 51.847 69.0466 47.1399 70.4288 43.0822C71.811 39.0244 75.8775 36.2155 81.5075 35.0426C87.1249 33.8723 94.2032 34.359 101.398 36.8099C108.593 39.2608 114.497 43.1961 118.232 47.5521C121.975 51.918 123.481 56.6251 122.099 60.6828Z"
        fill="#172128"
        stroke="#73818B"
      />
      <path
        d="M118.91 59.5974C117.702 63.1419 114.151 65.6071 109.213 66.6399C104.287 67.67 98.0772 67.2467 91.7628 65.0958C85.4485 62.9449 80.2713 59.4894 76.9988 55.6668C73.718 51.8344 72.4098 47.7137 73.6171 44.1692C74.8245 40.6248 78.3761 38.1595 83.3142 37.1268C88.2397 36.0966 94.4497 36.52 100.764 38.6709C107.078 40.8218 112.256 44.2772 115.528 48.0999C118.809 51.9323 120.117 56.0529 118.91 59.5974Z"
        fill="#172128"
        stroke="#73818B"
      />
      <path d="M70.1338 49.8008L67.8255 56.5772" stroke="#73818B" />
      <path d="M72.3223 54.2559L70.014 61.0323" stroke="#73818B" />
      <path d="M74.9199 57.5137L72.6116 64.2901" stroke="#73818B" />
      <path d="M77.79 59.9727L75.4365 66.882" stroke="#73818B" />
      <path d="M80.6172 62.123L78.2636 69.0324" stroke="#73818B" />
      <path d="M83.5332 64.0078L81.1797 70.9171" stroke="#73818B" />
      <path d="M86.542 65.623L84.1885 72.5324" stroke="#73818B" />
      <path d="M89.6406 66.9766L87.2871 73.8859" stroke="#73818B" />
      <path d="M92.9189 67.7949L90.5654 74.7042" stroke="#73818B" />
      <path d="M96.1992 68.6172L93.8457 75.5265" stroke="#73818B" />
      <path d="M99.4785 69.4395L97.125 76.3488" stroke="#73818B" />
      <path d="M102.939 69.7246L100.586 76.6339" stroke="#73818B" />
      <path d="M106.49 69.748L104.137 76.6574" stroke="#73818B" />
      <path d="M110.222 69.2422L107.868 76.1515" stroke="#73818B" />
      <path d="M114.136 68.1992L111.782 75.1085" stroke="#73818B" />
      <path d="M118.41 66.0996L116.057 73.0089" stroke="#73818B" />
    </svg>