<svg
      
      width="14"
      height="14"
      viewBox="0 0 14 14"
      fill="none"
      xmlns="http://www.w3.org/2000/svg"
    >
      <path
        fill-rule="evenodd"
        clip-rule="evenodd"
        d="M12.5089 7.93436C12.2849 9.05954 11.7321 10.093 10.9206 10.904C9.83302 11.991 8.35829 12.6016 6.82064 12.6016C5.28298 12.6016 3.80825 11.991 2.72064 10.904C1.90915 10.093 1.35641 9.05954 1.13234 7.93436C0.908262 6.80917 1.02292 5.64281 1.46181 4.5828C1.90069 3.52279 2.64409 2.61674 3.59797 1.97928C4.55185 1.34182 5.67336 1.00156 6.82064 1.00156C7.96791 1.00156 9.08942 1.34182 10.0433 1.97928C10.9972 2.61674 11.7406 3.52279 12.1795 4.5828C12.6184 5.64281 12.733 6.80917 12.5089 7.93436ZM8.13527 13.4676C9.45498 13.2033 10.6666 12.5534 11.6166 11.6C12.8868 10.3254 13.6 8.5994 13.6 6.8C13.6 5.00061 12.8868 3.27457 11.6166 2C10.6666 1.04665 9.45498 0.396678 8.13527 0.13239C6.81555 -0.131898 5.4471 0.00138997 4.20319 0.515373C2.95928 1.02936 1.89588 1.90092 1.14764 3.01968C0.399407 4.13844 0 5.45409 0 6.8C0 8.14592 0.399407 9.46156 1.14764 10.5803C1.89588 11.6991 2.95928 12.5706 4.20319 13.0846C5.4471 13.5986 6.81555 13.7319 8.13527 13.4676ZM9.5932 4.38455C9.52963 4.42015 9.47454 4.46909 9.43171 4.52803L5.78371 8.13603L3.91171 6.22403C3.86889 6.16509 3.81379 6.11615 3.75023 6.08055C3.68667 6.04496 3.61614 6.02358 3.54352 6.01786C3.47089 6.01215 3.39789 6.02225 3.32954 6.04747C3.2612 6.07269 3.19913 6.11242 3.14762 6.16393C3.09611 6.21544 3.05637 6.27751 3.03116 6.34586C3.00594 6.4142 2.99584 6.4872 3.00155 6.55983C3.00726 6.63246 3.02865 6.70298 3.06424 6.76654C3.09983 6.83011 3.14878 6.8852 3.20771 6.92803L5.43171 9.13603C5.54002 9.23784 5.68307 9.29452 5.83171 9.29452C5.98036 9.29452 6.12341 9.23784 6.23171 9.13603L10.1357 5.23203C10.1946 5.1892 10.2436 5.13411 10.2792 5.07054C10.3148 5.00698 10.3362 4.93646 10.3419 4.86383C10.3476 4.7912 10.3375 4.7182 10.3123 4.64986C10.2871 4.58151 10.2473 4.51944 10.1958 4.46793C10.1443 4.41642 10.0822 4.37669 10.0139 4.35147C9.94553 4.32625 9.87253 4.31615 9.79991 4.32186C9.72728 4.32758 9.65676 4.34896 9.5932 4.38455Z"
        fill="#00D6AF"
      />
    </svg>