<svg
      width="19"
      height="20"
      viewBox="0 0 19 20"
      fill="none"
      xmlns="http://www.w3.org/2000/svg"
    >
      <path
        d="M3.6764 17.0996L1.33321 15.2351C0.92105 14.9112 0.557535 14.6935 0.812082 14.2353L2.06585 12.0667C2.81862 10.7117 4.24684 10.5195 5.79692 10.5195L10.1583 10.5195C11.3897 10.5195 12.3425 9.33839 13.2957 8.55864L15.6488 6.59774C16.6329 5.79263 17.6058 6.77049 16.8253 7.77429L12.14 13.8489C11.7357 14.3689 11.2913 14.6445 10.6326 14.6445L6.37338 14.673C5.95495 14.673 5.57513 14.9176 5.40198 15.2985L4.90397 16.6904C4.61774 17.3201 4.22031 17.5269 3.6764 17.0996Z"
        fill="#00C6A2"
      />
      <path
        fill-rule="evenodd"
        clip-rule="evenodd"
        d="M4.98371 8.23381L9.76629 8.16686C10.6652 8.16687 11.9491 7.15831 12.8634 6.28205C12.0539 3.86985 8.96371 0.323242 8.96371 0.323242C8.96371 0.323242 4.87183 5.01956 4.87183 7.27945C4.87183 7.60806 4.91056 7.92762 4.98371 8.23381Z"
        fill="#00C6A2"
      />
    </svg>