<svg
      
      width="193"
      height="61"
      viewBox="0 0 193 61"
      fill="none"
      xmlns="http://www.w3.org/2000/svg"
    >
      <g filter="url(#filter0_d_5556_1389)">
        <path
          fill-rule="evenodd"
          clip-rule="evenodd"
          d="M95.5203 20.0296L95.3033 6.03125L92.2237 6.079L92.3095 11.6183L86.6302 11.7064L86.5443 6.16705L83.4647 6.2148L83.6818 20.2131L86.7614 20.1654L86.6743 14.546L92.3536 14.458L92.4407 20.0773L95.5203 20.0296ZM70.956 7.49571L74.4103 6.93153L70.4579 16.1086L71.3574 21.6157L68.3176 22.1122L67.4278 16.6643L60.7513 9.16247L64.3042 8.58217L68.5064 13.5903L70.956 7.49571ZM60.0468 14.3758L60.0358 14.3374C59.2518 11.5869 56.7664 10.2365 53.5544 11.1521L48.0535 12.7201L51.8913 26.1838L54.8533 25.3395L53.702 21.3004L55.9523 20.6589C58.972 19.7982 60.935 17.4917 60.0468 14.3758ZM57.0628 15.2888C57.3917 16.4429 56.7784 17.5743 55.2974 17.9965L52.9509 18.6654L51.7776 14.5493L54.0664 13.8969C55.5474 13.4747 56.6735 13.9232 57.0518 15.2504L57.0628 15.2888ZM46.4608 18.3456L46.4764 18.3824C47.7417 21.3651 46.078 23.8958 43.1873 25.1221L41.0332 26.036L42.6735 29.9025L39.8381 31.1053L34.3704 18.2171L39.6362 15.9832C42.7109 14.6788 45.3438 15.7127 46.4608 18.3456ZM42.2093 22.5607C43.627 21.9592 44.0962 20.7608 43.6276 19.6561L43.612 19.6193C43.073 18.3489 41.9002 18.0426 40.4826 18.644L38.2916 19.5735L39.9631 23.5136L42.2093 22.5607ZM38.5864 31.5496L26.1362 22.6164L23.7092 24.0913L25.9047 39.2568L28.5881 37.626L28.0511 34.2779L33.1101 31.2033L35.8347 33.2219L38.5864 31.5496ZM30.7575 29.4502L27.5785 31.3822L26.8101 26.5365L30.7575 29.4502ZM24.6653 40.3198L15.4147 29.8114L13.1029 31.8465L16.7635 36.0048L12.5001 39.7579L8.83946 35.5996L6.52761 37.6347L15.7782 48.1431L18.0901 46.108L14.3766 41.8896L18.64 38.1365L22.3535 42.3549L24.6653 40.3198ZM113.422 14.3205L113.418 14.3603C113.066 18.3247 109.65 21.294 105.347 20.9117C101.044 20.5293 98.2407 17.0476 98.593 13.0832L98.5965 13.0434C98.9487 9.07901 102.365 6.1097 106.668 6.49204C110.971 6.87438 113.774 10.3561 113.422 14.3205ZM105.638 18.0864C108.108 18.3059 109.995 16.5058 110.207 14.1152L110.211 14.0753C110.423 11.6848 108.847 9.53684 106.377 9.31735C103.907 9.09786 102.02 10.8979 101.807 13.2885L101.804 13.3284C101.591 15.719 103.168 17.8669 105.638 18.0864ZM124.931 23.7244L125.474 20.9776L118.626 19.6238L120.799 8.63646L117.777 8.03909L115.062 21.7732L124.931 23.7244ZM133.943 11.765L130.148 25.2409L127.184 24.406L130.979 10.9301L133.943 11.765ZM147.952 24.2757L147.967 24.2385C149.41 20.5721 147.687 16.6487 143.592 15.0375L138.511 13.0382L133.385 26.0658L138.466 28.0651C142.56 29.6763 146.509 27.9421 147.952 24.2757ZM144.941 23.1338C144.033 25.4416 141.829 26.401 139.484 25.4782L137.269 24.6067L140.36 16.7529L142.574 17.6244C144.919 18.5472 145.864 20.7889 144.956 23.0966L144.941 23.1338ZM160.861 23.3227L158.958 38.5276L156.175 36.9086L156.647 33.5508L151.53 30.5742L148.845 32.6449L146.13 31.0661L158.406 21.8948L160.861 23.3227ZM153.848 28.7761L157.064 30.6465L157.739 25.7869L153.848 28.7761ZM178.261 36.2469L175.548 34.036L169.362 36.2451L170.323 29.7785L167.532 27.5045L166.346 37.4769L162.859 41.7562L165.247 43.7017L168.772 39.3759L178.261 36.2469ZM180.338 53.0051L180.308 53.0319C178.244 54.8942 175.666 54.3652 173.643 52.123C172.222 50.549 171.338 48.4644 171.327 46.2122L174.164 46.1031C174.236 47.7353 174.631 49.1575 175.702 50.3454C176.546 51.2809 177.427 51.5103 178.036 50.961L178.065 50.9342C178.644 50.4116 178.62 49.7873 177.498 47.648C176.143 45.072 175.503 43.1982 177.567 41.3359L177.597 41.3091C179.483 39.6076 182.097 39.9968 184.013 42.1202C185.379 43.6348 186.07 45.3554 186.174 47.1734L183.38 47.5396C183.188 46.0429 182.757 44.7887 181.966 43.9126C181.176 43.0365 180.36 42.9379 179.855 43.3934L179.825 43.4202C179.142 44.0365 179.321 44.683 180.482 46.8951C181.835 49.4994 182.149 51.3706 180.338 53.0051Z"
          fill="white"
        />
      </g>
      <defs>
        <filter
          id="filter0_d_5556_1389"
          x="0.527588"
          y="0.03125"
          width="191.647"
          height="60.1323"
          filterUnits="userSpaceOnUse"
          color-interpolation-filters="sRGB"
        >
          <feFlood flood-opacity="0" result="BackgroundImageFix" />
          <feColorMatrix
            in="SourceAlpha"
            type="matrix"
            values="0 0 0 0 0 0 0 0 0 0 0 0 0 0 0 0 0 0 127 0"
            result="hardAlpha"
          />
          <feOffset />
          <feGaussianBlur stdDeviation="3" />
          <feComposite in2="hardAlpha" operator="out" />
          <feColorMatrix
            type="matrix"
            values="0 0 0 0 1 0 0 0 0 1 0 0 0 0 1 0 0 0 0.25 0"
          />
          <feBlend
            mode="normal"
            in2="BackgroundImageFix"
            result="effect1_dropShadow_5556_1389"
          />
          <feBlend
            mode="normal"
            in="SourceGraphic"
            in2="effect1_dropShadow_5556_1389"
            result="shape"
          />
        </filter>
      </defs>
    </svg>