<svg
      width="60"
      height="63"
      viewBox="0 0 60 63"
      fill="none"
      xmlns="http://www.w3.org/2000/svg"
    >
      <path
        d="M33.3552 29.6754C33.8237 29.96 33.9758 30.5686 33.6963 31.0402L31.7097 34.3908C31.3145 35.0574 31.7949 35.9008 32.5699 35.9008H37.7394C38.6075 35.9008 39.0633 36.9311 38.4793 37.5735L28.2915 48.7796C27.5242 49.6235 26.1691 48.7311 26.6413 47.6928L28.5424 43.5132C28.8436 42.8511 28.3595 42.0992 27.6321 42.0992H21.7552C20.9803 42.0992 20.4998 41.2559 20.895 40.5893L28.4344 27.8695C28.7181 27.3908 29.3381 27.2358 29.8137 27.5247L33.3552 29.6754Z"
        fill="#00D6AF"
      />
      <path
        fill-rule="evenodd"
        clip-rule="evenodd"
        d="M3.15 56.7C1.4103 56.7 0 58.1103 0 59.85C0 61.5897 1.4103 63 3.15 63H11.138C11.1396 63 11.1412 63 11.1429 63H48.8571C48.8588 63 48.8604 63 48.862 63H56.85C58.5897 63 60 61.5897 60 59.85C60 58.1103 58.5897 56.7 56.85 56.7H52V36.129C52 23.9075 42.1503 14 30 14C17.8497 14 8 23.9075 8 36.129V56.7H3.15ZM33.1579 3.1579C33.1579 1.41384 31.7441 0 30 0C28.2559 0 26.8421 1.41384 26.8421 3.1579V6.2921C26.8421 8.03616 28.2559 9.45 30 9.45C31.7441 9.45 33.1579 8.03616 33.1579 6.2921V3.1579ZM54.3326 14.8329C55.5677 13.6006 55.5676 11.5996 54.3323 10.3674C53.1014 9.13955 51.109 9.13943 49.878 10.3671L47.6451 12.5939C46.4093 13.8263 46.4092 15.8279 47.6448 17.0605C48.8761 18.2886 50.8691 18.2885 52.1002 17.0602L54.3326 14.8329ZM10.122 10.3671C8.89099 9.13943 6.8986 9.13955 5.66769 10.3674C4.43242 11.5996 4.43231 13.6006 5.66743 14.8329L7.8998 17.0602C9.13091 18.2885 11.1239 18.2886 12.3552 17.0605C13.5908 15.8279 13.5907 13.8263 12.3549 12.5939L10.122 10.3671ZM14.2857 36.129C14.2857 27.3991 21.321 20.3226 30 20.3226C38.679 20.3226 45.7143 27.3991 45.7143 36.129V56.6774H14.2857V36.129Z"
        fill="url(#paint0_linear_18312_583)"
      />
      <defs>
        <linearGradient
          id="paint0_linear_18312_583"
          x1="30"
          y1="0"
          x2="30"
          y2="63"
          gradientUnits="userSpaceOnUse"
        >
          <stop stop-color="#FFDC49" />
          <stop offset="1" stop-color="#00A88A" />
        </linearGradient>
      </defs>
    </svg>