<svg
      width="264"
      height="130"
      viewBox="0 0 264 130"
      fill="none"
      xmlns="http://www.w3.org/2000/svg"
    >
      <path
        d="M250.993 22L12.3036 22L0 35.9157V133H264V35.9157L250.993 22Z"
        fill="url(#paint0_linear_13910_2702)"
      />
      <rect
        x="76.5"
        y="5.5"
        width="134"
        height="30"
        fill="black"
        stroke="#00FFD1"
      />
      <rect
        x="71.5"
        y="0.5"
        width="134"
        height="30"
        fill="black"
        stroke="#00FFD1"
      />
      <path
        d="M105.5 19.25V17H110V14.75H112.25V12.5H105.5V14.75H101V10.25H103.25V8H114.5V10.25H116.75V14.75H114.5V17H112.25V19.25H105.5ZM105.5 23.75V21.5H112.25V23.75H105.5ZM141.5 19.25V17H146V14.75H148.25V12.5H141.5V14.75H137V10.25H139.25V8H150.5V10.25H152.75V14.75H150.5V17H148.25V19.25H141.5ZM141.5 23.75V21.5H148.25V23.75H141.5ZM177.5 19.25V17H182V14.75H184.25V12.5H177.5V14.75H173V10.25H175.25V8H186.5V10.25H188.75V14.75H186.5V17H184.25V19.25H177.5ZM177.5 23.75V21.5H184.25V23.75H177.5Z"
        fill="#00FFD1"
      />
      <path
        d="M20 64.75V49H35.75V51.25H24.5V55.75H33.5V58H24.5V64.75H20ZM38 64.75V53.5H40.25V51.25H42.5V49H49.25V51.25H51.5V53.5H53.75V64.75H49.25V60.25H42.5V64.75H38ZM42.5 58H49.25V53.5H47V51.25H44.75V53.5H42.5V58ZM56 64.75V49H69.5V51.25H71.75V58H67.25V60.25H69.5V62.5H71.75V64.75H65V62.5H62.75V60.25H60.5V64.75H56ZM60.5 58H65V55.75H67.25V51.25H60.5V58ZM74 64.75V49H78.5V51.25H80.75V53.5H83V51.25H85.25V49H89.75V64.75H85.25V55.75H83V60.25H80.75V55.75H78.5V64.75H74ZM20 88.75V73H33.5V75.25H35.75V82H31.25V84.25H33.5V86.5H35.75V88.75H29V86.5H26.75V84.25H24.5V88.75H20ZM24.5 82H29V79.75H31.25V75.25H24.5V82ZM38 88.75V73H53.75V75.25H42.5V79.75H51.5V82H42.5V86.5H53.75V88.75H38ZM58.25 88.75V86.5H56V73H60.5V82H62.75V73H65V82H67.25V73H71.75V86.5H69.5V88.75H67.25V86.5H65V84.25H62.75V86.5H60.5V88.75H58.25ZM74 88.75V77.5H76.25V75.25H78.5V73H85.25V75.25H87.5V77.5H89.75V88.75H85.25V84.25H78.5V88.75H74ZM78.5 82H85.25V77.5H83V75.25H80.75V77.5H78.5V82ZM92 88.75V73H105.5V75.25H107.75V82H103.25V84.25H105.5V86.5H107.75V88.75H101V86.5H98.75V84.25H96.5V88.75H92ZM96.5 82H101V79.75H103.25V75.25H96.5V82ZM110 88.75V73H121.25V75.25H123.5V77.5H125.75V84.25H123.5V86.5H121.25V88.75H110ZM114.5 86.5H119V84.25H121.25V77.5H119V75.25H114.5V86.5ZM130.25 88.75V86.5H128V84.25H132.5V86.5H139.25V82H130.25V79.75H128V75.25H130.25V73H141.5V75.25H143.75V77.5H139.25V75.25H132.5V79.75H141.5V82H143.75V86.5H141.5V88.75H130.25Z"
        fill="black"
      />
      <path
        d="M160 79.75V73.25H163.25V70H166.5V66.75H163.25V63.5H160V57H166.5V63.5H169.75V66.75H173V63.5H176.25V57H182.75V63.5H179.5V66.75H176.25V70H179.5V73.25H182.75V79.75H176.25V73.25H173V70H169.75V73.25H166.5V79.75H160Z"
        fill="black"
      />
      <defs>
        <linearGradient
          id="paint0_linear_13910_2702"
          x1="132"
          y1="22"
          x2="132"
          y2="115"
          gradientUnits="userSpaceOnUse"
        >
          <stop stop-color="#00FFD1" />
          <stop offset="1" stop-color="#005747" />
        </linearGradient>
      </defs>
    </svg>