<svg
      
      width="18"
      height="17"
      viewBox="0 0 18 17"
      fill="none"
      xmlns="http://www.w3.org/2000/svg"
    >
      <path
        fill-rule="evenodd"
        clip-rule="evenodd"
        d="M0 4C0 1.79086 1.79083 0 4 0H14C16.2092 0 18 1.79086 18 4V9C18 11.2091 16.2092 13 14 13H10.3866C10.1378 13 9.89801 13.0927 9.71393 13.2601L6.17267 16.4794C5.53027 17.0634 4.5 16.6076 4.5 15.7394V13.9C4.5 13.403 4.09705 13 3.59998 13C1.61176 13 0 11.3882 0 9.39999V4ZM4 5C4 4.44772 4.44769 4 5 4H13C13.5523 4 14 4.44772 14 5C14 5.55228 13.5523 6 13 6H5C4.44769 6 4 5.55228 4 5ZM5 8C4.44769 8 4 8.44772 4 9C4 9.55228 4.44769 10 5 10H10C10.5523 10 11 9.55228 11 9C11 8.44772 10.5523 8 10 8H5Z"
        fill="currentColor"
      />
    </svg>