<svg
      width="63"
      height="64"
      viewBox="0 0 63 64"
      fill="none"
      xmlns="http://www.w3.org/2000/svg"
    >
      <path
        d="M33.5 53H38.43C38.5626 53 38.6898 52.9473 38.7836 52.8536C38.8773 52.7598 38.93 52.6326 38.93 52.5V52.483L38.7785 48.0625C38.7697 47.8064 38.8267 47.5523 38.944 47.3245C39.0613 47.0966 39.235 46.9026 39.4485 46.761C43.2 44.2745 45.5 40.084 45.5 35.5C45.5 28.044 39.456 22 32 22C24.544 22 18.5 28.044 18.5 35.5C18.5 40.085 20.8015 44.2765 24.5535 46.7625C24.7528 46.8944 24.9176 47.0721 25.0344 47.2807C25.1511 47.4892 25.2163 47.7226 25.2245 47.9615L25.381 52.517C25.3854 52.6466 25.44 52.7695 25.5333 52.8596C25.6266 52.9497 25.7513 53.0001 25.881 53H30.5V42.845L26.9075 39.028C26.6349 38.7383 26.4885 38.3521 26.5006 37.9544C26.5066 37.7575 26.5513 37.5637 26.6322 37.3841C26.7131 37.2044 26.8285 37.0425 26.972 36.9075C27.1155 36.7725 27.2841 36.6671 27.4683 36.5973C27.6525 36.5274 27.8487 36.4946 28.0456 36.5006C28.4433 36.5127 28.8199 36.6823 29.0925 36.972L32.0625 40.128L35.47 36.9095C35.7592 36.6363 36.1451 36.4892 36.5428 36.5006C36.9405 36.5119 37.3173 36.6808 37.5905 36.97C37.8637 37.2592 38.0108 37.6451 37.9994 38.0428C37.9881 38.4405 37.8192 38.8173 37.53 39.0905L33.5 42.8965V53ZM48.5 35.5C48.502 38.0822 47.8972 40.6287 46.7342 42.9341C45.5713 45.2396 43.8828 47.2395 41.805 48.7725L41.9285 52.38C41.9446 52.8495 41.866 53.3174 41.6975 53.7559C41.5289 54.1944 41.2738 54.5945 40.9473 54.9323C40.6208 55.2701 40.2297 55.5387 39.7972 55.7221C39.3648 55.9056 38.8998 56.0001 38.43 56H25.88C24.9725 56 24.1005 55.6476 23.4479 55.017C22.7953 54.3864 22.4131 53.527 22.382 52.62L22.2515 48.814C20.1576 47.2828 18.4548 45.2789 17.2816 42.9654C16.1085 40.6518 15.498 38.094 15.5 35.5C15.5 26.3875 22.8875 19 32 19C41.1125 19 48.5 26.3875 48.5 35.5ZM27.5 61C27.1022 61 26.7206 60.842 26.4393 60.5607C26.158 60.2794 26 59.8978 26 59.5C26 59.1022 26.158 58.7206 26.4393 58.4393C26.7206 58.158 27.1022 58 27.5 58H36.5C36.8978 58 37.2794 58.158 37.5607 58.4393C37.842 58.7206 38 59.1022 38 59.5C38 59.8978 37.842 60.2794 37.5607 60.5607C37.2794 60.842 36.8978 61 36.5 61H27.5Z"
        fill="#00D6AF"
      />
      <line
        x1="32.5"
        y1="1.5"
        x2="32.5"
        y2="8.5"
        stroke="#00C6A2"
        stroke-width="3"
        stroke-linecap="round"
      />
      <line
        x1="50.5773"
        y1="6.05138"
        x2="47.0514"
        y2="12.0985"
        stroke="#00C6A2"
        stroke-width="3"
        stroke-linecap="round"
      />
      <line
        x1="61.2491"
        y1="20.4947"
        x2="54.6734"
        y2="22.8949"
        stroke="#00C6A2"
        stroke-width="3"
        stroke-linecap="round"
      />
      <line
        x1="1.5"
        y1="-1.5"
        x2="8.5"
        y2="-1.5"
        transform="matrix(0.939377 0.342886 0.342886 -0.939377 0.75 18.5713)"
        stroke="#00C6A2"
        stroke-width="3"
        stroke-linecap="round"
      />
      <line
        x1="1.5"
        y1="-1.5"
        x2="8.5"
        y2="-1.5"
        transform="matrix(0.503712 0.863872 0.863872 -0.503712 14 4)"
        stroke="#00C6A2"
        stroke-width="3"
        stroke-linecap="round"
      />
    </svg>