<svg
      width="12"
      height="13"
      viewBox="0 0 12 13"
      fill="none"
      xmlns="http://www.w3.org/2000/svg"
    >
      <path
        fill-rule="evenodd"
        clip-rule="evenodd"
        d="M8.96806 12.002H3.03194C1.36082 12.002 0 10.6412 0 8.97009V3.03194C0 1.36082 1.36082 0 3.03194 0H5.6096C5.97262 0 6.26669 0.294068 6.26669 0.65709C6.26669 1.02011 5.97262 1.31418 5.6096 1.31418H3.03194C2.5736 1.31418 2.14163 1.49265 1.81714 1.81714C1.49265 2.14163 1.31418 2.5736 1.31418 3.03194V8.96806C1.31418 9.4264 1.49265 9.85838 1.81714 10.1829C2.14163 10.5074 2.5736 10.6858 3.03194 10.6858H8.96806C9.91516 10.6858 10.6858 9.91516 10.6858 8.96806V6.19571C10.6858 5.96248 10.8116 5.74345 11.0144 5.62582C11.1137 5.56904 11.2273 5.53862 11.3429 5.53862C11.4585 5.53862 11.5721 5.56904 11.6715 5.62582C11.8743 5.74345 12 5.96045 12 6.19571V8.96806C12 10.6412 10.6412 12.002 8.96806 12.002ZM11.0288 4.17171C11.1242 4.22647 11.2337 4.25486 11.3432 4.25486C11.4527 4.25486 11.5622 4.22444 11.6596 4.16968C11.8543 4.05814 11.9739 3.84925 11.9739 3.62616V0.657093C11.9739 0.310295 11.692 0.0283954 11.3452 0.0283954H8.37614C8.02935 0.0283954 7.74745 0.310295 7.74745 0.657093C7.74745 1.00389 8.02935 1.28579 8.37614 1.28579H9.8261L5.55502 5.55687L5.55096 5.56093C5.43996 5.67997 5.37959 5.83751 5.38262 6.00024C5.38565 6.16298 5.45183 6.31816 5.56719 6.43299C5.68684 6.55265 5.843 6.61755 6.01133 6.61755C6.17155 6.61755 6.32365 6.55671 6.43925 6.44922L6.44128 6.44719L10.7145 2.17398V3.62819C10.7145 3.85128 10.8362 4.06017 11.0288 4.17171Z"
        fill="#00C6A2"
      />
    </svg>