<svg
      width="52"
      height="52"
      viewBox="0 0 52 52"
      fill="none"
      xmlns="http://www.w3.org/2000/svg"
    >
      <g filter="url(#filter0_d_355_2057)">
        <path
          d="M26 8C35.9414 8 44 16.0586 44 26C44 35.9414 35.9414 44 26 44C16.0586 44 8 35.9414 8 26C8 16.0586 16.0586 8 26 8ZM26 11.6C22.1809 11.6 18.5182 13.1171 15.8177 15.8177C13.1171 18.5182 11.6 22.1809 11.6 26C11.6 29.8191 13.1171 33.4818 15.8177 36.1823C18.5182 38.8829 22.1809 40.4 26 40.4C29.8191 40.4 33.4818 38.8829 36.1823 36.1823C38.8829 33.4818 40.4 29.8191 40.4 26C40.4 22.1809 38.8829 18.5182 36.1823 15.8177C33.4818 13.1171 29.8191 11.6 26 11.6ZM25.6652 14.6672C25.9478 14.7428 25.9928 15.2432 25.9982 16.2242L26 21.86C26 22.2848 26 22.4972 26.1314 22.6286C26.2412 22.7366 26.4068 22.7564 26.7056 22.76H28.8134C31.5674 22.76 32.9426 22.76 33.4628 23.6546C33.9848 24.5492 33.3044 25.7462 31.9436 28.1384L27.683 35.639C27.008 36.827 26.6696 37.421 26.3348 37.331C26 37.2446 26 36.5624 26 35.1962V30.14C26 29.7152 26 29.5028 25.8686 29.3714C25.7372 29.24 25.5248 29.24 25.1 29.24H22.319C20.1392 29.2292 18.9998 29.141 18.5372 28.3454C18.0152 27.4508 18.6956 26.2538 20.0564 23.8616L24.317 16.361C24.992 15.173 25.3304 14.579 25.6652 14.669V14.6672Z"
          fill="#00FFF0"
        />
      </g>
      <defs>
        <filter
          id="filter0_d_355_2057"
          x="0"
          y="0"
          width="52"
          height="52"
          filterUnits="userSpaceOnUse"
          color-interpolation-filters="sRGB"
        >
          <feFlood flood-opacity="0" result="BackgroundImageFix" />
          <feColorMatrix
            in="SourceAlpha"
            type="matrix"
            values="0 0 0 0 0 0 0 0 0 0 0 0 0 0 0 0 0 0 127 0"
            result="hardAlpha"
          />
          <feOffset />
          <feGaussianBlur stdDeviation="4" />
          <feComposite in2="hardAlpha" operator="out" />
          <feColorMatrix
            type="matrix"
            values="0 0 0 0 0 0 0 0 0 1 0 0 0 0 0.94 0 0 0 0.6 0"
          />
          <feBlend
            mode="normal"
            in2="BackgroundImageFix"
            result="effect1_dropShadow_355_2057"
          />
          <feBlend
            mode="normal"
            in="SourceGraphic"
            in2="effect1_dropShadow_355_2057"
            result="shape"
          />
        </filter>
      </defs>
    </svg>