<svg
        width="32"
        height="32"
        viewBox="0 0 32 32"
        fill="none"
        xmlns="http://www.w3.org/2000/svg"
>
    <circle
            cx="15.9998"
            cy="15.9998"
            r="15.4998"
            fill="#0F1D27"
            stroke="#00D6AF"
    />
    <mask
            id="path-2-outside-1_1042_1852"
            maskUnits="userSpaceOnUse"
            x="5.15344"
            y="7.61572"
            width="22"
            height="20"
            fill="black"
    >
        <rect fill="white" x="5.15344" y="7.61572" width="22" height="20"/>
        <path
                fill-rule="evenodd"
                clip-rule="evenodd"
                d="M13.8117 8.61572H10.5297V11.0773H8.34095V13.5388H6.15344V16.0004H8.34095V18.4619H10.5297V20.9235H12.7172V23.385L14.9059 23.385V25.8465H17.0939V23.385L19.2813 23.385V20.9235H21.4699V18.4619H23.6572V16.0004H25.8458V13.5388H23.6572V11.0773H21.4692V8.61572H18.1871V11.0773H13.8117V8.61572Z"
        />
    </mask>
    <path
            fill-rule="evenodd"
            clip-rule="evenodd"
            d="M13.8117 8.61572H10.5297V11.0773H8.34095V13.5388H6.15344V16.0004H8.34095V18.4619H10.5297V20.9235H12.7172V23.385L14.9059 23.385V25.8465H17.0939V23.385L19.2813 23.385V20.9235H21.4699V18.4619H23.6572V16.0004H25.8458V13.5388H23.6572V11.0773H21.4692V8.61572H18.1871V11.0773H13.8117V8.61572Z"
            fill="url(#paint0_linear_1042_1852)"
    />
    <path
            d="M10.5297 8.61572V7.61572H9.52966V8.61572H10.5297ZM13.8117 8.61572H14.8117V7.61572H13.8117V8.61572ZM10.5297 11.0773V12.0773H11.5297V11.0773H10.5297ZM8.34095 11.0773V10.0773H7.34095V11.0773H8.34095ZM8.34095 13.5388V14.5388H9.34095V13.5388H8.34095ZM6.15344 13.5388V12.5388H5.15344V13.5388H6.15344ZM6.15344 16.0004H5.15344V17.0004H6.15344V16.0004ZM8.34095 16.0004H9.34095V15.0004H8.34095V16.0004ZM8.34095 18.4619H7.34095V19.4619H8.34095V18.4619ZM10.5297 18.4619H11.5297V17.4619H10.5297V18.4619ZM10.5297 20.9235H9.52966V21.9235H10.5297V20.9235ZM12.7172 20.9235H13.7172V19.9235H12.7172V20.9235ZM12.7172 23.385H11.7172V24.385H12.7172L12.7172 23.385ZM14.9059 23.385H15.9059V22.385H14.9059V23.385ZM14.9059 25.8465H13.9059V26.8465H14.9059V25.8465ZM17.0939 25.8465V26.8465H18.0939V25.8465H17.0939ZM17.0939 23.385V22.385H16.0939V23.385H17.0939ZM19.2813 23.385V24.385H20.2813V23.385H19.2813ZM19.2813 20.9235V19.9235H18.2813V20.9235H19.2813ZM21.4699 20.9235V21.9235H22.4699V20.9235H21.4699ZM21.4699 18.4619V17.4619H20.4699V18.4619H21.4699ZM23.6572 18.4619V19.4619H24.6572V18.4619H23.6572ZM23.6572 16.0004V15.0004H22.6572V16.0004H23.6572ZM25.8458 16.0004V17.0004H26.8458V16.0004H25.8458ZM25.8458 13.5388H26.8458V12.5388H25.8458V13.5388ZM23.6572 13.5388H22.6572V14.5388H23.6572V13.5388ZM23.6572 11.0773H24.6572V10.0773H23.6572V11.0773ZM21.4692 11.0773H20.4692V12.0773H21.4692V11.0773ZM21.4692 8.61572H22.4692V7.61572H21.4692V8.61572ZM18.1871 8.61572V7.61572H17.1871V8.61572H18.1871ZM18.1871 11.0773V12.0773H19.1871V11.0773H18.1871ZM13.8117 11.0773H12.8117V12.0773H13.8117V11.0773ZM10.5297 9.61572H13.8117V7.61572H10.5297V9.61572ZM11.5297 11.0773V8.61572H9.52966V11.0773H11.5297ZM8.34095 12.0773H10.5297V10.0773H8.34095V12.0773ZM9.34095 13.5388V11.0773H7.34095V13.5388H9.34095ZM6.15344 14.5388H8.34095V12.5388H6.15344V14.5388ZM7.15344 16.0004V13.5388H5.15344V16.0004H7.15344ZM8.34095 15.0004H6.15344V17.0004H8.34095V15.0004ZM9.34095 18.4619V16.0004H7.34095V18.4619H9.34095ZM10.5297 17.4619H8.34095V19.4619H10.5297V17.4619ZM11.5297 20.9235V18.4619H9.52966V20.9235H11.5297ZM12.7172 19.9235H10.5297V21.9235H12.7172V19.9235ZM13.7172 23.385V20.9235H11.7172V23.385H13.7172ZM14.9059 22.385L12.7172 22.385L12.7172 24.385L14.9059 24.385V22.385ZM15.9059 25.8465V23.385H13.9059V25.8465H15.9059ZM17.0939 24.8465H14.9059V26.8465H17.0939V24.8465ZM16.0939 23.385V25.8465H18.0939V23.385H16.0939ZM19.2813 22.385L17.0939 22.385V24.385L19.2813 24.385V22.385ZM18.2813 20.9235V23.385H20.2813V20.9235H18.2813ZM21.4699 19.9235H19.2813V21.9235H21.4699V19.9235ZM20.4699 18.4619V20.9235H22.4699V18.4619H20.4699ZM23.6572 17.4619H21.4699V19.4619H23.6572V17.4619ZM22.6572 16.0004V18.4619H24.6572V16.0004H22.6572ZM25.8458 15.0004H23.6572V17.0004H25.8458V15.0004ZM24.8458 13.5388V16.0004H26.8458V13.5388H24.8458ZM23.6572 14.5388H25.8458V12.5388H23.6572V14.5388ZM22.6572 11.0773V13.5388H24.6572V11.0773H22.6572ZM21.4692 12.0773H23.6572V10.0773H21.4692V12.0773ZM20.4692 8.61572V11.0773H22.4692V8.61572H20.4692ZM18.1871 9.61572H21.4692V7.61572H18.1871V9.61572ZM19.1871 11.0773V8.61572H17.1871V11.0773H19.1871ZM13.8117 12.0773H18.1871V10.0773H13.8117V12.0773ZM12.8117 8.61572V11.0773H14.8117V8.61572H12.8117Z"
            fill="#00FFD1"
            mask="url(#path-2-outside-1_1042_1852)"
    />
    <defs>
        <linearGradient
                id="paint0_linear_1042_1852"
                x1="15.9996"
                y1="8.61572"
                x2="15.9996"
                y2="25.8465"
                gradientUnits="userSpaceOnUse"
        >
            <stop stop-color="#A076FF"/>
            <stop offset="1" stop-color="#A076FF" stop-opacity="0"/>
        </linearGradient>
    </defs>
</svg>
