<svg
      
      width="24"
      height="26"
      viewBox="0 0 24 26"
      fill="none"
      xmlns="http://www.w3.org/2000/svg"
    >
      <path
        d="M8.96558 25.9999H15.2414V20.6206H8.96558V25.9999Z"
        fill="#007B65"
      />
      <path
        d="M18.1648 5.01338L18.1312 5.0127H9.22894V6.29751C9.72097 6.60586 10.1266 7.03394 10.4078 7.54165C10.6891 8.04935 10.8367 8.62007 10.8369 9.20033C10.8372 9.80469 10.6779 10.3984 10.3749 10.9215C10.0718 11.4446 9.63596 11.8785 9.11126 12.1792C8.58656 12.48 7.99167 12.6371 7.38673 12.6345C6.78179 12.6319 6.18826 12.4698 5.66615 12.1645C5.14405 11.8593 4.71188 11.4217 4.41336 10.8961C4.11484 10.3704 3.96055 9.77533 3.96609 9.171C3.97163 8.56667 4.1368 7.97452 4.44491 7.45442C4.75301 6.93432 5.19312 6.50472 5.72073 6.20906V5.0127H5.55329C4.08046 5.0127 2.66796 5.5972 1.62652 6.63763C0.585077 7.67805 0 9.08917 0 10.5606L0 19.5419C0 19.9347 0.318429 20.2522 0.710974 20.2522H12.6452V10.5606C12.6452 9.09504 13.2256 7.68906 14.2598 6.6497C15.294 5.61034 16.6979 5.02208 18.1648 5.01338Z"
        fill="#00C6A2"
      />
      <path
        d="M18.1648 5.01338C16.698 5.02207 15.2942 5.61025 14.26 6.64946C13.2259 7.68867 12.6453 9.09447 12.6451 10.5599V20.2522H22.9735C23.366 20.2522 23.6845 19.9347 23.6845 19.5419V10.5606C23.6843 9.09509 23.1038 7.68922 22.0696 6.6499C21.0354 5.61058 19.6317 5.02225 18.1648 5.01338Z"
        fill="#007B65"
      />
      <path
        d="M9.22883 3.50546V0H2.35791V3.50478H5.72063V5.01241H9.22883V3.50546Z"
        fill="#F9D11F"
      />
      <path
        d="M3.96667 9.20033C3.96667 9.65104 4.05554 10.0973 4.22818 10.5137C4.40083 10.9301 4.65389 11.3085 4.9729 11.6272C5.29191 11.9459 5.67063 12.1987 6.08744 12.3712C6.50425 12.5437 6.95098 12.6324 7.40214 12.6324C7.85329 12.6324 8.30002 12.5437 8.71683 12.3712C9.13364 12.1987 9.51236 11.9459 9.83137 11.6272C10.1504 11.3085 10.4034 10.9301 10.5761 10.5137C10.7487 10.0973 10.8376 9.65104 10.8376 9.20033C10.8375 8.62005 10.69 8.04928 10.4087 7.54155C10.1275 7.03382 9.72179 6.60576 9.22967 6.29751V5.0127H5.72078V6.20906C5.18876 6.50702 4.74581 6.94121 4.43751 7.46696C4.12921 7.9927 3.96669 8.59101 3.96667 9.20033Z"
        fill="#007B65"
      />
      <path
        d="M12.5951 18.6846H18.0269C18.5558 18.6844 19.0629 18.4744 19.4369 18.1008C19.8109 17.7272 20.021 17.2206 20.0212 16.6922V11.8547C20.0212 11.3263 19.8111 10.8195 19.4371 10.4458C19.0631 10.0722 18.5558 9.8623 18.0269 9.8623H12.5951V18.6846Z"
        fill="#CCCCCC"
      />
      <path
        d="M19.16 10.1588C19.5212 10.3487 19.7242 10.6062 19.7242 10.8747L12.5518 14.3451V9.8623H17.798C18.3089 9.8623 18.7988 9.96896 19.16 10.1588Z"
        fill="white"
      />
    </svg>