<svg
      
      width="14"
      height="14"
      viewBox="0 0 14 14"
      fill="none"
      xmlns="http://www.w3.org/2000/svg"
    >
      <path d="M8.90894 14H13.9999L8.90894 8.909V14Z" fill="currentColor" />
      <path
        d="M14.0005 -5.62668e-05L11.0308 -5.65264e-05L14.0005 2.96967L14.0005 -5.62668e-05Z"
        fill="#00C6A2"
      />
      <path
        fill-rule="evenodd"
        clip-rule="evenodd"
        d="M9.11969 8.9095C9.04834 8.9095 8.97742 8.90764 8.90698 8.90398V5.71758L12.3728 2.49936C12.8615 3.16626 13.15 3.98901 13.15 4.87916C13.15 7.10505 11.3456 8.9095 9.11969 8.9095ZM11.4676 1.60299L8.90698 3.98074V0.854333C8.97742 0.85067 9.04834 0.848816 9.11969 0.848816C9.99572 0.848816 10.8065 1.12831 11.4676 1.60299Z"
        fill="currentColor"
      />
      <path
        fill-rule="evenodd"
        clip-rule="evenodd"
        d="M8.48399 0.848206H4.66577V4.61536L6.37888 6.32846L8.48399 4.37372V0.848206ZM8.48399 6.11055L6.34616 8.09567L4.66577 6.41528V13.9998H8.48399V6.11055Z"
        fill="currentColor"
      />
      <path
        fill-rule="evenodd"
        clip-rule="evenodd"
        d="M4.24222 0.848206H-0.000244141V6.31171L3.1812 3.13026L4.24222 4.19128V0.848206ZM4.24222 5.9912L3.1812 4.93018L-0.000244141 8.11163V13.9998H4.24222V5.9912Z"
        fill="currentColor"
      />
    </svg>