<svg
      
      width="100"
      height="95"
      viewBox="0 0 100 95"
      fill="none"
      xmlns="http://www.w3.org/2000/svg"
    >
      <path
        d="M26.0366 21.4859L39.8963 2.72428C40.9661 1.27607 43.0617 1.08984 44.3701 2.3267L57.8386 15.0583C59.5862 16.7104 58.777 19.6442 56.4296 20.1668L54.1334 20.6779C52.7613 20.9834 51.7853 22.2006 51.7853 23.6062V46.6783C51.7853 47.9995 50.921 49.1652 49.6567 49.5489L37.0323 53.3811C35.1055 53.966 33.1609 52.5241 33.1609 50.5104V29.0238C33.1609 27.0648 31.3139 25.6314 29.4162 26.1177L29.1943 26.1746C26.4602 26.8752 24.3596 23.7561 26.0366 21.4859Z"
        fill="#A076FF"
      />
      <path
        d="M72.066 44.9168L82.1281 31.1719C83.198 29.7106 85.309 29.5232 86.6195 30.7733L95.4221 39.17C97.1444 40.8129 96.3407 43.7123 94.0183 44.234C92.658 44.5396 91.6913 45.7474 91.6913 47.1416V63.8918C91.6913 65.2102 90.8306 66.3741 89.57 66.7602L81.343 69.2803C79.4146 69.871 77.4644 68.4287 77.4644 66.4118V50.8285C77.4644 49.2988 76.0203 48.1806 74.5393 48.5636C72.4109 49.114 70.7674 46.6907 72.066 44.9168Z"
        fill="#A076FF"
      />
      <path
        d="M3.87066 61.9659L13.9328 48.221C15.0027 46.7596 17.1137 46.5722 18.4242 47.8223L27.2268 56.219C28.9491 57.8619 28.1454 60.7614 25.823 61.2831C24.4627 61.5886 23.496 62.7965 23.496 64.1907V80.9409C23.496 82.2593 22.6353 83.4232 21.3747 83.8093L13.1477 86.3293C11.2193 86.92 9.26908 85.4777 9.26908 83.4609V67.8776C9.26908 66.3479 7.82502 65.2297 6.34398 65.6127C4.21556 66.1631 2.57204 63.7398 3.87066 61.9659Z"
        fill="#A076FF"
      />
      <path
        d="M29.5366 82.2021V42.0605C34.969 43.9929 47.5402 50.5264 54.3653 61.2016C61.1905 71.8769 61.2926 86.2856 60.4905 92.1555L29.5366 82.2021Z"
        fill="#3AFFF2"
        stroke="black"
      />
      <path
        d="M60.4905 92.1555L89.3814 83.0897C91.0616 82.5625 92.1954 81.0063 92.101 79.2479C91.733 72.3934 90.1345 55.3641 83.241 47.0919C75.5662 37.8821 64.7781 33.8052 61.4304 32.7946C60.8172 32.6095 60.1709 32.6429 59.5587 32.8311L29.5366 42.0606C34.969 43.9929 47.5402 50.5264 54.3653 61.2016C61.1905 71.8769 61.2926 86.2856 60.4905 92.1555Z"
        fill="white"
        stroke="black"
      />
      <path
        d="M76.2454 80.0314L77.1385 79.7329C77.9092 79.4753 78.4449 78.7846 78.4573 77.9721C78.5231 73.6572 78.1163 59.854 70.7721 51.0293C62.8089 41.461 55.3597 39.6803 53.3012 39.2979C52.9967 39.2414 52.6831 39.2615 52.3856 39.3478L52.0022 39.459C50.1378 40 50.0966 42.502 51.9058 43.2058C56.9948 45.1854 63.5508 48.6913 68.2563 56.0607C71.3788 60.9511 73.1596 71.6266 73.3127 77.8446C73.3492 79.3261 74.8398 80.5012 76.2454 80.0314Z"
        fill="black"
      />
      <path
        d="M66.9543 27.8781L72.3902 28.4783L65.9895 47.5792C65.9895 47.5792 65.7007 49.1979 63.5264 48.9578C61.3521 48.7178 60.5537 46.979 60.5537 46.979L66.9543 27.8781Z"
        fill="#3AFFF2"
        stroke="black"
      />
      <path
        d="M66.9539 27.8778L72.3897 28.478L69.3319 37.5075C69.3319 37.5075 68.7636 36.7796 66.4904 38.3599C64.2173 39.9401 61.5416 44.0067 61.5416 44.0067L66.9539 27.8778Z"
        fill="black"
      />
      <path
        d="M51.999 27.8463L81.1975 20.6052C81.1975 20.6052 85.682 19.4021 86.9945 23.8866C88.3071 28.3711 84.6976 29.9024 84.6976 29.9024L54.2963 38.5921L51.999 27.8463Z"
        fill="white"
        stroke="black"
      />
      <path
        d="M54.2964 38.592L84.6739 29.9513C84.6739 29.9513 86.6427 29.0389 87.0802 27.0701C87.5177 25.1013 86.9708 23.9355 86.9708 23.9355L57.114 31.8245L54.2964 38.592Z"
        fill="#3AFFF2"
        stroke="black"
      />
      <ellipse
        cx="52.8742"
        cy="33.3163"
        rx="5.11465"
        ry="5.80101"
        transform="rotate(-13.5224 52.8742 33.3163)"
        fill="black"
      />
      <path
        d="M29.6462 82.0925L60.6001 92.1553L51.4124 94.7803L20.4585 84.7176L29.6462 82.0925Z"
        fill="black"
      />
      <g filter="url(#filter0_d_1325_5142)">
        <path
          d="M43.3874 61.3817C43.6149 61.4426 43.6512 61.8454 43.6555 62.6352L43.657 67.1725C43.657 67.5145 43.657 67.6855 43.7628 67.7913C43.8512 67.8782 43.9845 67.8942 44.225 67.8971H45.922C48.1392 67.8971 49.2463 67.8971 49.6652 68.6173C50.0854 69.3375 49.5376 70.3012 48.4421 72.2271L45.0119 78.2658C44.4685 79.2222 44.1961 79.7004 43.9265 79.628C43.657 79.5584 43.657 79.0092 43.657 77.9093V73.8386C43.657 73.4966 43.657 73.3256 43.5512 73.2198C43.4454 73.114 43.2744 73.114 42.9324 73.114H40.6935C38.9385 73.1053 38.0212 73.0343 37.6488 72.3938C37.2285 71.6736 37.7763 70.7099 38.8719 68.784L42.302 62.7453C42.8454 61.7889 43.1179 61.3107 43.3874 61.3831V61.3817Z"
          fill="black"
        />
      </g>
      <defs>
        <filter
          id="filter0_d_1325_5142"
          x="29.5073"
          y="53.376"
          width="28.2993"
          height="34.259"
          filterUnits="userSpaceOnUse"
          color-interpolation-filters="sRGB"
        >
          <feFlood flood-opacity="0" result="BackgroundImageFix" />
          <feColorMatrix
            in="SourceAlpha"
            type="matrix"
            values="0 0 0 0 0 0 0 0 0 0 0 0 0 0 0 0 0 0 127 0"
            result="hardAlpha"
          />
          <feOffset />
          <feGaussianBlur stdDeviation="4" />
          <feComposite in2="hardAlpha" operator="out" />
          <feColorMatrix
            type="matrix"
            values="0 0 0 0 0 0 0 0 0 1 0 0 0 0 0.94 0 0 0 0.6 0"
          />
          <feBlend
            mode="normal"
            in2="BackgroundImageFix"
            result="effect1_dropShadow_1325_5142"
          />
          <feBlend
            mode="normal"
            in="SourceGraphic"
            in2="effect1_dropShadow_1325_5142"
            result="shape"
          />
        </filter>
      </defs>
    </svg>