<svg
      
      width="125"
      height="119"
      viewBox="0 0 125 119"
      fill="none"
      xmlns="http://www.w3.org/2000/svg"
    >
      <path
        d="M31.2529 28.71L50.3408 2.7424C51.4107 1.28697 53.5147 1.1001 54.8243 2.34421L73.3087 19.9043C75.0488 21.5574 74.2396 24.483 71.8974 25.007L67.0407 26.0935C65.6701 26.4001 64.6956 27.6166 64.6956 29.0211V59.1778C64.6956 60.4975 63.8333 61.6622 62.571 62.0472L45.3032 67.315C43.3755 67.9031 41.4279 66.461 41.4279 64.4455V35.4573C41.4279 33.4968 39.5782 32.0631 37.6797 32.5521L34.4183 33.392C31.6868 34.0954 29.5823 30.9827 31.2529 28.71Z"
        fill="#A076FF"
      />
      <path
        d="M90.0141 56.4202L103.104 38.451C104.174 36.9823 106.293 36.7943 107.605 38.0517L120.217 50.142C121.943 51.7968 121.134 54.7074 118.801 55.234L116.891 55.6653C115.523 55.9741 114.551 57.1893 114.551 58.5917V80.7883C114.551 82.1052 113.693 83.2681 112.434 83.6555L100.66 87.28C98.7307 87.8739 96.7773 86.4314 96.7773 84.4128V63.8072C96.7773 61.8923 94.9685 60.4935 93.1152 60.9751C90.4555 61.6663 88.3961 58.6414 90.0141 56.4202Z"
        fill="#A076FF"
      />
      <path
        d="M4.81688 77.826L17.9065 59.8567C18.9763 58.3881 21.0957 58.2001 22.4074 59.4575L35.0194 71.5478C36.7457 73.2026 35.9366 76.1132 33.604 76.6398L31.6934 77.0711C30.3255 77.3799 29.354 78.5951 29.354 79.9974V102.194C29.354 103.511 28.4952 104.674 27.2367 105.061L15.4627 108.686C13.5334 109.28 11.58 107.837 11.58 105.819V85.2129C11.58 83.2981 9.77125 81.8993 7.91796 82.3809C5.25824 83.0721 3.19884 80.0472 4.81688 77.826Z"
        fill="#A076FF"
      />
      <path
        d="M36.9004 103.207V52.8081C43.6872 55.2342 59.3926 63.4372 67.9194 76.8404C76.4462 90.2435 76.5737 108.334 75.5716 115.704L36.9004 103.207Z"
        fill="#3AFFF2"
        stroke="black"
      />
      <path
        d="M75.5716 115.704L112.376 104.098C114.054 103.569 115.185 102.007 115.101 100.25C114.719 92.2086 112.87 69.8286 103.994 59.1254C94.2181 47.3355 80.3983 42.2452 76.5108 41.1044C75.8932 40.9232 75.2505 40.96 74.6356 41.15L36.9004 52.8084C43.6872 55.2345 59.3926 63.4375 67.9194 76.8406C76.4462 90.2438 76.5737 108.334 75.5716 115.704Z"
        fill="white"
        stroke="black"
      />
      <path
        d="M94.4956 100.738L96.6907 100C97.4602 99.742 97.9946 99.055 98.012 98.2435C98.1189 93.2601 97.7981 75.3977 88.417 64.0696C78.3087 51.8634 68.8633 49.7513 66.4716 49.3187C66.1654 49.2633 65.8559 49.2836 65.5572 49.3708L63.4525 49.9845C61.5916 50.5271 61.5467 53.0259 63.368 53.6891C69.8883 56.0633 78.9281 60.3988 85.2739 70.3867C89.3152 76.7473 91.5574 90.9026 91.6038 98.5562C91.6128 100.039 93.0901 101.21 94.4956 100.738Z"
        fill="black"
      />
      <path
        d="M83.6472 35.0018L90.4383 35.7554L82.4418 59.7372C82.4418 59.7372 82.081 61.7696 79.3646 61.4682C76.6481 61.1668 75.6507 58.9837 75.6507 58.9837L83.6472 35.0018Z"
        fill="#3AFFF2"
        stroke="black"
      />
      <path
        d="M83.6467 35.0013L90.4378 35.7548L86.6176 47.0916C86.6176 47.0916 85.9076 46.1778 83.0677 48.1619C80.2278 50.1459 76.8851 55.2516 76.8851 55.2516L83.6467 35.0013Z"
        fill="black"
      />
      <path
        d="M64.9629 34.9622L101.441 25.8707C101.441 25.8707 107.044 24.3602 108.683 29.9906C110.323 35.621 105.814 37.5436 105.814 37.5436L67.8329 48.4538L64.9629 34.9622Z"
        fill="white"
        stroke="black"
      />
      <path
        d="M67.8335 48.4534L105.785 37.6048C105.785 37.6048 108.244 36.4591 108.791 33.9872C109.337 31.5154 108.654 30.0518 108.654 30.0518L71.3536 39.9566L67.8335 48.4534Z"
        fill="#3AFFF2"
        stroke="black"
      />
      <ellipse
        rx="6.39157"
        ry="7.2814"
        transform="matrix(0.972013 -0.234925 0.232731 0.972541 66.0567 41.8299)"
        fill="black"
      />
      <path
        d="M37.037 103.07L75.7082 115.704L64.2298 119L25.5586 106.366L37.037 103.07Z"
        fill="black"
      />
      <g filter="url(#filter0_d_1459_589)">
        <path
          d="M54.2045 74.0851C54.4888 74.1748 54.534 74.7689 54.5395 75.9334L54.5413 82.6237C54.5413 83.128 54.5413 83.3801 54.6734 83.5361C54.7839 83.6643 54.9504 83.6878 55.251 83.6921H57.371C60.141 83.6921 61.5242 83.6921 62.0474 84.7541C62.5724 85.8161 61.8881 87.237 60.5194 90.0768L56.234 98.9808C55.5551 100.391 55.2148 101.096 54.878 100.989C54.5413 100.887 54.5413 100.077 54.5413 98.4552V92.4529C54.5413 91.9486 54.5413 91.6965 54.4091 91.5405C54.2769 91.3845 54.0633 91.3845 53.636 91.3845H50.8389C48.6464 91.3717 47.5004 91.267 47.0351 90.3225C46.5101 89.2606 47.1945 87.8396 48.5632 84.9998L52.8485 76.0958C53.5274 74.6855 53.8678 73.9804 54.2045 74.0872V74.0851Z"
          fill="black"
        />
      </g>
      <defs>
        <filter
          id="filter0_d_1459_589"
          x="38.8584"
          y="66.0767"
          width="31.3657"
          height="42.9233"
          filterUnits="userSpaceOnUse"
          color-interpolation-filters="sRGB"
        >
          <feFlood flood-opacity="0" result="BackgroundImageFix" />
          <feColorMatrix
            in="SourceAlpha"
            type="matrix"
            values="0 0 0 0 0 0 0 0 0 0 0 0 0 0 0 0 0 0 127 0"
            result="hardAlpha"
          />
          <feOffset />
          <feGaussianBlur stdDeviation="4" />
          <feComposite in2="hardAlpha" operator="out" />
          <feColorMatrix
            type="matrix"
            values="0 0 0 0 0 0 0 0 0 1 0 0 0 0 0.94 0 0 0 0.6 0"
          />
          <feBlend
            mode="normal"
            in2="BackgroundImageFix"
            result="effect1_dropShadow_1459_589"
          />
          <feBlend
            mode="normal"
            in="SourceGraphic"
            in2="effect1_dropShadow_1459_589"
            result="shape"
          />
        </filter>
      </defs>
    </svg>