<svg
      
      width="175"
      height="167"
      viewBox="0 0 175 167"
      fill="none"
      xmlns="http://www.w3.org/2000/svg"
    >
      <path
        d="M42.009 42.9594L71.7316 2.72428C72.8014 1.27608 74.897 1.08985 76.2055 2.3267L104.894 29.4455C106.641 31.0976 105.832 34.0314 103.485 34.554L93.4715 36.783C92.0994 37.0884 91.1234 38.3056 91.1234 39.7113V83.8273C91.1234 85.1485 90.259 86.3142 88.9948 86.698L62.2224 94.8248C60.2955 95.4097 58.351 93.9678 58.351 91.9542V48.1351C58.351 46.1761 56.504 44.7427 54.6063 45.229L45.1667 47.648C42.4326 48.3486 40.332 45.2295 42.009 42.9594Z"
        fill="#A076FF"
      />
      <path
        d="M124.963 81.5615L146.05 52.7572C147.12 51.2958 149.231 51.1084 150.541 52.3585L170.943 71.8196C172.677 73.4735 171.868 76.3923 169.53 76.9175L163.687 78.23C162.317 78.5376 161.344 79.7536 161.344 81.1571V114.113C161.344 115.431 160.484 116.595 159.223 116.981L140.188 122.812C138.26 123.402 136.31 121.96 136.31 119.943V87.9985C136.31 86.0368 134.458 84.603 132.559 85.0941L128.135 86.238C125.405 86.9438 123.298 83.8363 124.963 81.5615Z"
        fill="#A076FF"
      />
      <path
        d="M4.9636 111.562L26.0504 82.7574C27.1202 81.296 29.2312 81.1086 30.5417 82.3587L50.9437 101.82C52.6775 103.474 51.8684 106.393 49.5305 106.918L43.6873 108.23C42.3179 108.538 41.3448 109.754 41.3448 111.157V144.113C41.3448 145.431 40.4841 146.595 39.2235 146.981L20.189 152.812C18.2606 153.403 16.3103 151.96 16.3103 149.943V117.999C16.3103 116.037 14.4585 114.603 12.5593 115.094L8.13533 116.238C5.4059 116.944 3.29829 113.837 4.9636 111.562Z"
        fill="#A076FF"
      />
      <path
        d="M51.9739 144.647V74.012C61.533 77.4122 83.6539 88.9089 95.6638 107.694C107.674 126.478 107.853 151.833 106.442 162.162L51.9739 144.647Z"
        fill="#3AFFF2"
        stroke="black"
      />
      <path
        d="M106.442 162.161L159.429 145.535C161.109 145.007 162.243 143.447 162.171 141.687C161.763 131.615 159.446 98.4303 146.475 82.8651C132.356 65.9228 112.25 58.8519 107.376 57.4975C106.759 57.326 106.122 57.3653 105.51 57.5535L51.9739 74.0117C61.533 77.412 83.6539 88.9086 95.6638 107.693C107.674 126.478 107.853 151.832 106.442 162.161Z"
        fill="white"
        stroke="black"
      />
      <path
        d="M131.847 141.602L136.704 139.979C137.475 139.721 138.011 139.027 138.035 138.214C138.214 132.062 138.103 106.099 124.534 89.7939C110.021 72.3559 96.4783 69.6174 93.4395 69.0876C93.1344 69.0344 92.8208 69.0525 92.5234 69.1388L86.9856 70.7457C85.1212 71.2866 85.07 73.8016 86.9084 74.425C96.1588 77.562 110.38 83.4136 120.107 98.6474C126.037 107.935 129.216 129.079 129.014 139.424C128.985 140.905 130.442 142.072 131.847 141.602Z"
        fill="black"
      />
      <path
        d="M117.816 49.0555L127.381 50.1116L116.118 83.7225C116.118 83.7225 115.61 86.571 111.784 86.1485C107.958 85.726 106.553 82.6664 106.553 82.6664L117.816 49.0555Z"
        fill="#3AFFF2"
        stroke="black"
      />
      <path
        d="M117.816 49.0552L127.381 50.1113L122 66C122 66 121 64.7193 117 67.5C113 70.2807 108.292 77.4363 108.292 77.4363L117.816 49.0552Z"
        fill="black"
      />
      <path
        d="M91.5002 49L142.879 36.2581C142.879 36.2581 150.771 34.1411 153.08 42.0322C155.39 49.9234 149.038 52.6179 149.038 52.6179L95.5426 67.9087L91.5002 49Z"
        fill="white"
        stroke="black"
      />
      <path
        d="M95.5422 67.9084L148.996 52.7038C148.996 52.7038 152.46 51.0982 153.23 47.6338C154 44.1694 153.038 42.1182 153.038 42.1182L100.5 56L95.5422 67.9084Z"
        fill="#3AFFF2"
        stroke="black"
      />
      <ellipse
        cx="93.0402"
        cy="58.6253"
        rx="9"
        ry="10.2078"
        transform="rotate(-13.5224 93.0402 58.6253)"
        fill="black"
      />
      <path
        d="M52.1667 144.454L106.635 162.161L90.4675 166.78L35.9995 149.074L52.1667 144.454Z"
        fill="black"
      />
      <g filter="url(#filter0_d_1325_5213)">
        <path
          d="M76.3464 108.01C76.7468 108.117 76.8105 108.826 76.8182 110.216L76.8207 118.2C76.8207 118.802 76.8207 119.103 77.0069 119.289C77.1624 119.442 77.397 119.47 77.8203 119.475H80.8064C84.7079 119.475 86.6561 119.475 87.393 120.742C88.1325 122.01 87.1686 123.706 85.2408 127.095L79.205 137.72C78.2487 139.403 77.7693 140.245 77.295 140.117C76.8207 139.995 76.8207 139.029 76.8207 137.093V129.93C76.8207 129.328 76.8207 129.027 76.6346 128.841C76.4484 128.655 76.1475 128.655 75.5457 128.655H71.606C68.5179 128.64 66.9038 128.515 66.2484 127.388C65.5089 126.12 66.4728 124.425 68.4006 121.036L74.4365 110.41C75.3927 108.727 75.8721 107.885 76.3464 108.013V108.01Z"
          fill="black"
        />
      </g>
      <defs>
        <filter
          id="filter0_d_1325_5213"
          x="57.9995"
          y="100"
          width="37.6426"
          height="48.1296"
          filterUnits="userSpaceOnUse"
          color-interpolation-filters="sRGB"
        >
          <feFlood flood-opacity="0" result="BackgroundImageFix" />
          <feColorMatrix
            in="SourceAlpha"
            type="matrix"
            values="0 0 0 0 0 0 0 0 0 0 0 0 0 0 0 0 0 0 127 0"
            result="hardAlpha"
          />
          <feOffset />
          <feGaussianBlur stdDeviation="4" />
          <feComposite in2="hardAlpha" operator="out" />
          <feColorMatrix
            type="matrix"
            values="0 0 0 0 0 0 0 0 0 1 0 0 0 0 0.94 0 0 0 0.6 0"
          />
          <feBlend
            mode="normal"
            in2="BackgroundImageFix"
            result="effect1_dropShadow_1325_5213"
          />
          <feBlend
            mode="normal"
            in="SourceGraphic"
            in2="effect1_dropShadow_1325_5213"
            result="shape"
          />
        </filter>
      </defs>
    </svg>