<svg
      width="14"
      height="14"
      viewBox="0 0 14 14"
      fill="none"
      xmlns="http://www.w3.org/2000/svg"
    >
      <path
        fill-rule="evenodd"
        clip-rule="evenodd"
        d="M1.06747 7.45942C1.68861 7.00357 2.45695 6.65 3.84991 6.65C5.1221 6.65 6.11117 7.3106 7.06215 7.94575C7.94258 8.53378 8.79036 9.1 9.79991 9.1C11.1296 9.1 12.15 8.68761 12.8052 8.31046C12.9 7.88883 12.95 7.45025 12.95 7C12.95 3.71391 10.2861 1.05 7 1.05C3.71391 1.05 1.05 3.71391 1.05 7C1.05 7.15459 1.0559 7.3078 1.06747 7.45942ZM14 7C14 10.866 10.866 14 7 14C3.13401 14 0 10.866 0 7C0 3.13401 3.13401 0 7 0C10.866 0 14 3.13401 14 7Z"
        fill="currentColor"
      />
    </svg>