<svg
      width="18"
      height="13"
      viewBox="0 0 18 13"
      fill="none"
      xmlns="http://www.w3.org/2000/svg"
    >
      <path
        fill-rule="evenodd"
        clip-rule="evenodd"
        d="M1.75 6.50003C1.75 4.07393 3.71675 2.10718 6.14286 2.10718C8.56896 2.10718 10.5357 4.07393 10.5357 6.50003C10.5357 8.92614 8.56896 10.8929 6.14286 10.8929C3.71675 10.8929 1.75 8.92614 1.75 6.50003ZM6.14286 0.607178C2.88832 0.607178 0.25 3.2455 0.25 6.50003C0.25 9.75457 2.88832 12.3929 6.14286 12.3929C7.17961 12.3929 8.15383 12.1252 9.00015 11.6551C9.84682 12.1252 10.8215 12.3929 11.8571 12.3929C15.1117 12.3929 17.75 9.75457 17.75 6.50003C17.75 3.2455 15.1117 0.607178 11.8571 0.607178C10.8215 0.607178 9.84682 0.874905 9.00015 1.345C8.15383 0.874909 7.17961 0.607178 6.14286 0.607178ZM10.3489 2.37271C11.3923 3.43584 12.0357 4.89279 12.0357 6.50003C12.0357 8.10728 11.3923 9.56423 10.3489 10.6274C10.8189 10.7992 11.3267 10.8929 11.8571 10.8929C14.2833 10.8929 16.25 8.92614 16.25 6.50003C16.25 4.07393 14.2833 2.10718 11.8571 2.10718C11.3267 2.10718 10.8189 2.20092 10.3489 2.37271Z"
        fill="currentColor"
      />
    </svg>