<svg
      width="16"
      height="14"
      viewBox="0 0 16 14"
      fill="none"
      xmlns="http://www.w3.org/2000/svg"
    >
      <path
        fill-rule="evenodd"
        clip-rule="evenodd"
        d="M6.97883 1.6017C8.09431 1.6017 9.12601 1.92136 9.9811 2.46547C10.3543 2.70292 10.8492 2.5929 11.0867 2.21975C11.3241 1.84659 11.2141 1.3516 10.841 1.11415C9.7327 0.408934 8.40338 0 6.97883 0C3.16323 0 0 2.9502 0 6.67374C0 10.3973 3.16323 13.3475 6.97883 13.3475C8.40338 13.3475 9.7327 12.9386 10.841 12.2333C11.2141 11.9959 11.3241 11.5009 11.0867 11.1277C10.8492 10.7546 10.3543 10.6446 9.9811 10.882C9.12601 11.4261 8.09431 11.7458 6.97883 11.7458C3.97042 11.7458 1.6017 9.43722 1.6017 6.67374C1.6017 3.91026 3.97042 1.6017 6.97883 1.6017ZM8.27541 5.33899C8.27541 4.8967 8.63396 4.53814 9.07626 4.53814H14.9492C15.3915 4.53814 15.75 4.8967 15.75 5.33899C15.75 5.78129 15.3915 6.13984 14.9492 6.13984H9.07626C8.63396 6.13984 8.27541 5.78129 8.27541 5.33899ZM9.07626 7.74154C8.63396 7.74154 8.27541 8.10009 8.27541 8.54239C8.27541 8.98469 8.63396 9.34324 9.07626 9.34324H12.8136C13.2559 9.34324 13.6144 8.98469 13.6144 8.54239C13.6144 8.10009 13.2559 7.74154 12.8136 7.74154H9.07626Z"
        fill="currentColor"
      />
    </svg>