<svg
      width="18"
      height="13"
      viewBox="0 0 18 13"
      fill="none"
      xmlns="http://www.w3.org/2000/svg"
    >
      <path
        fill-rule="evenodd"
        clip-rule="evenodd"
        d="M6.5 1.85714C3.93582 1.85714 1.85714 3.93582 1.85714 6.5C1.85714 7.01284 1.44141 7.42857 0.928571 7.42857C0.415736 7.42857 0 7.01284 0 6.5C0 2.91015 2.91015 0 6.5 0C10.0899 0 13 2.91015 13 6.5C13 7.01284 12.5843 7.42857 12.0714 7.42857C11.5586 7.42857 11.1429 7.01284 11.1429 6.5C11.1429 3.93582 9.06418 1.85714 6.5 1.85714Z"
        fill="currentColor"
      />
      <path
        fill-rule="evenodd"
        clip-rule="evenodd"
        d="M11.1428 11.1429C13.707 11.1429 15.7857 9.06418 15.7857 6.5C15.7857 5.98716 16.2014 5.57143 16.7143 5.57143C17.2271 5.57143 17.6428 5.98716 17.6428 6.5C17.6428 10.0899 14.7327 13 11.1428 13C7.55297 13 4.64282 10.0898 4.64282 6.5C4.64282 5.98716 5.05856 5.57143 5.57139 5.57143C6.08423 5.57143 6.49997 5.98716 6.49997 6.5C6.49997 9.06418 8.57864 11.1429 11.1428 11.1429Z"
        fill="currentColor"
      />
    </svg>