<svg
      width="18"
      height="20"
      viewBox="0 0 18 20"
      fill="none"
      xmlns="http://www.w3.org/2000/svg"
    >
      <path
        d="M3.63467 16.586L1.3181 14.7427C0.910629 14.4225 0.551245 14.2073 0.802899 13.7543L2.04241 11.6103C2.78664 10.2707 4.19862 10.0807 5.73108 10.0807L10.0429 10.0808C11.2603 10.0808 12.2023 8.91303 13.1446 8.14214L15.471 6.20353C16.4439 5.40758 17.4058 6.37432 16.6341 7.36671L12.0021 13.3723C11.6024 13.8863 11.163 14.1588 10.5118 14.1588L6.30099 14.187C5.88732 14.187 5.51181 14.4288 5.34063 14.8054L4.84828 16.1815C4.56531 16.804 4.17239 17.0085 3.63467 16.586Z"
        fill="currentColor"
      />
      <path
        fill-rule="evenodd"
        clip-rule="evenodd"
        d="M4.92677 7.82063L9.6549 7.75445C10.5436 7.75445 11.813 6.75731 12.7169 5.89099C11.9165 3.50621 8.86154 0 8.86154 0C8.86154 0 4.81616 4.64295 4.81616 6.87715C4.81616 7.20201 4.85445 7.51793 4.92677 7.82063Z"
        fill="currentColor"
      />
    </svg>