<svg
      width="18"
      height="15"
      viewBox="0 0 18 15"
      fill="none"
      xmlns="http://www.w3.org/2000/svg"
    >
      <path
        fill-rule="evenodd"
        clip-rule="evenodd"
        d="M2.43968 4.20764C3.77349 1.89741 6.72757 1.10587 9.0378 2.43968C11.348 3.77349 12.1396 6.72757 10.8058 9.0378C9.47195 11.348 6.51787 12.1396 4.20764 10.8058C1.89741 9.47195 1.10587 6.51787 2.43968 4.20764ZM9.7878 1.14064C6.76013 -0.607384 2.88867 0.429972 1.14064 3.45764C-0.607384 6.48531 0.429972 10.3568 3.45764 12.1048C4.85778 12.9132 6.43837 13.1259 7.90596 12.8215C8.32731 13.4064 8.8764 13.9135 9.5401 14.2967C12.0511 15.7465 15.262 14.8861 16.7117 12.3751C18.1615 9.86403 17.3011 6.65318 14.7901 5.20344C14.0946 4.80187 13.3441 4.57736 12.5923 4.51643C12.108 3.14171 11.149 1.92656 9.7878 1.14064ZM12.9299 6.07764C13.0389 7.32637 12.7791 8.61987 12.1048 9.7878C11.4529 10.9169 10.5057 11.7692 9.41708 12.3035C9.66535 12.5704 9.95725 12.8055 10.2901 12.9977C12.0837 14.0332 14.3772 13.4187 15.4127 11.6251C16.4482 9.83147 15.8337 7.53801 14.0401 6.50247C13.6846 6.29725 13.3102 6.15693 12.9299 6.07764Z"
        fill="currentColor"
      />
    </svg>