<svg
      
      width="93"
      height="30"
      viewBox="0 0 93 30"
      fill="none"
      xmlns="http://www.w3.org/2000/svg"
    >
      <path
        d="M45.848 12L42.408 7.424C42.8453 7.34933 43.2507 7.22133 43.624 7.04C43.9973 6.85867 44.3173 6.63467 44.584 6.368C44.8613 6.09067 45.0747 5.77067 45.224 5.408C45.3733 5.03467 45.448 4.61333 45.448 4.144C45.448 3.64267 45.352 3.18933 45.16 2.784C44.968 2.368 44.696 2.016 44.344 1.728C43.992 1.42933 43.5653 1.2 43.064 1.04C42.5733 0.879999 42.0187 0.799999 41.4 0.799999H36.584V12H37.848V7.648H41.048L44.296 12H45.848ZM44.168 4.192C44.168 4.55467 44.0933 4.88 43.944 5.168C43.8053 5.456 43.608 5.70133 43.352 5.904C43.096 6.096 42.792 6.24533 42.44 6.352C42.088 6.45867 41.704 6.512 41.288 6.512H37.848V1.968H41.304C42.2107 1.968 42.9147 2.16533 43.416 2.56C43.9173 2.944 44.168 3.488 44.168 4.192ZM48.5182 8.32H55.0783C55.0889 8.24533 55.0943 8.176 55.0943 8.112C55.0943 8.048 55.0943 7.98933 55.0943 7.936C55.0943 7.328 55.0089 6.75733 54.8383 6.224C54.6676 5.69067 54.4169 5.22667 54.0863 4.832C53.7556 4.43733 53.3503 4.128 52.8703 3.904C52.3903 3.66933 51.8463 3.552 51.2383 3.552C50.6623 3.552 50.1289 3.664 49.6383 3.888C49.1583 4.112 48.7423 4.42133 48.3903 4.816C48.0383 5.2 47.7609 5.65867 47.5583 6.192C47.3663 6.71467 47.2703 7.27467 47.2703 7.872C47.2703 8.512 47.3769 9.09867 47.5903 9.632C47.8143 10.1653 48.1129 10.624 48.4863 11.008C48.8596 11.3813 49.2969 11.6747 49.7983 11.888C50.2996 12.0907 50.8329 12.192 51.3983 12.192C52.1876 12.192 52.8489 12.0533 53.3823 11.776C53.9156 11.488 54.3903 11.1093 54.8063 10.64L54.0383 9.952C53.6969 10.304 53.3183 10.5867 52.9023 10.8C52.4969 11.0133 52.0063 11.12 51.4303 11.12C51.0676 11.12 50.7209 11.0613 50.3903 10.944C50.0596 10.816 49.7609 10.6347 49.4943 10.4C49.2276 10.1547 49.0089 9.86133 48.8383 9.52C48.6676 9.168 48.5609 8.768 48.5182 8.32ZM48.5182 7.408C48.5609 7.00267 48.6569 6.62933 48.8063 6.288C48.9556 5.94667 49.1476 5.65333 49.3823 5.408C49.6169 5.152 49.8889 4.95467 50.1983 4.816C50.5076 4.66667 50.8436 4.592 51.2063 4.592C51.6223 4.592 51.9849 4.672 52.2943 4.832C52.6143 4.98133 52.8809 5.184 53.0943 5.44C53.3183 5.696 53.4889 5.99467 53.6063 6.336C53.7343 6.67733 53.8143 7.03467 53.8463 7.408H48.5182ZM58.931 3.76V3.088C58.931 1.91467 59.411 1.328 60.371 1.328C60.5843 1.328 60.7817 1.34933 60.963 1.392C61.1443 1.424 61.347 1.472 61.571 1.536V0.464C61.3683 0.389333 61.1603 0.335999 60.947 0.304C60.7443 0.272 60.499 0.256 60.211 0.256C59.411 0.256 58.7923 0.490666 58.355 0.959999C57.9283 1.42933 57.715 2.11733 57.715 3.024V3.744H56.579V4.816H57.715V12H58.947V4.816H61.555V3.76H58.931ZM63.7353 12V10.32H62.2633V12H63.7353Z"
        fill="white"
      />
      <path
        d="M38.056 18.76V18.088C38.056 16.9147 38.536 16.328 39.496 16.328C39.7093 16.328 39.9067 16.3493 40.088 16.392C40.2693 16.424 40.472 16.472 40.696 16.536V15.464C40.4933 15.3893 40.2853 15.336 40.072 15.304C39.8693 15.272 39.624 15.256 39.336 15.256C38.536 15.256 37.9173 15.4907 37.48 15.96C37.0533 16.4293 36.84 17.1173 36.84 18.024V18.744H35.704V19.816H36.84V27H38.072V19.816H40.68V18.76H38.056ZM43.691 16.92V15.56H42.283V16.92H43.691ZM43.595 27V18.728H42.363V27H43.595ZM47.6861 22.264C47.6861 21.88 47.7448 21.528 47.8621 21.208C47.9901 20.888 48.1661 20.616 48.3901 20.392C48.6141 20.1573 48.8755 19.9813 49.1741 19.864C49.4835 19.736 49.8141 19.672 50.1661 19.672C50.9021 19.672 51.4675 19.896 51.8621 20.344C52.2568 20.792 52.4541 21.4 52.4541 22.168V27H53.6861V21.864C53.6861 21.3733 53.6115 20.9253 53.4621 20.52C53.3235 20.1147 53.1155 19.768 52.8381 19.48C52.5715 19.1813 52.2408 18.952 51.8461 18.792C51.4621 18.632 51.0195 18.552 50.5181 18.552C49.8035 18.552 49.2221 18.712 48.7741 19.032C48.3261 19.3413 47.9635 19.72 47.6861 20.168V18.728H46.4541V27H47.6861V22.264ZM59.3055 19.704C60.0842 19.704 60.6868 19.896 61.1135 20.28C61.5508 20.6533 61.7695 21.2133 61.7695 21.96V22.248C61.3962 22.1413 61.0122 22.056 60.6175 21.992C60.2228 21.928 59.7588 21.896 59.2255 21.896C58.7028 21.896 58.2228 21.9547 57.7855 22.072C57.3588 22.1893 56.9855 22.36 56.6655 22.584C56.3562 22.808 56.1162 23.0907 55.9455 23.432C55.7748 23.7627 55.6895 24.1467 55.6895 24.584C55.6895 25.0213 55.7748 25.4 55.9455 25.72C56.1268 26.04 56.3615 26.312 56.6495 26.536C56.9482 26.7493 57.2788 26.9093 57.6415 27.016C58.0148 27.1227 58.3935 27.176 58.7775 27.176C59.5135 27.176 60.1215 27.032 60.6015 26.744C61.0922 26.456 61.4815 26.1253 61.7695 25.752V27H62.9535V21.944C62.9535 20.8453 62.6495 20.0187 62.0415 19.464C61.4335 18.8987 60.5642 18.616 59.4335 18.616C58.8255 18.616 58.2868 18.68 57.8175 18.808C57.3482 18.9253 56.8842 19.0907 56.4255 19.304L56.7935 20.312C57.1775 20.1307 57.5668 19.9867 57.9615 19.88C58.3668 19.7627 58.8148 19.704 59.3055 19.704ZM59.3535 22.808C59.8655 22.808 60.3188 22.8453 60.7135 22.92C61.1188 22.9947 61.4762 23.0747 61.7855 23.16V23.96C61.7855 24.2907 61.7108 24.5947 61.5615 24.872C61.4228 25.1387 61.2255 25.3733 60.9695 25.576C60.7242 25.768 60.4308 25.9227 60.0895 26.04C59.7588 26.1467 59.4015 26.2 59.0175 26.2C58.7402 26.2 58.4735 26.1627 58.2175 26.088C57.9722 26.0133 57.7535 25.9067 57.5615 25.768C57.3695 25.6187 57.2148 25.4427 57.0975 25.24C56.9908 25.0373 56.9375 24.8027 56.9375 24.536C56.9375 24.0027 57.1455 23.5813 57.5615 23.272C57.9775 22.9627 58.5748 22.808 59.3535 22.808ZM66.8111 22.264C66.8111 21.88 66.8698 21.528 66.9871 21.208C67.1151 20.888 67.2911 20.616 67.5151 20.392C67.7391 20.1573 68.0005 19.9813 68.2991 19.864C68.6085 19.736 68.9391 19.672 69.2911 19.672C70.0271 19.672 70.5925 19.896 70.9871 20.344C71.3818 20.792 71.5791 21.4 71.5791 22.168V27H72.8111V21.864C72.8111 21.3733 72.7365 20.9253 72.5871 20.52C72.4485 20.1147 72.2405 19.768 71.9631 19.48C71.6965 19.1813 71.3658 18.952 70.9711 18.792C70.5871 18.632 70.1445 18.552 69.6431 18.552C68.9285 18.552 68.3471 18.712 67.8991 19.032C67.4511 19.3413 67.0885 19.72 66.8111 20.168V18.728H65.5791V27H66.8111V22.264ZM82.5425 25.592L81.7585 24.856C81.4278 25.208 81.0545 25.5013 80.6385 25.736C80.2332 25.9707 79.7638 26.088 79.2305 26.088C78.7932 26.088 78.3878 26.008 78.0145 25.848C77.6518 25.6773 77.3318 25.448 77.0545 25.16C76.7878 24.8613 76.5745 24.5147 76.4145 24.12C76.2652 23.7253 76.1905 23.304 76.1905 22.856C76.1905 22.408 76.2652 21.992 76.4145 21.608C76.5638 21.2133 76.7718 20.872 77.0385 20.584C77.3052 20.2853 77.6198 20.056 77.9825 19.896C78.3452 19.7253 78.7345 19.64 79.1505 19.64C79.7158 19.64 80.1905 19.7627 80.5745 20.008C80.9692 20.2533 81.3318 20.5467 81.6625 20.888L82.4785 20.024C82.2865 19.8213 82.0785 19.6293 81.8545 19.448C81.6305 19.2667 81.3852 19.112 81.1185 18.984C80.8518 18.8453 80.5585 18.7387 80.2385 18.664C79.9185 18.5893 79.5612 18.552 79.1665 18.552C78.5585 18.552 77.9932 18.6693 77.4705 18.904C76.9585 19.128 76.5105 19.4373 76.1265 19.832C75.7532 20.2267 75.4598 20.6907 75.2465 21.224C75.0332 21.7467 74.9265 22.3013 74.9265 22.888C74.9265 23.4747 75.0332 24.0293 75.2465 24.552C75.4598 25.0747 75.7532 25.5333 76.1265 25.928C76.5105 26.312 76.9585 26.6213 77.4705 26.856C77.9932 27.08 78.5585 27.192 79.1665 27.192C79.9452 27.192 80.5958 27.0427 81.1185 26.744C81.6518 26.4453 82.1265 26.0613 82.5425 25.592ZM85.0807 23.32H91.6408C91.6514 23.2453 91.6568 23.176 91.6568 23.112C91.6568 23.048 91.6568 22.9893 91.6568 22.936C91.6568 22.328 91.5714 21.7573 91.4008 21.224C91.2301 20.6907 90.9794 20.2267 90.6488 19.832C90.3181 19.4373 89.9128 19.128 89.4328 18.904C88.9528 18.6693 88.4088 18.552 87.8008 18.552C87.2248 18.552 86.6914 18.664 86.2008 18.888C85.7208 19.112 85.3048 19.4213 84.9528 19.816C84.6008 20.2 84.3234 20.6587 84.1208 21.192C83.9288 21.7147 83.8328 22.2747 83.8328 22.872C83.8328 23.512 83.9394 24.0987 84.1528 24.632C84.3768 25.1653 84.6754 25.624 85.0488 26.008C85.4221 26.3813 85.8594 26.6747 86.3608 26.888C86.8621 27.0907 87.3954 27.192 87.9608 27.192C88.7501 27.192 89.4114 27.0533 89.9448 26.776C90.4781 26.488 90.9528 26.1093 91.3688 25.64L90.6008 24.952C90.2594 25.304 89.8808 25.5867 89.4648 25.8C89.0594 26.0133 88.5688 26.12 87.9928 26.12C87.6301 26.12 87.2834 26.0613 86.9528 25.944C86.6221 25.816 86.3234 25.6347 86.0568 25.4C85.7901 25.1547 85.5714 24.8613 85.4008 24.52C85.2301 24.168 85.1234 23.768 85.0807 23.32ZM85.0807 22.408C85.1234 22.0027 85.2194 21.6293 85.3688 21.288C85.5181 20.9467 85.7101 20.6533 85.9448 20.408C86.1794 20.152 86.4514 19.9547 86.7608 19.816C87.0701 19.6667 87.4061 19.592 87.7688 19.592C88.1848 19.592 88.5474 19.672 88.8568 19.832C89.1768 19.9813 89.4434 20.184 89.6568 20.44C89.8808 20.696 90.0514 20.9947 90.1688 21.336C90.2968 21.6773 90.3768 22.0347 90.4088 22.408H85.0807Z"
        fill="#00C6A2"
      />
      <path d="M16.45 26.8496H25.8498L16.45 17.4497V26.8496Z" fill="white" />
      <path
        d="M25.8506 0.99995L20.3674 0.999949L25.8506 6.48322L25.8506 0.99995Z"
        fill="#00C6A2"
      />
      <path
        fill-rule="evenodd"
        clip-rule="evenodd"
        d="M16.8389 17.4501C16.7072 17.4501 16.5762 17.4466 16.4462 17.4399V11.5569L22.8455 5.61468C23.7477 6.846 24.2805 8.36502 24.2805 10.0085C24.2805 14.1183 20.9488 17.4501 16.8389 17.4501ZM21.1744 3.95958L16.4462 8.35005V2.57708C16.5762 2.57032 16.7072 2.56689 16.8389 2.56689C18.4565 2.56689 19.9536 3.08302 21.1744 3.95958Z"
        fill="white"
      />
      <path
        fill-rule="evenodd"
        clip-rule="evenodd"
        d="M15.6649 2.56641H8.61499V9.52191L11.7781 12.685L15.6649 9.07578V2.56641ZM15.6649 12.2826L11.7177 15.9479L8.61499 12.8453V26.8495H15.6649V12.2826Z"
        fill="white"
      />
      <path
        fill-rule="evenodd"
        clip-rule="evenodd"
        d="M7.83324 2.56665H0V12.6544L5.87426 6.78011L7.83324 8.7391V2.56665ZM7.83324 12.0625L5.87426 10.1035L0 15.9777V26.8497H7.83324V12.0625Z"
        fill="white"
      />
    </svg>