<svg
      
      width="26"
      height="26"
      viewBox="0 0 26 26"
      fill="none"
      xmlns="http://www.w3.org/2000/svg"
    >
      <path d="M16.5449 26H25.9995L16.5449 16.5454V26Z" fill="white" />
      <path
        d="M26 0.000229836L20.4848 0.000229353L26 5.51538L26 0.000229836Z"
        fill="#00C6A2"
      />
      <path
        fill-rule="evenodd"
        clip-rule="evenodd"
        d="M16.9398 16.5451C16.8073 16.5451 16.6757 16.5417 16.5449 16.5349V10.618L22.9815 4.64121C23.8889 5.87964 24.4246 7.40739 24.4246 9.06029C24.4246 13.1941 21.0736 16.5451 16.9398 16.5451ZM21.3007 2.97641L16.5449 7.39252V1.58568C16.6757 1.57888 16.8073 1.57544 16.9398 1.57544C18.5669 1.57544 20.0728 2.09464 21.3007 2.97641Z"
        fill="white"
      />
      <path
        fill-rule="evenodd"
        clip-rule="evenodd"
        d="M15.7569 1.57568H8.66602V8.5704L11.8487 11.7531L15.7569 8.12399V1.57568ZM15.7569 11.3495L11.7879 15.035L8.66602 11.9131V25.9999H15.7569V11.3495Z"
        fill="white"
      />
      <path
        fill-rule="evenodd"
        clip-rule="evenodd"
        d="M7.87879 1.57593H0V11.7235L5.90964 5.81381L7.87879 7.78296V1.57593ZM7.87879 11.1256L5.90964 9.1565L0 15.0661V26.0002H7.87879V11.1256Z"
        fill="white"
      />
    </svg>