<svg
      width="15"
      height="15"
      viewBox="0 0 15 15"
      fill="none"
      xmlns="http://www.w3.org/2000/svg"
    >
      <g opacity="1" clip-path="url(#clip0_2491_12)">
        <path
          d="M14.2759 6.41378C14.0173 6.20686 13.8103 5.9999 13.7587 5.84468C13.707 5.63796 13.8103 5.32745 13.9137 5.01718C14.0689 4.55163 14.2242 4.13775 14.0173 3.72413C13.8103 3.36192 13.3448 3.25858 12.8792 3.15523C12.569 3.10359 12.2587 3.05165 12.1034 2.89666C11.9484 2.74138 11.8965 2.43087 11.8448 2.1206C11.7415 1.65505 11.6379 1.18973 11.276 0.982804C10.9655 0.775877 10.4482 0.931132 9.98294 1.08615C9.67243 1.18973 9.36213 1.29308 9.15547 1.2414C9.00021 1.18973 8.74159 0.931132 8.58633 0.724205C8.27606 0.36197 7.96555 0 7.50024 0C7.03469 0 6.72418 0.36197 6.4139 0.724178C6.20719 0.982778 6.00002 1.1897 5.84503 1.24138C5.68978 1.29305 5.32781 1.1897 5.01754 1.08612C4.55198 0.931105 4.08648 0.827523 3.72454 0.982778C3.36233 1.24138 3.25899 1.70693 3.20708 2.17246C3.10373 2.48275 3.05182 2.79326 2.94872 2.94828C2.79343 3.05165 2.48316 3.10356 2.17265 3.20691C1.7071 3.25858 1.24179 3.36192 0.982975 3.72413C0.776286 4.13775 0.931303 4.5516 1.08656 5.01718C1.1899 5.32745 1.29348 5.63799 1.24181 5.84468C1.1899 5.99993 0.931303 6.25856 0.724376 6.41378C0.362432 6.72408 0.000488281 7.03435 0.000488281 7.49988C0.000488281 7.96541 0.362432 8.27573 0.724402 8.58598C0.983002 8.7929 1.18993 8.99986 1.24184 9.15511C1.29354 9.36204 1.18993 9.67234 1.08658 9.98258C0.931329 10.4482 0.776313 10.862 0.983001 11.2756C1.18993 11.6378 1.65548 11.7412 2.12101 11.8448C2.43128 11.8965 2.74155 11.9481 2.89681 12.1034C3.05185 12.2586 3.10376 12.5689 3.15543 12.8792C3.25901 13.3447 3.36236 13.8103 3.72457 14.0172C4.03484 14.2239 4.55201 14.0687 5.01756 13.9137C5.32783 13.8103 5.63813 13.7067 5.84506 13.7584C6.00008 13.8103 6.25894 14.0687 6.41393 14.2758C6.7242 14.6378 7.03471 14.9998 7.50026 14.9998C7.96555 14.9998 8.27609 14.6378 8.58633 14.2758C8.79329 14.0172 9.00021 13.8103 9.15547 13.7584C9.31049 13.7067 9.67243 13.8103 9.98294 13.9137C10.4482 14.0687 10.9138 14.1722 11.276 14.0172C11.6379 13.8103 11.7415 13.3447 11.8448 12.8792C11.8965 12.5689 11.9484 12.2586 12.1034 12.1034C12.2587 11.9481 12.569 11.8965 12.8792 11.8448C13.3448 11.7412 13.8103 11.6379 14.0173 11.2756C14.2242 10.9137 14.0689 10.4482 13.9137 9.98258C13.8103 9.67231 13.707 9.36204 13.7587 9.15511C13.8103 8.99986 14.069 8.7412 14.2759 8.58598C14.6378 8.2757 15 7.96541 15 7.49988C15 7.03435 14.6378 6.72408 14.2759 6.41378ZM5.12855 8.68575C5.12855 8.81015 5.04579 8.92284 4.92713 8.96419C4.89744 8.97618 4.86181 8.98216 4.83215 8.98216C4.74341 8.98216 4.6544 8.93453 4.59508 8.85749C4.18002 8.30821 3.76505 7.75886 3.35016 7.20945L3.35016 8.68575C3.35016 8.84579 3.21978 8.98216 3.05375 8.98216C2.88776 8.98216 2.75735 8.84579 2.75735 8.68575L2.75735 6.326C2.75735 6.20159 2.84013 6.08891 2.9588 6.04729C3.0832 6.00591 3.2138 6.04729 3.29084 6.154C3.70591 6.70159 4.12096 7.24895 4.53577 7.79629V6.326C4.53577 6.16593 4.66639 6.03554 4.83217 6.03554C4.9982 6.03554 5.12858 6.16593 5.12858 6.326L5.12855 8.68575ZM7.20386 7.20347C7.36964 7.20347 7.50026 7.33386 7.50026 7.49988C7.50026 7.6659 7.36964 7.79629 7.20386 7.79629H6.3144V8.3891H7.20386C7.36964 8.3891 7.50026 8.51973 7.50026 8.68575C7.50026 8.85153 7.36964 8.98216 7.20386 8.98216H6.01799C5.85199 8.98216 5.72158 8.85151 5.72158 8.68575V6.31425C5.72158 6.14823 5.85199 6.0176 6.01799 6.0176H7.20386C7.36964 6.0176 7.50026 6.14823 7.50026 6.31425C7.50026 6.48004 7.36964 6.61066 7.20386 6.61066H6.3144V7.20347H7.20386ZM12.1482 6.39127C11.8559 7.1659 11.5633 7.94054 11.2707 8.71543C11.2503 8.77124 11.2131 8.81939 11.1643 8.85332C11.1155 8.88726 11.0574 8.90534 10.998 8.90511C10.8795 8.90511 10.7669 8.82785 10.7252 8.71543C10.5238 8.18167 10.3222 7.64818 10.1207 7.11447C9.91904 7.64818 9.71738 8.18167 9.51598 8.71543C9.43293 8.94051 9.05353 8.94051 8.97053 8.71543C8.67793 7.94054 8.38562 7.16593 8.09303 6.39127C8.03969 6.24297 8.11075 6.07692 8.26506 6.0176C8.41912 5.95852 8.58514 6.03554 8.63848 6.18961C8.83991 6.72332 9.04154 7.25681 9.24323 7.79028C9.44465 7.25681 9.64634 6.72332 9.84777 6.18961C9.93103 5.96424 10.3104 5.96424 10.3932 6.18961C10.5949 6.72332 10.7965 7.25681 10.9979 7.79028C11.1996 7.25681 11.4013 6.72332 11.6027 6.18961C11.6561 6.03554 11.8281 5.96424 11.9764 6.0176C12.1305 6.07121 12.2075 6.23699 12.1482 6.39127Z"
          fill="url(#paint0_linear_2491_12)"
        />
      </g>
      <defs>
        <linearGradient
          id="paint0_linear_2491_12"
          x1="7.50025"
          y1="0"
          x2="7.50025"
          y2="14.9998"
          gradientUnits="userSpaceOnUse"
        >
          <stop stop-color="#00FFD1" />
          <stop offset="1" stop-color="#A076FF" />
        </linearGradient>
        <clipPath id="clip0_2491_12">
          <rect width="15" height="15" fill="white" />
        </clipPath>
      </defs>
    </svg>