<svg
      width="16"
      height="16"
      viewBox="0 0 16 16"
      fill="none"
      xmlns="http://www.w3.org/2000/svg"
    >
      <path
        fill-rule="evenodd"
        clip-rule="evenodd"
        d="M15.6821 10.2403C14.7132 13.5682 11.6406 16 8 16C4.35938 16 1.28675 13.5682 0.31791 10.2403H5.28558C5.93121 11.022 6.90788 11.5201 8.0009 11.5201C9.09393 11.5201 10.0706 11.022 10.7162 10.2403H15.6821ZM15.8399 9.60026H11.137C11.3825 9.12019 11.5209 8.57633 11.5209 8.00014C11.5209 7.42402 11.3825 6.88023 11.1371 6.4002H15.84C15.9449 6.91711 16 7.45213 16 8C16 8.54804 15.9449 9.0832 15.8399 9.60026ZM4.86478 9.60026C4.61934 9.12019 4.4809 8.57633 4.4809 8.00014C4.4809 7.42402 4.61931 6.88023 4.86469 6.4002H0.159989C0.0550743 6.91711 0 7.45213 0 8C0 8.54804 0.055107 9.0832 0.160082 9.60026H4.86478ZM1.59925 3.20022C1.02859 3.96001 0.590063 4.82471 0.317776 5.7602H5.28544C5.93107 4.9784 6.9078 4.48014 8.0009 4.48014C9.09401 4.48014 10.0707 4.9784 10.7164 5.7602H15.6822C15.4099 4.82471 14.9714 3.96001 14.4008 3.20022H1.59925ZM13.866 2.56022H2.13405C3.59508 0.985468 5.68245 0 8 0C10.3175 0 12.4049 0.985468 13.866 2.56022Z"
        fill="currentColor"
      />
    </svg>