<svg
      width="106"
      height="22"
      viewBox="0 0 106 22"
      fill="none"
      xmlns="http://www.w3.org/2000/svg"
    >
      <rect width="22" height="22" rx="8" fill="#2F3E48" />
      <rect x="42" width="22" height="22" rx="8" fill="#2F3E48" />
      <rect x="84" width="22" height="22" rx="8" fill="#2F3E48" />
      <path
        d="M53.0909 6V13.2725M53.0909 13.2725L49.9092 10.4573M53.0909 13.2725L56.2726 10.4573"
        stroke="#7E8A93"
        stroke-width="1.6"
        stroke-linecap="round"
        stroke-linejoin="round"
      />
      <path
        d="M49 16H57.1816"
        stroke="#7E8A93"
        stroke-width="1.6"
        stroke-linecap="round"
        stroke-linejoin="round"
      />
      <path
        d="M14.2326 13.4013C14.4675 13.0389 14.364 12.5547 14.0016 12.3199C13.7064 12.1285 13.3962 11.9654 13.0749 11.8316C14.0099 11.1419 14.6176 10.0329 14.6176 8.7845C14.6176 6.69774 12.9199 5 10.8331 5C8.74636 5 7.04863 6.69773 7.04863 8.7845C7.04863 10.0321 7.65564 11.1405 8.58969 11.8303C7.8949 12.1197 7.25671 12.5452 6.70848 13.0934C5.60675 14.1952 5 15.66 5 17.2181C5 17.6499 5.35009 18 5.78192 18C6.21375 18 6.56384 17.6499 6.56384 17.2181C6.56384 14.864 8.47903 12.9488 10.8331 12.9488C11.6597 12.9488 12.4613 13.1851 13.1512 13.6322C13.5136 13.8671 13.9978 13.7637 14.2326 13.4013V13.4013ZM10.8331 6.56386C12.0576 6.56386 13.0538 7.56006 13.0538 8.78452C13.0538 10.009 12.0576 11.0052 10.8331 11.0052C9.60865 11.0052 8.61247 10.009 8.61247 8.78452C8.61247 7.56004 9.60866 6.56386 10.8331 6.56386Z"
        fill="#7E8A93"
      />
      <path
        d="M16.9713 14.7153H16.0721V13.8161C16.0721 13.3842 15.722 13.0342 15.2902 13.0342C14.8583 13.0342 14.5083 13.3842 14.5083 13.8161V14.7153H13.6091C13.1772 14.7153 12.8271 15.0654 12.8271 15.4972C12.8271 15.9291 13.1772 16.2791 13.6091 16.2791H14.5083V17.1783C14.5083 17.6102 14.8583 17.9603 15.2902 17.9603C15.722 17.9603 16.0721 17.6102 16.0721 17.1783V16.2791H16.9713C17.4032 16.2791 17.7532 15.9291 17.7532 15.4972C17.7532 15.0654 17.4032 14.7153 16.9713 14.7153Z"
        fill="#7E8A93"
      />
      <path
        d="M91 16H99.1816"
        stroke="#7E8A93"
        stroke-width="1.6"
        stroke-linecap="round"
        stroke-linejoin="round"
      />
      <path
        d="M93 13C93.2778 11.3958 94.6667 7.75 98 6M98 6H93.5M98 6V9.71875"
        stroke="#7E8A93"
        stroke-width="1.6"
        stroke-linecap="round"
        stroke-linejoin="round"
      />
      <path
        d="M34.5 10.634C35.1667 11.0189 35.1667 11.9811 34.5 12.366L30.75 14.5311C30.0833 14.916 29.25 14.4349 29.25 13.6651L29.25 9.33493C29.25 8.56513 30.0833 8.08401 30.75 8.46891L34.5 10.634Z"
        fill="#2F3E48"
      />
      <path
        d="M76.5 10.634C77.1667 11.0189 77.1667 11.9811 76.5 12.366L72.75 14.5311C72.0833 14.916 71.25 14.4349 71.25 13.6651L71.25 9.33493C71.25 8.56513 72.0833 8.08401 72.75 8.46891L76.5 10.634Z"
        fill="#2F3E48"
      />
      <path
        d="M53.0909 6V13.2725M53.0909 13.2725L49.9092 10.4573M53.0909 13.2725L56.2726 10.4573"
        stroke="#7E8A93"
        stroke-width="1.6"
        stroke-linecap="round"
        stroke-linejoin="round"
      />
      <path
        d="M49 16H57.1816"
        stroke="#7E8A93"
        stroke-width="1.6"
        stroke-linecap="round"
        stroke-linejoin="round"
      />
      <path
        d="M91 16H99.1816"
        stroke="#7E8A93"
        stroke-width="1.6"
        stroke-linecap="round"
        stroke-linejoin="round"
      />
      <path
        d="M93 13C93.2778 11.3958 94.6667 7.75 98 6M98 6H93.5M98 6V9.71875"
        stroke="#7E8A93"
        stroke-width="1.6"
        stroke-linecap="round"
        stroke-linejoin="round"
      />
    </svg>