<svg
      
      width="11"
      height="11"
      viewBox="0 0 11 11"
      fill="none"
      xmlns="http://www.w3.org/2000/svg"
    >
      <path d="M8.13043 0H5.73913V2.3913H8.13043V0Z" fill="#00C6A2" />
      <path
        d="M8.13043 2.86957H5.73913V5.26087H8.13043V2.86957Z"
        fill="#00C6A2"
      />
      <path d="M5.26087 0H2.86957V2.3913H5.26087V0Z" fill="#00C6A2" />
      <path d="M2.3913 2.86957H0V5.26087H2.3913V2.86957Z" fill="#00C6A2" />
      <path
        d="M5.26087 2.86957H2.86957V5.26087H5.26087V2.86957Z"
        fill="#00C6A2"
      />
      <path d="M11 2.86957H8.6087V5.26087H11V2.86957Z" fill="#00C6A2" />
      <path
        d="M8.13043 5.73913H5.73913V8.13043H8.13043V5.73913Z"
        fill="#00C6A2"
      />
      <path d="M11 5.73913H8.6087V8.13043H11V5.73913Z" fill="#00C6A2" />
      <path d="M8.13043 8.6087H5.73913V11H8.13043V8.6087Z" fill="#00C6A2" />
      <path d="M0 5.73913V8.13043H2.3913V5.73913H0Z" fill="#00C6A2" />
      <path d="M2.86957 8.6087V11H5.26087V8.6087H2.86957Z" fill="#00C6A2" />
      <path
        d="M2.86957 5.73913V8.13043H5.26087V5.73913H2.86957Z"
        fill="#00C6A2"
      />
    </svg>