<svg
      
      width="12"
      height="12"
      viewBox="0 0 12 12"
      fill="none"
      xmlns="http://www.w3.org/2000/svg"
    >
      <path
        fill-rule="evenodd"
        clip-rule="evenodd"
        d="M8.9685 12H3.03338C1.36255 12 0.00195312 10.6394 0.00195312 8.96857V3.03143C0.00195312 1.36059 1.36255 0 3.03338 0H5.6106C5.97357 0 6.26758 0.294018 6.26758 0.656979C6.26758 1.01994 5.97357 1.31396 5.6106 1.31396H3.03338C2.57512 1.31396 2.14322 1.4924 1.81878 1.81683C1.49435 2.14126 1.31591 2.57317 1.31591 3.03143V8.96654C1.31591 9.42481 1.49435 9.85671 1.81878 10.1811C2.14322 10.5056 2.57512 10.684 3.03338 10.684H8.9685C9.91544 10.684 10.686 9.91348 10.686 8.96654V6.19466C10.686 5.96147 10.8117 5.74248 11.0145 5.62487C11.1138 5.5681 11.2274 5.53768 11.3429 5.53768C11.4585 5.53768 11.5721 5.5681 11.6714 5.62487C11.8742 5.74248 11.9999 5.95945 11.9999 6.19466V8.96654C11.9999 10.6394 10.6414 12 8.9685 12ZM11.0288 4.17117C11.1241 4.22592 11.2336 4.25431 11.3431 4.25431C11.4526 4.25431 11.5621 4.22389 11.6594 4.16915C11.854 4.05762 11.9737 3.84877 11.9737 3.62572V0.65715C11.9737 0.310412 11.6918 0.0285596 11.3451 0.0285596H8.37652C8.02978 0.0285596 7.74793 0.310412 7.74793 0.65715C7.74793 1.00389 8.02978 1.28574 8.37652 1.28574H9.82618L5.5559 5.55602L5.55185 5.56007C5.44087 5.6791 5.38051 5.83661 5.38354 5.99931C5.38656 6.16202 5.45274 6.31718 5.56807 6.43199C5.68771 6.55162 5.84384 6.61651 6.01214 6.61651C6.17233 6.61651 6.32441 6.55568 6.43999 6.44821L6.44201 6.44618L10.7145 2.17373V3.62775C10.7145 3.8508 10.8361 4.05965 11.0288 4.17117Z"
        fill="#7E8A93"
      />
    </svg>