<svg
      
      width="12"
      height="12"
      viewBox="0 0 12 12"
      fill="none"
      xmlns="http://www.w3.org/2000/svg"
    >
      <path
        fill-rule="evenodd"
        clip-rule="evenodd"
        d="M8.96806 12H3.03194C1.36082 12 0 10.6394 0 8.96857V3.03143C0 1.36059 1.36082 0 3.03194 0H5.6096C5.97262 0 6.26669 0.294018 6.26669 0.656979C6.26669 1.01994 5.97262 1.31396 5.6096 1.31396H3.03194C2.5736 1.31396 2.14163 1.4924 1.81714 1.81683C1.49265 2.14126 1.31418 2.57317 1.31418 3.03143V8.96654C1.31418 9.42481 1.49265 9.85671 1.81714 10.1811C2.14163 10.5056 2.5736 10.684 3.03194 10.684H8.96806C9.91516 10.684 10.6858 9.91348 10.6858 8.96654V6.19466C10.6858 5.96147 10.8116 5.74248 11.0144 5.62487C11.1137 5.5681 11.2273 5.53768 11.3429 5.53768C11.4585 5.53768 11.5721 5.5681 11.6715 5.62487C11.8743 5.74248 12 5.95945 12 6.19466V8.96654C12 10.6394 10.6412 12 8.96806 12ZM11.0284 4.17082C11.1238 4.22556 11.2333 4.25395 11.3428 4.25395C11.4523 4.25395 11.5618 4.22354 11.6592 4.16879C11.8539 4.05727 11.9735 3.84841 11.9735 3.62537V0.656833C11.9735 0.310098 11.6916 0.0282495 11.3448 0.0282495H8.37576C8.02897 0.0282495 7.74707 0.310098 7.74707 0.656833C7.74707 1.00357 8.02897 1.28542 8.37576 1.28542H9.82618L5.55483 5.55604L5.55077 5.56009C5.43977 5.67911 5.37941 5.83662 5.38243 5.99933C5.38546 6.16204 5.45164 6.3172 5.567 6.43201C5.68665 6.55164 5.84281 6.61653 6.01114 6.61653C6.17136 6.61653 6.32346 6.5557 6.43906 6.44823L6.44109 6.4462L10.7141 2.17392V3.6274C10.7141 3.85044 10.8358 4.05929 11.0284 4.17082Z"
        fill="currentColor"
      />
    </svg>