<svg
      
      width="14"
      height="14"
      viewBox="0 0 14 14"
      fill="none"
      xmlns="http://www.w3.org/2000/svg"
    >
      <path
        d="M12.5507 8.37585H11.97V7.72919C11.97 6.98459 11.4129 6.37845 10.7273 6.37845H7.55797C7.73013 6.30247 7.89134 6.18934 8.03063 6.03907L9.62549 4.31857C10.1905 3.70905 10.1905 2.71625 9.62549 2.10673L8.09637 0.457141C7.53136 -0.15238 6.61107 -0.15238 6.04606 0.457141L4.4512 2.17596C3.88619 2.78548 3.88619 3.77827 4.4512 4.38779L5.98032 6.03739C6.11962 6.18766 6.28083 6.30078 6.45299 6.37676H3.28675C2.60123 6.37676 2.04405 6.9829 2.04405 7.7275V8.37417H1.4493C0.649525 8.37417 0 9.07655 0 9.93765V12.4365C0 13.2993 0.65109 14 1.4493 14H3.86272C4.66249 14 5.31202 13.2976 5.31202 12.4365V9.93765C5.31202 9.07486 4.66093 8.37417 3.86272 8.37417H3.29614V7.7275H10.7195V8.37417H10.1388C9.33907 8.37417 8.68955 9.07655 8.68955 9.93765V12.4365C8.68955 13.2993 9.34064 14 10.1388 14H12.5507C13.3505 14 14 13.2976 14 12.4365V9.93765C14 9.07824 13.3505 8.37585 12.5507 8.37585ZM5.33706 3.43383C5.26193 3.35279 5.26193 3.21434 5.33706 3.13161L6.93192 1.4111C6.96948 1.37058 7.02113 1.35032 7.07121 1.35032C7.12286 1.35032 7.17295 1.37058 7.21051 1.4111L8.73963 3.06069C8.81476 3.14174 8.81476 3.28019 8.73963 3.36292L7.14634 5.08343C7.07121 5.16447 6.94287 5.16447 6.86618 5.08343L5.33706 3.43383ZM4.05836 9.93934V12.4382C4.05836 12.553 3.96758 12.6509 3.86115 12.6509H1.44774C1.34131 12.6509 1.25053 12.553 1.25053 12.4382V9.93934C1.25053 9.82452 1.34131 9.72659 1.44774 9.72659H3.86115C3.96914 9.72659 4.05836 9.82452 4.05836 9.93934ZM12.7479 12.4399C12.7479 12.5547 12.6571 12.6526 12.5507 12.6526H10.1373C10.0309 12.6526 9.94008 12.5547 9.94008 12.4399V9.94102C9.94008 9.82621 10.0309 9.72828 10.1373 9.72828H12.5507C12.6571 9.72828 12.7479 9.82621 12.7479 9.94102V12.4399Z"
        fill="currentColor"
      />
    </svg>