<svg
      
      width="12"
      height="12"
      viewBox="0 0 12 12"
      fill="none"
      xmlns="http://www.w3.org/2000/svg"
    >
      <path
        d="M11.8456 4.08698L7.91342 0.154798C7.80969 0.0510673 7.67404 0 7.53839 0C7.40274 0 7.2671 0.0510673 7.16336 0.154798L4.59244 2.72731C4.39775 2.70497 4.20146 2.6954 4.00517 2.6954C2.837 2.6954 1.66884 3.08 0.70973 3.8492C0.463968 4.04549 0.443222 4.41413 0.666642 4.63755L3.56631 7.53722L0.128839 10.9715C0.087347 11.013 0.0602174 11.0688 0.0554298 11.1279L0.00117087 11.7216C-0.0131918 11.8716 0.106497 11.9992 0.254912 11.9992C0.262891 11.9992 0.27087 11.9992 0.278849 11.9976L0.872507 11.9434C0.931554 11.9386 0.987409 11.9115 1.0289 11.87L4.46637 8.4325L7.36604 11.3322C7.46977 11.4359 7.60542 11.487 7.74106 11.487C7.89586 11.487 8.04906 11.4199 8.15439 11.2891C9.05286 10.1672 9.42629 8.76284 9.27468 7.40476L11.8456 4.83384C12.0515 4.62957 12.0515 4.29444 11.8456 4.08698ZM8.46079 6.59567L8.06981 6.98665L8.13045 7.53562C8.1895 8.07343 8.14641 8.60804 7.99959 9.12669C7.91342 9.4299 7.79532 9.71875 7.64531 9.99164L2.01035 4.35349C2.21622 4.24018 2.43006 4.14443 2.65348 4.06783C3.08755 3.91782 3.54237 3.84282 4.00517 3.84282C4.15837 3.84282 4.31317 3.8508 4.46637 3.86835L5.01534 3.92899L5.40633 3.53801L7.53999 1.40435L10.596 4.46041L8.46079 6.59567Z"
        fill="currentColor"
      />
    </svg>