<svg
      width="83"
      height="104"
      viewBox="0 0 83 104"
      fill="none"
      xmlns="http://www.w3.org/2000/svg"
    >
      <path
        fill-rule="evenodd"
        clip-rule="evenodd"
        d="M25.3826 94.9266C39.399 98.6823 56.046 82.0048 62.5648 57.6764C69.0836 33.348 63.0056 10.5813 48.9892 6.82564C34.9729 3.06997 18.3258 19.7475 11.8071 44.0759C5.28828 68.4043 11.3663 91.171 25.3826 94.9266ZM26.1599 92.0263C38.5744 95.3528 53.5749 79.6259 59.6645 56.8994C65.754 34.1728 60.6266 13.0527 48.2121 9.72625C35.7976 6.39979 20.7971 22.1267 14.7076 44.8532C8.61802 67.5798 13.7454 88.6999 26.1599 92.0263Z"
        fill="white"
      />
      <path
        d="M62.0819 57.547C58.841 69.6421 53.0878 79.8113 46.4315 86.4798C39.7642 93.1593 32.2741 96.2556 25.5121 94.4437L25.2532 95.4096C32.5075 97.3534 40.3492 93.9888 47.1392 87.1863C53.9402 80.3729 59.7699 70.0391 63.0478 57.8058L62.0819 57.547ZM48.8598 7.30861C55.6219 9.1205 60.5604 15.547 62.9946 24.6652C65.4249 33.7685 65.3227 45.4519 62.0819 57.547L63.0478 57.8058C66.3257 45.5725 66.4439 33.7084 63.9608 24.4073C61.4817 15.1211 56.3729 8.28646 49.1186 6.34268L48.8598 7.30861ZM12.29 44.2053C15.5309 32.1102 21.2841 21.941 27.9404 15.2725C34.6077 8.59301 42.0978 5.49671 48.8598 7.30861L49.1186 6.34268C41.8644 4.3989 34.0227 7.76351 27.2327 14.566C20.4317 21.3794 14.602 31.7131 11.3241 43.9465L12.29 44.2053ZM25.5121 94.4437C18.75 92.6318 13.8115 86.2053 11.3773 77.0871C8.94696 67.9838 9.04915 56.3004 12.29 44.2053L11.3241 43.9465C8.04618 56.1798 7.92799 68.0439 10.4111 77.345C12.8902 86.6312 17.9989 93.4658 25.2532 95.4096L25.5121 94.4437ZM59.1815 56.77C56.1541 68.0682 50.9171 77.6024 44.9222 83.8876C38.9126 90.1883 32.2373 93.1371 26.2893 91.5434L26.0305 92.5093C32.497 94.242 39.5292 90.9906 45.6458 84.5778C51.7772 78.1496 57.0852 68.4571 60.1474 57.0288L59.1815 56.77ZM48.0827 10.2092C54.0308 11.803 58.3373 17.6944 60.3914 26.1557C62.4406 34.5964 62.2089 45.4717 59.1815 56.77L60.1474 57.0288C63.2096 45.6005 63.459 34.5525 61.3632 25.9198C59.2725 17.3079 54.808 10.976 48.3416 9.24328L48.0827 10.2092ZM15.1905 44.9826C18.2179 33.6843 23.4549 24.1502 29.4498 17.865C35.4595 11.5643 42.1347 8.61544 48.0827 10.2092L48.3416 9.24328C41.8751 7.5106 34.8428 10.762 28.7262 17.1748C22.5949 23.603 17.2868 33.2955 14.2246 44.7238L15.1905 44.9826ZM26.2893 91.5434C20.3413 89.9496 16.0348 84.0582 13.9806 75.5969C11.9315 67.1562 12.1632 56.2809 15.1905 44.9826L14.2246 44.7238C11.1624 56.1521 10.9131 67.2001 13.0088 75.8328C15.0996 84.4447 19.564 90.7766 26.0305 92.5093L26.2893 91.5434Z"
        fill="black"
      />
      <path
        d="M21.4146 46.6504C16.7028 64.2349 18.9085 90.0834 34.8501 91.4977C31.9097 92.5562 28.9684 92.7789 26.1596 92.0263C13.7451 88.6998 8.61772 67.5797 14.7073 44.8532C20.7968 22.1266 35.7973 6.39975 48.2118 9.72621C51.0207 10.4788 53.4565 12.1423 55.4738 14.5293C39.5213 10.2548 26.1263 29.0658 21.4146 46.6504Z"
        fill="white"
        stroke="black"
      />
      <path
        d="M55.4739 14.5296C53.4566 12.1427 51.0208 10.4792 48.212 9.72657C37.0106 6.72517 23.704 19.2353 16.7372 38.4029C16.7372 38.4029 17.3269 37.978 19.2463 40.2409C21.1658 42.5039 21.4147 46.6507 21.4147 46.6507C26.1265 29.0662 39.5215 10.2552 55.4739 14.5296Z"
        fill="#00C6A2"
        stroke="black"
      />
      <path
        d="M55.4746 14.5297C53.4573 12.1428 51.0215 10.4793 48.2127 9.72664C42.3381 8.15256 35.8845 10.8449 30.0701 16.5264C30.0701 16.5264 31.0807 17.7652 31.5047 20.5989C31.9287 23.4326 31.2486 25.9705 31.2486 25.9705C37.6131 17.4754 46.1025 12.0184 55.4746 14.5297Z"
        fill="black"
        stroke="black"
      />
      <path
        d="M25.3817 94.9272C39.3981 98.6828 56.0451 82.0053 62.5639 57.6769C69.0827 33.3485 63.0047 10.5818 48.9883 6.82617"
        stroke="black"
      />
      <path
        d="M26.1587 92.0267C38.5732 95.3531 53.5737 79.6262 59.6633 56.8997C65.7528 34.1731 60.6254 13.053 48.2109 9.72656"
        stroke="black"
      />
      <rect
        x="23.294"
        y="62.5689"
        width="7.25759"
        height="9.13503"
        transform="rotate(15 23.294 62.5689)"
        fill="white"
        stroke="black"
      />
      <rect
        x="28.4434"
        y="53.8756"
        width="7.25759"
        height="8.72963"
        transform="rotate(15 28.4434 53.8756)"
        fill="white"
        stroke="black"
      />
      <rect
        x="39.4239"
        y="25.7598"
        width="7.25759"
        height="28.9997"
        transform="rotate(15 39.4239 25.7598)"
        fill="white"
        stroke="black"
      />
      <rect
        x="28.0235"
        y="22.7051"
        width="5.65772"
        height="28.9997"
        transform="rotate(15 28.0235 22.7051)"
        fill="white"
        stroke="black"
      />
      <path
        d="M29.0401 40.7698C29.0391 40.767 29.038 40.7642 29.037 40.7613C28.6823 39.7797 28.1172 38.5238 27.2831 37.5159C26.4755 36.54 25.7467 35.9051 25.2108 35.5103C25.0054 35.359 24.8285 35.2431 24.6867 35.157L27.9707 22.9009L33.4357 24.3653L29.0401 40.7698Z"
        fill="black"
        stroke="black"
      />
      <path
        d="M33.6037 62.6583C33.5486 62.5228 33.4887 62.3816 33.4235 62.2356C32.9009 61.0646 32.0358 59.5703 30.6697 58.3216C29.3497 57.115 28.4683 56.6243 27.8678 56.4634C27.83 56.4532 27.7931 56.4444 27.7571 56.4367L28.4434 53.8756L35.4537 55.754L33.6037 62.6583Z"
        fill="black"
        stroke="black"
      />
      <path
        d="M44.0572 36.5051C44.0032 36.3689 43.9444 36.227 43.8805 36.0804C43.3629 34.8927 42.5038 33.3771 41.1414 32.1132C39.8254 30.8923 38.9442 30.3962 38.3415 30.2347C38.3038 30.2246 38.2669 30.2157 38.2309 30.2081L39.4151 25.7886L46.4254 27.667L44.0572 36.5051Z"
        fill="black"
        stroke="black"
      />
      <path
        d="M29.355 67.9902C29.2653 67.8736 29.1655 67.749 29.0552 67.6182C28.4125 66.8559 27.4113 65.8784 25.9677 64.9991C24.5585 64.1406 23.6795 63.7719 23.1289 63.6244C23.0909 63.6142 23.0541 63.605 23.0186 63.5967L23.294 62.5689L30.3043 64.4473L29.355 67.9902Z"
        fill="black"
        stroke="black"
      />
      <path
        d="M17.5458 50.1211L14.6209 49.3373L22.1768 21.1383L27.3404 22.5218L19.8007 50.6607L19.6713 51.1436L20.1542 51.2731L25.7769 52.7796L26.2599 52.9091L26.3893 52.4261L33.9291 24.2873L38.7496 25.5789L31.1937 53.778L28.4325 53.0381L27.9495 52.9087L27.8201 53.3917L25.4365 62.2875L23.307 61.7169L22.824 61.5874L22.6946 62.0704L20.2459 71.209L16.0103 70.074L18.459 60.9355L18.5884 60.4525L18.1054 60.3231L15.5158 59.6292L17.8994 50.7334L18.0288 50.2505L17.5458 50.1211Z"
        fill="#00C6A2"
        stroke="black"
      />
      <rect
        x="46.9707"
        y="68.9132"
        width="7.25759"
        height="9.13503"
        transform="rotate(15 46.9707 68.9132)"
        fill="white"
        stroke="black"
      />
      <rect
        x="57.3584"
        y="30.1461"
        width="7.25759"
        height="9.13503"
        transform="rotate(15 57.3584 30.1461)"
        fill="white"
        stroke="black"
      />
      <rect
        x="43.1514"
        y="56.9776"
        width="7.25759"
        height="9.94583"
        transform="rotate(15 43.1514 56.9776)"
        fill="white"
        stroke="black"
      />
      <rect
        x="48.1162"
        y="37.7432"
        width="7.25759"
        height="9.94583"
        transform="rotate(15 48.1162 37.7432)"
        fill="white"
        stroke="black"
      />
      <path
        d="M53.2081 46.7845C53.1415 46.6571 53.0686 46.5229 52.9892 46.3829C52.4204 45.3793 51.5136 44.0717 50.1606 42.8565C48.836 41.6668 47.9544 41.1823 47.3563 41.0221C47.3185 41.012 47.2817 41.0031 47.2457 40.9954L48.1172 37.7427L55.1275 39.6211L53.2081 46.7845Z"
        fill="black"
        stroke="black"
      />
      <path
        d="M48.1368 66.4114C48.0702 66.284 47.9973 66.1498 47.918 66.0098C47.3491 65.0063 46.4423 63.6987 45.0893 62.4835C43.7647 61.2938 42.8832 60.8093 42.285 60.649C42.2472 60.6389 42.2104 60.63 42.1744 60.6223L43.0459 57.3697L50.0562 59.2481L48.1368 66.4114Z"
        fill="black"
        stroke="black"
      />
      <rect
        x="52.1133"
        y="49.7257"
        width="7.25759"
        height="8.72963"
        transform="rotate(15 52.1133 49.7257)"
        fill="white"
        stroke="black"
      />
      <path
        d="M52.9408 75.0382C52.8554 74.9204 52.7609 74.7945 52.6568 74.6619C52.0295 73.8626 51.0538 72.817 49.6518 71.8148C48.2775 70.8324 47.4179 70.3937 46.8774 70.2058C46.8276 70.1885 46.78 70.1731 46.7344 70.1595L47.0616 68.9385L54.0719 70.8169L52.9408 75.0382Z"
        fill="black"
        stroke="black"
      />
      <path
        d="M40.1939 67.1538L46.2834 68.7855L43.9333 77.5565L31.7452 74.2907L44.4971 26.6998L56.6852 29.9656L54.3483 38.6871L48.2588 37.0554L47.7758 36.926L47.6464 37.409L44.9634 47.4219L44.834 47.9048L45.317 48.0342L51.4065 49.6659L49.1502 58.0868L43.0606 56.4551L42.5777 56.3257L42.4483 56.8087L39.8404 66.5415L39.711 67.0244L40.1939 67.1538Z"
        fill="#00C6A2"
        stroke="black"
      />
      <path
        d="M70.5396 59.8141C64.0208 84.1425 47.3738 100.82 33.3574 97.0644C31.0357 96.4422 25.0187 94.83 25.0187 94.83C42.5802 98.1755 57.4646 76.7065 62.9036 56.408C68.464 35.6562 64.034 10.8578 48.2627 6.63184C48.2627 6.63184 54.9034 8.4112 56.964 8.96335C70.9804 12.719 77.0584 35.4857 70.5396 59.8141Z"
        fill="white"
        stroke="black"
      />
      <path
        d="M25.0198 94.8302L33.3585 97.0646C46.1336 100.488 61.094 86.9365 68.5793 66.0892C68.5793 66.0892 67.028 65.6735 64.8562 62.1772C62.6843 58.6808 62.9047 56.4082 62.9047 56.4082C57.4658 76.7067 42.5814 98.1757 25.0198 94.8302Z"
        fill="#00C6A2"
        stroke="black"
      />
      <path
        d="M25.0195 94.8296L33.3582 97.064C41.0742 99.1315 49.5874 95.0067 56.7693 86.8222C56.7693 86.8222 54.9999 85.1824 54.0354 82.981C53.0709 80.7796 53.4242 77.9599 53.4242 77.9599C46.1706 89.1292 36.1309 96.9464 25.0195 94.8296Z"
        fill="black"
        stroke="black"
      />
      <path
        d="M26.1588 92.0269C38.5733 95.3534 53.5738 79.6265 59.6634 56.8999C65.753 34.1734 60.6256 13.0533 48.2111 9.72682L48.9883 6.82637C58.9716 8.7242 70.627 27.5849 62.5639 57.6771C54.6951 87.0437 35.7501 98.2884 25.3817 94.9273L26.1588 92.0269Z"
        fill="white"
      />
      <path
        d="M25.3817 94.9276C39.3981 98.6833 56.0451 82.0058 62.5639 57.6774C69.0827 33.349 63.0047 10.5823 48.9883 6.82666"
        stroke="black"
      />
      <path
        d="M26.1597 92.0271C38.5742 95.3536 53.5747 79.6267 59.6642 56.9002C65.7538 34.1736 60.6264 13.0535 48.2119 9.72705"
        stroke="black"
      />
    </svg>