<svg
      width="83"
      height="104"
      viewBox="0 0 83 104"
      fill="none"
      xmlns="http://www.w3.org/2000/svg"
    >
      <path
        fill-rule="evenodd"
        clip-rule="evenodd"
        d="M25.8797 94.9266C39.8961 98.6823 56.5431 82.0048 63.0619 57.6764C69.5807 33.348 63.5027 10.5813 49.4863 6.82564C35.4699 3.06997 18.8229 19.7475 12.3041 44.0759C5.78535 68.4043 11.8633 91.171 25.8797 94.9266ZM26.657 92.0263C39.0715 95.3528 54.072 79.6259 60.1615 56.8994C66.2511 34.1728 61.1237 13.0527 48.7092 9.72625C36.2947 6.39979 21.2942 22.1267 15.2047 44.8532C9.11509 67.5798 14.2425 88.6999 26.657 92.0263Z"
        fill="white"
      />
      <path
        d="M62.5789 57.547C59.3381 69.6421 53.5849 79.8113 46.9285 86.4798C40.2613 93.1593 32.7712 96.2556 26.0091 94.4437L25.7503 95.4096C33.0046 97.3534 40.8462 93.9888 47.6363 87.1863C54.4373 80.3729 60.2669 70.0391 63.5449 57.8058L62.5789 57.547ZM49.3569 7.30861C56.119 9.1205 61.0574 15.547 63.4917 24.6652C65.922 33.7685 65.8198 45.4519 62.5789 57.547L63.5449 57.8058C66.8228 45.5725 66.941 33.7084 64.4579 24.4073C61.9787 15.1211 56.87 8.28646 49.6157 6.34268L49.3569 7.30861ZM12.7871 44.2053C16.028 32.1102 21.7812 21.941 28.4375 15.2725C35.1047 8.59301 42.5948 5.49671 49.3569 7.30861L49.6157 6.34268C42.3614 4.3989 34.5198 7.76351 27.7297 14.566C20.9288 21.3794 15.0991 31.7131 11.8212 43.9465L12.7871 44.2053ZM26.0091 94.4437C19.2471 92.6318 14.3086 86.2053 11.8743 77.0871C9.44403 67.9838 9.54622 56.3004 12.7871 44.2053L11.8212 43.9465C8.54325 56.1798 8.42506 68.0439 10.9082 77.345C13.3873 86.6312 18.496 93.4658 25.7503 95.4096L26.0091 94.4437ZM59.6786 56.77C56.6512 68.0682 51.4142 77.6024 45.4193 83.8876C39.4096 90.1883 32.7344 93.1372 26.7864 91.5434L26.5276 92.5093C32.994 94.242 40.0263 90.9906 46.1429 84.5778C52.2743 78.1496 57.5823 68.4571 60.6445 57.0288L59.6786 56.77ZM48.5798 10.2092C54.5278 11.803 58.8343 17.6944 60.8885 26.1557C62.9377 34.5964 62.7059 45.4717 59.6786 56.77L60.6445 57.0288C63.7067 45.6005 63.9561 34.5525 61.8603 25.9198C59.7695 17.3079 55.3051 10.976 48.8386 9.24328L48.5798 10.2092ZM15.6876 44.9826C18.715 33.6843 23.952 24.1502 29.9469 17.865C35.9566 11.5643 42.6318 8.61544 48.5798 10.2092L48.8386 9.24328C42.3722 7.5106 35.3399 10.762 29.2233 17.1748C23.0919 23.603 17.7839 33.2955 14.7217 44.7238L15.6876 44.9826ZM26.7864 91.5434C20.8384 89.9496 16.5319 84.0582 14.4777 75.5969C12.4285 67.1562 12.6603 56.2809 15.6876 44.9826L14.7217 44.7238C11.6595 56.1521 11.4101 67.2001 13.5059 75.8328C15.5966 84.4447 20.0611 90.7766 26.5276 92.5093L26.7864 91.5434Z"
        fill="black"
      />
      <path
        d="M21.9126 46.6504C17.2008 64.2349 19.4065 90.0834 35.3482 91.4977C32.4077 92.5562 29.4665 92.7789 26.6576 92.0263C14.2431 88.6998 9.11576 67.5797 15.2053 44.8532C21.2949 22.1266 36.2954 6.39975 48.7099 9.72621C51.5187 10.4788 53.9545 12.1423 55.9718 14.5293C40.0194 10.2548 26.6244 29.0658 21.9126 46.6504Z"
        fill="white"
        stroke="black"
      />
      <path
        d="M55.9719 14.5296C53.9547 12.1427 51.5189 10.4792 48.71 9.72657C37.5087 6.72517 24.202 19.2353 17.2352 38.4029C17.2352 38.4029 17.8249 37.978 19.7444 40.2409C21.6638 42.5039 21.9127 46.6507 21.9127 46.6507C26.6245 29.0662 40.0195 10.2552 55.9719 14.5296Z"
        fill="#00C6A2"
        stroke="black"
      />
      <path
        d="M55.9726 14.5292C53.9554 12.1423 51.5196 10.4788 48.7107 9.72615C42.8362 8.15207 36.3826 10.8444 30.5681 16.5259C30.5681 16.5259 31.5787 17.7647 32.0027 20.5984C32.4267 23.4321 31.7467 25.97 31.7467 25.97C38.1111 17.4749 46.6005 12.018 55.9726 14.5292Z"
        fill="black"
        stroke="black"
      />
      <path
        d="M25.8807 94.9272C39.8971 98.6828 56.5441 82.0053 63.0629 57.6769C69.5817 33.3485 63.5037 10.5818 49.4873 6.82617"
        stroke="black"
      />
      <path
        d="M26.6577 92.0267C39.0722 95.3531 54.0727 79.6262 60.1623 56.8997C66.2518 34.1731 61.1245 13.053 48.71 9.72656"
        stroke="black"
      />
      <rect
        x="35.3291"
        y="20.2397"
        width="6.01594"
        height="7.5069"
        transform="rotate(15 35.3291 20.2397)"
        fill="white"
        stroke="black"
      />
      <path
        d="M35.6695 19.8127L29.09 18.0497C28.825 17.9787 28.5441 17.9798 28.2961 18.0672C28.049 18.1543 27.7918 18.3482 27.7041 18.6758L25.9194 25.3362C25.8818 25.3437 25.8194 25.3462 25.7395 25.3248L23.5964 24.7506C23.3314 24.6796 23.0504 24.6807 22.8025 24.7681C22.5553 24.8551 22.2982 25.0491 22.2104 25.3767L20.4572 31.9197C20.4196 31.9272 20.3572 31.9297 20.2773 31.9083L17.2662 31.1015C17.0012 31.0304 16.7202 31.0316 16.4723 31.1189C16.2251 31.206 15.968 31.3999 15.8802 31.7275L13.7288 39.7566C13.641 40.0842 13.7668 40.3808 13.9372 40.5797C14.1083 40.7793 14.3511 40.9208 14.6161 40.9918L17.6272 41.7986C17.7071 41.82 17.7599 41.8535 17.7887 41.8787L15.9568 48.7153C15.869 49.0429 15.9948 49.3395 16.1653 49.5384C16.3363 49.738 16.5791 49.8795 16.8441 49.9505L18.9872 50.5247C19.0671 50.5461 19.1199 50.5796 19.1487 50.6048L17.427 57.0304C17.3392 57.358 17.4649 57.6546 17.6354 57.8535C17.8065 58.0531 18.0492 58.1946 18.3142 58.2656L21.1539 59.0265C21.2338 59.0479 21.2866 59.0813 21.3154 59.1066L19.5622 65.6495C19.4744 65.9772 19.6002 66.2737 19.7706 66.4727C19.9417 66.6723 20.1845 66.8137 20.4495 66.8848L22.5926 67.459C22.6725 67.4804 22.7253 67.5138 22.7541 67.5391L20.9694 74.1995C20.8817 74.5271 21.0074 74.8237 21.1779 75.0226C21.3489 75.2222 21.5917 75.3637 21.8567 75.4347L25.6393 76.4483C25.9043 76.5193 26.1853 76.5181 26.4332 76.4308C26.6804 76.3437 26.9375 76.1498 27.0253 75.8222L28.81 69.1618C28.8475 69.1543 28.91 69.1517 28.9899 69.1731L30.9616 69.7015C31.2266 69.7725 31.5075 69.7713 31.7555 69.684C32.0026 69.5969 32.2598 69.403 32.3476 69.0754L34.1007 62.5324C34.1383 62.5249 34.2008 62.5224 34.2806 62.5438L37.1203 63.3047C37.3853 63.3757 37.6663 63.3745 37.9142 63.2872C38.1613 63.2001 38.4185 63.0062 38.5063 62.6786L40.228 56.253C40.2656 56.2455 40.328 56.243 40.4079 56.2644L43.1618 57.0023C43.4268 57.0733 43.7078 57.0722 43.9558 56.9849C44.2029 56.8978 44.46 56.7039 44.5478 56.3762L46.3797 49.5397C46.4172 49.5322 46.4797 49.5297 46.5596 49.5511L48.7027 50.1253C48.9677 50.1963 49.2487 50.1952 49.4966 50.1079C49.7438 50.0208 50.0009 49.8268 50.0887 49.4992L52.2401 41.4702C52.3279 41.1425 52.2021 40.846 52.0317 40.647C51.8606 40.4474 51.6178 40.306 51.3528 40.2349L49.2097 39.6607C49.1298 39.6393 49.077 39.6059 49.0482 39.5806L50.8486 32.8615C50.9364 32.5339 50.8106 32.2373 50.6402 32.0384C50.4691 31.8388 50.2263 31.6973 49.9613 31.6263L47.2074 30.8884C47.1275 30.867 47.0747 30.8335 47.0459 30.8083L48.7834 24.324C48.8712 23.9964 48.7454 23.6998 48.5749 23.5009C48.4039 23.3013 48.1611 23.1598 47.8961 23.0888L42.2918 21.5871C42.0268 21.5161 41.7458 21.5172 41.4979 21.6046C41.2508 21.6917 40.9936 21.8856 40.9058 22.2132L39.1684 28.6975C39.1308 28.705 39.0683 28.7075 38.9885 28.6861L34.9808 27.6122C34.9009 27.5908 34.8481 27.5574 34.8193 27.5322L36.5567 21.0479C36.6445 20.7203 36.5188 20.4237 36.3483 20.2248C36.1773 20.0252 35.9345 19.8837 35.6695 19.8127Z"
        fill="#00C6A2"
        stroke="black"
      />
      <path
        d="M48.5722 24.2675C48.6391 24.018 48.4515 23.561 48.0871 23.4634L56.0167 25.5882C56.5502 25.7311 56.8668 26.2794 56.7239 26.8129L54.9853 33.3014L57.8829 34.0778C58.4164 34.2207 58.7332 34.7684 58.5902 35.3019L56.8147 41.9283L59.2831 42.5897C59.8166 42.7326 60.1326 43.2808 59.9896 43.8143L57.9814 51.3089C57.8385 51.8423 57.2902 52.1589 56.7567 52.016L54.2889 51.3547L52.4591 58.1837C52.3161 58.7172 51.7678 59.0338 51.2343 58.8908L47.9741 58.0173L46.2414 64.4837C46.0985 65.0172 45.5501 65.3338 45.0167 65.1908L41.8019 64.3295L40.0693 70.7959C39.9263 71.3294 39.378 71.646 38.8445 71.503L36.6189 70.9067L34.8376 77.5544C34.6947 78.0879 34.1464 78.4045 33.6129 78.2615L25.992 76.2195C26.3564 76.3171 26.7473 76.0152 26.8142 75.7657L28.5886 69.1435C28.6555 68.894 28.9884 68.8621 29.3528 68.9597L31.3111 69.4845C31.6754 69.5821 32.0436 69.3653 32.1105 69.1158L33.9083 62.4063C33.9751 62.1568 34.2456 62.3047 34.6099 62.4024L37.4496 63.1632C37.8139 63.2609 38.2283 62.8716 38.2952 62.6221L40.0356 56.1269C40.1024 55.8774 40.3841 55.9835 40.7484 56.0811L43.5023 56.8191C43.8667 56.9167 44.2699 56.5693 44.3367 56.3197L46.1872 49.4136C46.2541 49.164 46.534 49.2768 46.8983 49.3744L49.0414 49.9487C49.4058 50.0463 49.8107 49.6923 49.8776 49.4427L52.029 41.4137C52.0958 41.1641 51.7854 40.5807 51.4211 40.4831L49.5421 39.9796C49.1777 39.882 48.7516 39.8433 48.8184 39.5938L50.6375 32.805C50.7043 32.5555 50.772 32.1724 50.4076 32.0748L47.3861 31.2416C47.1219 31.1708 46.7493 31.071 46.8161 30.8214L48.5722 24.2675Z"
        fill="white"
      />
      <path
        d="M50.4076 32.0748L47.3861 31.2416C47.1219 31.1708 46.7493 31.071 46.8161 30.8214L48.5722 24.2675C48.6391 24.018 48.4515 23.561 48.0871 23.4634L56.0167 25.5882C56.5502 25.7311 56.8668 26.2794 56.7239 26.8129L54.9853 33.3014M50.4076 32.0748C50.772 32.1724 50.7043 32.5555 50.6375 32.805L48.8184 39.5938C48.7516 39.8433 49.1777 39.882 49.5421 39.9796C49.5421 39.9796 50.5841 40.2588 51.4211 40.4831M50.4076 32.0748L54.9853 33.3014M51.4211 40.4831C51.7854 40.5807 52.0958 41.1641 52.029 41.4137L49.8776 49.4427C49.8107 49.6923 49.4058 50.0463 49.0414 49.9487M51.4211 40.4831L56.8147 41.9283M49.0414 49.9487L46.8983 49.3744C46.534 49.2768 46.2541 49.164 46.1872 49.4136L44.3367 56.3197C44.2699 56.5693 43.8667 56.9167 43.5023 56.8191M49.0414 49.9487L54.2889 51.3547M43.5023 56.8191L40.7484 56.0812C40.3841 55.9835 40.1024 55.8774 40.0356 56.1269L38.2952 62.6221C38.2283 62.8716 37.8139 63.2609 37.4496 63.1632M43.5023 56.8191L47.9741 58.0173M37.4496 63.1632L34.6099 62.4024C34.2456 62.3047 33.9751 62.1568 33.9083 62.4063L32.1105 69.1158C32.0436 69.3653 31.6754 69.5821 31.3111 69.4845M37.4496 63.1632L41.8019 64.3295M31.3111 69.4845L29.3528 68.9597C28.9884 68.8621 28.6555 68.894 28.5886 69.1435L26.8142 75.7657C26.7473 76.0152 26.3564 76.3171 25.992 76.2195L33.6129 78.2615C34.1464 78.4045 34.6947 78.0879 34.8376 77.5544L36.6189 70.9067M31.3111 69.4845L36.6189 70.9067M54.9853 33.3014L57.8829 34.0778C58.4164 34.2207 58.7332 34.7684 58.5902 35.3019C58.1775 36.8422 57.3609 39.8898 56.8147 41.9283M56.8147 41.9283C57.6566 42.1539 58.5989 42.4064 59.2831 42.5897C59.8166 42.7326 60.1326 43.2808 59.9896 43.8143L57.9814 51.3089C57.8385 51.8423 57.2902 52.1589 56.7567 52.016L54.2889 51.3547M54.2889 51.3547L52.459 58.1837C52.3161 58.7172 51.7678 59.0338 51.2343 58.8908L47.9741 58.0173M47.9741 58.0173L46.2414 64.4837C46.0985 65.0172 45.5501 65.3338 45.0167 65.1908L41.8019 64.3295M41.8019 64.3295L40.0693 70.7959C39.9263 71.3294 39.378 71.646 38.8445 71.503L36.6189 70.9067"
        stroke="black"
      />
      <path
        d="M46.4258 61.6303C46.416 61.6147 46.406 61.5991 46.3959 61.5833C45.905 60.8194 45.0709 59.8709 43.6936 59.0898C42.3593 58.333 41.2974 57.9453 40.5571 57.747C40.3387 57.6884 40.1484 57.6465 39.9878 57.6163L40.293 56.4771L47.3033 58.3555L46.4258 61.6303Z"
        fill="black"
        stroke="black"
      />
      <path
        d="M52.7891 54.786C52.7793 54.7705 52.7693 54.7548 52.7592 54.7391C52.2683 53.9752 51.4342 53.0267 50.0569 52.2455C48.7225 51.4887 47.6607 51.1011 46.9204 50.9027C46.702 50.8442 46.5117 50.8022 46.351 50.7721L46.5269 50.1158C46.5983 49.8491 46.8725 49.6908 47.1393 49.7623L53.6666 51.5113L52.7891 54.786Z"
        fill="black"
        stroke="black"
      />
      <path
        d="M39.5513 25.7991C39.0494 26.1492 38.4094 26.4657 37.6459 26.5805C36.655 26.7294 35.9369 26.6514 35.4487 26.5206C35.3995 26.5074 35.3528 26.4937 35.3085 26.4797L35.1373 27.1186C35.0658 27.3853 35.2241 27.6595 35.4908 27.7309L38.7964 28.6166L39.5513 25.7991Z"
        fill="black"
        stroke="black"
      />
      <path
        d="M40.1783 68.0418C40.1716 68.0304 40.1648 68.019 40.158 68.0075C39.6796 67.2035 38.858 66.2048 37.4836 65.3935C36.1543 64.6089 35.0916 64.2132 34.3483 64.0141C34.1301 63.9556 33.9398 63.9141 33.7785 63.8848L34.1241 62.5953L41.1344 64.4737L40.1783 68.0418Z"
        fill="black"
        stroke="black"
      />
      <path
        d="M34.9693 74.8065C34.9626 74.7951 34.9558 74.7836 34.949 74.7721C34.4706 73.9681 33.649 72.9694 32.2746 72.1582C30.9453 71.3736 29.8826 70.9779 29.1393 70.7787C28.9212 70.7203 28.7308 70.6788 28.5696 70.6494L28.7857 69.8429C28.8571 69.5762 29.1313 69.4179 29.398 69.4893L35.9254 71.2383L34.9693 74.8065Z"
        fill="black"
        stroke="black"
      />
      <path
        d="M71.0386 59.8141C64.5199 84.1425 47.8728 100.82 33.8565 97.0644C31.5347 96.4422 25.5177 94.83 25.5177 94.83C43.0793 98.1755 57.9637 76.7065 63.4026 56.408C68.963 35.6562 64.5331 10.8578 48.7617 6.63184C48.7617 6.63184 55.4024 8.4112 57.463 8.96335C71.4794 12.719 77.5574 35.4857 71.0386 59.8141Z"
        fill="white"
        stroke="black"
      />
      <path
        d="M25.5178 94.8297L33.8566 97.0641C46.6316 100.487 61.592 86.936 69.0773 66.0887C69.0773 66.0887 67.5261 65.673 65.3542 62.1767C63.1824 58.6804 63.4028 56.4077 63.4028 56.4077C57.9638 76.7062 43.0794 98.1753 25.5178 94.8297Z"
        fill="#00C6A2"
        stroke="black"
      />
      <path
        d="M25.5175 94.8301L33.8563 97.0645C41.5723 99.1319 50.0854 95.0072 57.2673 86.8227C57.2673 86.8227 55.498 85.1829 54.5335 82.9815C53.569 80.7801 53.9223 77.9604 53.9223 77.9604C46.6687 89.1297 36.629 96.9469 25.5175 94.8301Z"
        fill="black"
        stroke="black"
      />
      <path
        d="M26.6579 92.0264C39.0724 95.3529 54.0729 79.626 60.1624 56.8995C66.252 34.1729 61.1246 13.0528 48.7101 9.72633L49.4873 6.82589C59.4706 8.72371 71.1261 27.5844 63.0629 57.6766C55.1941 87.0432 36.2491 98.2879 25.8807 94.9269L26.6579 92.0264Z"
        fill="white"
      />
      <path
        d="M25.8817 94.9272C39.8981 98.6828 56.5451 82.0053 63.0639 57.6769C69.5827 33.3485 63.5047 10.5818 49.4883 6.82617"
        stroke="black"
      />
      <path
        d="M26.6577 92.0267C39.0722 95.3531 54.0727 79.6262 60.1623 56.8997C66.2518 34.1731 61.1245 13.053 48.71 9.72656"
        stroke="black"
      />
    </svg>