<svg
      width="59"
      height="75"
      viewBox="0 0 59 75"
      fill="none"
      xmlns="http://www.w3.org/2000/svg"
    >
      <path
        fill-rule="evenodd"
        clip-rule="evenodd"
        d="M18.0955 67.6718C28.0877 70.3492 39.9553 58.4599 44.6025 41.1163C49.2498 23.7726 44.9168 7.54237 34.9245 4.86496C24.9323 2.18756 13.0647 14.0769 8.41751 31.4205C3.77029 48.7642 8.10328 64.9944 18.0955 67.6718ZM18.6499 65.6044C27.5002 67.9758 38.194 56.7642 42.5352 40.5625C46.8764 24.3608 43.2212 9.30437 34.3709 6.93295C25.5207 4.56153 14.8268 15.7732 10.4856 31.9748C6.1444 48.1765 9.79969 63.233 18.6499 65.6044Z"
        fill="white"
      />
      <path
        d="M44.1196 40.9869C41.8145 49.5896 37.724 56.8156 32.9995 61.5487C28.2641 66.2928 22.9749 68.4616 18.2249 67.1889L17.9661 68.1548C23.2083 69.5594 28.849 67.1223 33.7073 62.2552C38.5764 57.3771 42.7434 49.9866 45.0855 41.2457L44.1196 40.9869ZM34.7951 5.34793C39.5451 6.62069 43.0413 11.1435 44.7702 17.6198C46.4952 24.081 46.4247 32.3842 44.1196 40.9869L45.0855 41.2457C47.4276 32.5047 47.5142 24.0209 45.7364 17.3618C43.9626 10.7176 40.2962 5.78665 35.054 4.382L34.7951 5.34793ZM8.90047 31.5499C11.2056 22.9472 15.296 15.7212 20.0205 10.9881C24.7559 6.24399 30.0451 4.07517 34.7951 5.34793L35.054 4.382C29.8117 2.97735 24.171 5.41449 19.3128 10.2816C14.4436 15.1597 10.2767 22.5502 7.93454 31.2911L8.90047 31.5499ZM18.2249 67.1889C13.4749 65.9161 9.97875 61.3933 8.2498 54.917C6.52483 48.4558 6.59539 40.1526 8.90047 31.5499L7.93454 31.2911C5.59241 40.0321 5.50586 48.5159 7.28363 55.175C9.05743 61.8192 12.7239 66.7501 17.9661 68.1548L18.2249 67.1889ZM42.0523 40.4331C39.8991 48.4689 36.1758 55.2431 31.9217 59.7033C27.6527 64.1789 22.9453 66.2377 18.7793 65.1214L18.5205 66.0874C23.2049 67.3425 28.2694 64.9812 32.6453 60.3935C37.0359 55.7903 40.8302 48.8577 43.0182 40.6919L42.0523 40.4331ZM34.2415 7.41591C38.4074 8.53216 41.4548 12.6689 42.914 18.6793C44.3681 24.6691 44.2055 32.3973 42.0523 40.4331L43.0182 40.6919C45.2062 32.5261 45.3865 24.6252 43.8858 18.4434C42.39 12.2824 39.1847 7.70516 34.5003 6.44999L34.2415 7.41591ZM10.9686 32.1043C13.1218 24.0684 16.845 17.2943 21.0992 12.8341C25.3681 8.35845 30.0756 6.29966 34.2415 7.41591L34.5003 6.44999C29.816 5.19482 24.7514 7.55614 20.3756 12.1439C15.985 16.7471 12.1907 23.6796 10.0027 31.8454L10.9686 32.1043ZM18.7793 65.1214C14.6134 64.0052 11.566 59.8685 10.1069 53.858C8.65273 47.8683 8.81539 40.1401 10.9686 32.1043L10.0027 31.8454C7.81463 40.0113 7.63433 47.9121 9.13509 54.0939C10.6308 60.255 13.8362 64.8322 18.5205 66.0874L18.7793 65.1214Z"
        fill="black"
      />
      <path
        d="M15.2668 33.2561C11.9078 45.7921 13.4802 64.2193 24.845 65.2276C22.7487 65.9822 20.652 66.141 18.6495 65.6044C9.79928 63.233 6.144 48.1766 10.4852 31.9749C14.8264 15.7732 25.5202 4.56157 34.3705 6.93299C36.3729 7.46954 38.1094 8.65545 39.5475 10.3571C28.1751 7.30984 18.6258 20.7202 15.2668 33.2561Z"
        fill="white"
        stroke="black"
      />
      <path
        d="M39.5483 10.3566C38.1102 8.65498 36.3737 7.46906 34.3713 6.93252C26.3859 4.79283 16.8996 13.7113 11.933 27.3757C11.933 27.3757 12.3534 27.0729 13.7218 28.6861C15.0901 30.2994 15.2676 33.2556 15.2676 33.2556C18.6266 20.7197 28.1758 7.30936 39.5483 10.3566Z"
        fill="#00C6A2"
        stroke="black"
      />
      <path
        d="M39.5481 10.3572C38.11 8.6556 36.3736 7.46969 34.3711 6.93314C30.1832 5.81098 25.5824 7.73032 21.4373 11.7807C21.4373 11.7807 22.1578 12.6638 22.4601 14.6839C22.7623 16.7041 22.2775 18.5133 22.2775 18.5133C26.8147 12.4572 32.8668 8.56696 39.5481 10.3572Z"
        fill="black"
        stroke="black"
      />
      <path
        d="M19.8662 17.5747L33.2443 21.1594L38.8772 22.6687C40.1882 23.4089 41.0943 24.7212 41.2075 25.2376L39.6044 26.9957L41.4501 27.4902C41.7414 27.8113 42.5488 29.9587 40.5617 35.0303C39.0888 38.7898 35.5115 41.6983 33.6297 41.6802L38.0338 55.7429L32.3124 54.2098L11.5412 48.6442L15.4302 34.13L19.0932 30.4932L16.5848 29.8211L19.8662 17.5747Z"
        fill="white"
      />
      <path
        d="M33.2443 21.1594L19.8662 17.5747L16.5848 29.8211M33.2443 21.1594C33.9484 21.348 35.5411 22.1637 36.2787 23.917M33.2443 21.1594L38.8772 22.6687C40.1882 23.4089 41.0943 24.7212 41.2075 25.2376M36.2787 23.917L25.8472 33.2752M36.2787 23.917L41.2075 25.2376M25.8472 33.2752L28.7329 34.0484M25.8472 33.2752L24.3153 28.7326M16.5848 29.8211L22.6932 23.9227L24.3153 28.7326M16.5848 29.8211L19.0932 30.4932M37.1401 26.3354C37.4313 26.6565 38.259 28.8118 36.2517 33.8755C34.6141 38.0064 30.2564 40.2902 28.1399 40.2093M37.1401 26.3354L39.6044 26.9957M37.1401 26.3354L28.7329 34.0484M21.5994 28.0049L24.6319 37.8109L28.7329 34.0484M21.5994 28.0049L19.0932 30.4932M21.5994 28.0049L24.3153 28.7326M32.3124 54.2098L11.5412 48.6442L15.4302 34.13L19.0932 30.4932M32.3124 54.2098L28.1399 40.2093M32.3124 54.2098L38.0338 55.7429L33.6297 41.6802M28.1399 40.2093L33.6297 41.6802M33.6297 41.6802C35.5115 41.6983 39.0888 38.7898 40.5617 35.0303C42.5488 29.9587 41.7414 27.8113 41.4501 27.4902L39.6044 26.9957M41.2075 25.2376L39.6044 26.9957"
        stroke="black"
      />
      <path
        d="M16.584 29.8208L22.6924 23.9225L24.3145 28.7324L21.5986 28.0046L19.0924 30.493L16.584 29.8208Z"
        fill="black"
        stroke="black"
      />
      <path
        d="M25.8474 33.2753L36.2789 23.917L43.5283 25.8595L41.6398 27.5411L37.1402 26.3354L28.7331 34.0485L25.8474 33.2753Z"
        fill="black"
        stroke="black"
      />
      <path
        d="M37.8506 20.8672L41.3711 21.8105L46.8698 23.2839L45.2291 29.4071L39.7304 27.9337L37.8506 20.8672Z"
        fill="#00C6A2"
      />
      <path
        d="M41.3711 21.8105L37.8506 20.8672L39.7304 27.9337M41.3711 21.8105L39.7304 27.9337M41.3711 21.8105L46.8698 23.2839L45.2291 29.4071L39.7304 27.9337"
        stroke="black"
      />
      <path
        d="M33.2443 21.1594L19.8662 17.5747L16.5848 29.8211L22.6932 23.9227L25.8472 33.2752L36.2787 23.917C36.2787 23.917 35.5033 21.7647 33.2443 21.1594Z"
        fill="#00C6A2"
      />
      <path
        d="M21.5994 28.0049L24.6319 37.8109L28.7329 34.0484L37.1401 26.3354C37.4313 26.6565 38.259 28.8118 36.2517 33.8755C34.6141 38.0064 30.2564 40.2902 28.1399 40.2093L32.3124 54.2098L11.5412 48.6442L15.4302 34.13L19.0932 30.4932L21.5994 28.0049Z"
        fill="#00C6A2"
      />
      <path
        d="M33.2443 21.1594L19.8662 17.5747L16.5848 29.8211L22.6932 23.9227L25.8472 33.2752L36.2787 23.917C36.2787 23.917 35.5033 21.7647 33.2443 21.1594Z"
        stroke="black"
      />
      <path
        d="M21.5994 28.0049L24.6319 37.8109L28.7329 34.0484L37.1401 26.3354C37.4313 26.6565 38.259 28.8118 36.2517 33.8755C34.6141 38.0064 30.2564 40.2902 28.1399 40.2093L32.3124 54.2098L11.5412 48.6442L15.4302 34.13L19.0932 30.4932L21.5994 28.0049Z"
        stroke="black"
      />
      <path
        d="M50.2884 42.64C45.6411 59.9836 33.7735 71.873 23.7813 69.1956C22.1261 68.7521 17.8366 67.6027 17.8366 67.6027C30.3562 69.9877 40.9673 54.6825 44.8447 40.2118C48.8087 25.418 45.6506 7.7392 34.4072 4.72656C34.4072 4.72656 39.1413 5.99507 40.6104 6.38869C50.6026 9.0661 54.9356 25.2964 50.2884 42.64Z"
        fill="white"
        stroke="black"
      />
      <path
        d="M17.8362 67.6025L23.7809 69.1954C32.8882 71.6357 43.5534 61.9751 48.8897 47.1131C48.8897 47.1131 47.7838 46.8168 46.2355 44.3243C44.6872 41.8318 44.8443 40.2116 44.8443 40.2116C40.9669 54.6823 30.3558 69.9875 17.8362 67.6025Z"
        fill="#00C6A2"
        stroke="black"
      />
      <path
        d="M17.8371 67.6025L23.7818 69.1954C29.2825 70.6693 35.3515 67.7288 40.4714 61.894C40.4714 61.894 39.2101 60.725 38.5225 59.1557C37.8349 57.5863 38.0868 55.5761 38.0868 55.5761C32.9157 63.5387 25.7585 69.1115 17.8371 67.6025Z"
        fill="black"
        stroke="black"
      />
      <path
        d="M18.6478 65.6046C27.4981 67.976 38.1919 56.7643 42.5331 40.5627C46.8743 24.361 43.2191 9.30455 34.3688 6.93313L34.9228 4.86541C42.0399 6.21837 50.349 19.6641 44.6008 41.1167C38.9912 62.0521 25.4854 70.0684 18.0938 67.6723L18.6478 65.6046Z"
        fill="white"
      />
      <path
        d="M18.0938 67.6726C28.086 70.35 39.9536 58.4607 44.6008 41.117C49.2481 23.7734 44.9151 7.54313 34.9229 4.86572"
        stroke="black"
      />
      <path
        d="M18.6482 65.605C27.4984 67.9765 38.1922 56.7648 42.5335 40.5631C46.8747 24.3615 43.2194 9.30501 34.3691 6.93359"
        stroke="black"
      />
    </svg>