<svg
      width="267"
      height="117"
      viewBox="0 0 267 117"
      fill="none"
      xmlns="http://www.w3.org/2000/svg"
    >
      <path
        fill-rule="evenodd"
        clip-rule="evenodd"
        d="M29.4064 98.263C36.3161 100.29 46.4729 86.4051 52.0922 67.2501C57.7115 48.0952 56.6654 30.9238 49.7558 28.8968C42.8461 26.8697 32.6893 40.7547 27.07 59.9096C21.4507 79.0646 22.4968 96.236 29.4064 98.263ZM30.1751 95.5794C35.9837 97.2835 44.9081 84.295 50.1082 66.5688C55.3084 48.8427 54.8151 33.0914 49.0065 31.3874C43.1979 29.6833 34.2735 42.6718 29.0733 60.398C23.8732 78.1241 24.3664 93.8754 30.1751 95.5794Z"
        fill="white"
      />
      <path
        d="M52.0922 67.2501L51.6124 67.1094L52.0922 67.2501ZM29.4064 98.263L29.5472 97.7832L29.5472 97.7832L29.4064 98.263ZM49.7558 28.8968L49.8965 28.417L49.8965 28.417L49.7558 28.8968ZM27.07 59.9096L27.5498 60.0504L27.07 59.9096ZM50.1082 66.5688L50.588 66.7096L50.1082 66.5688ZM30.1751 95.5794L30.0343 96.0592L30.1751 95.5794ZM49.0065 31.3874L48.8657 31.8671L49.0065 31.3874ZM29.0733 60.398L28.5935 60.2572L29.0733 60.398ZM51.6124 67.1094C48.8146 76.6463 44.8927 84.8502 40.8296 90.4046C38.7968 93.1836 36.7452 95.2765 34.8022 96.5476C32.857 97.8201 31.0806 98.233 29.5472 97.7832L29.2657 98.7428C31.1871 99.3064 33.2714 98.7439 35.3496 97.3845C37.4299 96.0236 39.5643 93.8282 41.6368 90.995C45.7843 85.325 49.7504 77.0089 52.572 67.3909L51.6124 67.1094ZM49.615 29.3766C51.1484 29.8264 52.4202 31.1336 53.3697 33.2552C54.3181 35.3745 54.9139 38.2441 55.1233 41.6809C55.5417 48.55 54.4102 57.5725 51.6124 67.1094L52.572 67.3909C55.3935 57.7729 56.5486 48.6322 56.1214 41.6201C55.908 38.1163 55.2979 35.1157 54.2824 32.8467C53.2681 30.58 51.818 28.9807 49.8965 28.417L49.615 29.3766ZM27.5498 60.0504C30.3476 50.5134 34.2695 42.3096 38.3326 36.7552C40.3654 33.9761 42.417 31.8832 44.36 30.6121C46.3052 29.3397 48.0816 28.9267 49.615 29.3766L49.8965 28.417C47.9751 27.8533 45.8908 28.4158 43.8126 29.7753C41.7323 31.1361 39.5979 33.3316 37.5254 36.1648C33.3779 41.8348 29.4118 50.1508 26.5902 59.7689L27.5498 60.0504ZM29.5472 97.7832C28.0138 97.3334 26.742 96.0262 25.7925 93.9045C24.8441 91.7852 24.2483 88.9157 24.0389 85.4789C23.6205 78.6098 24.752 69.5873 27.5498 60.0504L26.5902 59.7689C23.7687 69.3869 22.6136 78.5276 23.0408 85.5397C23.2542 89.0435 23.8643 92.044 24.8798 94.313C25.8941 96.5797 27.3442 98.1791 29.2657 98.7428L29.5472 97.7832ZM49.6284 66.4281C47.0391 75.2546 43.5276 82.8817 39.9577 88.0773C38.1712 90.6774 36.3864 92.6444 34.7158 93.853C33.0384 95.0666 31.5544 95.463 30.3158 95.0997L30.0343 96.0592C31.7 96.5479 33.5098 95.9598 35.3019 94.6632C37.1008 93.3618 38.9613 91.2933 40.7819 88.6436C44.4264 83.3394 47.9772 75.6092 50.588 66.7096L49.6284 66.4281ZM48.8657 31.8671C50.1043 32.2305 51.139 33.3658 51.8949 35.2932C52.6479 37.2127 53.0871 39.8322 53.1859 42.9854C53.3832 49.2862 52.2178 57.6015 49.6284 66.4281L50.588 66.7096C53.1988 57.8099 54.3868 49.3866 54.1854 42.9541C54.0848 39.7408 53.6366 36.995 52.8259 34.928C52.0182 32.8688 50.813 31.3962 49.1472 30.9076L48.8657 31.8671ZM29.5531 60.5387C32.1425 51.7122 35.654 44.0851 39.2238 38.8895C41.0104 36.2894 42.7952 34.3223 44.4658 33.1137C46.1431 31.9002 47.6272 31.5038 48.8657 31.8671L49.1472 30.9076C47.4815 30.4189 45.6717 31.007 43.8796 32.3035C42.0807 33.605 40.2203 35.6735 38.3996 38.3232C34.7551 43.6274 31.2043 51.3576 28.5935 60.2572L29.5531 60.5387ZM30.3158 95.0997C29.0772 94.7363 28.0426 93.601 27.2866 91.6736C26.5337 89.7541 26.0944 87.1346 25.9956 83.9814C25.7983 77.6806 26.9637 69.3653 29.5531 60.5387L28.5935 60.2572C25.9827 69.1569 24.7947 77.5802 24.9961 84.0127C25.0968 87.226 25.5449 89.9718 26.3556 92.0388C27.1633 94.098 28.3686 95.5706 30.0343 96.0592L30.3158 95.0997Z"
        fill="black"
      />
      <path
        d="M34.2769 61.9489C30.3135 73.9211 29.4632 84.438 31.9034 92.0797C32.5146 94.8769 34.0691 94.8667 34.0691 94.8667C32.6795 95.6614 31.3618 95.9271 30.1743 95.5788C24.3657 93.8747 23.8724 78.1235 29.0726 60.3973C34.2727 42.6712 43.1971 29.6827 49.0057 31.3867C50.1691 31.728 51.1193 32.6327 51.8532 34.004C51.8532 34.004 41.6845 36.2619 34.2769 61.9489Z"
        fill="white"
        stroke="black"
      />
      <path
        d="M51.8536 34.0046C51.1197 32.6333 50.1696 31.7285 49.0062 31.3872C43.8101 29.8629 36.1208 40.0957 30.8344 54.9597C32.5745 55.4743 34.2774 61.9495 34.2774 61.9495C34.2774 61.9495 35.0988 59.2006 35.5198 57.9285C42.7704 36.0214 51.8536 34.0046 51.8536 34.0046Z"
        fill="#00C6A2"
        stroke="black"
      />
      <path
        d="M51.8548 34.0041C51.1209 32.6328 50.1707 31.728 49.0073 31.3867C46.2444 30.5762 42.7766 33.0898 39.34 37.8562C39.34 37.8562 40.296 38.5015 40.9384 40.8383C41.5809 43.1752 40.9279 45.3079 40.9279 45.3079C46.621 35.1662 51.8548 34.0041 51.8548 34.0041Z"
        fill="black"
        stroke="black"
      />
      <path
        fill-rule="evenodd"
        clip-rule="evenodd"
        d="M66.5226 97.7552C73.4323 99.7822 83.5891 85.8973 89.2084 66.7423C94.8277 47.5874 93.7817 30.416 86.872 28.389C79.9623 26.3619 69.8055 40.2469 64.1862 59.4018C58.5669 78.5568 59.613 95.7281 66.5226 97.7552ZM67.2905 95.0712C73.0991 96.7753 82.0235 83.7868 87.2237 66.0606C92.4238 48.3345 91.9306 32.5832 86.1219 30.8792C80.3133 29.1751 71.3889 42.1636 66.1888 59.8898C60.9886 77.6159 61.4819 93.3672 67.2905 95.0712Z"
        fill="white"
      />
      <path
        d="M89.2084 66.7423L88.7286 66.6016L89.2084 66.7423ZM66.5226 97.7552L66.6634 97.2754L66.6634 97.2754L66.5226 97.7552ZM86.872 28.389L87.0127 27.9092L87.0127 27.9092L86.872 28.389ZM64.1862 59.4018L64.666 59.5426L64.1862 59.4018ZM87.2237 66.0606L86.7439 65.9199L87.2237 66.0606ZM67.2905 95.0712L67.1498 95.551L67.2905 95.0712ZM86.1219 30.8792L86.2627 30.3994L86.1219 30.8792ZM66.1888 59.8898L66.6685 60.0305L66.1888 59.8898ZM88.7286 66.6016C85.9308 76.1385 82.0089 84.3424 77.9459 89.8968C75.913 92.6758 73.8614 94.7687 71.9184 96.0398C69.9732 97.3123 68.1968 97.7252 66.6634 97.2754L66.3819 98.2349C68.3033 98.7986 70.3877 98.2361 72.4658 96.8767C74.5461 95.5158 76.6805 93.3204 78.753 90.4872C82.9006 84.8172 86.8666 76.5011 89.6882 66.8831L88.7286 66.6016ZM86.7312 28.8687C88.2646 29.3186 89.5364 30.6258 90.4859 32.7474C91.4343 34.8667 92.0301 37.7363 92.2395 41.1731C92.6579 48.0422 91.5264 57.0646 88.7286 66.6016L89.6882 66.8831C92.5097 57.2651 93.6648 48.1243 93.2376 41.1123C93.0242 37.6085 92.4141 34.6079 91.3987 32.3389C90.3843 30.0722 88.9342 28.4729 87.0127 27.9092L86.7312 28.8687ZM64.666 59.5426C67.4638 50.0056 71.3857 41.8018 75.4488 36.2473C77.4816 33.4683 79.5332 31.3754 81.4762 30.1043C83.4214 28.8319 85.1978 28.4189 86.7312 28.8687L87.0127 27.9092C85.0913 27.3455 83.007 27.908 80.9288 29.2675C78.8485 30.6283 76.7141 32.8237 74.6417 35.6569C70.4941 41.327 66.528 49.643 63.7064 59.2611L64.666 59.5426ZM66.6634 97.2754C65.13 96.8255 63.8582 95.5184 62.9087 93.3967C61.9603 91.2774 61.3645 88.4078 61.1551 84.9711C60.7367 78.1019 61.8682 69.0795 64.666 59.5426L63.7064 59.2611C60.8849 68.8791 59.7298 78.0198 60.157 85.0319C60.3704 88.5357 60.9805 91.5362 61.996 93.8052C63.0104 96.0719 64.4605 97.6713 66.3819 98.2349L66.6634 97.2754ZM86.7439 65.9199C84.1545 74.7464 80.643 82.3735 77.0732 87.5691C75.2866 90.1692 73.5018 92.1363 71.8312 93.3448C70.1538 94.5584 68.6698 94.9548 67.4312 94.5915L67.1498 95.551C68.8155 96.0397 70.6253 95.4516 72.4174 94.1551C74.2163 92.8536 76.0767 90.7851 77.8974 88.1354C81.5419 82.8312 85.0927 75.101 87.7035 66.2014L86.7439 65.9199ZM85.9812 31.3589C87.2198 31.7223 88.2544 32.8576 89.0104 34.785C89.7633 36.7045 90.2026 39.324 90.3013 42.4772C90.4987 48.778 89.3333 57.0933 86.7439 65.9199L87.7035 66.2014C90.3143 57.3017 91.5023 48.8784 91.3009 42.4459C91.2002 39.2326 90.7521 36.4868 89.9413 34.4198C89.1337 32.3606 87.9284 30.888 86.2627 30.3994L85.9812 31.3589ZM66.6685 60.0305C69.2579 51.204 72.7694 43.5769 76.3393 38.3813C78.1258 35.7812 79.9106 33.8141 81.5812 32.6056C83.2586 31.392 84.7426 30.9956 85.9812 31.3589L86.2627 30.3994C84.5969 29.9107 82.7872 30.4988 80.9951 31.7953C79.1961 33.0968 77.3357 35.1653 75.5151 37.815C71.8706 43.1192 68.3198 50.8494 65.709 59.749L66.6685 60.0305ZM67.4312 94.5915C66.1927 94.2281 65.158 93.0928 64.402 91.1654C63.6491 89.2459 63.2098 86.6264 63.1111 83.4732C62.9138 77.1724 64.0792 68.8571 66.6685 60.0305L65.709 59.749C63.0982 68.6487 61.9101 77.072 62.1116 83.5045C62.2122 86.7178 62.6603 89.4636 63.4711 91.5306C64.2788 93.5898 65.484 95.0624 67.1498 95.551L67.4312 94.5915Z"
        fill="black"
      />
      <path
        d="M71.3922 61.4411C67.4288 73.4133 66.5785 83.9302 69.0186 91.5719C69.6299 94.3691 71.1843 94.3589 71.1843 94.3589C69.7948 95.1536 68.477 95.4193 67.2895 95.071C61.4809 93.3669 60.9876 77.6157 66.1878 59.8895C71.388 42.1633 80.3123 29.1748 86.121 30.8789C87.2843 31.2202 88.2345 32.1249 88.9684 33.4962C88.9684 33.4962 78.7997 35.7541 71.3922 61.4411Z"
        fill="white"
        stroke="black"
      />
      <path
        d="M88.9689 33.4963C88.235 32.125 87.2848 31.2202 86.1214 30.8789C80.9253 29.3546 73.236 39.5874 67.9496 54.4514C69.6898 54.966 71.3926 61.4412 71.3926 61.4412C71.3926 61.4412 72.214 58.6923 72.6351 57.4202C79.8857 35.5131 88.9689 33.4963 88.9689 33.4963Z"
        fill="#00C6A2"
        stroke="black"
      />
      <path
        d="M88.97 33.4963C88.2361 32.125 87.2859 31.2202 86.1226 30.8789C83.3597 30.0684 79.8919 32.582 76.4552 37.3484C76.4552 37.3484 77.4112 37.9937 78.0537 40.3305C78.6962 42.6674 78.0431 44.8001 78.0431 44.8001C83.7363 34.6584 88.97 33.4963 88.97 33.4963Z"
        fill="black"
        stroke="black"
      />
      <path
        d="M29.7656 41.0029L39.1471 43.5167L44.5244 44.9575C45.4061 45.6172 45.938 46.9239 45.9703 47.4618L44.6343 49.4853L45.9285 49.8321C46.1093 50.1451 46.087 52.2031 44.5523 57.9308C43.0176 63.6584 39.9005 65.4164 38.5338 65.5794L40.0659 77.1497C40.2531 78.5634 38.943 79.7132 37.5656 79.3441L34.4382 78.5061L20.7028 74.8258L24.9365 59.0253L27.9525 54.8059L26.1934 54.3346L29.7656 41.0029Z"
        fill="white"
      />
      <path
        d="M39.1471 43.5167L29.7656 41.0029L26.1934 54.3346M39.1471 43.5167C39.6409 43.649 40.7201 44.3615 41.0868 46.1533M39.1471 43.5167L44.5244 44.9575C45.4061 45.6172 45.938 46.9239 45.9703 47.4618M41.0868 46.1533L32.5946 57.1082M41.0868 46.1533L45.9703 47.4618M32.5946 57.1082L34.6183 57.6504M32.5946 57.1082L31.9205 52.4292M26.1934 54.3346L31.2067 47.475L31.9205 52.4292M26.1934 54.3346L27.9525 54.8059M41.4789 48.6398C41.6596 48.9529 41.6374 51.0108 40.1027 56.7385C38.568 62.4662 35.1217 64.1359 33.5904 64.2548M41.4789 48.6398L44.6343 49.4853M41.4789 48.6398L34.6183 57.6504M30.016 51.9189L31.2716 62.0458L34.6183 57.6504M30.016 51.9189L27.9525 54.8059M30.016 51.9189L31.9205 52.4292M34.4382 78.5061L20.7028 74.8258L24.9365 59.0253L27.9525 54.8059M34.4382 78.5061L33.5904 64.2548M34.4382 78.5061L37.5656 79.3441C38.943 79.7132 40.2531 78.5634 40.0659 77.1497L38.5338 65.5794M33.5904 64.2548L38.5338 65.5794M38.5338 65.5794C39.9005 65.4164 43.0176 63.6584 44.5523 57.9308C46.087 52.2031 46.1093 50.1451 45.9285 49.8321L44.6343 49.4853M45.9703 47.4618L44.6343 49.4853"
        stroke="black"
      />
      <path
        d="M26.1934 54.3345L31.2067 47.475L31.9205 52.4292L30.016 51.9189L27.9525 54.8058L26.1934 54.3345Z"
        fill="black"
        stroke="black"
      />
      <path
        d="M32.5948 57.1083L41.0869 46.1533L46.1706 47.5155L44.6344 49.4854L41.479 48.6399L34.6184 57.6505L32.5948 57.1083Z"
        fill="black"
        stroke="black"
      />
      <path
        d="M42.5244 42.7607L44.9932 43.4223L49.9367 44.7469L48.1506 51.4127L43.2071 50.0881L42.5244 42.7607Z"
        fill="#00C6A2"
      />
      <path
        d="M44.9932 43.4223L42.5244 42.7607L43.2071 50.0881M44.9932 43.4223L43.2071 50.0881M44.9932 43.4223L49.9367 44.7469L48.1506 51.4127L43.2071 50.0881"
        stroke="black"
      />
      <path
        d="M39.1471 43.5167L31.6975 41.5206C30.6305 41.2347 29.5339 41.8679 29.248 42.9348L26.1934 54.3346L31.2067 47.475L31.9205 52.4292L32.5946 57.1082L41.0868 46.1533C40.7201 44.3615 39.6409 43.649 39.1471 43.5167Z"
        fill="#00C6A2"
        stroke="black"
      />
      <path
        d="M43.2071 50.0877L44.9932 43.4219L49.9366 44.7465L48.1505 51.4123L43.2071 50.0877Z"
        fill="white"
        stroke="black"
      />
      <path
        d="M30.0146 51.9192L31.2702 62.0461L34.6169 57.6507L41.4775 48.6401C41.6582 48.9531 41.636 51.0111 40.1013 56.7388C38.5666 62.4664 35.1203 64.1362 33.589 64.2551L34.9284 75.8049C35.091 77.2076 33.7881 78.3326 32.424 77.9671L22.6333 75.3437C21.5663 75.0578 20.9332 73.9611 21.2191 72.8942L24.9351 59.0256L30.0146 51.9192Z"
        fill="#00C6A2"
        stroke="black"
      />
      <path
        d="M76.966 42.999C77.1376 42.6902 77.6302 42.1126 78.2274 42.2726L83.5501 43.6988C84.1145 43.8501 84.2161 44.9763 84.0917 45.4405L75.71 76.7213C75.3812 77.6975 74.7613 79.6601 73.4065 79.2971L68.5145 77.9863C67.5192 77.7196 67.3878 72.2394 67.3878 72.2394L66.054 74.7955C65.4037 76.0415 63.9755 76.6691 62.6179 76.3053L59.132 75.3713C58.6737 75.2777 58.3217 74.7593 58.6634 73.4841C58.7538 73.1467 64.5953 50.6824 67.3112 41.2102C67.5865 40.2501 68.144 39.9378 68.8065 40.018C68.8503 40.0233 68.8935 40.0347 68.9357 40.0526L73.2804 41.2168C73.6567 41.3176 73.761 41.6808 73.8894 42.7068C74.0179 43.7327 74.2443 47.188 74.2678 48.0682L76.966 42.999Z"
        fill="white"
      />
      <path
        d="M78.2274 42.2726C77.6302 42.1126 77.1376 42.6902 76.966 42.999L74.2678 48.0682M78.2274 42.2726C79.0345 42.4889 79.021 43.2919 78.757 44.2771L74.5994 59.7934L70.4419 75.3097C70.1758 76.3027 69.5098 78.253 68.5145 77.9863M78.2274 42.2726L83.5501 43.6988C84.1145 43.8501 84.2161 44.9763 84.0917 45.4405C83.9674 45.9046 78.4521 66.4877 75.71 76.7213C75.3812 77.6975 74.7613 79.6601 73.4065 79.2971C72.0518 78.9341 69.7062 78.3056 68.5145 77.9863M68.5145 77.9863C67.5192 77.7196 67.3878 72.2394 67.3878 72.2394M67.3878 72.2394L66.054 74.7955C65.4037 76.0415 63.9755 76.6691 62.6179 76.3053L59.132 75.3713M67.3878 72.2394L67.4999 62.6799M59.132 75.3713C59.5011 75.4466 59.9391 75.2463 60.1391 74.9438C62.0714 71.3816 66.0026 64.009 66.2687 63.0159C66.4002 62.5251 66.3586 62.3562 66.2522 62.3456M59.132 75.3713C58.6737 75.2777 58.3217 74.7593 58.6634 73.4841C58.7538 73.1467 64.5953 50.6824 67.3112 41.2102C67.5865 40.2501 68.144 39.9378 68.8065 40.018M66.2522 62.3456C66.1432 62.3347 65.9664 62.4894 65.8376 62.6343C64.6197 64.5254 62.1342 68.2941 61.9352 68.2408C61.7361 68.1875 61.7307 68.0086 61.7529 67.9259L67.3899 47.8834L67.4999 62.6799M66.2522 62.3456L67.4999 62.6799M68.8065 40.018C69.1567 40.0604 69.4618 40.4899 69.6172 41.562C70.0665 44.6626 69.8697 61.8521 69.7152 70.0594C69.7982 70.0816 70.0173 69.9274 70.2302 69.133C70.382 68.5666 72.1208 62.0771 73.7012 56.1791M68.8065 40.018L73.2804 41.2168C73.6567 41.3176 73.761 41.6808 73.8894 42.7068C74.0179 43.7327 74.2443 47.188 74.2678 48.0682M74.2678 48.0682L70.9694 54.4303C70.6641 55.0471 70.7009 55.3658 70.885 55.4245M70.885 55.4245C70.9815 55.4553 71.1183 55.4148 71.2676 55.3085L75.4188 49.7687C74.9479 51.5263 74.3374 53.8048 73.7012 56.1791M70.885 55.4245L73.7012 56.1791"
        stroke="black"
        stroke-linejoin="round"
      />
      <path
        d="M69.9668 56.5952C69.967 56.5962 69.9672 56.5972 69.9674 56.5983C69.9841 56.6853 70.3538 58.5685 71.2434 59.3572C71.8951 59.9352 72.3969 60.0697 72.6478 60.1369L70.379 68.6039C70.2177 69.206 69.8884 69.6824 69.8884 69.6824C69.9145 65.3324 70.036 56.9844 69.9674 56.5983C69.967 56.5963 69.9668 56.5952 69.9668 56.5952Z"
        fill="black"
      />
      <path
        d="M76.966 42.999C77.1376 42.6902 77.6302 42.1126 78.2274 42.2726C79.0345 42.4889 79.021 43.2919 78.757 44.2771L74.5994 59.7934L70.4419 75.3097C70.1758 76.3027 69.5098 78.253 68.5145 77.9863C67.5192 77.7196 67.3878 72.2394 67.3878 72.2394L67.4999 62.6799L66.2815 62.3535C66.3651 62.3925 66.3873 62.5733 66.2687 63.0159C66.0026 64.009 62.0714 71.3816 60.1391 74.9438C59.9391 75.2463 59.5011 75.4466 59.132 75.3713C58.6737 75.2777 58.3217 74.7593 58.6634 73.4841C58.7538 73.1467 64.5953 50.6824 67.3112 41.2102C67.5865 40.2501 68.144 39.9378 68.8065 40.018C69.1567 40.0604 69.4618 40.4899 69.6172 41.562C70.0665 44.6626 69.8697 61.8521 69.7152 70.0594C69.7982 70.0816 70.0173 69.9274 70.2302 69.133L73.7012 56.1791L70.9029 55.4293C70.8968 55.428 70.8909 55.4264 70.885 55.4245C70.7009 55.3658 70.6641 55.0471 70.9694 54.4303L74.2678 48.0682L76.966 42.999Z"
        fill="#00C6A2"
      />
      <path
        d="M66.2522 62.3456C66.1432 62.3347 65.9664 62.4894 65.8376 62.6343C64.6197 64.5254 62.1342 68.2941 61.9352 68.2408C61.7361 68.1875 61.7307 68.0086 61.7529 67.9259L67.3899 47.8834L67.4999 62.6799M66.2522 62.3456C66.3586 62.3562 66.4002 62.5251 66.2687 63.0159C66.0026 64.009 62.0715 71.3816 60.1391 74.9438C59.9391 75.2463 59.5011 75.4466 59.132 75.3713C58.6737 75.2777 58.3217 74.7593 58.6634 73.4841C58.7538 73.1467 64.5953 50.6824 67.3112 41.2102C67.5865 40.2501 68.144 39.9378 68.8065 40.018C69.1567 40.0604 69.4618 40.4899 69.6172 41.562C70.0665 44.6626 69.8697 61.8521 69.7152 70.0594C69.7982 70.0816 70.0173 69.9274 70.2302 69.133C70.382 68.5666 72.1208 62.0771 73.7012 56.1791M66.2522 62.3456L67.4999 62.6799M67.4999 62.6799L67.3878 72.2394C67.3878 72.2394 67.5192 77.7196 68.5145 77.9863C69.5098 78.253 70.1758 76.3027 70.4419 75.3097L74.5994 59.7934L78.757 44.2771C79.021 43.2919 79.0345 42.4889 78.2274 42.2726C77.6302 42.1126 77.1376 42.6902 76.966 42.999L74.2678 48.0682L70.9694 54.4303C70.6641 55.0471 70.7009 55.3658 70.885 55.4245M70.885 55.4245C70.9815 55.4553 71.1183 55.4148 71.2676 55.3085L75.4188 49.7687C74.9479 51.5263 74.3374 53.8048 73.7012 56.1791M70.885 55.4245L73.7012 56.1791"
        stroke="black"
        stroke-linejoin="round"
      />
      <path
        d="M61.9357 68.2409C61.7366 68.1876 61.7312 68.0088 61.7534 67.926L67.3904 47.8836L67.5004 62.6801L66.2527 62.3457C66.1437 62.3348 65.9669 62.4895 65.8381 62.6345C64.6202 64.5255 62.1347 68.2943 61.9357 68.2409Z"
        fill="black"
        stroke="black"
        stroke-linejoin="round"
      />
      <path
        d="M61.7525 67.9259L64.7791 57.6258C66.5464 59.0045 67.4996 62.68 67.4996 62.68L66.2518 62.3456C66.1428 62.3347 65.966 62.4894 65.8372 62.6344C64.6194 64.5254 62.1339 68.2942 61.9348 68.2408C61.7357 68.1875 61.7303 68.0086 61.7525 67.9259Z"
        fill="white"
        stroke="black"
        stroke-linejoin="round"
      />
      <path
        d="M71.2674 55.309L75.4187 49.7692L73.701 56.1797L70.9027 55.4299C70.8966 55.4285 70.8907 55.4269 70.8849 55.4251L70.9027 55.4299C70.9978 55.4507 71.1271 55.4089 71.2674 55.309Z"
        fill="black"
      />
      <path
        d="M67.4991 62.7909L66.3702 62.4884L66.1685 63.241C66.0475 63.6926 62.8774 69.7535 62.3576 70.6898C62.3576 70.6898 63.2957 71.1025 64.0375 71.9466C65.0521 73.4284 65.3522 74.3155 65.5391 75.3739L67.3874 72.2392L67.4991 62.7909Z"
        fill="black"
      />
      <path
        d="M56.9189 68.7426L56.9188 68.7426L56.9151 68.7549C54.1255 78.2642 50.2109 86.4431 46.1533 91.9794C44.1232 94.7494 42.0739 96.835 40.1324 98.1011C38.1889 99.3685 36.4131 99.7793 34.8791 99.3292C34.1837 99.1252 32.9588 98.7762 31.9096 98.4786C31.8085 98.4499 31.709 98.4217 31.6117 98.3942C31.8441 98.3007 32.0974 98.1909 32.3695 98.0623C33.8548 97.3602 35.898 96.098 38.1854 93.8515C42.7608 89.358 48.2932 80.9471 52.3147 65.2524C56.3316 49.5759 55.8866 40.4025 54.3889 35.1169C53.7001 32.686 52.7886 31.0782 51.9879 30.0428C52.9339 30.3761 54.0102 30.7679 54.8413 31.1052L54.8645 31.1146L54.8886 31.1216C56.4224 31.5716 57.7217 32.9 58.706 35.0493C59.6883 37.1941 60.3245 40.0921 60.5622 43.5417C61.0374 50.4366 59.9136 59.4292 56.9189 68.7426Z"
        fill="white"
        stroke="black"
      />
      <path
        d="M34.726 99.8065C41.6239 101.83 51.7502 88.0133 57.3439 68.9459C57.927 66.9583 58.4378 64.992 58.8773 63.062C58.8773 63.062 57.2815 62.589 55.7664 60.7741C54.2512 58.9591 54.0379 56.4077 54.0379 56.4077C53.5806 59.0837 52.6092 61.9835 51.7888 65.185C43.7922 96.393 29.8435 98.415 29.8435 98.415C29.8435 98.415 33.3425 99.4006 34.726 99.8065Z"
        fill="#00C6A2"
        stroke="black"
      />
      <path
        d="M29.8436 98.4151C29.8436 98.4151 33.3486 99.4024 34.7345 99.809C38.1634 100.815 42.3886 97.9133 46.4602 92.4006C46.4602 92.4006 45.3985 92.1626 44.5384 90.0141C43.6782 87.8656 44.4081 85.3298 44.4081 85.3298C36.8215 99.5065 29.8436 98.4151 29.8436 98.4151Z"
        fill="black"
        stroke="black"
      />
      <path
        d="M49.3213 31.2702L49.9263 29.0123C53.8653 29.8661 59.6732 40.9015 51.7743 68.0256C44.6923 92.3443 33.7184 99.2852 29.7671 98.2265L30.4729 95.5925C33.144 96.9132 42.3441 91.7151 49.5029 68.2236C57.5708 41.749 52.4191 32.5036 49.3213 31.2702Z"
        fill="white"
      />
      <path
        d="M49.9263 29.0127C53.8653 29.8665 59.6733 40.9017 51.7743 68.0258C44.6923 92.3445 33.7184 99.2856 29.7671 98.2269M49.2709 31.4587C52.3687 32.6921 57.5708 41.7493 49.503 68.2238C42.3442 91.7153 32.5796 96.7622 30.473 95.5927"
        stroke="black"
        stroke-linejoin="round"
      />
      <path
        d="M94.0332 68.2348L94.033 68.2348L94.0294 68.2471C91.2397 77.7564 87.3252 85.9353 83.2676 91.4716C81.2374 94.2416 79.1881 96.3272 77.2467 97.5933C75.3032 98.8607 73.5273 99.2714 71.9934 98.8214C71.2979 98.6174 70.073 98.2683 69.0239 97.9708C68.9228 97.9421 68.8233 97.9139 68.726 97.8864C68.9584 97.7929 69.2116 97.6831 69.4838 97.5545C70.969 96.8524 73.0122 95.5902 75.2997 93.3437C79.875 88.8502 85.4075 80.4392 89.429 64.7446C93.4459 49.0681 93.0009 39.8947 91.5031 34.6091C90.8143 32.1782 89.9029 30.5704 89.1022 29.535C90.0482 29.8683 91.1245 30.2601 91.9556 30.5973L91.9788 30.6068L92.0028 30.6138C93.5366 31.0638 94.836 32.3922 95.8203 34.5414C96.8026 36.6863 97.4388 39.5843 97.6765 43.0339C98.1516 49.9288 97.0279 58.9214 94.0332 68.2348Z"
        fill="white"
        stroke="black"
      />
      <path
        d="M71.8413 99.2982C78.7391 101.322 88.8655 87.505 94.4591 68.4376C95.0422 66.45 95.553 64.4837 95.9925 62.5537C95.9925 62.5537 94.3967 62.0807 92.8816 60.2658C91.3665 58.4508 91.1531 55.8994 91.1531 55.8994C90.6958 58.5754 89.7244 61.4752 88.9041 64.6767C80.9075 95.8847 66.9587 97.9067 66.9587 97.9067C66.9587 97.9067 70.4578 98.8923 71.8413 99.2982Z"
        fill="#00C6A2"
        stroke="black"
      />
      <path
        d="M66.9588 97.9068C66.9588 97.9068 70.4639 98.8941 71.8497 99.3007C75.2786 100.307 79.5039 97.405 83.5755 91.8923C83.5755 91.8923 82.5137 91.6543 81.6536 89.5058C80.7934 87.3573 81.5233 84.8215 81.5233 84.8215C73.9368 98.9982 66.9588 97.9068 66.9588 97.9068Z"
        fill="black"
        stroke="black"
      />
      <path
        d="M86.4365 30.7619L87.0416 28.504C90.9805 29.3578 96.7885 40.3932 88.8895 67.5173C81.8075 91.836 70.8336 98.7769 66.8823 97.7182L67.5881 95.0842C70.2592 96.4049 79.4593 91.2068 86.6181 67.7153C94.686 41.2407 89.5344 31.9953 86.4365 30.7619Z"
        fill="white"
      />
      <path
        d="M87.0416 28.5049C90.9805 29.3587 96.7885 40.3939 88.8896 67.518C81.8076 91.8367 70.8336 98.7778 66.8824 97.7191M86.3862 30.9509C89.484 32.1843 94.6861 41.2414 86.6182 67.716C79.4594 91.2075 69.6948 96.2543 67.5882 95.0849"
        stroke="black"
        stroke-linejoin="round"
      />
      <path
        fill-rule="evenodd"
        clip-rule="evenodd"
        d="M201.807 103.76C210.824 106.405 224.078 88.286 231.411 63.2894C238.744 38.2928 237.379 15.8848 228.362 13.2395C219.345 10.5943 206.091 28.7137 198.758 53.7103C191.425 78.7069 192.79 101.115 201.807 103.76ZM202.809 100.258C210.39 102.481 222.036 85.5319 228.822 62.3999C235.608 39.2678 234.964 18.7129 227.384 16.4892C219.804 14.2655 208.158 31.2151 201.372 54.3471C194.586 77.4792 195.229 98.0341 202.809 100.258Z"
        fill="white"
      />
      <path
        d="M231.411 63.2894L230.931 63.1487L231.411 63.2894ZM201.807 103.76L201.666 104.24L201.666 104.24L201.807 103.76ZM228.362 13.2395L228.221 13.7193L228.362 13.2395ZM198.758 53.7103L198.278 53.5695L198.758 53.7103ZM228.822 62.3999L229.301 62.5406L228.822 62.3999ZM202.809 100.258L202.95 99.778L202.809 100.258ZM227.384 16.4892L227.525 16.0095L227.384 16.4892ZM201.372 54.3471L201.851 54.4879L201.372 54.3471ZM230.931 63.1487C227.277 75.6064 222.152 86.3293 216.837 93.5953C214.178 97.2301 211.488 99.9769 208.932 101.649C206.373 103.323 204.008 103.885 201.948 103.28L201.666 104.24C204.114 104.958 206.787 104.247 209.479 102.486C212.173 100.724 214.946 97.8746 217.644 94.1857C223.044 86.8041 228.212 75.969 231.891 63.4302L230.931 63.1487ZM228.221 13.7193C230.282 14.3237 231.968 16.0741 233.217 18.8649C234.465 21.6534 235.245 25.418 235.519 29.9131C236.066 38.8989 234.586 50.6909 230.931 63.1487L231.891 63.4302C235.569 50.8913 237.073 38.981 236.517 29.8523C236.239 25.2902 235.445 21.3946 234.13 18.4564C232.816 15.5206 230.951 13.478 228.503 12.7598L228.221 13.7193ZM199.238 53.851C202.892 41.3933 208.017 30.6704 213.332 23.4044C215.991 19.7697 218.681 17.0228 221.237 15.3504C223.796 13.6767 226.161 13.1149 228.221 13.7193L228.503 12.7598C226.055 12.0415 223.382 12.7528 220.69 14.5136C217.996 16.2758 215.224 19.1251 212.525 22.814C207.125 30.1956 201.957 41.0307 198.278 53.5695L199.238 53.851ZM201.948 103.28C199.888 102.676 198.201 100.926 196.952 98.1348C195.704 95.3463 194.924 91.5817 194.65 87.0866C194.103 78.1008 195.583 66.3088 199.238 53.851L198.278 53.5695C194.6 66.1084 193.096 78.0187 193.652 87.1474C193.93 91.7095 194.724 95.6052 196.039 98.5433C197.353 101.479 199.218 103.522 201.666 104.24L201.948 103.28ZM228.342 62.2591C224.959 73.7886 220.371 83.7574 215.701 90.5541C213.365 93.9547 211.024 96.5371 208.824 98.1284C206.618 99.7247 204.632 100.271 202.95 99.778L202.669 100.738C204.777 101.356 207.089 100.618 209.41 98.9386C211.738 97.2545 214.155 94.5706 216.525 91.1204C221.27 84.2151 225.898 74.1432 229.301 62.5406L228.342 62.2591ZM227.243 16.969C228.925 17.4623 230.301 18.9953 231.295 21.5305C232.286 24.058 232.861 27.4956 232.99 31.6196C233.248 39.8619 231.724 50.7296 228.342 62.2591L229.301 62.5406C232.705 50.938 234.252 39.9623 233.99 31.5883C233.859 27.4041 233.275 23.8403 232.226 21.1654C231.18 18.4983 229.633 16.628 227.525 16.0095L227.243 16.969ZM201.851 54.4879C205.234 42.9584 209.822 32.9896 214.492 26.1929C216.829 22.7923 219.169 20.2099 221.369 18.6186C223.575 17.0223 225.562 16.4757 227.243 16.969L227.525 16.0095C225.416 15.3909 223.104 16.1291 220.783 17.8084C218.455 19.4925 216.039 22.1764 213.668 25.6266C208.923 32.5319 204.296 42.6038 200.892 54.2064L201.851 54.4879ZM202.95 99.778C201.269 99.2847 199.893 97.7517 198.898 95.2165C197.907 92.689 197.332 89.2515 197.203 85.1274C196.945 76.8851 198.469 66.0174 201.851 54.4879L200.892 54.2064C197.488 65.809 195.941 76.7847 196.204 85.1587C196.335 89.3429 196.918 92.9067 197.967 95.5816C199.013 98.2487 200.56 100.119 202.669 100.738L202.95 99.778Z"
        fill="black"
      />
      <path
        d="M208.164 56.3729C202.991 71.9962 201.882 85.7205 205.066 95.6926C205.864 99.3429 207.892 99.3295 207.892 99.3295C206.079 100.367 204.359 100.713 202.81 100.259C195.23 98.0351 194.586 77.4802 201.372 54.3481C208.158 31.2161 219.804 14.2665 227.384 16.4902C228.902 16.9356 230.142 18.1163 231.1 19.9058C231.1 19.9058 217.83 22.8522 208.164 56.3729Z"
        fill="white"
        stroke="black"
      />
      <path
        d="M231.1 19.9059C230.142 18.1164 228.902 16.9357 227.384 16.4903C220.603 14.5011 210.569 27.8546 203.67 47.2516C205.941 47.9231 208.163 56.373 208.163 56.373C208.163 56.373 209.235 52.7858 209.785 51.1257C219.246 22.5378 231.1 19.9059 231.1 19.9059Z"
        fill="#00C6A2"
        stroke="black"
      />
      <path
        d="M231.1 19.9057C230.142 18.1162 228.902 16.9355 227.384 16.4901C223.779 15.4324 219.253 18.7126 214.769 24.9326C214.769 24.9326 216.016 25.7747 216.855 28.8242C217.693 31.8737 216.841 34.6568 216.841 34.6568C224.27 21.4222 231.1 19.9057 231.1 19.9057Z"
        fill="black"
        stroke="black"
      />
      <rect
        x="210.059"
        y="26.0317"
        width="4.28544"
        height="7.79171"
        transform="rotate(15 210.059 26.0317)"
        fill="white"
        stroke="black"
      />
      <path
        d="M210.339 25.589L205.652 24.3332C205.126 24.1924 204.59 24.5 204.449 25.0266L202.582 31.9937L201.073 31.5893C200.548 31.4485 200.012 31.7561 199.87 32.2827L198.036 39.1279L195.909 38.5578C195.383 38.4171 194.847 38.7246 194.706 39.2513L192.473 47.585C192.332 48.1117 192.643 48.646 193.168 48.7868L195.295 49.3569L193.38 56.5068C193.239 57.0335 193.549 57.5679 194.074 57.7086L195.584 58.113L193.782 64.8364C193.641 65.363 193.952 65.8974 194.477 66.0382L196.482 66.5755L194.648 73.4207C194.507 73.9474 194.818 74.4818 195.343 74.6225L196.852 75.027L194.985 81.994C194.844 82.5207 195.155 83.0551 195.68 83.1959L198.375 83.9179C198.9 84.0586 199.436 83.7511 199.577 83.2244L201.444 76.2573L202.831 76.629C203.356 76.7698 203.893 76.4622 204.034 75.9356L205.868 69.0904L207.873 69.6277C208.399 69.7685 208.935 69.4609 209.076 68.9343L210.877 62.211L212.822 62.732C213.347 62.8727 213.883 62.5652 214.024 62.0385L215.94 54.8886L217.449 55.293C217.975 55.4338 218.511 55.1262 218.652 54.5996L220.885 46.2659C221.026 45.7392 220.716 45.2048 220.19 45.0641L218.681 44.6596L220.564 37.6316C220.705 37.105 220.395 36.5706 219.869 36.4298L217.925 35.9088L219.743 29.1246C219.884 28.5979 219.573 28.0635 219.048 27.9227L215.056 26.853C214.531 26.7123 213.994 27.0198 213.853 27.5465L212.036 34.3307L209.215 33.5751L211.033 26.7908C211.174 26.2642 210.864 25.7298 210.339 25.589ZM201.426 76.2526L201.427 76.2527C201.427 76.2527 201.426 76.2526 201.426 76.2526Z"
        fill="#00C6A2"
        stroke="black"
      />
      <path
        d="M219.453 29.0476C219.522 28.7886 219.421 28.3395 219.162 28.27L226.082 30.1243C226.616 30.2672 226.932 30.8156 226.789 31.349L224.975 38.1203L227.02 38.6681C227.553 38.8111 227.87 39.3577 227.727 39.8911L225.874 46.8066L227.355 47.2033C227.888 47.3463 228.204 47.8945 228.061 48.428L225.957 56.2802C225.814 56.8137 225.266 57.1303 224.733 56.9873L223.253 56.5907L221.344 63.7155C221.201 64.2489 220.652 64.5655 220.119 64.4226L218.074 63.8747L216.266 70.6232C216.123 71.1567 215.575 71.4732 215.041 71.3303L213.937 71.0345L212.129 77.783C211.986 78.3164 211.438 78.633 210.904 78.4901L208.947 77.9655L207.088 84.9021C206.945 85.4356 206.397 85.7522 205.863 85.6092L198.646 83.6755C198.906 83.745 199.218 83.4064 199.287 83.1474L201.129 76.274C201.198 76.015 201.445 75.9555 201.705 76.025L203.1 76.3988C203.359 76.4683 203.647 76.2181 203.717 75.9591L205.583 68.9951C205.652 68.7361 205.838 68.8644 206.098 68.934L208.121 69.476C208.38 69.5455 208.716 69.1163 208.786 68.8573L210.592 62.1157C210.661 61.8567 210.86 61.9416 211.119 62.0111L213.081 62.5368C213.34 62.6063 213.665 62.2205 213.734 61.9615L215.655 54.7933C215.724 54.5343 215.921 54.6261 216.18 54.6956L217.707 55.1047C217.966 55.1743 218.292 54.7816 218.362 54.5226L220.595 46.1889C220.664 45.9299 220.484 45.3623 220.224 45.2927L218.886 44.9341C218.626 44.8645 218.316 44.8599 218.386 44.6009L220.274 37.5546C220.343 37.2956 220.424 36.9009 220.165 36.8314L218.014 36.2306C217.826 36.1802 217.561 36.1091 217.63 35.8501L219.453 29.0476Z"
        fill="white"
      />
      <path
        d="M220.165 36.8313L218.014 36.2306C217.826 36.1802 217.561 36.1091 217.63 35.8501L219.453 29.0476C219.522 28.7886 219.421 28.3395 219.162 28.27L226.082 30.1243C226.616 30.2672 226.932 30.8156 226.789 31.349L224.975 38.1203M220.165 36.8313C220.424 36.9009 220.343 37.2956 220.274 37.5546L218.386 44.6009C218.316 44.8599 218.626 44.8645 218.886 44.9341C218.886 44.9341 219.628 45.133 220.224 45.2927M220.165 36.8313L224.975 38.1203M220.224 45.2927C220.484 45.3623 220.664 45.9299 220.595 46.1889L218.362 54.5226C218.292 54.7816 217.966 55.1743 217.707 55.1047M220.224 45.2927L225.874 46.8066M217.707 55.1047L216.18 54.6956C215.921 54.6261 215.724 54.5343 215.655 54.7933L213.734 61.9615C213.665 62.2205 213.34 62.6063 213.081 62.5368M217.707 55.1047L223.253 56.5907M213.081 62.5368L211.119 62.0111C210.86 61.9416 210.661 61.8567 210.592 62.1157L208.786 68.8573C208.716 69.1163 208.38 69.5455 208.121 69.476M213.081 62.5368L218.074 63.8747M208.121 69.476L206.098 68.934C205.838 68.8644 205.652 68.7361 205.583 68.9951L203.717 75.9591C203.647 76.2181 203.359 76.4683 203.1 76.3988M208.121 69.476L213.937 71.0345M203.1 76.3988L201.705 76.025C201.445 75.9555 201.198 76.015 201.129 76.274L199.287 83.1474C199.218 83.4064 198.906 83.745 198.646 83.6755L205.863 85.6092C206.397 85.7522 206.945 85.4356 207.088 84.9021L208.947 77.9655M203.1 76.3988L208.947 77.9655M224.975 38.1203L227.02 38.6681C227.553 38.8111 227.87 39.3577 227.727 39.8911C227.302 41.4774 226.446 44.6741 225.874 46.8066M225.874 46.8066C226.367 46.9386 226.907 47.0834 227.355 47.2033C227.888 47.3463 228.204 47.8945 228.061 48.428L225.957 56.2802C225.814 56.8137 225.266 57.1303 224.733 56.9873L223.253 56.5907M223.253 56.5907L221.344 63.7155C221.201 64.2489 220.652 64.5655 220.119 64.4226L218.074 63.8747M218.074 63.8747L216.266 70.6232C216.123 71.1567 215.575 71.4732 215.041 71.3303L213.937 71.0345M213.937 71.0345L212.129 77.783C211.986 78.3164 211.438 78.633 210.904 78.4901L208.947 77.9655"
        stroke="black"
      />
      <path
        d="M216.551 67.6105C216.1 66.839 215.329 65.8893 214.046 65.12C212.792 64.3679 211.787 63.9904 211.081 63.8015C210.888 63.7497 210.718 63.7122 210.571 63.685L210.897 62.4683L217.458 64.2262L216.551 67.6105Z"
        fill="black"
        stroke="black"
      />
      <path
        d="M221.778 60.1383C221.327 59.3668 220.557 58.4171 219.274 57.6479C218.02 56.8957 217.014 56.5183 216.309 56.3293C216.116 56.2776 215.946 56.24 215.799 56.2128L215.996 55.4791C216.067 55.2124 216.341 55.0541 216.608 55.1256L222.685 56.754L221.778 60.1383Z"
        fill="black"
        stroke="black"
      />
      <path
        d="M212.468 31.6687C212.152 31.9202 211.787 32.1392 211.379 32.2671C210.636 32.5001 210.08 32.4948 209.679 32.396L209.487 33.1112C209.415 33.378 209.574 33.6521 209.84 33.7236L211.778 34.2429L212.468 31.6687Z"
        fill="black"
        stroke="black"
      />
      <path
        d="M212.173 74.9129C212.159 74.8881 212.144 74.8632 212.129 74.838C211.634 74.0059 210.783 72.9717 209.36 72.1316C207.982 71.318 206.88 70.908 206.11 70.7017C205.875 70.6387 205.671 70.5948 205.5 70.5642L205.869 69.1876L213.182 71.1471L212.173 74.9129Z"
        fill="black"
        stroke="black"
      />
      <path
        d="M207.432 82.0715C207.429 82.0664 207.426 82.0614 207.424 82.0563C206.958 81.2312 206.153 80.2056 204.793 79.3801C203.479 78.5828 202.425 78.1849 201.686 77.9868C201.472 77.9295 201.285 77.8891 201.126 77.8605L201.365 76.9689C201.436 76.7021 201.71 76.5438 201.977 76.6153L208.431 78.3446L207.432 82.0715Z"
        fill="black"
        stroke="black"
      />
      <path
        d="M237.854 65.2844L237.854 65.2843L237.85 65.2967C234.206 77.7184 229.091 88.4087 223.783 95.6511C221.128 99.2741 218.441 102.011 215.886 103.677C213.33 105.344 210.965 105.903 208.905 105.299C207.998 105.033 206.4 104.577 205.031 104.189C204.742 104.107 204.463 104.028 204.203 103.954C204.61 103.804 205.081 103.61 205.607 103.361C207.53 102.452 210.182 100.815 213.155 97.8952C219.101 92.0555 226.31 81.1068 231.553 60.6453C236.791 40.2019 236.205 28.2606 234.26 21.3988C233.287 17.9644 231.974 15.8034 230.883 14.4914C230.861 14.4653 230.839 14.4396 230.818 14.4142C230.829 14.418 230.839 14.4218 230.85 14.4256C232.187 14.8921 233.825 15.4817 235.055 15.9808L235.078 15.9902L235.102 15.9972C237.163 16.6017 238.885 18.3797 240.179 21.2055C241.472 24.0269 242.304 27.8285 242.615 32.3408C243.237 41.3613 241.767 53.1158 237.854 65.2844Z"
        fill="white"
        stroke="black"
      />
      <path
        d="M208.75 105.774C217.752 108.415 230.966 90.3847 238.266 65.5025C239.027 62.9086 239.693 60.3427 240.267 57.8241C240.267 57.8241 238.184 57.2069 236.207 54.8384C234.23 52.47 233.951 49.1405 233.951 49.1405C233.355 52.6326 232.087 56.4167 231.016 60.5946C220.581 101.32 202.378 103.959 202.378 103.959C202.378 103.959 206.945 105.245 208.75 105.774Z"
        fill="#00C6A2"
        stroke="black"
      />
      <path
        d="M202.378 103.958C202.378 103.958 206.952 105.247 208.76 105.777C213.235 107.09 218.748 103.303 224.062 96.1095C224.062 96.1095 222.676 95.7989 221.554 92.9951C220.431 90.1914 221.384 86.8823 221.384 86.8823C211.484 105.382 202.378 103.958 202.378 103.958Z"
        fill="black"
        stroke="black"
      />
      <path
        d="M227.795 16.3371L228.584 13.3906C233.725 14.5047 241.304 28.9056 230.996 64.3016C221.754 96.0368 207.434 105.094 202.277 103.713L203.198 100.276C206.684 101.999 218.69 95.2157 228.032 64.5601C238.56 30.0117 231.837 17.9466 227.795 16.3371Z"
        fill="white"
      />
      <path
        d="M228.584 13.391C233.725 14.5051 241.304 28.9058 230.996 64.3018C221.754 96.0369 207.434 105.095 202.277 103.713M227.729 16.583C231.772 18.1925 238.56 30.0118 228.032 64.5602C218.69 95.2158 205.947 101.802 203.198 100.276"
        stroke="black"
        stroke-linejoin="round"
      />
      <path
        fill-rule="evenodd"
        clip-rule="evenodd"
        d="M134.82 103.76C143.837 106.405 157.091 88.286 164.424 63.2894C171.757 38.2928 170.392 15.8848 161.375 13.2395C152.358 10.5943 139.104 28.7137 131.771 53.7103C124.438 78.7069 125.803 101.115 134.82 103.76ZM135.822 100.258C143.402 102.481 155.048 85.5319 161.834 62.3999C168.62 39.2678 167.977 18.7129 160.397 16.4892C152.816 14.2655 141.17 31.2151 134.384 54.3471C127.598 77.4792 128.242 98.0341 135.822 100.258Z"
        fill="white"
      />
      <path
        d="M164.424 63.2894L163.944 63.1487L164.424 63.2894ZM134.82 103.76L134.96 103.28L134.96 103.28L134.82 103.76ZM161.375 13.2395L161.234 13.7193L161.375 13.2395ZM131.771 53.7103L132.25 53.851L131.771 53.7103ZM161.834 62.3999L161.354 62.2591L161.834 62.3999ZM135.822 100.258L135.963 99.778L135.822 100.258ZM160.397 16.4892L160.256 16.969L160.397 16.4892ZM134.384 54.3471L133.905 54.2064L134.384 54.3471ZM163.944 63.1487C160.289 75.6064 155.165 86.3293 149.85 93.5953C147.191 97.2301 144.501 99.9769 141.944 101.649C139.386 103.323 137.021 103.885 134.96 103.28L134.679 104.24C137.127 104.958 139.8 104.247 142.492 102.486C145.186 100.724 147.958 97.8746 150.657 94.1857C156.056 86.8041 161.225 75.969 164.904 63.4302L163.944 63.1487ZM161.234 13.7193C163.294 14.3237 164.981 16.0741 166.23 18.8649C167.478 21.6534 168.258 25.418 168.531 29.9131C169.079 38.8989 167.599 50.6909 163.944 63.1487L164.904 63.4302C168.582 50.8913 170.086 38.981 169.53 29.8523C169.252 25.2902 168.458 21.3946 167.143 18.4564C165.829 15.5206 163.964 13.478 161.516 12.7598L161.234 13.7193ZM132.25 53.851C135.905 41.3933 141.03 30.6704 146.345 23.4044C149.004 19.7697 151.694 17.0228 154.25 15.3504C156.809 13.6767 159.174 13.1149 161.234 13.7193L161.516 12.7598C159.067 12.0415 156.394 12.7528 153.703 14.5136C151.009 16.2758 148.236 19.1251 145.538 22.814C140.138 30.1956 134.969 41.0307 131.291 53.5695L132.25 53.851ZM134.96 103.28C132.9 102.676 131.213 100.926 129.964 98.1348C128.717 95.3463 127.937 91.5817 127.663 87.0866C127.116 78.1008 128.596 66.3088 132.25 53.851L131.291 53.5695C127.613 66.1084 126.109 78.0187 126.665 87.1474C126.943 91.7095 127.737 95.6052 129.052 98.5433C130.366 101.479 132.231 103.522 134.679 104.24L134.96 103.28ZM161.354 62.2591C157.972 73.7886 153.384 83.7574 148.714 90.5541C146.377 93.9547 144.037 96.5371 141.837 98.1284C139.631 99.7247 137.644 100.271 135.963 99.778L135.681 100.738C137.79 101.356 140.102 100.618 142.423 98.9386C144.751 97.2545 147.167 94.5706 149.538 91.1204C154.283 84.2151 158.91 74.1432 162.314 62.5406L161.354 62.2591ZM160.256 16.969C161.937 17.4623 163.313 18.9953 164.308 21.5305C165.299 24.058 165.874 27.4956 166.003 31.6196C166.261 39.8619 164.737 50.7296 161.354 62.2591L162.314 62.5406C165.718 50.938 167.265 39.9623 167.002 31.5883C166.871 27.4041 166.288 23.8403 165.239 21.1654C164.193 18.4983 162.646 16.628 160.537 16.0095L160.256 16.969ZM134.864 54.4879C138.246 42.9584 142.835 32.9896 147.505 26.1929C149.841 22.7923 152.182 20.2099 154.382 18.6186C156.588 17.0223 158.574 16.4757 160.256 16.969L160.537 16.0095C158.429 15.3909 156.117 16.1291 153.796 17.8084C151.468 19.4925 149.051 22.1764 146.681 25.6266C141.936 32.5319 137.308 42.6038 133.905 54.2064L134.864 54.4879ZM135.963 99.778C134.281 99.2847 132.905 97.7517 131.911 95.2165C130.919 92.689 130.345 89.2514 130.216 85.1274C129.958 76.8851 131.482 66.0174 134.864 54.4879L133.905 54.2064C130.501 65.809 128.954 76.7847 129.216 85.1587C129.347 89.3429 129.931 92.9067 130.98 95.5816C132.026 98.2487 133.573 100.119 135.681 100.738L135.963 99.778Z"
        fill="black"
      />
      <path
        d="M141.176 56.3724C136.004 71.9958 134.894 85.72 138.079 95.6921C138.876 99.3424 140.905 99.3291 140.905 99.3291C139.092 100.366 137.372 100.713 135.822 100.258C128.242 98.0346 127.599 77.4797 134.385 54.3477C141.171 31.2156 152.817 14.266 160.397 16.4897C161.915 16.9351 163.155 18.1158 164.113 19.9053C164.113 19.9053 150.843 22.8518 141.176 56.3724Z"
        fill="white"
        stroke="black"
      />
      <path
        d="M164.112 19.9054C163.155 18.1159 161.915 16.9352 160.397 16.4898C153.616 14.5006 143.581 27.8541 136.683 47.2511C138.954 47.9226 141.176 56.3725 141.176 56.3725C141.176 56.3725 142.248 52.7853 142.797 51.1252C152.259 22.5373 164.112 19.9054 164.112 19.9054Z"
        fill="#00C6A2"
        stroke="black"
      />
      <path
        d="M164.112 19.9052C163.154 18.1157 161.914 16.935 160.396 16.4896C156.791 15.4319 152.265 18.7121 147.78 24.9321C147.78 24.9321 149.028 25.7742 149.866 28.8237C150.705 31.8732 149.853 34.6563 149.853 34.6563C157.282 21.4217 164.112 19.9052 164.112 19.9052Z"
        fill="black"
        stroke="black"
      />
      <path
        d="M124.035 58.9523L122.399 58.5139L131.354 25.0943L134.199 25.8567L125.286 59.1188L125.157 59.6018L125.64 59.7312L129.136 60.668L129.619 60.7974L129.748 60.3144L138.661 27.0523L141.293 27.7576L132.338 61.1772L130.804 60.7661L130.321 60.6367L130.192 61.1196L127.358 71.6942L126.217 71.3883L125.734 71.2589L125.604 71.7419L122.694 82.6027L120.426 81.9949L123.336 71.1341L123.465 70.6511L122.982 70.5217L121.555 70.1392L124.388 59.5647L124.518 59.0817L124.035 58.9523Z"
        fill="#00C6A2"
        stroke="black"
      />
      <path
        d="M143.408 77.1263L146.441 77.9389L143.574 88.6386L137.504 87.0122L152.571 30.7789L158.641 32.4053L155.842 42.8511L152.81 42.0385L152.327 41.9091L152.197 42.3921L149.037 54.1871L148.908 54.67L149.39 54.7995L152.423 55.612L149.719 65.7036L146.686 64.891L146.203 64.7616L146.074 65.2446L143.054 76.514L142.925 76.9969L143.408 77.1263Z"
        fill="#00C6A2"
        stroke="black"
      />
      <rect
        x="146.998"
        y="78.0884"
        width="6.79171"
        height="11.0772"
        transform="rotate(15 146.998 78.0884)"
        fill="white"
        stroke="black"
      />
      <rect
        x="159.199"
        y="32.5548"
        width="6.79171"
        height="11.0772"
        transform="rotate(15 159.199 32.5548)"
        fill="white"
        stroke="black"
      />
      <rect
        x="146.462"
        y="65.0386"
        width="6.79171"
        height="11.8563"
        transform="rotate(15 146.462 65.0386)"
        fill="white"
        stroke="black"
      />
      <rect
        x="152.411"
        y="42.836"
        width="6.79171"
        height="11.8563"
        transform="rotate(15 152.411 42.836)"
        fill="white"
        stroke="black"
      />
      <path
        d="M156.725 52.9852C156.695 52.9083 156.664 52.8295 156.632 52.7491C156.182 51.6373 155.442 50.1901 154.28 48.8756C153.151 47.5972 152.356 47.0725 151.775 46.9167C151.758 46.9123 151.742 46.9082 151.726 46.9044L152.789 42.9376L158.973 44.5946L156.725 52.9852Z"
        fill="black"
        stroke="black"
      />
      <path
        d="M150.862 74.8606C150.831 74.7834 150.798 74.7042 150.764 74.6233C150.305 73.5432 149.553 72.137 148.382 70.8559C147.244 69.6092 146.448 69.0976 145.872 68.9432C145.855 68.9388 145.839 68.9347 145.823 68.9309L146.839 65.1402L153.023 66.7972L150.862 74.8606Z"
        fill="black"
        stroke="black"
      />
      <rect
        x="126.026"
        y="72.0665"
        width="6.40213"
        height="11.0772"
        transform="rotate(15 126.026 72.0665)"
        fill="white"
        stroke="black"
      />
      <rect
        x="130.457"
        y="61.5567"
        width="7.1813"
        height="10.6876"
        transform="rotate(15 130.457 61.5567)"
        fill="white"
        stroke="black"
      />
      <rect
        x="141.89"
        y="27.9175"
        width="6.79171"
        height="34.4523"
        transform="rotate(15 141.89 27.9175)"
        fill="white"
        stroke="black"
      />
      <rect
        x="134.582"
        y="25.9595"
        width="3.77556"
        height="34.3392"
        transform="rotate(15 134.582 25.9595)"
        fill="white"
        stroke="black"
      />
      <path
        d="M130.363 42.3373C130.511 43.1106 130.731 43.9437 131.06 44.6359C131.506 45.5726 131.939 46.1709 132.275 46.5429C132.385 46.665 132.485 46.7624 132.571 46.8392L129.038 60.0243L125.852 59.1708L130.363 42.3373Z"
        fill="black"
        stroke="black"
      />
      <path
        d="M134.84 71.4399C134.807 71.3321 134.772 71.2215 134.735 71.1084C134.303 69.7951 133.561 68.1186 132.317 66.7486C131.121 65.4314 130.288 64.8951 129.688 64.7343C129.662 64.7274 129.636 64.7211 129.611 64.7155L130.457 61.5567L137.017 63.3145L134.84 71.4399Z"
        fill="black"
        stroke="black"
      />
      <path
        d="M125.654 73.457L126.026 72.0665L132.21 73.7235L131.068 77.9869C131.02 77.9067 130.969 77.8237 130.915 77.7385C130.38 76.8963 129.527 75.8207 128.253 74.8894C127.02 73.988 126.224 73.6092 125.702 73.4696C125.686 73.4652 125.67 73.461 125.654 73.457Z"
        fill="black"
        stroke="black"
      />
      <rect
        x="152.948"
        y="55.8873"
        width="6.79171"
        height="9.9084"
        transform="rotate(15 152.948 55.8873)"
        fill="white"
        stroke="black"
      />
      <path
        d="M170.865 65.2834L170.864 65.2834L170.861 65.2957C167.217 77.7175 162.102 88.4077 156.794 95.6501C154.138 99.2731 151.451 102.01 148.897 103.676C146.34 105.343 143.976 105.902 141.915 105.298C141.008 105.032 139.411 104.576 138.042 104.188C137.753 104.106 137.474 104.027 137.213 103.953C137.621 103.803 138.092 103.609 138.618 103.36C140.541 102.451 143.193 100.814 146.166 97.8942C152.112 92.0546 159.32 81.1058 164.563 60.6443C169.802 40.2009 169.215 28.2597 167.271 21.3979C166.298 17.9634 164.985 15.8024 163.893 14.4904C163.872 14.4644 163.85 14.4386 163.829 14.4133C163.839 14.417 163.85 14.4208 163.861 14.4246C165.197 14.8911 166.836 15.4807 168.066 15.9798L168.089 15.9892L168.113 15.9962C170.173 16.6007 171.896 18.3787 173.19 21.2045C174.482 24.0259 175.315 27.8276 175.626 32.3398C176.248 41.3603 174.777 53.1149 170.865 65.2834Z"
        fill="white"
        stroke="black"
      />
      <path
        d="M141.761 105.773C150.762 108.414 163.977 90.3837 171.276 65.5015C172.037 62.9076 172.704 60.3417 173.277 57.8231C173.277 57.8231 171.195 57.2059 169.218 54.8375C167.241 52.469 166.962 49.1396 166.962 49.1396C166.365 52.6316 165.098 56.4157 164.027 60.5936C153.592 101.319 135.389 103.958 135.389 103.958C135.389 103.958 139.955 105.244 141.761 105.773Z"
        fill="#00C6A2"
        stroke="black"
      />
      <path
        d="M135.388 103.957C135.388 103.957 139.962 105.246 141.771 105.776C146.245 107.089 151.759 103.302 157.073 96.1085C157.073 96.1085 155.687 95.7979 154.565 92.9942C153.442 90.1904 154.395 86.8813 154.395 86.8813C144.494 105.381 135.388 103.957 135.388 103.957Z"
        fill="black"
        stroke="black"
      />
      <path
        d="M160.806 16.3361L161.595 13.3896C166.735 14.5038 174.314 28.9047 164.007 64.3007C154.765 96.0358 140.444 105.093 135.288 103.712L136.209 100.275C139.695 101.998 151.701 95.2147 161.043 64.5591C171.571 30.0107 164.848 17.9456 160.806 16.3361Z"
        fill="white"
      />
      <path
        d="M161.595 13.39C166.735 14.5042 174.315 28.9048 164.007 64.3008C154.765 96.0359 140.444 105.094 135.288 103.712M160.74 16.582C164.782 18.1915 171.571 30.0108 161.043 64.5592C151.701 95.2149 138.958 101.801 136.209 100.275"
        stroke="black"
        stroke-linejoin="round"
      />
    </svg>