<svg
      width="60"
      height="75"
      viewBox="0 0 60 75"
      fill="none"
      xmlns="http://www.w3.org/2000/svg"
    >
      <path
        fill-rule="evenodd"
        clip-rule="evenodd"
        d="M18.9451 68.5004C28.9373 71.1779 40.8049 59.2885 45.4521 41.9449C50.0994 24.6012 45.7664 8.37099 35.7742 5.69358C25.7819 3.01617 13.9143 14.9055 9.26712 32.2491C4.6199 49.5928 8.95289 65.823 18.9451 68.5004ZM19.4994 66.433C28.3496 68.8044 39.0434 57.5928 43.3847 41.3911C47.7259 25.1895 44.0706 10.133 35.2203 7.76158C26.3701 5.39016 15.6763 16.6018 11.3351 32.8035C6.99383 49.0051 10.6491 64.0616 19.4994 66.433Z"
        fill="white"
      />
      <path
        d="M44.9692 41.8155C42.6641 50.4182 38.5736 57.6442 33.8491 62.3773C29.1137 67.1214 23.8245 69.2902 19.0745 68.0175L18.8157 68.9834C24.0579 70.3881 29.6986 67.9509 34.5569 63.0838C39.426 58.2057 43.593 50.8152 45.9351 42.0743L44.9692 41.8155ZM35.6447 6.17654C40.3947 7.4493 43.8909 11.9722 45.6199 18.4484C47.3448 24.9097 47.2743 33.2128 44.9692 41.8155L45.9351 42.0743C48.2772 33.3333 48.3638 24.8495 46.586 18.1904C44.8122 11.5462 41.1458 6.61526 35.9036 5.21062L35.6447 6.17654ZM9.75008 32.3785C12.0552 23.7759 16.1456 16.5499 20.8701 11.8167C25.6056 7.07261 30.8947 4.90378 35.6447 6.17654L35.9036 5.21062C30.6613 3.80597 25.0206 6.2431 20.1624 11.1102C15.2932 15.9883 11.1263 23.3788 8.78415 32.1197L9.75008 32.3785ZM19.0745 68.0175C14.3245 66.7447 10.8284 62.2219 9.09941 55.7457C7.37444 49.2844 7.445 40.9812 9.75008 32.3785L8.78415 32.1197C6.44202 40.8607 6.35547 49.3445 8.13324 56.0036C9.90704 62.6478 13.5735 67.5788 18.8157 68.9834L19.0745 68.0175ZM42.9017 41.2617C40.7485 49.2976 37.0253 56.0717 32.7711 60.5319C28.5022 65.0075 23.7947 67.0663 19.6288 65.9501L19.37 66.916C24.0543 68.1712 29.1189 65.8098 33.4947 61.2221C37.8853 56.6189 41.6796 49.6864 43.8676 41.5205L42.9017 41.2617ZM35.0909 8.24454C39.2568 9.36079 42.3042 13.4975 43.7634 19.508C45.2176 25.4977 45.0549 33.2259 42.9017 41.2617L43.8676 41.5205C46.0557 33.3547 46.236 25.4538 44.7352 19.2721C43.2395 13.111 40.0341 8.53378 35.3498 7.27862L35.0909 8.24454ZM11.818 32.9329C13.9712 24.897 17.6944 18.1229 21.9486 13.6627C26.2175 9.18708 30.925 7.12829 35.0909 8.24454L35.3498 7.27862C30.6654 6.02345 25.6009 8.38477 21.225 12.9725C16.8344 17.5757 13.0401 24.5082 10.8521 32.6741L11.818 32.9329ZM19.6288 65.9501C15.4629 64.8338 12.4155 60.6971 10.9563 54.6866C9.50216 48.6969 9.66483 40.9687 11.818 32.9329L10.8521 32.6741C8.66407 40.8399 8.48376 48.7408 9.98453 54.9226C11.4803 61.0836 14.6856 65.6608 19.37 66.916L19.6288 65.9501Z"
        fill="black"
      />
      <path
        d="M16.1174 34.0842C12.7584 46.6202 14.3308 65.0475 25.6956 66.0557C23.5993 66.8103 21.5025 66.9691 19.5001 66.4326C10.6499 64.0611 6.99458 49.0047 11.3358 32.803C15.677 16.6013 26.3708 5.3897 35.2211 7.76112C37.2235 8.29766 38.96 9.48358 40.3981 11.1852C29.0256 8.13796 19.4764 21.5483 16.1174 34.0842Z"
        fill="white"
        stroke="black"
      />
      <path
        d="M40.3979 11.1852C38.9598 9.48359 37.2233 8.29768 35.2209 7.76113C27.2355 5.62145 17.7492 14.5399 12.7826 28.2044C12.7826 28.2044 13.203 27.9015 14.5714 29.5147C15.9397 31.128 16.1172 34.0842 16.1172 34.0842C19.4762 21.5483 29.0254 8.13798 40.3979 11.1852Z"
        fill="#00C6A2"
        stroke="black"
      />
      <path
        d="M40.3977 11.1849C38.9596 9.48324 37.2232 8.29732 35.2207 7.76078C31.0328 6.63862 26.4321 8.55796 22.287 12.6083C22.287 12.6083 23.0074 13.4914 23.3097 15.5116C23.6119 17.5317 23.1271 19.3409 23.1271 19.3409C27.6643 13.2848 33.7164 9.39459 40.3977 11.1849Z"
        fill="black"
        stroke="black"
      />
      <path
        d="M20.7129 23.6543L23.801 31.9975L21.648 40.0323L14.9195 45.2754L20.7129 23.6543Z"
        fill="white"
        stroke="black"
      />
      <path
        d="M20.7139 23.6543L23.802 31.9975L22.5102 36.8184C20.9765 32.0233 18.5218 31.8353 18.5218 31.8353L20.7139 23.6543Z"
        fill="black"
        stroke="black"
      />
      <path
        d="M26.6543 19.4009L21.5768 18.0926L31.8371 49.3389L34.1074 40.8658C32.3896 35.395 28.6206 22.2704 28.3437 21.4716C27.7256 19.688 27.1412 19.5314 26.6543 19.4009Z"
        fill="white"
        stroke="black"
      />
      <path
        d="M30.4795 36.292C28.8047 35.5301 27.2188 33.8525 27.2188 33.8525L31.8376 49.3387L34.108 40.8655L32.7491 36.587C32.7491 36.587 32.1543 37.0539 30.4795 36.292Z"
        fill="white"
        stroke="black"
      />
      <path
        d="M30.626 36.3311C28.9512 35.5692 27.3652 33.8916 27.3652 33.8916L31.9841 49.3778L34.2545 40.9046L32.8956 36.6261C32.8956 36.6261 32.3008 37.093 30.626 36.3311Z"
        fill="black"
        stroke="black"
      />
      <path
        d="M26.7821 40.1554L23.422 39.2551L13.706 49.8042L17.0735 50.7065C18.942 51.2071 20.9317 50.5851 22.1822 49.1093L27.9193 42.339C27.9193 42.339 28.1456 40.5207 26.7821 40.1554Z"
        fill="white"
        stroke="black"
      />
      <path
        d="M26.7822 40.1554L23.4222 39.2551L20.2418 42.9436C20.2418 42.9436 21.0792 43.3246 21.9739 44.6603C22.8686 45.9961 23.1293 47.9449 23.1293 47.9449L27.9195 42.339C27.9195 42.339 28.1457 40.5207 26.7822 40.1554Z"
        fill="black"
        stroke="black"
      />
      <path
        d="M43.2264 24.3629L39.8664 23.4626L30.1504 34.0117L33.5179 34.914C35.3864 35.4147 37.376 34.7926 38.6266 33.3168L44.3637 26.5466C44.3637 26.5466 44.5899 24.7283 43.2264 24.3629Z"
        fill="black"
        stroke="black"
      />
      <path
        d="M45.1754 24.1023L40.3545 22.8105L31.7819 54.804L33.3802 55.2322C36.0475 55.9469 38.7892 54.364 39.5039 51.6967L46.3127 26.286C46.3127 26.286 46.5389 24.4677 45.1754 24.1023Z"
        fill="white"
        stroke="black"
      />
      <path
        d="M21.5771 18.0925C20.1747 17.7167 19.4944 19.048 19.3152 19.5219L11.7212 47.8631C11.6394 48.3631 11.7388 49.4336 12.7906 49.7154C13.8425 49.9973 14.4917 50.1712 15.256 49.28C17.9128 46.1818 22.8854 40.2073 23.1588 39.6542C23.4322 39.1012 22.9615 39.0272 22.6919 39.0594C21.0308 40.3888 17.5235 43.1547 16.7826 43.5825C16.0417 44.0103 16.1174 43.1433 16.2479 42.6563L20.906 25.2718L29.7187 53.1552C30.0004 53.857 30.6134 54.491 31.7821 54.8042C32.9509 55.1173 33.8379 54.7287 34.0727 53.8522L41.9016 24.6344C42.0973 23.904 41.1436 23.0222 40.2087 22.7716C39.2737 22.5211 38.5199 22.8411 38.2599 23.0323C35.5804 26.02 30.116 32.1551 29.6944 32.7937C29.2728 33.4323 29.7126 33.8946 30.0047 33.9729L37.0541 29.2855L32.2393 47.2544C32.0514 47.9556 31.6053 47.8674 31.3628 47.0195L23.4839 20.3258C23.3223 19.7605 22.9796 18.4683 21.5771 18.0925Z"
        fill="#00C6A2"
        stroke="black"
      />
      <path
        d="M51.138 43.4681C46.4908 60.8118 34.6231 72.7011 24.6309 70.0237C22.9757 69.5802 18.6862 68.4308 18.6862 68.4308C31.2058 70.8159 41.8169 55.5106 45.6943 41.0399C49.6583 26.2461 46.5002 8.56733 35.2568 5.55469C35.2568 5.55469 39.991 6.82319 41.46 7.21681C51.4522 9.89422 55.7852 26.1245 51.138 43.4681Z"
        fill="white"
        stroke="black"
      />
      <path
        d="M18.6868 68.4311L24.6315 70.024C33.7388 72.4643 44.404 62.8037 49.7403 47.9418C49.7403 47.9418 48.6344 47.6454 47.0861 45.1529C45.5378 42.6604 45.6949 41.0402 45.6949 41.0402C41.8175 55.5109 31.2064 70.8162 18.6868 68.4311Z"
        fill="#00C6A2"
        stroke="black"
      />
      <path
        d="M18.6867 68.4311L24.6314 70.024C30.1321 71.4979 36.2011 68.5574 41.3211 62.7227C41.3211 62.7227 40.0597 61.5536 39.3721 59.9843C38.6845 58.4149 38.9364 56.4048 38.9364 56.4048C33.7653 64.3673 26.6081 69.9401 18.6867 68.4311Z"
        fill="black"
        stroke="black"
      />
      <path
        d="M19.4994 66.4332C28.3497 68.8046 39.0435 57.593 43.3847 41.3913C47.7259 25.1896 44.0706 10.1332 35.2204 7.76174L35.7744 5.69403C42.8915 7.04698 51.2006 20.4927 45.4524 41.9453C39.8428 62.8807 26.3369 70.897 18.9454 68.5009L19.4994 66.4332Z"
        fill="white"
      />
      <path
        d="M18.9463 68.5012C28.9386 71.1786 40.8062 59.2893 45.4534 41.9456C50.1006 24.602 45.7676 8.37174 35.7754 5.69434"
        stroke="black"
      />
      <path
        d="M19.4997 66.4332C28.35 68.8046 39.0438 57.5929 43.385 41.3913C47.7262 25.1896 44.071 10.1331 35.2207 7.76172"
        stroke="black"
      />
    </svg>