<svg
      
      width="20"
      height="20"
      viewBox="0 0 32 32"
      fill="none"
      xmlns="http://www.w3.org/2000/svg"
    >
      <circle cx="16" cy="16" r="16" fill="#8EA5B7" />
      <path
        fill-rule="evenodd"
        clip-rule="evenodd"
        d="M10.0604 19.6673C9.47465 20.2531 9.47465 21.2028 10.0604 21.7886C10.6462 22.3744 11.596 22.3744 12.1818 21.7886L16.4246 17.5458L20.6674 21.7886C21.2532 22.3744 22.2029 22.3744 22.7887 21.7886C23.3745 21.2028 23.3745 20.2531 22.7887 19.6673L18.5459 15.4245L22.7884 11.182C23.3741 10.5962 23.3741 9.64646 22.7884 9.06068C22.2026 8.47489 21.2528 8.47489 20.667 9.06068L16.4246 13.3031L12.1821 9.06068C11.5963 8.47489 10.6466 8.47489 10.0608 9.06068C9.47501 9.64646 9.47501 10.5962 10.0608 11.182L14.3033 15.4245L10.0604 19.6673Z"
        fill="#172128"
      />
    </svg>