<svg
      
      width="8"
      height="8"
      viewBox="0 0 8 8"
      fill="none"
      xmlns="http://www.w3.org/2000/svg"
    >
      <path
        d="M7.55556 3.55556C7.43768 3.55556 7.32464 3.60238 7.24129 3.68573C7.15794 3.76908 7.11111 3.88213 7.11111 4V6.66667C7.11111 6.78454 7.06429 6.89759 6.98094 6.98094C6.89759 7.06429 6.78454 7.11111 6.66667 7.11111H1.33333C1.21546 7.11111 1.10241 7.06429 1.01906 6.98094C0.935714 6.89759 0.888889 6.78454 0.888889 6.66667V1.33333C0.888889 1.21546 0.935714 1.10241 1.01906 1.01906C1.10241 0.935714 1.21546 0.888889 1.33333 0.888889H4C4.11786 0.888871 4.23089 0.842038 4.31423 0.75869C4.39756 0.675343 4.44438 0.562307 4.44438 0.444445C4.44438 0.326582 4.39756 0.213546 4.31423 0.130199C4.23089 0.0468512 4.11786 1.80439e-05 4 0H1.33333C0.979711 0 0.640573 0.140476 0.390524 0.390524C0.140476 0.640573 0 0.979711 0 1.33333V6.66667C0 7.02029 0.140476 7.35943 0.390524 7.60948C0.640573 7.85952 0.979711 8 1.33333 8H6.66667C7.02029 8 7.35943 7.85952 7.60948 7.60948C7.85952 7.35943 8 7.02029 8 6.66667V4C8 3.88213 7.95318 3.76908 7.86983 3.68573C7.78648 3.60238 7.67343 3.55556 7.55556 3.55556Z"
        fill="currentColor"
      />
      <path
        d="M5.77753 0.888889H6.47976L3.6842 3.68C3.64254 3.72132 3.60948 3.77047 3.58692 3.82463C3.56435 3.87879 3.55273 3.93688 3.55273 3.99556C3.55273 4.05423 3.56435 4.11232 3.58692 4.16648C3.60948 4.22064 3.64254 4.26979 3.6842 4.31111C3.72552 4.35277 3.77467 4.38583 3.82883 4.4084C3.88299 4.43096 3.94108 4.44258 3.99976 4.44258C4.05843 4.44258 4.11652 4.43096 4.17068 4.4084C4.22484 4.38583 4.27399 4.35277 4.31531 4.31111L7.11087 1.52V2.22222C7.11087 2.3401 7.15769 2.45314 7.24104 2.53649C7.32439 2.61984 7.43744 2.66667 7.55531 2.66667C7.67319 2.66667 7.78623 2.61984 7.86958 2.53649C7.95293 2.45314 7.99976 2.3401 7.99976 2.22222V0.444445C7.99976 0.326571 7.95293 0.213524 7.86958 0.130175C7.78623 0.0468253 7.67319 0 7.55531 0H5.77753C5.65967 1.80439e-05 5.54664 0.0468512 5.46331 0.130199C5.37997 0.213546 5.33316 0.326582 5.33316 0.444445C5.33316 0.562307 5.37997 0.675343 5.46331 0.75869C5.54664 0.842038 5.65967 0.888871 5.77753 0.888889Z"
        fill="currentColor"
      />
    </svg>