<svg
      
      width="22"
      height="22"
      viewBox="0 0 22 22"
      fill="none"
      xmlns="http://www.w3.org/2000/svg"
    >
      <path d="M14 21.9999H22.0001L14 13.9999V21.9999Z" fill="white" />
      <path
        d="M22.0007 -7.67708e-05L17.334 -7.71788e-05L22.0007 4.66663L22.0007 -7.67708e-05Z"
        fill="#00C6A2"
      />
      <path
        fill-rule="evenodd"
        clip-rule="evenodd"
        d="M14.331 14.0009C14.2189 14.0009 14.1075 13.998 13.9968 13.9922V8.98473L19.4429 3.92767C20.2109 4.97568 20.6644 6.26863 20.6644 7.66749C20.6644 11.1653 17.8289 14.0009 14.331 14.0009ZM18.0205 2.51913L13.9968 6.25543V1.34277C14.1075 1.33702 14.2189 1.33411 14.331 1.33411C15.7076 1.33411 16.9816 1.77327 18.0205 2.51913Z"
        fill="white"
      />
      <path
        fill-rule="evenodd"
        clip-rule="evenodd"
        d="M13.3318 1.33295H7.33179V7.25278L10.0238 9.94478L13.3318 6.87302V1.33295ZM13.3318 9.60233L9.97238 12.7218L7.33179 10.0812V21.9998H13.3318V9.60233Z"
        fill="white"
      />
      <path
        fill-rule="evenodd"
        clip-rule="evenodd"
        d="M6.66648 1.33295H-0.000244141V9.91846L4.99918 4.91904L6.66648 6.58634V1.33295ZM6.66648 9.41479L4.99918 7.74749L-0.000244141 12.7469V21.9998H6.66648V9.41479Z"
        fill="white"
      />
    </svg>