<svg
      width="32"
      height="32"
      viewBox="0 0 32 32"
      fill="none"
      xmlns="http://www.w3.org/2000/svg"
    >
      <rect width="32" height="32" rx="8" fill="black" fill-opacity="0.2" />
      <path
        d="M19.0183 25.2045H26.0001L19.0183 18.2227V25.2045Z"
        fill="white"
      />
      <path d="M25.9998 6L21.927 6L25.9998 10.0727L25.9998 6Z" fill="#00C6A2" />
      <path
        fill-rule="evenodd"
        clip-rule="evenodd"
        d="M19.3084 18.2211C19.2104 18.2211 19.1129 18.2185 19.0161 18.2135V13.843L23.7692 9.4294C24.4397 10.3441 24.8357 11.4727 24.8357 12.6938C24.8357 15.7464 22.361 18.2211 19.3084 18.2211ZM22.5277 8.20029L19.0161 11.4611V7.1741C19.1129 7.16906 19.2104 7.1665 19.3084 7.1665C20.5095 7.1665 21.6211 7.54961 22.5277 8.20029Z"
        fill="white"
      />
      <path
        fill-rule="evenodd"
        clip-rule="evenodd"
        d="M18.4353 7.16963H13.199V12.3363L15.5487 14.686L18.4353 12.0055V7.16963ZM18.4353 14.3874L15.5038 17.1096L13.199 14.8048V25.206H18.4353V14.3874Z"
        fill="white"
      />
      <path
        fill-rule="evenodd"
        clip-rule="evenodd"
        d="M12.6182 7.16963H6.80005V14.6633L11.1634 10.2999L12.6182 11.7548V7.16963ZM12.6182 14.2232L11.1634 12.7684L6.80005 17.1318V25.206H12.6182V14.2232Z"
        fill="white"
      />
    </svg>