<svg
      width="28"
      height="28"
      viewBox="0 0 28 28"
      fill="none"
      xmlns="http://www.w3.org/2000/svg"
    >
      <rect
        x="0.5"
        y="0.5"
        width="26.9459"
        height="26.9459"
        rx="8.5"
        fill="black"
        stroke="#00C6A2"
      />
      <path
        d="M16.4204 21.4363H22.0814L16.4204 15.7754V21.4363Z"
        fill="white"
      />
      <path
        d="M22.0808 5.86575L18.7786 5.86575L22.0808 9.16797L22.0808 5.86575Z"
        fill="#00C6A2"
      />
      <path
        fill-rule="evenodd"
        clip-rule="evenodd"
        d="M16.6554 15.7747C16.5759 15.7747 16.4968 15.7726 16.4182 15.7685V12.225L20.2723 8.64625C20.816 9.38792 21.137 10.303 21.137 11.2931C21.137 13.7682 19.1306 15.7747 16.6554 15.7747ZM19.2656 7.64968L16.4182 10.2937V6.81769C16.4968 6.8136 16.5759 6.81152 16.6554 6.81152C17.6293 6.81152 18.5306 7.12213 19.2656 7.64968Z"
        fill="white"
      />
      <path
        fill-rule="evenodd"
        clip-rule="evenodd"
        d="M15.9476 6.81348H11.7019V11.0026L13.6071 12.9078L15.9476 10.7344V6.81348ZM15.9476 12.6657L13.5707 14.8729L11.7019 13.0041V21.4376H15.9476V12.6657Z"
        fill="white"
      />
      <path
        fill-rule="evenodd"
        clip-rule="evenodd"
        d="M11.2311 6.81348H6.51367V12.8897L10.0518 9.35151L11.2311 10.5308V6.81348ZM11.2311 12.5322L10.0518 11.353L6.51367 14.8911V21.4376H11.2311V12.5322Z"
        fill="white"
      />
    </svg>