<svg
      
      width="14"
      height="14"
      viewBox="0 0 14 14"
      fill="none"
      xmlns="http://www.w3.org/2000/svg"
    >
      <path
        d="M8.90894 13.9999H13.9999L8.90894 8.90894V13.9999Z"
        fill="currentColor"
      />
      <path
        d="M14.0005 4.76837e-06L11.0308 4.50875e-06L14.0005 2.96973L14.0005 4.76837e-06Z"
        fill="currentColor"
      />
      <path
        fill-rule="evenodd"
        clip-rule="evenodd"
        d="M9.11969 8.90956C9.04834 8.90956 8.97742 8.9077 8.90698 8.90404V5.71764L12.3728 2.49942C12.8615 3.16632 13.15 3.98907 13.15 4.87922C13.15 7.10511 11.3456 8.90956 9.11969 8.90956ZM11.4676 1.60305L8.90698 3.98081V0.854394C8.97742 0.850731 9.04834 0.848877 9.11969 0.848877C9.99572 0.848877 10.8065 1.12837 11.4676 1.60305Z"
        fill="currentColor"
      />
      <path
        fill-rule="evenodd"
        clip-rule="evenodd"
        d="M8.48399 0.848145H4.66577V4.6153L6.37888 6.3284L8.48399 4.37366V0.848145ZM8.48399 6.11049L6.34616 8.09561L4.66577 6.41522V13.9998H8.48399V6.11049Z"
        fill="currentColor"
      />
      <path
        fill-rule="evenodd"
        clip-rule="evenodd"
        d="M4.24222 0.848145H-0.000244141V6.31165L3.1812 3.1302L4.24222 4.19122V0.848145ZM4.24222 5.99114L3.1812 4.93012L-0.000244141 8.11157V13.9998H4.24222V5.99114Z"
        fill="currentColor"
      />
    </svg>