<svg
      width="18"
      height="20"
      viewBox="0 0 18 20"
      fill="none"
      xmlns="http://www.w3.org/2000/svg"
    >
      <path
        d="M8.98 0C13.324 1.385 17.42 2.078 17.462 2.035C17.752 2.078 18 2.425 18 2.727V10.477C18 10.563 17.917 12.251 16.8 14.242C16.18 15.412 14.855 16.45 13.82 17.359C12.538 18.485 11.007 19.351 9.186 19.957L9.021 20L8.855 19.957C7.035 19.351 5.462 18.485 4.179 17.359C3.145 16.45 1.821 15.411 1.2 14.242C0.124 12.294 0 10.606 0 10.52V2.771C0 2.424 0.248 2.121 0.538 2.078C0.538 2.078 5.255 1.385 8.979 0H8.98ZM8.533 4.935C8.043 4.935 7.508 5.295 7.374 5.792L5.993 9.94C5.859 10.437 6.127 10.797 6.617 10.797H8.177L7.285 14.54C7.151 15.036 7.33 15.081 7.642 14.72L11.83 9.76C12.454 9.039 12.186 8.407 11.206 8.407H9.29L10.404 5.747C10.582 5.296 10.36 4.935 9.869 4.935H8.533Z"
        fill="currentColor"
      />
    </svg>