<svg
      
      width="48"
      height="14"
      viewBox="0 0 48 14"
      fill="none"
      xmlns="http://www.w3.org/2000/svg"
    >
      <path
        d="M2 14C1.4375 14 0.963542 13.8073 0.578125 13.4219C0.192708 13.0365 0 12.5625 0 12V10H2V12H6V8H2C1.4375 8 0.963542 7.80729 0.578125 7.42188C0.192708 7.03646 0 6.5625 0 6V2C0 1.44792 0.192708 0.979167 0.578125 0.59375C0.963542 0.197917 1.4375 0 2 0H6C6.55208 0 7.02083 0.197917 7.40625 0.59375C7.80208 0.979167 8 1.44792 8 2V4H6V2H2V6H6C6.55208 6 7.02083 6.19792 7.40625 6.59375C7.80208 6.97917 8 7.44792 8 8V12C8 12.5625 7.80208 13.0365 7.40625 13.4219C7.02083 13.8073 6.55208 14 6 14H2ZM16 6V2H12V6H16ZM10 14V2C10 1.44792 10.1927 0.979167 10.5781 0.59375C10.9635 0.197917 11.4375 0 12 0H16C16.5521 0 17.0208 0.197917 17.4062 0.59375C17.8021 0.979167 18 1.44792 18 2V14H16V8H12V14H10ZM22 14C21.4375 14 20.9635 13.8073 20.5781 13.4219C20.1927 13.0365 20 12.5625 20 12V0H22V12H26V0H28V12C28 12.5625 27.8021 13.0365 27.4062 13.4219C27.0208 13.8073 26.5521 14 26 14H22ZM32 14C31.4375 14 30.9635 13.8073 30.5781 13.4219C30.1927 13.0365 30 12.5625 30 12V2C30 1.44792 30.1927 0.979167 30.5781 0.59375C30.9635 0.197917 31.4375 0 32 0H38V2H32V12H38V14H32ZM40 14V0H48V2H42V6H46V8H42V12H48V14H40Z"
        fill="currentColor"
      />
    </svg>