<svg
      
      width="24"
      height="18"
      viewBox="0 0 24 18"
      fill="none"
      xmlns="http://www.w3.org/2000/svg"
    >
      <ellipse
        cx="12"
        cy="9.34483"
        rx="11"
        ry="8.34483"
        fill="#011320"
        stroke="currentColor"
        stroke-width="0.6"
      />
      <path
        fill-rule="evenodd"
        clip-rule="evenodd"
        d="M10.9049 9.71212C10.5818 8.98137 10.4587 7.67904 10.3375 6.39716V6.39716C10.1799 4.72996 10.0256 3.09735 9.4388 2.80176C9.21635 2.68971 8.95112 2.81796 8.75391 2.97012C8.34327 3.28695 7.69351 4.07485 7.77826 5.85987C7.82487 6.84242 7.88996 7.75983 7.94934 8.59678C8.08553 10.5162 8.19169 12.0125 7.97597 12.9006C7.88297 13.2835 7.73752 13.6207 7.60868 13.9195C7.3083 14.616 7.09814 15.1033 7.85318 15.4714C9.21399 16.1346 9.86285 15.0632 9.35593 12.9283C8.849 10.7934 9.32776 10.2112 9.60939 10.7103C9.69753 10.8664 9.76307 11.4832 9.84477 12.252C10.0241 13.9397 10.2813 16.3599 11.0262 16.2477C11.8711 16.1207 12.1158 12.4509 10.9049 9.71212ZM9.63783 9.02839C9.55334 9.44428 8.85914 10.008 8.78873 8.75113C8.70791 7.30938 9.01741 4.84039 9.11485 4.91885C9.42464 5.16811 9.72232 8.6125 9.63783 9.02839ZM6.27829 7.97133C7.24692 8.26012 7.39787 6.68044 7.06151 5.72727C6.82273 5.05064 6.38987 4.4214 5.60926 4.5315C4.52689 4.68423 3.63636 5.39268 3.72564 7.35214C3.79078 8.77947 4.49874 9.87753 5.11614 10.8351C5.66359 11.6842 6.13984 12.4229 6.03362 13.1828C5.80759 14.7996 4.97894 13.7331 4.94108 13.1828C4.9035 12.6325 4.56136 10.1558 3.26315 10.3276C1.96493 10.4994 3.41684 13.5104 4.77156 14.5071C6.46673 15.754 8.22264 13.795 6.88996 10.4481C6.55414 9.60476 6.17841 9.18063 5.80949 8.76419L5.80949 8.76419L5.80949 8.76419L5.80949 8.76419C5.55765 8.47992 5.309 8.19923 5.07839 7.79125C4.20905 6.25335 6.36135 5.03717 6.19296 6.37177C6.17788 6.49113 6.11005 6.6424 6.03711 6.80509C5.83951 7.24579 5.60434 7.77027 6.27829 7.97133ZM12.6113 3.61727C12.7743 2.33312 10.6632 2.67782 10.6007 3.97076C10.5662 4.68455 10.8083 5.52826 11.1022 6.55255L11.1022 6.55256C11.451 7.76835 11.8729 9.23855 11.9918 11.0478C12.3016 15.7612 12.9341 16.5007 14.1414 15.9739C15.3315 15.4546 14.8925 9.66154 14.7235 7.83162C14.6161 6.66849 14.9069 5.89742 15.1331 5.29768C15.2628 4.95388 15.3713 4.66638 15.3713 4.3936C15.3713 3.645 15.2023 2.92413 14.2166 3.34002C13.4038 3.68294 13.5676 5.43969 13.7922 7.84862C13.84 8.36116 13.8905 8.90321 13.935 9.46745C14.1884 12.6837 13.9913 13.3214 13.1464 12.2678C12.3016 11.2142 12.4705 4.72631 12.6113 3.61727ZM16.5558 9.31576C16.675 10.8439 17.9177 9.06707 18.0725 7.54215C18.1951 6.33499 18.2422 5.00883 17.9384 4.54411C17.3324 3.61676 16.2258 3.42612 15.7515 5.25085C15.2772 7.07557 15.1718 12.3591 15.4616 14.1294C15.7515 15.8996 16.7527 15.6989 17.5432 14.5278C18.3336 13.3567 18.5708 11.3514 17.4378 11.1335C16.3048 10.9157 16.4102 11.7872 16.5683 12.3591C16.7264 12.931 16.5986 14.0392 16.2034 13.0315C15.8081 12.0238 15.8195 6.3947 16.734 6.58535C17.3673 6.71736 17.1934 7.09972 16.9406 7.65548L16.9406 7.65548C16.8284 7.9023 16.7006 8.18331 16.621 8.49178C16.5525 8.75735 16.5347 9.04467 16.5558 9.31576ZM21.0579 6.42805C20.9571 5.85184 20.4691 4.91376 19.6029 5.04087C18.5354 5.19743 18.4907 8.39521 18.4547 10.9604C18.4436 11.7537 18.4334 12.4865 18.394 13.0501C18.2272 15.4362 20.2388 14.5236 20.6417 13.2024C21.0445 11.8812 20.1614 11.0236 19.5816 12.4527C19.2214 13.3402 19.2141 10.6061 19.4337 10.2913C19.5181 10.1704 19.6734 10.3482 19.8602 10.5621C20.1594 10.9048 20.5394 11.34 20.8386 10.7884C21.2431 10.0429 21.5714 9.18985 21.1188 8.79958C20.9022 8.61282 20.537 8.79526 20.1952 8.96602C19.8227 9.15211 19.4779 9.32433 19.3835 8.98976C19.2026 8.34819 20.0465 7.75628 20.6061 7.8877C21.1305 8.01073 21.1588 7.00426 21.0579 6.42805Z"
        fill="currentColor"
      />
    </svg>