<svg
      
      width="19"
      height="19"
      viewBox="0 0 19 19"
      fill="none"
      xmlns="http://www.w3.org/2000/svg"
    >
      <g>
        <path
          fill-rule="evenodd"
          clip-rule="evenodd"
          d="M4.65777 10.8721C3.07154 9.2859 3.07154 6.7141 4.65777 5.12787C6.24401 3.54163 8.8158 3.54163 10.402 5.12787C11.9864 6.71227 11.9883 9.27997 10.4075 10.8666C10.4057 10.8685 10.4038 10.8703 10.402 10.8721C10.4002 10.8739 10.3985 10.8756 10.3968 10.8773C8.81016 12.4584 6.24227 12.4566 4.65777 10.8721ZM10.8222 12.1852C8.73254 13.8333 5.69323 13.6932 3.76495 11.765C1.68563 9.68563 1.68563 6.31437 3.76495 4.23505C5.84428 2.15572 9.21553 2.15572 11.2949 4.23505C13.2231 6.16333 13.3632 9.20268 11.7151 11.2924L14.6133 14.1907C14.8599 14.4372 14.8599 14.8369 14.6133 15.0835C14.3668 15.33 13.9671 15.33 13.7205 15.0835L10.8222 12.1852Z"
          fill="currentColor"
        />
      </g>
    </svg>