<svg
      
      width="16"
      height="16"
      viewBox="0 0 16 16"
      fill="none"
      xmlns="http://www.w3.org/2000/svg"
    >
      <circle cx="8" cy="8" r="8" fill="#91A2AE" />
      <path
        fill-rule="evenodd"
        clip-rule="evenodd"
        d="M11.7766 5.30247C12.0746 5.00452 12.0746 4.52143 11.7766 4.22347C11.4786 3.92551 10.9956 3.92551 10.6976 4.22347L8.00001 6.92106L5.30247 4.22352C5.00452 3.92556 4.52143 3.92556 4.22347 4.22352C3.92551 4.52148 3.92551 5.00456 4.22347 5.30252L6.92101 8.00006L4.22357 10.6975C3.92561 10.9955 3.92561 11.4785 4.22357 11.7765C4.52153 12.0745 5.00462 12.0745 5.30258 11.7765L8.00001 9.07907L10.6975 11.7766C10.9955 12.0745 11.4785 12.0745 11.7765 11.7766C12.0745 11.4786 12.0745 10.9955 11.7765 10.6975L9.07902 8.00006L11.7766 5.30247Z"
        fill="black"
      />
    </svg>