<svg
      
      width="21"
      height="19"
      viewBox="0 0 21 19"
      fill="none"
      xmlns="http://www.w3.org/2000/svg"
    >
      <path
        d="M20.2088 7.49638C20.0899 6.86833 19.7047 6.4622 19.2113 6.4622H19.1258C17.7926 6.4622 16.7082 5.37785 16.7082 4.04428C16.7082 3.623 16.9104 3.14264 16.9182 3.12354C17.1641 2.57005 16.9754 1.89178 16.4778 1.54365L13.9761 0.150736L13.9393 0.132739C13.4389 -0.0842961 12.7539 0.0546192 12.3807 0.443398C12.1106 0.721927 11.1796 1.51611 10.4692 1.51611C9.74958 1.51611 8.8165 0.705998 8.54508 0.422185C8.17255 0.0305651 7.49463 -0.116451 6.98849 0.10021L4.39776 1.51965L4.35887 1.5444C3.86122 1.89113 3.67177 2.56938 3.91638 3.12075C3.92483 3.14092 4.12773 3.61736 4.12773 4.0443C4.12773 5.37787 3.04335 6.46222 1.71018 6.46222H1.60911C1.13124 6.46222 0.745976 6.86833 0.627227 7.4964C0.618378 7.54059 0.417969 8.60341 0.417969 9.45557C0.417969 10.3066 0.618378 11.3691 0.627227 11.4129C0.745976 12.0414 1.13124 12.4478 1.62464 12.4478H1.71018C3.04335 12.4478 4.12773 13.5322 4.12773 14.8654C4.12773 15.2895 3.92485 15.7681 3.91708 15.7865C3.6718 16.341 3.85984 17.0182 4.35606 17.3646L6.81037 18.7416L6.84783 18.7586C7.35539 18.982 8.04176 18.8364 8.41289 18.4306C8.75571 18.0602 9.68459 17.2911 10.3667 17.2911C11.1061 17.2911 12.0583 18.1521 12.3326 18.4546C12.5856 18.7317 12.9744 18.8986 13.3724 18.8986C13.5583 18.8986 13.7343 18.8618 13.8955 18.7925L16.4403 17.3901L16.4778 17.366C16.9754 17.0182 17.1649 16.341 16.9196 15.7893C16.9111 15.7688 16.7082 15.2923 16.7082 14.8654C16.7082 13.5323 17.7926 12.4479 19.1258 12.4479H19.2255C19.704 12.4479 20.09 12.0414 20.2088 11.413C20.2172 11.3691 20.418 10.3067 20.418 9.4556C20.418 8.60339 20.2172 7.54057 20.2088 7.49638ZM18.9675 9.45555C18.9675 10.0062 18.8579 10.7138 18.8077 11.0093C16.8079 11.1733 15.2577 12.8444 15.2577 14.8654C15.2577 15.4358 15.4387 15.9823 15.5348 16.2336L13.3639 17.4325C13.2572 17.3208 12.9419 17.0026 12.5129 16.6831C11.7593 16.1247 11.0368 15.8394 10.3667 15.8394C9.70222 15.8394 8.98546 16.1176 8.23544 16.669C7.80848 16.98 7.49747 17.2896 7.38859 17.4041L5.30045 16.235C5.40225 15.9709 5.57828 15.4316 5.57828 14.8654C5.57828 12.8444 4.02807 11.1733 2.02899 11.0093C1.97809 10.7138 1.86852 10.0062 1.86852 9.45555C1.86852 8.9038 1.97809 8.19586 2.02899 7.90038C4.02807 7.73674 5.57828 6.0653 5.57828 4.0443C5.57828 3.47703 5.39731 2.92884 5.30117 2.67788L7.52576 1.45531C7.6226 1.55218 7.93999 1.86284 8.37401 2.17175C9.11343 2.69945 9.81753 2.96666 10.4693 2.96666C11.1146 2.96666 11.8137 2.70441 12.5482 2.18696C12.9858 1.87946 13.3025 1.57304 13.3943 1.48645L15.5355 2.67576C15.4387 2.9253 15.2577 3.47172 15.2577 4.0443C15.2577 6.0653 16.8079 7.73674 18.8077 7.90038C18.8579 8.19654 18.9675 8.90734 18.9675 9.45555Z"
        fill="currentColor"
      />
      <path
        d="M10.3742 5.88397C8.41255 5.88397 6.81641 7.48014 6.81641 9.44176C6.81641 11.4037 8.41257 12.9992 10.3742 12.9992C12.3358 12.9992 13.9319 11.4037 13.9319 9.44176C13.9319 7.48014 12.3358 5.88397 10.3742 5.88397ZM12.4814 9.44176C12.4814 10.6035 11.5363 11.5486 10.3742 11.5486C9.21204 11.5486 8.26763 10.6035 8.26763 9.44176C8.26763 8.28068 9.21204 7.33522 10.3742 7.33522C11.5363 7.33524 12.4814 8.28068 12.4814 9.44176Z"
        fill="currentColor"
      />
    </svg>