<svg
      
      width="703"
      height="247"
      viewBox="0 0 703 247"
      fill="none"
      xmlns="http://www.w3.org/2000/svg"
    >
      <path
        d="M78.2293 12.2227C77.8343 12.6437 77.1657 12.6437 76.7707 12.2227L73.4509 8.68421C72.8518 8.04564 73.3046 7 74.1802 7H80.8198C81.6954 7 82.1482 8.04564 81.549 8.68421L78.2293 12.2227Z"
        fill="white"
      />
      <path
        d="M30 15V5.72H26.688V4.312H34.896V5.72H31.6V15H30ZM35.2 15V7.48H36.656V8.792C36.848 8.32267 37.1253 7.97067 37.488 7.736C37.8613 7.50133 38.2773 7.384 38.736 7.384C38.8853 7.384 39.0187 7.39467 39.136 7.416C39.264 7.42667 39.3653 7.448 39.44 7.48V8.904C39.2907 8.872 39.1413 8.85067 38.992 8.84C38.8533 8.81867 38.7147 8.808 38.576 8.808C38.0427 8.808 37.5947 9.032 37.232 9.48C36.88 9.91733 36.704 10.5467 36.704 11.368V15H35.2ZM42.9121 15.16C42.3575 15.16 41.8668 15.0747 41.4401 14.904C41.0241 14.7227 40.6988 14.4667 40.4641 14.136C40.2295 13.7947 40.1121 13.384 40.1121 12.904C40.1121 12.424 40.2295 12.0293 40.4641 11.72C40.6988 11.4 41.0295 11.1493 41.4561 10.968C41.8828 10.776 42.3681 10.648 42.9121 10.584L45.5681 10.264C45.5041 9.69867 45.2908 9.28267 44.9281 9.016C44.5655 8.74933 44.1175 8.616 43.5841 8.616C43.2215 8.616 42.8428 8.69067 42.4481 8.84C42.0641 8.97867 41.6535 9.20267 41.2161 9.512L40.6561 8.376C41.0721 8.04533 41.5308 7.78933 42.0321 7.608C42.5441 7.416 43.0721 7.32 43.6161 7.32C44.7575 7.32 45.6215 7.58133 46.2081 8.104C46.8055 8.616 47.1041 9.38933 47.1041 10.424V15H45.6481V13.912C45.3708 14.328 44.9975 14.6427 44.5281 14.856C44.0695 15.0587 43.5308 15.16 42.9121 15.16ZM43.2641 13.88C43.7655 13.88 44.1868 13.784 44.5281 13.592C44.8801 13.3893 45.1415 13.1227 45.3121 12.792C45.4935 12.4613 45.5841 12.1147 45.5841 11.752V11.416L43.3441 11.704C42.7895 11.7787 42.3681 11.9013 42.0801 12.072C41.7921 12.232 41.6481 12.4933 41.6481 12.856C41.6481 13.1867 41.7921 13.4427 42.0801 13.624C42.3681 13.7947 42.7628 13.88 43.2641 13.88ZM52.6653 15.16C51.9826 15.16 51.3693 15 50.8253 14.68C50.2813 14.36 49.8493 13.9067 49.5293 13.32C49.2199 12.7333 49.0653 12.04 49.0653 11.24C49.0653 10.4293 49.2199 9.73067 49.5293 9.144C49.8493 8.55733 50.2813 8.10933 50.8253 7.8C51.3693 7.48 51.9826 7.32 52.6653 7.32C53.2626 7.32 53.7853 7.43733 54.2333 7.672C54.6813 7.896 55.0279 8.19467 55.2733 8.568V4.312H56.7933V15H55.3373V13.8C55.1026 14.2053 54.7559 14.536 54.2973 14.792C53.8386 15.0373 53.2946 15.16 52.6653 15.16ZM52.9852 13.832C53.4439 13.832 53.8493 13.7307 54.2013 13.528C54.5533 13.3147 54.8306 13.016 55.0333 12.632C55.2359 12.2373 55.3373 11.7733 55.3373 11.24C55.3373 10.7067 55.2359 10.248 55.0333 9.864C54.8306 9.46933 54.5533 9.16533 54.2013 8.952C53.8493 8.73867 53.4439 8.632 52.9852 8.632C52.5266 8.632 52.1159 8.73867 51.7533 8.952C51.4013 9.16533 51.1239 9.46933 50.9213 9.864C50.7186 10.248 50.6173 10.7067 50.6173 11.24C50.6173 11.7733 50.7186 12.2373 50.9213 12.632C51.1239 13.016 51.4013 13.3147 51.7533 13.528C52.1053 13.7307 52.5159 13.832 52.9852 13.832ZM62.7684 15.16C62.011 15.16 61.3284 15.0107 60.7204 14.712C60.123 14.4027 59.6484 13.96 59.2964 13.384C58.9444 12.7973 58.7684 12.0827 58.7684 11.24C58.7684 10.44 58.9337 9.74667 59.2644 9.16C59.6057 8.57333 60.059 8.12 60.6244 7.8C61.2004 7.48 61.8404 7.32 62.5444 7.32C63.291 7.32 63.931 7.464 64.4644 7.752C65.0084 8.02933 65.4297 8.41333 65.7284 8.904C66.027 9.39467 66.1764 9.94933 66.1764 10.568C66.1764 10.7493 66.1497 10.9467 66.0964 11.16C66.0537 11.3733 65.9897 11.544 65.9044 11.672H60.3044C60.3577 12.1413 60.4964 12.5413 60.7204 12.872C60.9444 13.2027 61.243 13.4533 61.6164 13.624C61.9897 13.784 62.4217 13.864 62.9124 13.864C63.403 13.864 63.835 13.7893 64.2084 13.64C64.5924 13.4907 64.9604 13.2773 65.3124 13L65.8564 14.12C65.4404 14.4613 64.971 14.7227 64.4484 14.904C63.9364 15.0747 63.3764 15.16 62.7684 15.16ZM60.3044 10.504H64.6084C64.619 10.4827 64.6244 10.4613 64.6244 10.44C64.6244 10.408 64.6244 10.376 64.6244 10.344C64.6244 9.992 64.5497 9.688 64.4004 9.432C64.251 9.16533 64.027 8.95733 63.7284 8.808C63.4297 8.65867 63.051 8.584 62.5924 8.584C62.2297 8.584 61.8884 8.664 61.5684 8.824C61.259 8.97333 60.9924 9.192 60.7684 9.48C60.555 9.75733 60.4004 10.0987 60.3044 10.504Z"
        fill="white"
      />
      <rect
        x="1"
        y="31"
        width="343"
        height="209"
        rx="16"
        fill="#172128"
        stroke="#304352"
      />
      <rect
        x="11"
        y="137"
        width="321"
        height="92"
        rx="10"
        fill="#7E8A93"
        fill-opacity="0.15"
      />
      <rect
        opacity="0.5"
        x="25"
        y="179"
        width="136"
        height="42"
        rx="6"
        fill="#4F6574"
      />
      <rect
        opacity="0.5"
        x="171"
        y="179"
        width="147"
        height="42"
        rx="6"
        fill="#7E9BAF"
      />
      <path
        d="M54.56 57.6C54.56 57.8667 54.6027 58.1067 54.688 58.32C54.7733 58.5333 54.928 58.7307 55.152 58.912C55.376 59.0827 55.6853 59.2427 56.08 59.392C56.4747 59.5307 56.9813 59.664 57.6 59.792C58.848 60.0693 59.7653 60.4533 60.352 60.944C60.9493 61.4347 61.248 62.112 61.248 62.976C61.248 63.456 61.152 63.8933 60.96 64.288C60.768 64.6827 60.5013 65.0187 60.16 65.296C59.8293 65.5733 59.4293 65.7867 58.96 65.936C58.4907 66.0853 57.9787 66.16 57.424 66.16C56.528 66.16 55.7067 66.016 54.96 65.728C54.224 65.4293 53.52 64.976 52.848 64.368L53.632 63.44C54.2187 63.9733 54.8107 64.3733 55.408 64.64C56.0053 64.896 56.6933 65.024 57.472 65.024C58.2293 65.024 58.832 64.848 59.28 64.496C59.7387 64.144 59.968 63.68 59.968 63.104C59.968 62.8373 59.9253 62.6027 59.84 62.4C59.7547 62.1867 59.6053 61.9947 59.392 61.824C59.1787 61.6533 58.88 61.4987 58.496 61.36C58.1227 61.2213 57.6427 61.088 57.056 60.96C56.416 60.8213 55.856 60.6613 55.376 60.48C54.9067 60.2987 54.5173 60.08 54.208 59.824C53.8987 59.568 53.6693 59.2693 53.52 58.928C53.3707 58.5867 53.296 58.1813 53.296 57.712C53.296 57.264 53.3867 56.8533 53.568 56.48C53.7493 56.1067 54.0053 55.7867 54.336 55.52C54.6667 55.2427 55.056 55.0293 55.504 54.88C55.952 54.72 56.4427 54.64 56.976 54.64C57.7973 54.64 58.512 54.7573 59.12 54.992C59.7387 55.216 60.336 55.5573 60.912 56.016L60.176 56.992C59.6533 56.5653 59.1253 56.256 58.592 56.064C58.0693 55.872 57.52 55.776 56.944 55.776C56.5813 55.776 56.2507 55.824 55.952 55.92C55.664 56.016 55.4133 56.144 55.2 56.304C54.9973 56.464 54.8373 56.656 54.72 56.88C54.6133 57.104 54.56 57.344 54.56 57.6ZM69.4861 57.696L71.7261 64.368L73.9021 57.728H75.1821L72.2701 66.064H71.1981L68.9741 59.536L66.7341 66.064H65.6461L62.7501 57.728H64.0621L66.2381 64.368L68.4621 57.696H69.4861ZM79.9149 58.704C79.4242 58.704 78.9762 58.7627 78.5709 58.88C78.1762 58.9867 77.7869 59.1307 77.4029 59.312L77.0349 58.304C77.4935 58.0907 77.9575 57.9253 78.4269 57.808C78.8962 57.68 79.4349 57.616 80.0429 57.616C81.1735 57.616 82.0429 57.8987 82.6509 58.464C83.2589 59.0187 83.5629 59.8453 83.5629 60.944V66H82.3789V64.752C82.0909 65.1253 81.7015 65.456 81.2109 65.744C80.7309 66.032 80.1229 66.176 79.3869 66.176C79.0029 66.176 78.6242 66.1227 78.2509 66.016C77.8882 65.9093 77.5575 65.7493 77.2589 65.536C76.9709 65.312 76.7362 65.04 76.5549 64.72C76.3842 64.4 76.2989 64.0213 76.2989 63.584C76.2989 63.1467 76.3842 62.7627 76.5549 62.432C76.7255 62.0907 76.9655 61.808 77.2749 61.584C77.5949 61.36 77.9682 61.1893 78.3949 61.072C78.8322 60.9547 79.3122 60.896 79.8349 60.896C80.3682 60.896 80.8322 60.928 81.2269 60.992C81.6215 61.056 82.0055 61.1413 82.3789 61.248V60.96C82.3789 60.2133 82.1602 59.6533 81.7229 59.28C81.2962 58.896 80.6935 58.704 79.9149 58.704ZM79.9629 61.808C79.1842 61.808 78.5869 61.9627 78.1709 62.272C77.7549 62.5813 77.5469 63.0027 77.5469 63.536C77.5469 63.8027 77.6002 64.0373 77.7069 64.24C77.8242 64.4427 77.9789 64.6187 78.1709 64.768C78.3629 64.9067 78.5815 65.0133 78.8269 65.088C79.0829 65.1627 79.3495 65.2 79.6269 65.2C80.0109 65.2 80.3682 65.1467 80.6989 65.04C81.0402 64.9227 81.3335 64.768 81.5789 64.576C81.8349 64.3733 82.0322 64.1387 82.1709 63.872C82.3202 63.5947 82.3949 63.2907 82.3949 62.96V62.16C82.0855 62.0747 81.7282 61.9947 81.3229 61.92C80.9282 61.8453 80.4749 61.808 79.9629 61.808ZM94.5405 61.856C94.5405 62.5387 94.4285 63.1467 94.2045 63.68C93.9805 64.2133 93.6818 64.6667 93.3085 65.04C92.9458 65.4027 92.5245 65.6853 92.0445 65.888C91.5752 66.08 91.0898 66.176 90.5885 66.176C90.2045 66.176 89.8525 66.128 89.5325 66.032C89.2125 65.936 88.9245 65.808 88.6685 65.648C88.4125 65.488 88.1778 65.3013 87.9645 65.088C87.7618 64.8747 87.5805 64.6507 87.4205 64.416V68.56H86.1885V57.728H87.4205V59.392C87.5912 59.1467 87.7778 58.912 87.9805 58.688C88.1938 58.464 88.4285 58.272 88.6845 58.112C88.9405 57.9413 89.2232 57.808 89.5325 57.712C89.8525 57.6053 90.2045 57.552 90.5885 57.552C91.0792 57.552 91.5592 57.648 92.0285 57.84C92.5085 58.032 92.9352 58.3147 93.3085 58.688C93.6818 59.0507 93.9805 59.4987 94.2045 60.032C94.4285 60.5653 94.5405 61.1733 94.5405 61.856ZM93.2765 61.872C93.2765 61.3813 93.1965 60.9387 93.0365 60.544C92.8872 60.1493 92.6792 59.8133 92.4125 59.536C92.1458 59.248 91.8365 59.0293 91.4845 58.88C91.1325 58.7307 90.7592 58.656 90.3645 58.656C89.9805 58.656 89.6072 58.736 89.2445 58.896C88.8925 59.0453 88.5725 59.2587 88.2845 59.536C88.0072 59.8133 87.7832 60.1493 87.6125 60.544C87.4525 60.9387 87.3725 61.376 87.3725 61.856C87.3725 62.336 87.4525 62.7787 87.6125 63.184C87.7832 63.5787 88.0072 63.9147 88.2845 64.192C88.5725 64.4693 88.8925 64.688 89.2445 64.848C89.6072 64.9973 89.9805 65.072 90.3645 65.072C90.7592 65.072 91.1325 65.0027 91.4845 64.864C91.8472 64.7147 92.1565 64.5067 92.4125 64.24C92.6792 63.9627 92.8872 63.6267 93.0365 63.232C93.1965 62.8267 93.2765 62.3733 93.2765 61.872Z"
        fill="#7E8A93"
      />
      <path
        d="M53.584 115V103.8H54.848V113.832H61.152V115H53.584ZM64.7223 104.92H63.3143V103.56H64.7223V104.92ZM64.6263 115H63.3943V106.728H64.6263V115ZM74.0454 108.2C74.1947 107.976 74.36 107.763 74.5414 107.56C74.7334 107.357 74.9467 107.181 75.1814 107.032C75.416 106.883 75.6774 106.765 75.9654 106.68C76.264 106.595 76.5947 106.552 76.9574 106.552C77.9174 106.552 78.6694 106.851 79.2134 107.448C79.7574 108.035 80.0294 108.845 80.0294 109.88V115H78.7974V110.168C78.7974 109.368 78.6054 108.755 78.2214 108.328C77.848 107.891 77.3254 107.672 76.6534 107.672C76.344 107.672 76.0507 107.731 75.7734 107.848C75.496 107.955 75.2507 108.12 75.0374 108.344C74.8347 108.557 74.6694 108.824 74.5414 109.144C74.424 109.464 74.3654 109.827 74.3654 110.232V115H73.1494V110.136C73.1494 109.357 72.9574 108.755 72.5734 108.328C72.2 107.891 71.6827 107.672 71.0214 107.672C70.6907 107.672 70.3867 107.736 70.1094 107.864C69.832 107.992 69.5867 108.173 69.3734 108.408C69.1707 108.643 69.0107 108.92 68.8934 109.24C68.776 109.549 68.7174 109.896 68.7174 110.28V115H67.4854V106.728H68.7174V108.12C68.856 107.917 69.0054 107.72 69.1654 107.528C69.336 107.336 69.528 107.171 69.7414 107.032C69.9547 106.883 70.1947 106.765 70.4614 106.68C70.728 106.595 71.0374 106.552 71.3894 106.552C72.0614 106.552 72.616 106.712 73.0534 107.032C73.4907 107.341 73.8214 107.731 74.0454 108.2ZM84.1441 104.92H82.7361V103.56H84.1441V104.92ZM84.0481 115H82.8161V106.728H84.0481V115ZM88.5713 107.816V112.648C88.5713 113.16 88.6993 113.517 88.9553 113.72C89.2113 113.923 89.5473 114.024 89.9633 114.024C90.1766 114.024 90.3739 114.003 90.5553 113.96C90.7473 113.917 90.9499 113.843 91.1633 113.736V114.792C90.9499 114.909 90.7206 114.995 90.4753 115.048C90.2406 115.112 89.9739 115.144 89.6753 115.144C89.3446 115.144 89.0353 115.101 88.7473 115.016C88.4593 114.931 88.2086 114.797 87.9953 114.616C87.7926 114.424 87.6326 114.179 87.5153 113.88C87.3979 113.581 87.3393 113.224 87.3393 112.808V107.816H86.1873V106.728H87.3393V104.232H88.5713V106.728H91.1953V107.816H88.5713ZM109.309 109.384C109.309 110.163 109.17 110.904 108.893 111.608C108.616 112.301 108.226 112.915 107.725 113.448C107.224 113.981 106.621 114.408 105.917 114.728C105.213 115.037 104.434 115.192 103.581 115.192C102.728 115.192 101.949 115.037 101.245 114.728C100.552 114.419 99.9542 114.003 99.4529 113.48C98.9515 112.947 98.5622 112.333 98.2849 111.64C98.0182 110.936 97.8849 110.195 97.8849 109.416C97.8849 108.637 98.0235 107.901 98.3009 107.208C98.5782 106.504 98.9675 105.885 99.4689 105.352C99.9702 104.819 100.573 104.397 101.277 104.088C101.981 103.768 102.76 103.608 103.613 103.608C104.466 103.608 105.24 103.763 105.933 104.072C106.637 104.381 107.24 104.803 107.741 105.336C108.242 105.859 108.626 106.472 108.893 107.176C109.17 107.869 109.309 108.605 109.309 109.384ZM107.997 109.416C107.997 108.776 107.885 108.173 107.661 107.608C107.448 107.043 107.144 106.552 106.749 106.136C106.354 105.72 105.885 105.389 105.341 105.144C104.808 104.899 104.221 104.776 103.581 104.776C102.941 104.776 102.349 104.899 101.805 105.144C101.272 105.379 100.813 105.704 100.429 106.12C100.045 106.536 99.7409 107.027 99.5169 107.592C99.3035 108.147 99.1969 108.744 99.1969 109.384C99.1969 110.024 99.3035 110.627 99.5169 111.192C99.7409 111.757 100.05 112.248 100.445 112.664C100.84 113.08 101.304 113.411 101.837 113.656C102.381 113.901 102.973 114.024 103.613 114.024C104.253 114.024 104.84 113.907 105.373 113.672C105.917 113.427 106.381 113.096 106.765 112.68C107.149 112.264 107.448 111.779 107.661 111.224C107.885 110.659 107.997 110.056 107.997 109.416ZM112.999 111.704V115H111.767V106.728H112.999V108.888C113.148 108.547 113.335 108.232 113.559 107.944C113.783 107.656 114.039 107.411 114.327 107.208C114.615 106.995 114.929 106.835 115.271 106.728C115.612 106.621 115.98 106.573 116.375 106.584V107.912H116.279C115.831 107.912 115.404 107.992 114.999 108.152C114.604 108.312 114.257 108.552 113.959 108.872C113.66 109.192 113.425 109.592 113.255 110.072C113.084 110.541 112.999 111.085 112.999 111.704ZM125.779 115H124.547V113.336C124.377 113.581 124.185 113.816 123.971 114.04C123.769 114.264 123.539 114.461 123.283 114.632C123.027 114.803 122.739 114.936 122.419 115.032C122.11 115.128 121.763 115.176 121.379 115.176C120.878 115.176 120.393 115.08 119.923 114.888C119.454 114.696 119.033 114.419 118.659 114.056C118.286 113.683 117.987 113.229 117.763 112.696C117.539 112.163 117.427 111.555 117.427 110.872C117.427 110.189 117.539 109.581 117.763 109.048C117.987 108.515 118.286 108.067 118.659 107.704C119.033 107.331 119.454 107.048 119.923 106.856C120.393 106.653 120.878 106.552 121.379 106.552C121.763 106.552 122.115 106.6 122.435 106.696C122.755 106.792 123.043 106.92 123.299 107.08C123.555 107.24 123.785 107.427 123.987 107.64C124.201 107.853 124.387 108.077 124.547 108.312V103.32H125.779V115ZM124.595 110.856C124.595 110.376 124.51 109.939 124.339 109.544C124.179 109.149 123.955 108.813 123.667 108.536C123.39 108.259 123.07 108.045 122.707 107.896C122.355 107.736 121.987 107.656 121.603 107.656C121.198 107.656 120.819 107.731 120.467 107.88C120.115 108.019 119.806 108.227 119.539 108.504C119.283 108.771 119.075 109.107 118.915 109.512C118.766 109.907 118.691 110.355 118.691 110.856C118.691 111.347 118.766 111.789 118.915 112.184C119.075 112.579 119.289 112.92 119.555 113.208C119.822 113.485 120.131 113.699 120.483 113.848C120.835 113.997 121.209 114.072 121.603 114.072C121.987 114.072 122.355 113.997 122.707 113.848C123.07 113.688 123.39 113.469 123.667 113.192C123.955 112.915 124.179 112.579 124.339 112.184C124.51 111.779 124.595 111.336 124.595 110.856ZM129.268 111.32C129.311 111.768 129.418 112.168 129.588 112.52C129.759 112.861 129.978 113.155 130.244 113.4C130.511 113.635 130.81 113.816 131.14 113.944C131.471 114.061 131.818 114.12 132.18 114.12C132.756 114.12 133.247 114.013 133.652 113.8C134.068 113.587 134.447 113.304 134.788 112.952L135.556 113.64C135.14 114.109 134.666 114.488 134.132 114.776C133.599 115.053 132.938 115.192 132.148 115.192C131.583 115.192 131.05 115.091 130.548 114.888C130.047 114.675 129.61 114.381 129.236 114.008C128.863 113.624 128.564 113.165 128.34 112.632C128.127 112.099 128.02 111.512 128.02 110.872C128.02 110.275 128.116 109.715 128.308 109.192C128.511 108.659 128.788 108.2 129.14 107.816C129.492 107.421 129.908 107.112 130.388 106.888C130.879 106.664 131.412 106.552 131.988 106.552C132.596 106.552 133.14 106.669 133.62 106.904C134.1 107.128 134.506 107.437 134.836 107.832C135.167 108.227 135.418 108.691 135.588 109.224C135.759 109.757 135.844 110.328 135.844 110.936C135.844 110.989 135.844 111.048 135.844 111.112C135.844 111.176 135.839 111.245 135.828 111.32H129.268ZM129.268 110.408H134.596C134.564 110.035 134.484 109.677 134.356 109.336C134.239 108.995 134.068 108.696 133.844 108.44C133.631 108.184 133.364 107.981 133.044 107.832C132.735 107.672 132.372 107.592 131.956 107.592C131.594 107.592 131.258 107.667 130.948 107.816C130.639 107.955 130.367 108.152 130.132 108.408C129.898 108.653 129.706 108.947 129.556 109.288C129.407 109.629 129.311 110.003 129.268 110.408ZM139.233 111.704V115H138.001V106.728H139.233V108.888C139.382 108.547 139.569 108.232 139.793 107.944C140.017 107.656 140.273 107.411 140.561 107.208C140.849 106.995 141.164 106.835 141.505 106.728C141.846 106.621 142.214 106.573 142.609 106.584V107.912H142.513C142.065 107.912 141.638 107.992 141.233 108.152C140.838 108.312 140.492 108.552 140.193 108.872C139.894 109.192 139.66 109.592 139.489 110.072C139.318 110.541 139.233 111.085 139.233 111.704Z"
        fill="#7E8A93"
      />
      <path
        d="M64.512 158.384C64.512 159.163 64.3733 159.904 64.096 160.608C63.8187 161.301 63.4293 161.915 62.928 162.448C62.4267 162.981 61.824 163.408 61.12 163.728C60.416 164.037 59.6373 164.192 58.784 164.192C57.9307 164.192 57.152 164.037 56.448 163.728C55.7547 163.419 55.1573 163.003 54.656 162.48C54.1547 161.947 53.7653 161.333 53.488 160.64C53.2213 159.936 53.088 159.195 53.088 158.416C53.088 157.637 53.2267 156.901 53.504 156.208C53.7813 155.504 54.1707 154.885 54.672 154.352C55.1733 153.819 55.776 153.397 56.48 153.088C57.184 152.768 57.9627 152.608 58.816 152.608C59.6693 152.608 60.4427 152.763 61.136 153.072C61.84 153.381 62.4427 153.803 62.944 154.336C63.4453 154.859 63.8293 155.472 64.096 156.176C64.3733 156.869 64.512 157.605 64.512 158.384ZM63.2 158.416C63.2 157.776 63.088 157.173 62.864 156.608C62.6507 156.043 62.3467 155.552 61.952 155.136C61.5573 154.72 61.088 154.389 60.544 154.144C60.0107 153.899 59.424 153.776 58.784 153.776C58.144 153.776 57.552 153.899 57.008 154.144C56.4747 154.379 56.016 154.704 55.632 155.12C55.248 155.536 54.944 156.027 54.72 156.592C54.5067 157.147 54.4 157.744 54.4 158.384C54.4 159.024 54.5067 159.627 54.72 160.192C54.944 160.757 55.2533 161.248 55.648 161.664C56.0427 162.08 56.5067 162.411 57.04 162.656C57.584 162.901 58.176 163.024 58.816 163.024C59.456 163.024 60.0427 162.907 60.576 162.672C61.12 162.427 61.584 162.096 61.968 161.68C62.352 161.264 62.6507 160.779 62.864 160.224C63.088 159.659 63.2 159.056 63.2 158.416ZM68.2018 160.704V164H66.9698V155.728H68.2018V157.888C68.3511 157.547 68.5378 157.232 68.7618 156.944C68.9858 156.656 69.2418 156.411 69.5298 156.208C69.8178 155.995 70.1324 155.835 70.4738 155.728C70.8151 155.621 71.1831 155.573 71.5778 155.584V156.912H71.4818C71.0338 156.912 70.6071 156.992 70.2018 157.152C69.8071 157.312 69.4604 157.552 69.1618 157.872C68.8631 158.192 68.6284 158.592 68.4578 159.072C68.2871 159.541 68.2018 160.085 68.2018 160.704ZM80.9824 164H79.7504V162.336C79.5797 162.581 79.3877 162.816 79.1744 163.04C78.9717 163.264 78.7424 163.461 78.4864 163.632C78.2304 163.803 77.9424 163.936 77.6224 164.032C77.313 164.128 76.9664 164.176 76.5824 164.176C76.081 164.176 75.5957 164.08 75.1264 163.888C74.657 163.696 74.2357 163.419 73.8624 163.056C73.489 162.683 73.1904 162.229 72.9664 161.696C72.7424 161.163 72.6304 160.555 72.6304 159.872C72.6304 159.189 72.7424 158.581 72.9664 158.048C73.1904 157.515 73.489 157.067 73.8624 156.704C74.2357 156.331 74.657 156.048 75.1264 155.856C75.5957 155.653 76.081 155.552 76.5824 155.552C76.9664 155.552 77.3184 155.6 77.6384 155.696C77.9584 155.792 78.2464 155.92 78.5024 156.08C78.7584 156.24 78.9877 156.427 79.1904 156.64C79.4037 156.853 79.5904 157.077 79.7504 157.312V152.32H80.9824V164ZM79.7984 159.856C79.7984 159.376 79.713 158.939 79.5424 158.544C79.3824 158.149 79.1584 157.813 78.8704 157.536C78.593 157.259 78.273 157.045 77.9104 156.896C77.5584 156.736 77.1904 156.656 76.8064 156.656C76.401 156.656 76.0224 156.731 75.6704 156.88C75.3184 157.019 75.009 157.227 74.7424 157.504C74.4864 157.771 74.2784 158.107 74.1184 158.512C73.969 158.907 73.8944 159.355 73.8944 159.856C73.8944 160.347 73.969 160.789 74.1184 161.184C74.2784 161.579 74.4917 161.92 74.7584 162.208C75.025 162.485 75.3344 162.699 75.6864 162.848C76.0384 162.997 76.4117 163.072 76.8064 163.072C77.1904 163.072 77.5584 162.997 77.9104 162.848C78.273 162.688 78.593 162.469 78.8704 162.192C79.1584 161.915 79.3824 161.579 79.5424 161.184C79.713 160.779 79.7984 160.336 79.7984 159.856ZM84.4714 160.32C84.514 160.768 84.6207 161.168 84.7914 161.52C84.962 161.861 85.1807 162.155 85.4474 162.4C85.714 162.635 86.0127 162.816 86.3434 162.944C86.674 163.061 87.0207 163.12 87.3834 163.12C87.9594 163.12 88.45 163.013 88.8554 162.8C89.2714 162.587 89.65 162.304 89.9914 161.952L90.7594 162.64C90.3434 163.109 89.8687 163.488 89.3354 163.776C88.802 164.053 88.1407 164.192 87.3514 164.192C86.786 164.192 86.2527 164.091 85.7514 163.888C85.25 163.675 84.8127 163.381 84.4394 163.008C84.066 162.624 83.7674 162.165 83.5434 161.632C83.33 161.099 83.2234 160.512 83.2234 159.872C83.2234 159.275 83.3194 158.715 83.5114 158.192C83.714 157.659 83.9914 157.2 84.3434 156.816C84.6954 156.421 85.1114 156.112 85.5914 155.888C86.082 155.664 86.6154 155.552 87.1914 155.552C87.7994 155.552 88.3434 155.669 88.8234 155.904C89.3034 156.128 89.7087 156.437 90.0394 156.832C90.37 157.227 90.6207 157.691 90.7914 158.224C90.962 158.757 91.0474 159.328 91.0474 159.936C91.0474 159.989 91.0474 160.048 91.0474 160.112C91.0474 160.176 91.042 160.245 91.0314 160.32H84.4714ZM84.4714 159.408H89.7994C89.7674 159.035 89.6874 158.677 89.5594 158.336C89.442 157.995 89.2714 157.696 89.0474 157.44C88.834 157.184 88.5674 156.981 88.2474 156.832C87.938 156.672 87.5754 156.592 87.1594 156.592C86.7967 156.592 86.4607 156.667 86.1514 156.816C85.842 156.955 85.57 157.152 85.3354 157.408C85.1007 157.653 84.9087 157.947 84.7594 158.288C84.61 158.629 84.514 159.003 84.4714 159.408ZM94.4361 160.704V164H93.2041V155.728H94.4361V157.888C94.5855 157.547 94.7721 157.232 94.9961 156.944C95.2201 156.656 95.4761 156.411 95.7641 156.208C96.0521 155.995 96.3668 155.835 96.7081 155.728C97.0495 155.621 97.4175 155.573 97.8121 155.584V156.912H97.7161C97.2681 156.912 96.8415 156.992 96.4361 157.152C96.0415 157.312 95.6948 157.552 95.3961 157.872C95.0975 158.192 94.8628 158.592 94.6921 159.072C94.5215 159.541 94.4361 160.085 94.4361 160.704ZM108.041 159.856C108.041 160.539 107.929 161.147 107.705 161.68C107.481 162.213 107.182 162.667 106.809 163.04C106.446 163.403 106.025 163.685 105.545 163.888C105.075 164.08 104.59 164.176 104.089 164.176C103.705 164.176 103.353 164.128 103.033 164.032C102.713 163.936 102.425 163.808 102.169 163.648C101.913 163.488 101.678 163.301 101.465 163.088C101.262 162.875 101.081 162.651 100.921 162.416V164H99.6885V152.32H100.921V157.392C101.091 157.147 101.278 156.912 101.481 156.688C101.694 156.464 101.929 156.272 102.185 156.112C102.441 155.941 102.723 155.808 103.033 155.712C103.353 155.605 103.705 155.552 104.089 155.552C104.579 155.552 105.059 155.648 105.529 155.84C106.009 156.032 106.435 156.315 106.809 156.688C107.182 157.051 107.481 157.499 107.705 158.032C107.929 158.565 108.041 159.173 108.041 159.856ZM106.777 159.872C106.777 159.381 106.697 158.939 106.536 158.544C106.387 158.149 106.179 157.813 105.913 157.536C105.646 157.248 105.337 157.029 104.985 156.88C104.633 156.731 104.259 156.656 103.865 156.656C103.481 156.656 103.107 156.736 102.745 156.896C102.393 157.045 102.073 157.259 101.785 157.536C101.507 157.813 101.283 158.149 101.113 158.544C100.953 158.939 100.873 159.376 100.873 159.856C100.873 160.336 100.953 160.779 101.113 161.184C101.283 161.579 101.507 161.915 101.785 162.192C102.073 162.469 102.393 162.688 102.745 162.848C103.107 162.997 103.481 163.072 103.865 163.072C104.259 163.072 104.633 163.003 104.985 162.864C105.347 162.715 105.657 162.507 105.913 162.24C106.179 161.963 106.387 161.627 106.536 161.232C106.697 160.827 106.777 160.373 106.777 159.872ZM118.426 159.856C118.426 160.443 118.314 161.003 118.09 161.536C117.876 162.059 117.578 162.517 117.194 162.912C116.81 163.307 116.351 163.621 115.818 163.856C115.284 164.08 114.708 164.192 114.09 164.192C113.471 164.192 112.9 164.08 112.378 163.856C111.855 163.621 111.402 163.312 111.018 162.928C110.634 162.533 110.335 162.075 110.122 161.552C109.908 161.029 109.802 160.475 109.802 159.888C109.802 159.301 109.908 158.747 110.122 158.224C110.335 157.691 110.634 157.227 111.018 156.832C111.402 156.437 111.855 156.128 112.378 155.904C112.911 155.669 113.492 155.552 114.122 155.552C114.74 155.552 115.311 155.669 115.834 155.904C116.367 156.128 116.826 156.437 117.21 156.832C117.594 157.216 117.892 157.669 118.106 158.192C118.319 158.715 118.426 159.269 118.426 159.856ZM117.161 159.888C117.161 159.44 117.082 159.019 116.922 158.624C116.772 158.229 116.559 157.888 116.282 157.6C116.004 157.301 115.679 157.067 115.306 156.896C114.932 156.725 114.527 156.64 114.09 156.64C113.642 156.64 113.231 156.725 112.858 156.896C112.484 157.056 112.164 157.285 111.898 157.584C111.642 157.872 111.439 158.213 111.289 158.608C111.14 158.992 111.066 159.408 111.066 159.856C111.066 160.304 111.14 160.725 111.289 161.12C111.45 161.515 111.663 161.856 111.93 162.144C112.207 162.432 112.532 162.661 112.906 162.832C113.279 163.003 113.684 163.088 114.122 163.088C114.57 163.088 114.98 163.008 115.354 162.848C115.727 162.677 116.047 162.448 116.314 162.16C116.58 161.872 116.788 161.536 116.938 161.152C117.087 160.757 117.161 160.336 117.161 159.888ZM128.769 159.856C128.769 160.443 128.657 161.003 128.433 161.536C128.22 162.059 127.921 162.517 127.537 162.912C127.153 163.307 126.695 163.621 126.161 163.856C125.628 164.08 125.052 164.192 124.433 164.192C123.815 164.192 123.244 164.08 122.721 163.856C122.199 163.621 121.745 163.312 121.361 162.928C120.977 162.533 120.679 162.075 120.465 161.552C120.252 161.029 120.145 160.475 120.145 159.888C120.145 159.301 120.252 158.747 120.465 158.224C120.679 157.691 120.977 157.227 121.361 156.832C121.745 156.437 122.199 156.128 122.721 155.904C123.255 155.669 123.836 155.552 124.465 155.552C125.084 155.552 125.655 155.669 126.177 155.904C126.711 156.128 127.169 156.437 127.553 156.832C127.937 157.216 128.236 157.669 128.449 158.192C128.663 158.715 128.769 159.269 128.769 159.856ZM127.505 159.888C127.505 159.44 127.425 159.019 127.265 158.624C127.116 158.229 126.903 157.888 126.625 157.6C126.348 157.301 126.023 157.067 125.649 156.896C125.276 156.725 124.871 156.64 124.433 156.64C123.985 156.64 123.575 156.725 123.201 156.896C122.828 157.056 122.508 157.285 122.241 157.584C121.985 157.872 121.783 158.213 121.633 158.608C121.484 158.992 121.409 159.408 121.409 159.856C121.409 160.304 121.484 160.725 121.633 161.12C121.793 161.515 122.007 161.856 122.273 162.144C122.551 162.432 122.876 162.661 123.249 162.832C123.623 163.003 124.028 163.088 124.465 163.088C124.913 163.088 125.324 163.008 125.697 162.848C126.071 162.677 126.391 162.448 126.657 162.16C126.924 161.872 127.132 161.536 127.281 161.152C127.431 160.757 127.505 160.336 127.505 159.888ZM134.761 159.28L138.345 164H136.873L133.913 160.144L132.233 161.84V164H131.001V152.32H132.233V160.384L136.697 155.728H138.233L134.761 159.28Z"
        fill="white"
      />
      <path
        d="M215.208 197.704C215.208 200.296 213.192 201.64 210.68 201.64H208.808V205H206.344V193.8H210.92C213.592 193.8 215.208 195.384 215.208 197.672V197.704ZM212.712 197.752V197.72C212.712 196.616 211.944 196.024 210.712 196.024H208.808V199.448H210.76C211.992 199.448 212.712 198.712 212.712 197.752ZM224.697 200.952C224.697 201.192 224.681 201.336 224.665 201.56H218.697C218.937 202.664 219.705 203.24 220.793 203.24C221.609 203.24 222.201 202.984 222.873 202.36L224.265 203.592C223.465 204.584 222.313 205.192 220.761 205.192C218.185 205.192 216.281 203.384 216.281 200.76V200.728C216.281 198.28 218.025 196.264 220.521 196.264C223.385 196.264 224.697 198.488 224.697 200.92V200.952ZM222.329 200.04C222.185 198.952 221.545 198.216 220.521 198.216C219.513 198.216 218.857 198.936 218.665 200.04H222.329ZM231.678 198.808H231.55C229.934 198.808 228.942 199.784 228.942 201.832V205H226.51V196.424H228.942V198.152C229.438 196.968 230.238 196.2 231.678 196.264V198.808ZM242.205 200.728C242.205 203.592 240.333 205.16 238.301 205.16C237.005 205.16 236.205 204.568 235.629 203.88V207.56H233.197V196.424H235.629V197.656C236.221 196.856 237.037 196.264 238.301 196.264C240.301 196.264 242.205 197.832 242.205 200.696V200.728ZM239.773 200.728V200.696C239.773 199.272 238.813 198.328 237.677 198.328C236.541 198.328 235.597 199.272 235.597 200.696V200.728C235.597 202.152 236.541 203.096 237.677 203.096C238.813 203.096 239.773 202.168 239.773 200.728ZM251.994 200.952C251.994 201.192 251.978 201.336 251.962 201.56H245.994C246.234 202.664 247.002 203.24 248.09 203.24C248.906 203.24 249.498 202.984 250.17 202.36L251.562 203.592C250.762 204.584 249.61 205.192 248.058 205.192C245.482 205.192 243.578 203.384 243.578 200.76V200.728C243.578 198.28 245.322 196.264 247.818 196.264C250.682 196.264 251.994 198.488 251.994 200.92V200.952ZM249.626 200.04C249.482 198.952 248.842 198.216 247.818 198.216C246.81 198.216 246.154 198.936 245.962 200.04H249.626ZM258.623 204.648C258.111 204.952 257.519 205.144 256.703 205.144C255.215 205.144 254.207 204.552 254.207 202.568V198.504H253.183V196.424H254.207V194.232H256.639V196.424H258.655V198.504H256.639V202.168C256.639 202.728 256.879 203 257.423 203C257.871 203 258.271 202.888 258.623 202.696V204.648ZM268.239 205H265.807V203.784C265.247 204.504 264.527 205.16 263.295 205.16C261.455 205.16 260.383 203.944 260.383 201.976V196.424H262.815V201.208C262.815 202.36 263.359 202.952 264.287 202.952C265.215 202.952 265.807 202.36 265.807 201.208V196.424H268.239V205ZM277.792 205H275.44V204.072C274.848 204.728 274.032 205.16 272.848 205.16C271.232 205.16 269.904 204.232 269.904 202.536V202.504C269.904 200.632 271.328 199.768 273.36 199.768C274.224 199.768 274.848 199.912 275.456 200.12V199.976C275.456 198.968 274.832 198.408 273.616 198.408C272.688 198.408 272.032 198.584 271.248 198.872L270.64 197.016C271.584 196.6 272.512 196.328 273.968 196.328C276.624 196.328 277.792 197.704 277.792 200.024V205ZM275.488 201.976V201.544C275.072 201.352 274.528 201.224 273.936 201.224C272.896 201.224 272.256 201.64 272.256 202.408V202.44C272.256 203.096 272.8 203.48 273.584 203.48C274.72 203.48 275.488 202.856 275.488 201.976ZM282.429 205H279.997V193.32H282.429V205Z"
        fill="white"
      />
      <path
        d="M76.56 193.6C76.56 193.867 76.6027 194.107 76.688 194.32C76.7733 194.533 76.928 194.731 77.152 194.912C77.376 195.083 77.6853 195.243 78.08 195.392C78.4747 195.531 78.9813 195.664 79.6 195.792C80.848 196.069 81.7653 196.453 82.352 196.944C82.9493 197.435 83.248 198.112 83.248 198.976C83.248 199.456 83.152 199.893 82.96 200.288C82.768 200.683 82.5013 201.019 82.16 201.296C81.8293 201.573 81.4293 201.787 80.96 201.936C80.4907 202.085 79.9787 202.16 79.424 202.16C78.528 202.16 77.7067 202.016 76.96 201.728C76.224 201.429 75.52 200.976 74.848 200.368L75.632 199.44C76.2187 199.973 76.8107 200.373 77.408 200.64C78.0053 200.896 78.6933 201.024 79.472 201.024C80.2293 201.024 80.832 200.848 81.28 200.496C81.7387 200.144 81.968 199.68 81.968 199.104C81.968 198.837 81.9253 198.603 81.84 198.4C81.7547 198.187 81.6053 197.995 81.392 197.824C81.1787 197.653 80.88 197.499 80.496 197.36C80.1227 197.221 79.6427 197.088 79.056 196.96C78.416 196.821 77.856 196.661 77.376 196.48C76.9067 196.299 76.5173 196.08 76.208 195.824C75.8987 195.568 75.6693 195.269 75.52 194.928C75.3707 194.587 75.296 194.181 75.296 193.712C75.296 193.264 75.3867 192.853 75.568 192.48C75.7493 192.107 76.0053 191.787 76.336 191.52C76.6667 191.243 77.056 191.029 77.504 190.88C77.952 190.72 78.4427 190.64 78.976 190.64C79.7973 190.64 80.512 190.757 81.12 190.992C81.7387 191.216 82.336 191.557 82.912 192.016L82.176 192.992C81.6533 192.565 81.1253 192.256 80.592 192.064C80.0693 191.872 79.52 191.776 78.944 191.776C78.5813 191.776 78.2507 191.824 77.952 191.92C77.664 192.016 77.4133 192.144 77.2 192.304C76.9973 192.464 76.8373 192.656 76.72 192.88C76.6133 193.104 76.56 193.344 76.56 193.6ZM93.9624 197.856C93.9624 198.539 93.8504 199.147 93.6264 199.68C93.4024 200.213 93.1037 200.667 92.7304 201.04C92.3677 201.403 91.9464 201.685 91.4664 201.888C90.997 202.08 90.5117 202.176 90.0104 202.176C89.6264 202.176 89.2744 202.128 88.9544 202.032C88.6344 201.936 88.3464 201.808 88.0904 201.648C87.8344 201.488 87.5997 201.301 87.3864 201.088C87.1837 200.875 87.0024 200.651 86.8424 200.416V204.56H85.6104V193.728H86.8424V195.392C87.013 195.147 87.1997 194.912 87.4024 194.688C87.6157 194.464 87.8504 194.272 88.1064 194.112C88.3624 193.941 88.645 193.808 88.9544 193.712C89.2744 193.605 89.6264 193.552 90.0104 193.552C90.501 193.552 90.981 193.648 91.4504 193.84C91.9304 194.032 92.357 194.315 92.7304 194.688C93.1037 195.051 93.4024 195.499 93.6264 196.032C93.8504 196.565 93.9624 197.173 93.9624 197.856ZM92.6984 197.872C92.6984 197.381 92.6184 196.939 92.4584 196.544C92.309 196.149 92.101 195.813 91.8344 195.536C91.5677 195.248 91.2584 195.029 90.9064 194.88C90.5544 194.731 90.181 194.656 89.7864 194.656C89.4024 194.656 89.029 194.736 88.6664 194.896C88.3144 195.045 87.9944 195.259 87.7064 195.536C87.429 195.813 87.205 196.149 87.0344 196.544C86.8744 196.939 86.7944 197.376 86.7944 197.856C86.7944 198.336 86.8744 198.779 87.0344 199.184C87.205 199.579 87.429 199.915 87.7064 200.192C87.9944 200.469 88.3144 200.688 88.6664 200.848C89.029 200.997 89.4024 201.072 89.7864 201.072C90.181 201.072 90.5544 201.003 90.9064 200.864C91.269 200.715 91.5784 200.507 91.8344 200.24C92.101 199.963 92.309 199.627 92.4584 199.232C92.6184 198.827 92.6984 198.373 92.6984 197.872ZM104.347 197.856C104.347 198.443 104.235 199.003 104.011 199.536C103.798 200.059 103.499 200.517 103.115 200.912C102.731 201.307 102.273 201.621 101.739 201.856C101.206 202.08 100.63 202.192 100.011 202.192C99.3927 202.192 98.822 202.08 98.2994 201.856C97.7767 201.621 97.3234 201.312 96.9394 200.928C96.5554 200.533 96.2567 200.075 96.0434 199.552C95.83 199.029 95.7234 198.475 95.7234 197.888C95.7234 197.301 95.83 196.747 96.0434 196.224C96.2567 195.691 96.5554 195.227 96.9394 194.832C97.3234 194.437 97.7767 194.128 98.2994 193.904C98.8327 193.669 99.414 193.552 100.043 193.552C100.662 193.552 101.233 193.669 101.755 193.904C102.289 194.128 102.747 194.437 103.131 194.832C103.515 195.216 103.814 195.669 104.027 196.192C104.241 196.715 104.347 197.269 104.347 197.856ZM103.083 197.888C103.083 197.44 103.003 197.019 102.843 196.624C102.694 196.229 102.481 195.888 102.203 195.6C101.926 195.301 101.601 195.067 101.227 194.896C100.854 194.725 100.449 194.64 100.011 194.64C99.5634 194.64 99.1527 194.725 98.7794 194.896C98.406 195.056 98.086 195.285 97.8194 195.584C97.5634 195.872 97.3607 196.213 97.2114 196.608C97.062 196.992 96.9874 197.408 96.9874 197.856C96.9874 198.304 97.062 198.725 97.2114 199.12C97.3714 199.515 97.5847 199.856 97.8514 200.144C98.1287 200.432 98.454 200.661 98.8274 200.832C99.2007 201.003 99.606 201.088 100.043 201.088C100.491 201.088 100.902 201.008 101.275 200.848C101.649 200.677 101.969 200.448 102.235 200.16C102.502 199.872 102.71 199.536 102.859 199.152C103.009 198.757 103.083 198.336 103.083 197.888ZM108.243 194.816V199.648C108.243 200.16 108.371 200.517 108.627 200.72C108.883 200.923 109.219 201.024 109.635 201.024C109.848 201.024 110.046 201.003 110.227 200.96C110.419 200.917 110.622 200.843 110.835 200.736V201.792C110.622 201.909 110.392 201.995 110.147 202.048C109.912 202.112 109.646 202.144 109.347 202.144C109.016 202.144 108.707 202.101 108.419 202.016C108.131 201.931 107.88 201.797 107.667 201.616C107.464 201.424 107.304 201.179 107.187 200.88C107.07 200.581 107.011 200.224 107.011 199.808V194.816H105.859V193.728H107.011V191.232H108.243V193.728H110.867V194.816H108.243Z"
        fill="white"
      />
      <path
        d="M35.2571 62.7606C35.1005 62.6115 34.8919 62.5295 34.6756 62.5321C34.4594 62.5347 34.2527 62.6218 34.0998 62.7747C33.9469 62.9276 33.8598 63.1343 33.8572 63.3505C33.8546 63.5668 33.9366 63.7755 34.0857 63.932L34.7343 64.5806H28.4143C27.6825 64.5799 26.9809 64.2888 26.4635 63.7714C25.9461 63.254 25.655 62.5524 25.6543 61.8206C25.6542 61.1876 25.8356 60.5679 26.1771 60.0349C26.2957 59.8504 26.3362 59.6263 26.2896 59.412C26.2429 59.1977 26.1131 59.0106 25.9286 58.892C25.7441 58.7735 25.52 58.733 25.3057 58.7796C25.0913 58.8263 24.9043 58.9561 24.7857 59.1406C24.2716 59.9398 23.9988 60.8703 24 61.8206C24.0015 62.9909 24.4671 64.1128 25.2946 64.9403C26.1221 65.7678 27.244 66.2334 28.4143 66.2349H34.6486L34.0771 66.8063C33.936 66.9643 33.8607 67.1704 33.8668 67.3822C33.8729 67.5939 33.9599 67.7953 34.1099 67.9449C34.2599 68.0946 34.4615 68.181 34.6733 68.1866C34.8851 68.1922 35.0909 68.1164 35.2486 67.9749L37.2657 65.9578C37.3425 65.8811 37.4034 65.79 37.445 65.6897C37.4866 65.5895 37.508 65.482 37.508 65.3735C37.508 65.2649 37.4866 65.1575 37.445 65.0572C37.4034 64.957 37.3425 64.8659 37.2657 64.7892L35.2571 62.7606Z"
        fill="#7E8A93"
      />
      <path
        d="M35.5857 57.132H28.8L29.5514 56.3806C29.6926 56.2226 29.7678 56.0165 29.7617 55.8048C29.7557 55.593 29.6687 55.3916 29.5187 55.242C29.3687 55.0923 29.1671 55.0059 28.9553 55.0003C28.7435 54.9947 28.5377 55.0705 28.38 55.212L26.3629 57.2291C26.2861 57.3058 26.2251 57.3969 26.1836 57.4972C26.142 57.5974 26.1206 57.7049 26.1206 57.8134C26.1206 57.922 26.142 58.0294 26.1836 58.1297C26.2251 58.2299 26.2861 58.321 26.3629 58.3977L28.38 60.4149C28.5377 60.5564 28.7435 60.6321 28.9553 60.6266C29.1671 60.621 29.3687 60.5345 29.5187 60.3849C29.6687 60.2353 29.7557 60.0339 29.7617 59.8221C29.7678 59.6103 29.6926 59.4043 29.5514 59.2463L29.0914 58.7863H35.5857C36.3175 58.787 37.0191 59.0781 37.5365 59.5955C38.0539 60.1129 38.345 60.8145 38.3457 61.5463C38.3463 62.196 38.1544 62.8313 37.7943 63.372C37.6748 63.5549 37.6323 63.7776 37.6762 63.9916C37.7201 64.2057 37.8467 64.3937 38.0286 64.5149C38.1644 64.604 38.3233 64.6516 38.4857 64.652C38.6223 64.6521 38.7568 64.6182 38.877 64.5534C38.9972 64.4885 39.0994 64.3948 39.1743 64.2806C39.7132 63.4706 40.0005 62.5192 40 61.5463C39.9985 60.376 39.5329 59.2541 38.7054 58.4266C37.8779 57.5991 36.756 57.1335 35.5857 57.132Z"
        fill="#7E8A93"
      />
      <path
        d="M24 104V115.5H39"
        stroke="#7E8A93"
        stroke-width="2"
        stroke-linecap="round"
        stroke-linejoin="round"
      />
      <rect x="26.5" y="105" width="3" height="7" rx="1.5" fill="#7E8A93" />
      <rect x="31.5" y="102" width="3" height="7" rx="1.5" fill="#7E8A93" />
      <rect x="35.5" y="107" width="3" height="6" rx="1.5" fill="#7E8A93" />
      <rect
        x="25"
        y="151"
        width="14"
        height="15"
        rx="3"
        stroke="white"
        stroke-width="2"
        stroke-linecap="round"
      />
      <line
        x1="35.375"
        y1="155.462"
        x2="28.625"
        y2="155.462"
        stroke="white"
        stroke-width="2"
        stroke-linecap="round"
      />
      <line
        x1="33.625"
        y1="158.923"
        x2="28.625"
        y2="158.923"
        stroke="white"
        stroke-width="2"
        stroke-linecap="round"
      />
      <line
        x1="31"
        y1="162.385"
        x2="28.625"
        y2="162.385"
        stroke="white"
        stroke-width="2"
        stroke-linecap="round"
      />
      <mask
        id="path-22-outside-1_846_3722"
        maskUnits="userSpaceOnUse"
        x="607.952"
        y="133.971"
        width="52.6596"
        height="50.7298"
        fill="black"
      >
        <rect
          fill="white"
          x="607.952"
          y="133.971"
          width="52.6596"
          height="50.7298"
        />
        <path
          fill-rule="evenodd"
          clip-rule="evenodd"
          d="M610.573 136.004C610.592 135.452 611.055 135.02 611.607 135.039L624.63 135.488C625.182 135.507 625.614 135.97 625.595 136.522L625.304 144.946C625.274 145.837 624.182 146.245 623.574 145.594L622.277 144.205C621.901 143.801 621.268 143.779 620.864 144.156L611.704 152.704C611.053 153.312 609.992 152.829 610.023 151.939L610.573 136.004ZM620.644 150.529C621.048 150.153 621.681 150.174 622.057 150.578L624.719 153.43C624.9 153.624 624.996 153.881 624.987 154.146L624.057 181.093C624.038 181.645 623.575 182.077 623.023 182.058L609.999 181.609C609.448 181.59 609.016 181.127 609.035 180.575L609.705 161.139C609.714 160.874 609.828 160.623 610.022 160.443L620.644 150.529ZM641.196 163.865C641.182 164.286 641.5 164.647 641.921 164.662C649.803 164.934 656.413 158.765 656.685 150.883C656.78 148.134 656.091 145.539 654.819 143.314C654.522 142.795 653.827 142.706 653.375 143.097L641.889 153.047C641.679 153.229 641.554 153.491 641.545 153.768L641.196 163.865ZM641.851 144.891C641.821 145.763 642.845 146.253 643.505 145.681L650.204 139.878C650.682 139.464 650.661 138.714 650.13 138.372C648.039 137.028 645.57 136.211 642.906 136.119C642.485 136.105 642.143 136.443 642.128 136.864L641.851 144.891ZM656.927 181.52C657.535 182.171 657.052 183.233 656.162 183.202L641.547 182.697C640.995 182.678 640.563 182.216 640.582 181.664L641.086 167.049C641.117 166.158 642.209 165.75 642.817 166.401L656.927 181.52ZM640.617 137.041C640.636 136.489 640.204 136.026 639.652 136.007L628.131 135.609C627.579 135.59 627.116 136.022 627.097 136.574L626.685 148.498C626.676 148.763 626.773 149.021 626.954 149.215L631.872 154.485C632.239 154.878 632.851 154.91 633.258 154.558L639.891 148.812C640.101 148.63 640.226 148.368 640.236 148.09L640.617 137.041ZM639.929 156.968C639.959 156.095 638.935 155.606 638.275 156.178L632.926 160.812C632.519 161.164 631.907 161.132 631.54 160.738L628.098 157.051C627.49 156.399 626.399 156.808 626.368 157.698L625.559 181.145C625.54 181.697 625.972 182.16 626.524 182.179L638.045 182.577C638.597 182.596 639.06 182.164 639.079 181.612L639.929 156.968Z"
        />
      </mask>
      <path
        fill-rule="evenodd"
        clip-rule="evenodd"
        d="M610.573 136.004C610.592 135.452 611.055 135.02 611.607 135.039L624.63 135.488C625.182 135.507 625.614 135.97 625.595 136.522L625.304 144.946C625.274 145.837 624.182 146.245 623.574 145.594L622.277 144.205C621.901 143.801 621.268 143.779 620.864 144.156L611.704 152.704C611.053 153.312 609.992 152.829 610.023 151.939L610.573 136.004ZM620.644 150.529C621.048 150.153 621.681 150.174 622.057 150.578L624.719 153.43C624.9 153.624 624.996 153.881 624.987 154.146L624.057 181.093C624.038 181.645 623.575 182.077 623.023 182.058L609.999 181.609C609.448 181.59 609.016 181.127 609.035 180.575L609.705 161.139C609.714 160.874 609.828 160.623 610.022 160.443L620.644 150.529ZM641.196 163.865C641.182 164.286 641.5 164.647 641.921 164.662C649.803 164.934 656.413 158.765 656.685 150.883C656.78 148.134 656.091 145.539 654.819 143.314C654.522 142.795 653.827 142.706 653.375 143.097L641.889 153.047C641.679 153.229 641.554 153.491 641.545 153.768L641.196 163.865ZM641.851 144.891C641.821 145.763 642.845 146.253 643.505 145.681L650.204 139.878C650.682 139.464 650.661 138.714 650.13 138.372C648.039 137.028 645.57 136.211 642.906 136.119C642.485 136.105 642.143 136.443 642.128 136.864L641.851 144.891ZM656.927 181.52C657.535 182.171 657.052 183.233 656.162 183.202L641.547 182.697C640.995 182.678 640.563 182.216 640.582 181.664L641.086 167.049C641.117 166.158 642.209 165.75 642.817 166.401L656.927 181.52ZM640.617 137.041C640.636 136.489 640.204 136.026 639.652 136.007L628.131 135.609C627.579 135.59 627.116 136.022 627.097 136.574L626.685 148.498C626.676 148.763 626.773 149.021 626.954 149.215L631.872 154.485C632.239 154.878 632.851 154.91 633.258 154.558L639.891 148.812C640.101 148.63 640.226 148.368 640.236 148.09L640.617 137.041ZM639.929 156.968C639.959 156.095 638.935 155.606 638.275 156.178L632.926 160.812C632.519 161.164 631.907 161.132 631.54 160.738L628.098 157.051C627.49 156.399 626.399 156.808 626.368 157.698L625.559 181.145C625.54 181.697 625.972 182.16 626.524 182.179L638.045 182.577C638.597 182.596 639.06 182.164 639.079 181.612L639.929 156.968Z"
        fill="url(#paint0_linear_846_3722)"
      />
      <path
        d="M638.045 182.577L638.011 183.576L638.045 182.577ZM626.524 182.179L626.558 181.18L626.524 182.179ZM638.275 156.178L638.93 156.934L638.275 156.178ZM639.891 148.812L640.546 149.568L639.891 148.812ZM642.817 166.401L642.086 167.083L642.817 166.401ZM656.927 181.52L656.196 182.202L656.927 181.52ZM643.505 145.681L642.851 144.925L643.505 145.681ZM650.204 139.878L649.55 139.122L650.204 139.878ZM650.13 138.372L650.671 137.531L650.13 138.372ZM641.889 153.047L641.235 152.291L641.889 153.047ZM654.819 143.314L655.687 142.818L654.819 143.314ZM653.375 143.097L654.029 143.853L653.375 143.097ZM610.022 160.443L610.705 161.174L610.022 160.443ZM622.057 150.578L622.789 149.896L622.057 150.578ZM620.644 150.529L621.326 151.261L620.644 150.529ZM624.719 153.43L625.45 152.747L624.719 153.43ZM611.704 152.704L612.387 153.436L611.704 152.704ZM622.277 144.205L623.008 143.522L622.277 144.205ZM620.864 144.156L620.182 143.425L620.864 144.156ZM631.872 154.485L632.603 153.802L631.872 154.485ZM633.258 154.558L632.603 153.802L633.258 154.558ZM623.574 145.594L624.305 144.912L623.574 145.594ZM626.954 149.215L626.223 149.897L626.954 149.215ZM624.665 134.489L611.641 134.04L611.572 136.038L624.596 136.488L624.665 134.489ZM626.304 144.981L626.595 136.557L624.596 136.488L624.305 144.912L626.304 144.981ZM621.546 144.887L622.843 146.276L624.305 144.912L623.008 143.522L621.546 144.887ZM612.387 153.436L621.546 144.887L620.182 143.425L611.022 151.973L612.387 153.436ZM609.573 135.969L609.023 151.904L611.022 151.973L611.572 136.038L609.573 135.969ZM625.45 152.747L622.789 149.896L621.326 151.261L623.988 154.112L625.45 152.747ZM625.056 181.128L625.986 154.181L623.988 154.112L623.058 181.059L625.056 181.128ZM609.965 182.608L622.989 183.058L623.058 181.059L610.034 180.609L609.965 182.608ZM608.706 161.105L608.035 180.54L610.034 180.609L610.705 161.174L608.706 161.105ZM619.962 149.798L609.34 159.711L610.705 161.174L621.326 151.261L619.962 149.798ZM655.685 150.849C655.432 158.178 649.285 163.915 641.955 163.663L641.886 165.661C650.32 165.952 657.393 159.351 657.684 150.918L655.685 150.849ZM653.951 143.811C655.133 145.879 655.774 148.29 655.685 150.849L657.684 150.918C657.786 147.977 657.048 145.199 655.687 142.818L653.951 143.811ZM642.544 153.803L654.029 143.853L652.72 142.342L641.235 152.291L642.544 153.803ZM642.196 163.9L642.544 153.803L640.545 153.734L640.197 163.831L642.196 163.9ZM649.55 139.122L642.851 144.925L644.16 146.437L650.859 140.634L649.55 139.122ZM642.871 137.119C645.351 137.204 647.646 137.963 649.589 139.213L650.671 137.531C648.433 136.092 645.79 135.218 642.94 135.12L642.871 137.119ZM642.851 144.925L643.128 136.899L641.129 136.83L640.852 144.856L642.851 144.925ZM641.512 183.697L656.127 184.201L656.196 182.202L641.581 181.698L641.512 183.697ZM640.087 167.014L639.582 181.629L641.581 181.698L642.086 167.083L640.087 167.014ZM657.658 180.838L643.548 165.719L642.086 167.083L656.196 182.202L657.658 180.838ZM628.096 136.609L639.618 137.006L639.687 135.008L628.165 134.61L628.096 136.609ZM627.685 148.533L628.096 136.609L626.097 136.54L625.686 148.464L627.685 148.533ZM632.603 153.802L627.685 148.533L626.223 149.897L631.141 155.167L632.603 153.802ZM639.236 148.056L632.603 153.802L633.912 155.314L640.546 149.568L639.236 148.056ZM639.618 137.006L639.236 148.056L641.235 148.125L641.616 137.075L639.618 137.006ZM633.581 161.568L638.93 156.934L637.62 155.422L632.271 160.056L633.581 161.568ZM627.367 157.733L630.809 161.421L632.271 160.056L628.829 156.368L627.367 157.733ZM626.558 181.18L627.367 157.733L625.368 157.664L624.559 181.111L626.558 181.18ZM638.08 181.577L626.558 181.18L626.489 183.178L638.011 183.576L638.08 181.577ZM638.93 156.934L638.08 181.577L640.078 181.646L640.929 157.003L638.93 156.934ZM638.011 183.576C639.114 183.614 640.04 182.75 640.078 181.646L638.08 181.577L638.011 183.576ZM624.559 181.111C624.521 182.215 625.385 183.14 626.489 183.178L626.558 181.18L624.559 181.111ZM628.829 156.368C627.614 155.066 625.43 155.883 625.368 157.664L627.367 157.733L627.367 157.733L628.829 156.368ZM638.93 156.934L638.93 156.934L640.929 157.003C640.989 155.257 638.94 154.279 637.62 155.422L638.93 156.934ZM632.271 160.056L630.809 161.421C631.543 162.207 632.768 162.272 633.581 161.568L632.271 160.056ZM640.546 149.568C640.966 149.203 641.216 148.681 641.235 148.125L639.236 148.056L640.546 149.568ZM628.165 134.61C627.061 134.572 626.136 135.436 626.097 136.54L628.096 136.609L628.096 136.609L628.165 134.61ZM642.086 167.083L643.548 165.719C642.332 164.416 640.148 165.234 640.087 167.014L642.086 167.083ZM656.127 184.201C657.908 184.263 658.874 182.14 657.658 180.838L656.196 182.202L656.196 182.202L656.127 184.201ZM641.581 181.698L639.582 181.629C639.544 182.733 640.408 183.659 641.512 183.697L641.581 181.698ZM642.94 135.12C641.934 135.085 641.161 135.891 641.129 136.83L643.128 136.899C643.124 136.995 643.036 137.124 642.871 137.119L642.94 135.12ZM642.851 144.925L640.852 144.856C640.791 146.602 642.84 147.58 644.16 146.437L642.851 144.925ZM650.859 140.634C651.792 139.825 651.817 138.269 650.671 137.531L649.589 139.213C649.581 139.209 649.568 139.197 649.558 139.179C649.549 139.162 649.547 139.148 649.546 139.14C649.546 139.125 649.552 139.12 649.55 139.122L650.859 140.634ZM641.235 152.291C640.814 152.655 640.565 153.178 640.545 153.734L642.544 153.803L641.235 152.291ZM655.687 142.818C655.05 141.704 653.605 141.575 652.72 142.342L654.029 143.853C654.032 143.851 654.027 143.856 654.013 143.854C654.006 143.853 653.994 143.85 653.981 143.841C653.965 143.831 653.955 143.818 653.951 143.811L655.687 142.818ZM610.705 161.174L610.705 161.174L609.34 159.711C608.952 160.073 608.724 160.575 608.706 161.105L610.705 161.174ZM610.034 180.609L610.034 180.609L608.035 180.54C607.997 181.644 608.861 182.57 609.965 182.608L610.034 180.609ZM623.058 181.059L623.058 181.059L622.989 183.058C624.093 183.096 625.018 182.232 625.056 181.128L623.058 181.059ZM622.789 149.896C622.035 149.088 620.769 149.045 619.962 149.798L621.326 151.261L622.789 149.896ZM623.988 154.112L625.986 154.181C626.005 153.651 625.812 153.135 625.45 152.747L623.988 154.112ZM611.022 151.973L611.022 151.973L609.023 151.904C608.962 153.685 611.084 154.651 612.387 153.436L611.022 151.973ZM623.008 143.522C622.255 142.715 620.989 142.671 620.182 143.425L621.546 144.887L623.008 143.522ZM631.141 155.167C631.875 155.953 633.099 156.018 633.912 155.314L632.603 153.802L632.603 153.802L631.141 155.167ZM624.305 144.912L622.843 146.276C624.059 147.579 626.242 146.761 626.304 144.981L624.305 144.912ZM625.686 148.464C625.668 148.994 625.861 149.509 626.223 149.897L627.685 148.533L625.686 148.464ZM611.641 134.04C610.537 134.002 609.611 134.866 609.573 135.969L611.572 136.038L611.572 136.038L611.641 134.04ZM641.955 163.663C642.12 163.668 642.199 163.803 642.196 163.9L640.197 163.831C640.165 164.77 640.88 165.627 641.886 165.661L641.955 163.663ZM639.618 137.006L641.616 137.075C641.655 135.971 640.791 135.046 639.687 135.008L639.618 137.006ZM624.596 136.488L624.596 136.488L626.595 136.557C626.633 135.453 625.769 134.527 624.665 134.489L624.596 136.488Z"
        fill="black"
        mask="url(#path-22-outside-1_846_3722)"
      />
      <path
        d="M659.302 133.177L652.199 132.931C650.863 132.885 650.139 134.477 651.05 135.454L657.909 142.803C658.821 143.78 660.458 143.167 660.504 141.831L660.75 134.727C660.778 133.9 660.13 133.205 659.302 133.177Z"
        fill="#00C08C"
        stroke="black"
      />
      <path
        d="M642.112 164.996C642.112 164.996 653.143 168.728 659.508 168.728C666.02 168.728 673.75 162.511 674.281 161.375L674.198 161.198C674.312 161.191 674.337 161.255 674.281 161.375L677.717 168.728C676.071 168.915 666.707 177.017 658.068 175.038C651.128 173.448 648.996 174.237 646.911 171.595L642.112 164.996Z"
        fill="#00C6A2"
        stroke="black"
      />
      <path
        d="M674 165C672.5 159.5 676.5 157.5 678.078 159.547C677.5 160 677.26 162.641 678.5 165C679.74 167.359 681.126 168.14 681.126 168.14C680.969 168.609 681 170.5 678.5 170.5C676.144 170.5 674.81 167.971 674 165Z"
        fill="white"
        stroke="black"
      />
      <path
        d="M676.962 151.261C678.064 154.704 678.339 157.797 677.88 159.391C677.421 160.028 677.421 162.26 678.339 164.651C679.682 168.15 681.093 167.999 681.093 167.999C682.47 164.651 686.601 167.999 688.438 166.564L696.241 160.825C696.241 159.52 696.306 158.294 696.241 157L700.831 154.608C702.667 153.652 702.208 152.217 700.372 151.739C698.964 151.372 698.077 151.739 696.7 152.217C696.7 152.217 699.913 150.782 699.913 149.826C699.913 148.102 695.782 147.913 690.274 150.782L690.273 150.782C687.448 152.254 684.765 153.652 682.929 152.217C681.093 149.348 681.093 146 677.88 146C674.866 146 676.197 148.869 676.962 151.261Z"
        fill="white"
      />
      <path
        d="M696.7 152.217C696.7 152.217 699.913 150.782 699.913 149.826C699.913 148.102 695.782 147.913 690.274 150.782C687.448 152.254 684.765 153.652 682.929 152.217C681.093 149.348 681.093 146 677.88 146C674.866 146 676.197 148.869 676.962 151.261C678.064 154.704 678.339 157.797 677.88 159.391C677.421 160.028 677.421 162.26 678.339 164.651C679.682 168.15 681.093 167.999 681.093 167.999C682.47 164.651 686.601 167.999 688.438 166.564L696.241 160.825C696.241 159.52 696.306 158.294 696.241 157M696.7 152.217C694.864 153.174 690.274 155.565 690.274 155.565M696.7 152.217C698.077 151.739 698.964 151.372 700.372 151.739C702.208 152.217 702.667 153.652 700.831 154.608L696.241 157M686.142 160.347C687.978 159.391 687.52 159.391 690.274 159.391C692.477 159.391 692.875 159.072 693.028 158.912V157.956C693.028 157.956 693.028 154.13 695.782 154.608C696.029 154.651 696.186 155.923 696.241 157"
        stroke="black"
        stroke-linecap="round"
      />
      <rect x="360" y="175" width="328" height="72" rx="15" fill="#00D6AF" />
      <path
        d="M389.824 206.968V217H388.544V206.968H384.784V205.8H393.584V206.968H389.824ZM395.561 213.704V217H394.329V208.728H395.561V210.888C395.71 210.547 395.897 210.232 396.121 209.944C396.345 209.656 396.601 209.411 396.889 209.208C397.177 208.995 397.492 208.835 397.833 208.728C398.174 208.621 398.542 208.573 398.937 208.584V209.912H398.841C398.393 209.912 397.966 209.992 397.561 210.152C397.166 210.312 396.82 210.552 396.521 210.872C396.222 211.192 395.988 211.592 395.817 212.072C395.646 212.541 395.561 213.085 395.561 213.704ZM403.399 209.704C402.909 209.704 402.461 209.763 402.055 209.88C401.661 209.987 401.271 210.131 400.887 210.312L400.519 209.304C400.978 209.091 401.442 208.925 401.911 208.808C402.381 208.68 402.919 208.616 403.527 208.616C404.658 208.616 405.527 208.899 406.135 209.464C406.743 210.019 407.047 210.845 407.047 211.944V217H405.863V215.752C405.575 216.125 405.186 216.456 404.695 216.744C404.215 217.032 403.607 217.176 402.871 217.176C402.487 217.176 402.109 217.123 401.735 217.016C401.373 216.909 401.042 216.749 400.743 216.536C400.455 216.312 400.221 216.04 400.039 215.72C399.869 215.4 399.783 215.021 399.783 214.584C399.783 214.147 399.869 213.763 400.039 213.432C400.21 213.091 400.45 212.808 400.759 212.584C401.079 212.36 401.453 212.189 401.879 212.072C402.317 211.955 402.797 211.896 403.319 211.896C403.853 211.896 404.317 211.928 404.711 211.992C405.106 212.056 405.49 212.141 405.863 212.248V211.96C405.863 211.213 405.645 210.653 405.207 210.28C404.781 209.896 404.178 209.704 403.399 209.704ZM403.447 212.808C402.669 212.808 402.071 212.963 401.655 213.272C401.239 213.581 401.031 214.003 401.031 214.536C401.031 214.803 401.085 215.037 401.191 215.24C401.309 215.443 401.463 215.619 401.655 215.768C401.847 215.907 402.066 216.013 402.311 216.088C402.567 216.163 402.834 216.2 403.111 216.2C403.495 216.2 403.853 216.147 404.183 216.04C404.525 215.923 404.818 215.768 405.063 215.576C405.319 215.373 405.517 215.139 405.655 214.872C405.805 214.595 405.879 214.291 405.879 213.96V213.16C405.57 213.075 405.213 212.995 404.807 212.92C404.413 212.845 403.959 212.808 403.447 212.808ZM417.545 217H416.313V215.336C416.142 215.581 415.95 215.816 415.737 216.04C415.534 216.264 415.305 216.461 415.049 216.632C414.793 216.803 414.505 216.936 414.185 217.032C413.876 217.128 413.529 217.176 413.145 217.176C412.644 217.176 412.158 217.08 411.689 216.888C411.22 216.696 410.798 216.419 410.425 216.056C410.052 215.683 409.753 215.229 409.529 214.696C409.305 214.163 409.193 213.555 409.193 212.872C409.193 212.189 409.305 211.581 409.529 211.048C409.753 210.515 410.052 210.067 410.425 209.704C410.798 209.331 411.22 209.048 411.689 208.856C412.158 208.653 412.644 208.552 413.145 208.552C413.529 208.552 413.881 208.6 414.201 208.696C414.521 208.792 414.809 208.92 415.065 209.08C415.321 209.24 415.55 209.427 415.753 209.64C415.966 209.853 416.153 210.077 416.313 210.312V205.32H417.545V217ZM416.361 212.856C416.361 212.376 416.276 211.939 416.105 211.544C415.945 211.149 415.721 210.813 415.433 210.536C415.156 210.259 414.836 210.045 414.473 209.896C414.121 209.736 413.753 209.656 413.369 209.656C412.964 209.656 412.585 209.731 412.233 209.88C411.881 210.019 411.572 210.227 411.305 210.504C411.049 210.771 410.841 211.107 410.681 211.512C410.532 211.907 410.457 212.355 410.457 212.856C410.457 213.347 410.532 213.789 410.681 214.184C410.841 214.579 411.054 214.92 411.321 215.208C411.588 215.485 411.897 215.699 412.249 215.848C412.601 215.997 412.974 216.072 413.369 216.072C413.753 216.072 414.121 215.997 414.473 215.848C414.836 215.688 415.156 215.469 415.433 215.192C415.721 214.915 415.945 214.579 416.105 214.184C416.276 213.779 416.361 213.336 416.361 212.856ZM421.034 213.32C421.077 213.768 421.183 214.168 421.354 214.52C421.525 214.861 421.743 215.155 422.01 215.4C422.277 215.635 422.575 215.816 422.906 215.944C423.237 216.061 423.583 216.12 423.946 216.12C424.522 216.12 425.013 216.013 425.418 215.8C425.834 215.587 426.213 215.304 426.554 214.952L427.322 215.64C426.906 216.109 426.431 216.488 425.898 216.776C425.365 217.053 424.703 217.192 423.914 217.192C423.349 217.192 422.815 217.091 422.314 216.888C421.813 216.675 421.375 216.381 421.002 216.008C420.629 215.624 420.33 215.165 420.106 214.632C419.893 214.099 419.786 213.512 419.786 212.872C419.786 212.275 419.882 211.715 420.074 211.192C420.277 210.659 420.554 210.2 420.906 209.816C421.258 209.421 421.674 209.112 422.154 208.888C422.645 208.664 423.178 208.552 423.754 208.552C424.362 208.552 424.906 208.669 425.386 208.904C425.866 209.128 426.271 209.437 426.602 209.832C426.933 210.227 427.183 210.691 427.354 211.224C427.525 211.757 427.61 212.328 427.61 212.936C427.61 212.989 427.61 213.048 427.61 213.112C427.61 213.176 427.605 213.245 427.594 213.32H421.034ZM421.034 212.408H426.362C426.33 212.035 426.25 211.677 426.122 211.336C426.005 210.995 425.834 210.696 425.61 210.44C425.397 210.184 425.13 209.981 424.81 209.832C424.501 209.672 424.138 209.592 423.722 209.592C423.359 209.592 423.023 209.667 422.714 209.816C422.405 209.955 422.133 210.152 421.898 210.408C421.663 210.653 421.471 210.947 421.322 211.288C421.173 211.629 421.077 212.003 421.034 212.408ZM442.916 212.856C442.916 213.539 442.804 214.147 442.58 214.68C442.356 215.213 442.057 215.667 441.684 216.04C441.321 216.403 440.9 216.685 440.42 216.888C439.95 217.08 439.465 217.176 438.964 217.176C438.58 217.176 438.228 217.128 437.908 217.032C437.588 216.936 437.3 216.808 437.044 216.648C436.788 216.488 436.553 216.301 436.34 216.088C436.137 215.875 435.956 215.651 435.796 215.416V219.56H434.564V208.728H435.796V210.392C435.966 210.147 436.153 209.912 436.356 209.688C436.569 209.464 436.804 209.272 437.06 209.112C437.316 208.941 437.598 208.808 437.908 208.712C438.228 208.605 438.58 208.552 438.964 208.552C439.454 208.552 439.934 208.648 440.404 208.84C440.884 209.032 441.31 209.315 441.684 209.688C442.057 210.051 442.356 210.499 442.58 211.032C442.804 211.565 442.916 212.173 442.916 212.856ZM441.652 212.872C441.652 212.381 441.572 211.939 441.411 211.544C441.262 211.149 441.054 210.813 440.788 210.536C440.521 210.248 440.212 210.029 439.86 209.88C439.508 209.731 439.134 209.656 438.74 209.656C438.356 209.656 437.982 209.736 437.62 209.896C437.268 210.045 436.948 210.259 436.66 210.536C436.382 210.813 436.158 211.149 435.988 211.544C435.828 211.939 435.748 212.376 435.748 212.856C435.748 213.336 435.828 213.779 435.988 214.184C436.158 214.579 436.382 214.915 436.66 215.192C436.948 215.469 437.268 215.688 437.62 215.848C437.982 215.997 438.356 216.072 438.74 216.072C439.134 216.072 439.508 216.003 439.86 215.864C440.222 215.715 440.532 215.507 440.788 215.24C441.054 214.963 441.262 214.627 441.411 214.232C441.572 213.827 441.652 213.373 441.652 212.872ZM445.924 213.32C445.967 213.768 446.074 214.168 446.245 214.52C446.415 214.861 446.634 215.155 446.901 215.4C447.167 215.635 447.466 215.816 447.797 215.944C448.127 216.061 448.474 216.12 448.837 216.12C449.413 216.12 449.903 216.013 450.309 215.8C450.725 215.587 451.103 215.304 451.445 214.952L452.213 215.64C451.797 216.109 451.322 216.488 450.789 216.776C450.255 217.053 449.594 217.192 448.805 217.192C448.239 217.192 447.706 217.091 447.205 216.888C446.703 216.675 446.266 216.381 445.893 216.008C445.519 215.624 445.221 215.165 444.997 214.632C444.783 214.099 444.677 213.512 444.677 212.872C444.677 212.275 444.773 211.715 444.965 211.192C445.167 210.659 445.445 210.2 445.797 209.816C446.149 209.421 446.565 209.112 447.045 208.888C447.535 208.664 448.069 208.552 448.645 208.552C449.253 208.552 449.797 208.669 450.277 208.904C450.757 209.128 451.162 209.437 451.493 209.832C451.823 210.227 452.074 210.691 452.245 211.224C452.415 211.757 452.501 212.328 452.501 212.936C452.501 212.989 452.501 213.048 452.501 213.112C452.501 213.176 452.495 213.245 452.485 213.32H445.924ZM445.924 212.408H451.253C451.221 212.035 451.141 211.677 451.013 211.336C450.895 210.995 450.725 210.696 450.501 210.44C450.287 210.184 450.021 209.981 449.701 209.832C449.391 209.672 449.029 209.592 448.613 209.592C448.25 209.592 447.914 209.667 447.605 209.816C447.295 209.955 447.023 210.152 446.789 210.408C446.554 210.653 446.362 210.947 446.213 211.288C446.063 211.629 445.967 212.003 445.924 212.408ZM455.889 213.704V217H454.657V208.728H455.889V210.888C456.039 210.547 456.225 210.232 456.449 209.944C456.673 209.656 456.929 209.411 457.217 209.208C457.505 208.995 457.82 208.835 458.161 208.728C458.503 208.621 458.871 208.573 459.265 208.584V209.912H459.169C458.721 209.912 458.295 209.992 457.889 210.152C457.495 210.312 457.148 210.552 456.849 210.872C456.551 211.192 456.316 211.592 456.145 212.072C455.975 212.541 455.889 213.085 455.889 213.704ZM469.494 212.856C469.494 213.539 469.382 214.147 469.158 214.68C468.934 215.213 468.635 215.667 468.262 216.04C467.899 216.403 467.478 216.685 466.998 216.888C466.528 217.08 466.043 217.176 465.542 217.176C465.158 217.176 464.806 217.128 464.486 217.032C464.166 216.936 463.878 216.808 463.622 216.648C463.366 216.488 463.131 216.301 462.918 216.088C462.715 215.875 462.534 215.651 462.374 215.416V219.56H461.142V208.728H462.374V210.392C462.544 210.147 462.731 209.912 462.934 209.688C463.147 209.464 463.382 209.272 463.638 209.112C463.894 208.941 464.176 208.808 464.486 208.712C464.806 208.605 465.158 208.552 465.542 208.552C466.032 208.552 466.512 208.648 466.982 208.84C467.462 209.032 467.888 209.315 468.262 209.688C468.635 210.051 468.934 210.499 469.158 211.032C469.382 211.565 469.494 212.173 469.494 212.856ZM468.23 212.872C468.23 212.381 468.15 211.939 467.99 211.544C467.84 211.149 467.632 210.813 467.366 210.536C467.099 210.248 466.79 210.029 466.438 209.88C466.086 209.731 465.712 209.656 465.318 209.656C464.934 209.656 464.56 209.736 464.198 209.896C463.846 210.045 463.526 210.259 463.238 210.536C462.96 210.813 462.736 211.149 462.566 211.544C462.406 211.939 462.326 212.376 462.326 212.856C462.326 213.336 462.406 213.779 462.566 214.184C462.736 214.579 462.96 214.915 463.238 215.192C463.526 215.469 463.846 215.688 464.198 215.848C464.56 215.997 464.934 216.072 465.318 216.072C465.712 216.072 466.086 216.003 466.438 215.864C466.8 215.715 467.11 215.507 467.366 215.24C467.632 214.963 467.84 214.627 467.99 214.232C468.15 213.827 468.23 213.373 468.23 212.872ZM472.503 213.32C472.545 213.768 472.652 214.168 472.823 214.52C472.993 214.861 473.212 215.155 473.479 215.4C473.745 215.635 474.044 215.816 474.375 215.944C474.705 216.061 475.052 216.12 475.415 216.12C475.991 216.12 476.481 216.013 476.887 215.8C477.303 215.587 477.681 215.304 478.023 214.952L478.791 215.64C478.375 216.109 477.9 216.488 477.367 216.776C476.833 217.053 476.172 217.192 475.383 217.192C474.817 217.192 474.284 217.091 473.783 216.888C473.281 216.675 472.844 216.381 472.471 216.008C472.097 215.624 471.799 215.165 471.575 214.632C471.361 214.099 471.255 213.512 471.255 212.872C471.255 212.275 471.351 211.715 471.543 211.192C471.745 210.659 472.023 210.2 472.375 209.816C472.727 209.421 473.143 209.112 473.623 208.888C474.113 208.664 474.647 208.552 475.223 208.552C475.831 208.552 476.375 208.669 476.855 208.904C477.335 209.128 477.74 209.437 478.071 209.832C478.401 210.227 478.652 210.691 478.823 211.224C478.993 211.757 479.079 212.328 479.079 212.936C479.079 212.989 479.079 213.048 479.079 213.112C479.079 213.176 479.073 213.245 479.063 213.32H472.503ZM472.503 212.408H477.831C477.799 212.035 477.719 211.677 477.591 211.336C477.473 210.995 477.303 210.696 477.079 210.44C476.865 210.184 476.599 209.981 476.279 209.832C475.969 209.672 475.607 209.592 475.191 209.592C474.828 209.592 474.492 209.667 474.183 209.816C473.873 209.955 473.601 210.152 473.367 210.408C473.132 210.653 472.94 210.947 472.791 211.288C472.641 211.629 472.545 212.003 472.503 212.408ZM482.899 209.816V214.648C482.899 215.16 483.027 215.517 483.283 215.72C483.539 215.923 483.875 216.024 484.291 216.024C484.505 216.024 484.702 216.003 484.883 215.96C485.075 215.917 485.278 215.843 485.491 215.736V216.792C485.278 216.909 485.049 216.995 484.803 217.048C484.569 217.112 484.302 217.144 484.003 217.144C483.673 217.144 483.363 217.101 483.075 217.016C482.787 216.931 482.537 216.797 482.323 216.616C482.121 216.424 481.961 216.179 481.843 215.88C481.726 215.581 481.667 215.224 481.667 214.808V209.816H480.515V208.728H481.667V206.232H482.899V208.728H485.523V209.816H482.899ZM493.576 213.464V208.728H494.792V217H493.576V215.56C493.299 216.008 492.936 216.392 492.488 216.712C492.04 217.021 491.459 217.176 490.744 217.176C490.243 217.176 489.795 217.096 489.4 216.936C489.016 216.776 488.685 216.552 488.408 216.264C488.141 215.965 487.933 215.613 487.784 215.208C487.645 214.803 487.576 214.355 487.576 213.864V208.728H488.808V213.56C488.808 214.328 489.005 214.936 489.4 215.384C489.795 215.832 490.36 216.056 491.096 216.056C491.448 216.056 491.773 215.997 492.072 215.88C492.381 215.752 492.643 215.576 492.856 215.352C493.08 215.117 493.256 214.84 493.384 214.52C493.512 214.2 493.576 213.848 493.576 213.464ZM500.556 209.704C500.065 209.704 499.617 209.763 499.212 209.88C498.817 209.987 498.428 210.131 498.044 210.312L497.676 209.304C498.134 209.091 498.598 208.925 499.068 208.808C499.537 208.68 500.076 208.616 500.684 208.616C501.814 208.616 502.684 208.899 503.292 209.464C503.9 210.019 504.204 210.845 504.204 211.944V217H503.02V215.752C502.732 216.125 502.342 216.456 501.852 216.744C501.372 217.032 500.764 217.176 500.028 217.176C499.644 217.176 499.265 217.123 498.892 217.016C498.529 216.909 498.198 216.749 497.9 216.536C497.612 216.312 497.377 216.04 497.196 215.72C497.025 215.4 496.94 215.021 496.94 214.584C496.94 214.147 497.025 213.763 497.196 213.432C497.366 213.091 497.606 212.808 497.916 212.584C498.236 212.36 498.609 212.189 499.036 212.072C499.473 211.955 499.953 211.896 500.476 211.896C501.009 211.896 501.473 211.928 501.868 211.992C502.262 212.056 502.646 212.141 503.02 212.248V211.96C503.02 211.213 502.801 210.653 502.364 210.28C501.937 209.896 501.334 209.704 500.556 209.704ZM500.604 212.808C499.825 212.808 499.228 212.963 498.812 213.272C498.396 213.581 498.188 214.003 498.188 214.536C498.188 214.803 498.241 215.037 498.348 215.24C498.465 215.443 498.62 215.619 498.812 215.768C499.004 215.907 499.222 216.013 499.468 216.088C499.724 216.163 499.99 216.2 500.268 216.2C500.652 216.2 501.009 216.147 501.34 216.04C501.681 215.923 501.974 215.768 502.22 215.576C502.476 215.373 502.673 215.139 502.812 214.872C502.961 214.595 503.036 214.291 503.036 213.96V213.16C502.726 213.075 502.369 212.995 501.964 212.92C501.569 212.845 501.116 212.808 500.604 212.808ZM508.173 217H506.941V205.32H508.173V217ZM516.712 214.68C516.712 215.075 516.632 215.427 516.472 215.736C516.323 216.035 516.115 216.291 515.848 216.504C515.592 216.717 515.283 216.883 514.92 217C514.568 217.107 514.184 217.16 513.768 217.16C513.171 217.16 512.568 217.053 511.96 216.84C511.352 216.616 510.814 216.317 510.344 215.944L510.968 215.064C511.416 215.405 511.88 215.667 512.36 215.848C512.851 216.029 513.342 216.12 513.832 216.12C514.334 216.12 514.744 216.003 515.064 215.768C515.384 215.533 515.544 215.213 515.544 214.808V214.776C515.544 214.573 515.486 214.397 515.368 214.248C515.262 214.099 515.112 213.971 514.92 213.864C514.728 213.747 514.504 213.645 514.248 213.56C514.003 213.475 513.747 213.395 513.48 213.32C513.16 213.224 512.835 213.123 512.504 213.016C512.184 212.899 511.891 212.755 511.624 212.584C511.368 212.413 511.155 212.2 510.984 211.944C510.824 211.688 510.744 211.368 510.744 210.984V210.952C510.744 210.6 510.814 210.28 510.952 209.992C511.091 209.693 511.283 209.443 511.528 209.24C511.784 209.027 512.083 208.867 512.424 208.76C512.776 208.643 513.155 208.584 513.56 208.584C514.072 208.584 514.59 208.669 515.112 208.84C515.635 209 516.11 209.219 516.536 209.496L515.976 210.424C515.592 210.179 515.187 209.987 514.76 209.848C514.344 209.699 513.934 209.624 513.528 209.624C513.038 209.624 512.648 209.741 512.36 209.976C512.072 210.2 511.928 210.483 511.928 210.824V210.856C511.928 211.048 511.987 211.219 512.104 211.368C512.222 211.507 512.376 211.629 512.568 211.736C512.771 211.843 513 211.939 513.256 212.024C513.512 212.109 513.779 212.195 514.056 212.28C514.376 212.376 514.691 212.483 515 212.6C515.32 212.717 515.608 212.867 515.864 213.048C516.12 213.229 516.323 213.448 516.472 213.704C516.632 213.96 516.712 214.275 516.712 214.648V214.68ZM531.91 212.856C531.91 213.443 531.798 214.003 531.574 214.536C531.361 215.059 531.062 215.517 530.678 215.912C530.294 216.307 529.835 216.621 529.302 216.856C528.769 217.08 528.193 217.192 527.574 217.192C526.955 217.192 526.385 217.08 525.862 216.856C525.339 216.621 524.886 216.312 524.502 215.928C524.118 215.533 523.819 215.075 523.606 214.552C523.393 214.029 523.286 213.475 523.286 212.888C523.286 212.301 523.393 211.747 523.606 211.224C523.819 210.691 524.118 210.227 524.502 209.832C524.886 209.437 525.339 209.128 525.862 208.904C526.395 208.669 526.977 208.552 527.606 208.552C528.225 208.552 528.795 208.669 529.318 208.904C529.851 209.128 530.31 209.437 530.694 209.832C531.078 210.216 531.377 210.669 531.59 211.192C531.803 211.715 531.91 212.269 531.91 212.856ZM530.646 212.888C530.646 212.44 530.566 212.019 530.406 211.624C530.257 211.229 530.043 210.888 529.766 210.6C529.489 210.301 529.163 210.067 528.79 209.896C528.417 209.725 528.011 209.64 527.574 209.64C527.126 209.64 526.715 209.725 526.342 209.896C525.969 210.056 525.649 210.285 525.382 210.584C525.126 210.872 524.923 211.213 524.774 211.608C524.625 211.992 524.55 212.408 524.55 212.856C524.55 213.304 524.625 213.725 524.774 214.12C524.934 214.515 525.147 214.856 525.414 215.144C525.691 215.432 526.017 215.661 526.39 215.832C526.763 216.003 527.169 216.088 527.606 216.088C528.054 216.088 528.465 216.008 528.838 215.848C529.211 215.677 529.531 215.448 529.798 215.16C530.065 214.872 530.273 214.536 530.422 214.152C530.571 213.757 530.646 213.336 530.646 212.888ZM535.374 212.264V217H534.142V208.728H535.374V210.168C535.651 209.72 536.014 209.341 536.462 209.032C536.91 208.712 537.491 208.552 538.206 208.552C538.707 208.552 539.15 208.632 539.534 208.792C539.928 208.952 540.259 209.181 540.526 209.48C540.803 209.768 541.011 210.115 541.15 210.52C541.299 210.925 541.374 211.373 541.374 211.864V217H540.142V212.168C540.142 211.4 539.944 210.792 539.55 210.344C539.155 209.896 538.59 209.672 537.854 209.672C537.502 209.672 537.171 209.736 536.862 209.864C536.563 209.981 536.302 210.157 536.078 210.392C535.854 210.616 535.678 210.888 535.55 211.208C535.432 211.528 535.374 211.88 535.374 212.264ZM560.174 211.4C560.174 212.2 560.025 212.952 559.726 213.656C559.427 214.349 559.011 214.963 558.478 215.496C557.955 216.019 557.326 216.435 556.59 216.744C555.865 217.043 555.07 217.192 554.206 217.192C553.342 217.192 552.547 217.043 551.822 216.744C551.097 216.435 550.467 216.024 549.934 215.512C549.411 214.989 549.001 214.381 548.702 213.688C548.414 212.984 548.27 212.232 548.27 211.432V211.4C548.27 210.6 548.419 209.853 548.718 209.16C549.017 208.456 549.427 207.843 549.95 207.32C550.483 206.787 551.113 206.371 551.838 206.072C552.574 205.763 553.374 205.608 554.238 205.608C555.102 205.608 555.897 205.763 556.622 206.072C557.347 206.371 557.971 206.781 558.494 207.304C559.027 207.816 559.438 208.424 559.726 209.128C560.025 209.821 560.174 210.568 560.174 211.368V211.4ZM557.598 211.432V211.4C557.598 210.92 557.513 210.467 557.342 210.04C557.182 209.613 556.947 209.24 556.638 208.92C556.339 208.6 555.982 208.349 555.566 208.168C555.15 207.976 554.697 207.88 554.206 207.88C553.705 207.88 553.246 207.971 552.83 208.152C552.425 208.333 552.073 208.584 551.774 208.904C551.486 209.224 551.257 209.597 551.086 210.024C550.926 210.44 550.846 210.888 550.846 211.368V211.4C550.846 211.88 550.926 212.333 551.086 212.76C551.257 213.187 551.491 213.56 551.79 213.88C552.099 214.2 552.457 214.456 552.862 214.648C553.278 214.829 553.737 214.92 554.238 214.92C554.729 214.92 555.182 214.829 555.598 214.648C556.014 214.467 556.366 214.216 556.654 213.896C556.953 213.576 557.182 213.208 557.342 212.792C557.513 212.365 557.598 211.912 557.598 211.432ZM567.272 210.808H567.144C566.333 210.808 565.693 211.053 565.224 211.544C564.765 212.035 564.536 212.797 564.536 213.832V217H562.104V208.424H564.536V210.152C564.781 209.565 565.117 209.096 565.544 208.744C565.97 208.392 566.546 208.232 567.272 208.264V210.808ZM577.415 217H574.983V215.768C574.684 216.173 574.322 216.509 573.895 216.776C573.479 217.032 572.951 217.16 572.311 217.16C571.81 217.16 571.324 217.064 570.855 216.872C570.386 216.68 569.97 216.397 569.607 216.024C569.244 215.64 568.951 215.176 568.727 214.632C568.514 214.077 568.407 213.443 568.407 212.728V212.696C568.407 211.981 568.514 211.352 568.727 210.808C568.951 210.253 569.239 209.789 569.591 209.416C569.954 209.032 570.37 208.744 570.839 208.552C571.308 208.36 571.799 208.264 572.311 208.264C572.962 208.264 573.495 208.392 573.911 208.648C574.338 208.904 574.695 209.203 574.983 209.544V205.32H577.415V217ZM575.015 212.728V212.696C575.015 212.344 574.956 212.024 574.839 211.736C574.732 211.437 574.583 211.187 574.391 210.984C574.21 210.771 573.991 210.611 573.735 210.504C573.49 210.387 573.223 210.328 572.935 210.328C572.647 210.328 572.375 210.387 572.119 210.504C571.874 210.611 571.655 210.771 571.463 210.984C571.271 211.187 571.116 211.432 570.999 211.72C570.892 212.008 570.839 212.333 570.839 212.696V212.728C570.839 213.08 570.892 213.405 570.999 213.704C571.116 213.992 571.271 214.243 571.463 214.456C571.655 214.659 571.874 214.819 572.119 214.936C572.375 215.043 572.647 215.096 572.935 215.096C573.223 215.096 573.49 215.043 573.735 214.936C573.991 214.819 574.21 214.659 574.391 214.456C574.583 214.243 574.732 213.992 574.839 213.704C574.956 213.405 575.015 213.08 575.015 212.728ZM587.588 212.952C587.588 213.069 587.583 213.171 587.572 213.256C587.572 213.341 587.567 213.443 587.556 213.56H581.588C581.705 214.115 581.945 214.536 582.308 214.824C582.681 215.101 583.14 215.24 583.684 215.24C584.089 215.24 584.452 215.171 584.772 215.032C585.092 214.893 585.423 214.669 585.764 214.36L587.156 215.592C586.751 216.093 586.26 216.488 585.684 216.776C585.108 217.053 584.431 217.192 583.652 217.192C583.012 217.192 582.415 217.085 581.86 216.872C581.316 216.659 580.841 216.355 580.436 215.96C580.041 215.565 579.732 215.101 579.508 214.568C579.284 214.024 579.172 213.421 579.172 212.76V212.728C579.172 212.12 579.273 211.544 579.476 211C579.689 210.456 579.983 209.981 580.356 209.576C580.729 209.171 581.172 208.851 581.684 208.616C582.207 208.381 582.783 208.264 583.412 208.264C584.127 208.264 584.745 208.392 585.268 208.648C585.791 208.904 586.223 209.251 586.564 209.688C586.916 210.115 587.172 210.611 587.332 211.176C587.503 211.731 587.588 212.312 587.588 212.92V212.952ZM585.22 212.04C585.145 211.496 584.953 211.059 584.644 210.728C584.335 210.387 583.924 210.216 583.412 210.216C582.9 210.216 582.484 210.381 582.164 210.712C581.855 211.043 581.652 211.485 581.556 212.04H585.22ZM594.569 210.808H594.441C593.63 210.808 592.99 211.053 592.521 211.544C592.062 212.035 591.833 212.797 591.833 213.832V217H589.401V208.424H591.833V210.152C592.078 209.565 592.414 209.096 592.841 208.744C593.267 208.392 593.843 208.232 594.569 208.264V210.808ZM605.096 212.728C605.096 213.443 604.984 214.077 604.76 214.632C604.547 215.176 604.259 215.64 603.896 216.024C603.544 216.397 603.133 216.68 602.664 216.872C602.195 217.064 601.704 217.16 601.192 217.16C600.541 217.16 600.003 217.032 599.576 216.776C599.16 216.52 598.808 216.221 598.52 215.88V217H596.088V205.32H598.52V209.656C598.819 209.251 599.176 208.92 599.592 208.664C600.019 208.397 600.552 208.264 601.192 208.264C601.693 208.264 602.179 208.36 602.648 208.552C603.117 208.744 603.533 209.032 603.896 209.416C604.259 209.789 604.547 210.253 604.76 210.808C604.984 211.352 605.096 211.981 605.096 212.696V212.728ZM602.664 212.728V212.696C602.664 212.344 602.605 212.024 602.488 211.736C602.381 211.437 602.232 211.187 602.04 210.984C601.848 210.771 601.624 210.611 601.368 210.504C601.123 210.387 600.856 210.328 600.568 210.328C600.28 210.328 600.008 210.387 599.752 210.504C599.507 210.611 599.288 210.771 599.096 210.984C598.915 211.187 598.765 211.437 598.648 211.736C598.541 212.024 598.488 212.344 598.488 212.696V212.728C598.488 213.08 598.541 213.405 598.648 213.704C598.765 213.992 598.915 214.243 599.096 214.456C599.288 214.659 599.507 214.819 599.752 214.936C600.008 215.043 600.28 215.096 600.568 215.096C600.856 215.096 601.123 215.043 601.368 214.936C601.624 214.819 601.848 214.659 602.04 214.456C602.232 214.243 602.381 213.992 602.488 213.704C602.605 213.416 602.664 213.091 602.664 212.728ZM615.749 212.728C615.749 213.347 615.632 213.928 615.397 214.472C615.162 215.005 614.837 215.475 614.421 215.88C614.005 216.285 613.514 216.605 612.949 216.84C612.384 217.075 611.765 217.192 611.093 217.192C610.432 217.192 609.818 217.08 609.253 216.856C608.688 216.621 608.197 216.307 607.781 215.912C607.376 215.507 607.056 215.037 606.821 214.504C606.586 213.96 606.469 213.379 606.469 212.76V212.728C606.469 212.109 606.586 211.533 606.821 211C607.056 210.456 607.381 209.981 607.797 209.576C608.213 209.171 608.704 208.851 609.269 208.616C609.834 208.381 610.453 208.264 611.125 208.264C611.786 208.264 612.4 208.381 612.965 208.616C613.53 208.84 614.016 209.155 614.421 209.56C614.837 209.955 615.162 210.424 615.397 210.968C615.632 211.501 615.749 212.077 615.749 212.696V212.728ZM613.349 212.76V212.728C613.349 212.408 613.296 212.109 613.189 211.832C613.082 211.544 612.928 211.293 612.725 211.08C612.522 210.856 612.282 210.68 612.005 210.552C611.728 210.424 611.424 210.36 611.093 210.36C610.741 210.36 610.426 210.424 610.149 210.552C609.882 210.669 609.653 210.835 609.461 211.048C609.269 211.261 609.12 211.512 609.013 211.8C608.917 212.077 608.869 212.376 608.869 212.696V212.728C608.869 213.048 608.922 213.352 609.029 213.64C609.136 213.917 609.29 214.168 609.493 214.392C609.696 214.605 609.93 214.776 610.197 214.904C610.474 215.032 610.784 215.096 611.125 215.096C611.477 215.096 611.786 215.037 612.053 214.92C612.33 214.792 612.565 214.621 612.757 214.408C612.949 214.195 613.093 213.949 613.189 213.672C613.296 213.384 613.349 213.08 613.349 212.76ZM626.374 212.728C626.374 213.347 626.257 213.928 626.022 214.472C625.787 215.005 625.462 215.475 625.046 215.88C624.63 216.285 624.139 216.605 623.574 216.84C623.009 217.075 622.39 217.192 621.718 217.192C621.057 217.192 620.443 217.08 619.878 216.856C619.313 216.621 618.822 216.307 618.406 215.912C618.001 215.507 617.681 215.037 617.446 214.504C617.211 213.96 617.094 213.379 617.094 212.76V212.728C617.094 212.109 617.211 211.533 617.446 211C617.681 210.456 618.006 209.981 618.422 209.576C618.838 209.171 619.329 208.851 619.894 208.616C620.459 208.381 621.078 208.264 621.75 208.264C622.411 208.264 623.025 208.381 623.59 208.616C624.155 208.84 624.641 209.155 625.046 209.56C625.462 209.955 625.787 210.424 626.022 210.968C626.257 211.501 626.374 212.077 626.374 212.696V212.728ZM623.974 212.76V212.728C623.974 212.408 623.921 212.109 623.814 211.832C623.707 211.544 623.553 211.293 623.35 211.08C623.147 210.856 622.907 210.68 622.63 210.552C622.353 210.424 622.049 210.36 621.718 210.36C621.366 210.36 621.051 210.424 620.774 210.552C620.507 210.669 620.278 210.835 620.086 211.048C619.894 211.261 619.745 211.512 619.638 211.8C619.542 212.077 619.494 212.376 619.494 212.696V212.728C619.494 213.048 619.547 213.352 619.654 213.64C619.761 213.917 619.915 214.168 620.118 214.392C620.321 214.605 620.555 214.776 620.822 214.904C621.099 215.032 621.409 215.096 621.75 215.096C622.102 215.096 622.411 215.037 622.678 214.92C622.955 214.792 623.19 214.621 623.382 214.408C623.574 214.195 623.718 213.949 623.814 213.672C623.921 213.384 623.974 213.08 623.974 212.76ZM636.439 217H633.655L631.415 213.496L630.567 214.392V217H628.135V205.32H630.567V211.544L633.415 208.424H636.327L633.063 211.8L636.439 217Z"
        fill="black"
      />
      <path
        d="M397.84 149H394.62L391.72 158.48L388.58 148.96H385.94L382.8 158.48L379.9 149H376.6L381.38 163.1H384.06L387.22 153.94L390.38 163.1H393.06L397.84 149ZM409.621 163V156.06C409.621 154.82 409.301 153.847 408.661 153.14C408.035 152.433 407.141 152.08 405.981 152.08C405.595 152.08 405.248 152.127 404.941 152.22C404.635 152.313 404.355 152.44 404.101 152.6C403.848 152.76 403.615 152.947 403.401 153.16C403.201 153.36 403.015 153.573 402.841 153.8V148.4H399.801V163H402.841V157.02C402.841 156.3 403.008 155.76 403.341 155.4C403.688 155.027 404.155 154.84 404.741 154.84C405.328 154.84 405.781 155.027 406.101 155.4C406.421 155.76 406.581 156.3 406.581 157.02V163H409.621ZM421.482 163V156.78C421.482 155.327 421.102 154.193 420.342 153.38C419.582 152.567 418.369 152.16 416.702 152.16C415.796 152.16 415.022 152.24 414.382 152.4C413.742 152.56 413.129 152.767 412.542 153.02L413.302 155.34C413.796 155.153 414.262 155.013 414.702 154.92C415.156 154.813 415.676 154.76 416.262 154.76C417.022 154.76 417.596 154.927 417.982 155.26C418.369 155.593 418.562 156.08 418.562 156.72V156.9C418.176 156.767 417.776 156.66 417.362 156.58C416.962 156.5 416.489 156.46 415.942 156.46C415.302 156.46 414.716 156.533 414.182 156.68C413.662 156.813 413.209 157.02 412.822 157.3C412.449 157.58 412.156 157.933 411.942 158.36C411.729 158.787 411.622 159.293 411.622 159.88V159.92C411.622 160.453 411.716 160.927 411.902 161.34C412.102 161.74 412.369 162.08 412.702 162.36C413.036 162.64 413.422 162.853 413.862 163C414.316 163.133 414.796 163.2 415.302 163.2C416.049 163.2 416.682 163.08 417.202 162.84C417.722 162.587 418.169 162.253 418.542 161.84V163H421.482ZM418.602 159.22C418.602 159.78 418.382 160.233 417.942 160.58C417.516 160.927 416.942 161.1 416.222 161.1C415.729 161.1 415.329 160.987 415.022 160.76C414.716 160.533 414.562 160.213 414.562 159.8V159.76C414.562 159.28 414.749 158.913 415.122 158.66C415.496 158.407 416.009 158.28 416.662 158.28C417.036 158.28 417.382 158.32 417.702 158.4C418.036 158.467 418.336 158.56 418.602 158.68V159.22ZM430.118 162.56V160.12C429.652 160.373 429.152 160.5 428.618 160.5C427.965 160.5 427.638 160.153 427.638 159.46V154.88H430.158V152.28H427.638V149.54H424.598V152.28H423.318V154.88H424.598V159.96C424.598 160.587 424.672 161.107 424.818 161.52C424.978 161.92 425.192 162.247 425.458 162.5C425.738 162.753 426.065 162.927 426.438 163.02C426.825 163.127 427.252 163.18 427.718 163.18C428.225 163.18 428.672 163.12 429.058 163C429.445 162.893 429.798 162.747 430.118 162.56ZM431.659 154.18L431.919 155.44C433.106 155.427 434.019 155.133 434.659 154.56C435.299 153.973 435.619 153.02 435.619 151.7V149H432.379V152.2H433.619C433.726 153.373 433.072 154.033 431.659 154.18ZM445.982 159.74V159.7C445.982 159.207 445.882 158.787 445.682 158.44C445.482 158.093 445.228 157.8 444.922 157.56C444.615 157.32 444.268 157.12 443.882 156.96C443.495 156.787 443.115 156.64 442.742 156.52C442.448 156.427 442.168 156.333 441.902 156.24C441.648 156.147 441.422 156.053 441.222 155.96C441.022 155.853 440.862 155.747 440.742 155.64C440.622 155.52 440.562 155.387 440.562 155.24V155.2C440.562 154.987 440.655 154.813 440.842 154.68C441.028 154.533 441.308 154.46 441.682 154.46C442.068 154.46 442.515 154.553 443.022 154.74C443.528 154.913 444.048 155.153 444.582 155.46L445.742 153.36C445.155 152.973 444.508 152.673 443.802 152.46C443.108 152.233 442.422 152.12 441.742 152.12C441.195 152.12 440.682 152.193 440.202 152.34C439.735 152.487 439.322 152.707 438.962 153C438.615 153.293 438.335 153.653 438.122 154.08C437.922 154.493 437.822 154.973 437.822 155.52V155.56C437.822 156.08 437.915 156.52 438.102 156.88C438.302 157.24 438.555 157.547 438.862 157.8C439.168 158.04 439.508 158.24 439.882 158.4C440.268 158.547 440.648 158.673 441.022 158.78C441.315 158.873 441.595 158.96 441.862 159.04C442.128 159.12 442.362 159.207 442.562 159.3C442.775 159.38 442.942 159.48 443.062 159.6C443.182 159.72 443.242 159.86 443.242 160.02V160.06C443.242 160.3 443.135 160.493 442.922 160.64C442.722 160.787 442.402 160.86 441.962 160.86C441.455 160.86 440.908 160.753 440.322 160.54C439.748 160.327 439.168 160.007 438.582 159.58L437.282 161.58C438.002 162.14 438.755 162.553 439.542 162.82C440.342 163.073 441.122 163.2 441.882 163.2C442.455 163.2 442.988 163.133 443.482 163C443.988 162.853 444.428 162.64 444.802 162.36C445.175 162.08 445.462 161.727 445.662 161.3C445.875 160.86 445.982 160.34 445.982 159.74ZM466.917 163V149H463.877V157.62L457.317 149H454.477V163H457.517V154.1L464.297 163H466.917ZM479.958 157.94V157.9C479.958 157.14 479.851 156.413 479.638 155.72C479.438 155.013 479.118 154.393 478.678 153.86C478.251 153.313 477.711 152.88 477.058 152.56C476.404 152.24 475.631 152.08 474.738 152.08C473.951 152.08 473.231 152.227 472.578 152.52C471.938 152.813 471.384 153.213 470.918 153.72C470.451 154.227 470.084 154.82 469.818 155.5C469.564 156.18 469.438 156.9 469.438 157.66V157.7C469.438 158.527 469.578 159.28 469.858 159.96C470.138 160.627 470.524 161.207 471.018 161.7C471.524 162.193 472.118 162.573 472.798 162.84C473.491 163.107 474.238 163.24 475.038 163.24C476.011 163.24 476.858 163.067 477.578 162.72C478.298 162.36 478.911 161.867 479.418 161.24L477.678 159.7C477.251 160.087 476.838 160.367 476.438 160.54C476.038 160.713 475.584 160.8 475.078 160.8C474.398 160.8 473.824 160.627 473.358 160.28C472.904 159.92 472.604 159.393 472.458 158.7H479.918C479.931 158.553 479.938 158.427 479.938 158.32C479.951 158.213 479.958 158.087 479.958 157.94ZM476.998 156.8H472.418C472.538 156.107 472.791 155.553 473.178 155.14C473.578 154.727 474.098 154.52 474.738 154.52C475.378 154.52 475.891 154.733 476.278 155.16C476.664 155.573 476.904 156.12 476.998 156.8ZM497.603 152.28H494.583L492.823 158.8L490.783 152.24H488.163L486.143 158.78L484.423 152.28H481.343L484.643 163.08H487.363L489.463 156.5L491.523 163.08H494.263L497.603 152.28ZM516.526 157.66V157.62C516.526 156.847 516.379 156.127 516.086 155.46C515.793 154.78 515.386 154.193 514.866 153.7C514.359 153.193 513.753 152.8 513.046 152.52C512.339 152.227 511.573 152.08 510.746 152.08C509.906 152.08 509.133 152.227 508.426 152.52C507.719 152.813 507.106 153.213 506.586 153.72C506.066 154.227 505.659 154.82 505.366 155.5C505.073 156.167 504.926 156.887 504.926 157.66V157.7C504.926 158.473 505.073 159.2 505.366 159.88C505.659 160.547 506.059 161.133 506.566 161.64C507.086 162.133 507.699 162.527 508.406 162.82C509.113 163.1 509.879 163.24 510.706 163.24C511.546 163.24 512.319 163.093 513.026 162.8C513.733 162.507 514.346 162.107 514.866 161.6C515.386 161.093 515.793 160.507 516.086 159.84C516.379 159.16 516.526 158.433 516.526 157.66ZM513.526 157.7C513.526 158.1 513.459 158.48 513.326 158.84C513.206 159.187 513.026 159.493 512.786 159.76C512.546 160.027 512.253 160.24 511.906 160.4C511.573 160.547 511.186 160.62 510.746 160.62C510.319 160.62 509.933 160.54 509.586 160.38C509.253 160.22 508.959 160.007 508.706 159.74C508.453 159.46 508.259 159.147 508.126 158.8C507.993 158.44 507.926 158.06 507.926 157.66V157.62C507.926 157.22 507.986 156.847 508.106 156.5C508.239 156.14 508.426 155.827 508.666 155.56C508.906 155.293 509.193 155.087 509.526 154.94C509.873 154.78 510.266 154.7 510.706 154.7C511.119 154.7 511.499 154.78 511.846 154.94C512.193 155.1 512.493 155.32 512.746 155.6C512.999 155.867 513.193 156.18 513.326 156.54C513.459 156.887 513.526 157.26 513.526 157.66V157.7ZM528.547 163V156.06C528.547 154.82 528.227 153.847 527.587 153.14C526.961 152.433 526.067 152.08 524.907 152.08C524.521 152.08 524.174 152.127 523.867 152.22C523.561 152.313 523.281 152.44 523.027 152.6C522.774 152.76 522.541 152.947 522.327 153.16C522.127 153.36 521.941 153.573 521.767 153.8V152.28H518.727V163H521.767V157.02C521.767 156.3 521.934 155.76 522.267 155.4C522.614 155.027 523.081 154.84 523.667 154.84C524.254 154.84 524.707 155.027 525.027 155.4C525.347 155.76 525.507 156.3 525.507 157.02V163H528.547ZM549.604 163L546.184 158C547.078 157.667 547.798 157.147 548.344 156.44C548.904 155.72 549.184 154.793 549.184 153.66V153.62C549.184 152.167 548.718 151.033 547.784 150.22C546.864 149.407 545.571 149 543.904 149H537.504V163H540.584V158.52H543.004L546.004 163H549.604ZM546.064 153.82C546.064 154.42 545.858 154.9 545.444 155.26C545.044 155.62 544.464 155.8 543.704 155.8H540.584V151.78H543.644C544.404 151.78 544.998 151.947 545.424 152.28C545.851 152.613 546.064 153.113 546.064 153.78V153.82ZM561.637 157.94V157.9C561.637 157.14 561.531 156.413 561.317 155.72C561.117 155.013 560.797 154.393 560.357 153.86C559.931 153.313 559.391 152.88 558.737 152.56C558.084 152.24 557.311 152.08 556.417 152.08C555.631 152.08 554.911 152.227 554.257 152.52C553.617 152.813 553.064 153.213 552.597 153.72C552.131 154.227 551.764 154.82 551.497 155.5C551.244 156.18 551.117 156.9 551.117 157.66V157.7C551.117 158.527 551.257 159.28 551.537 159.96C551.817 160.627 552.204 161.207 552.697 161.7C553.204 162.193 553.797 162.573 554.477 162.84C555.171 163.107 555.917 163.24 556.717 163.24C557.691 163.24 558.537 163.067 559.257 162.72C559.977 162.36 560.591 161.867 561.097 161.24L559.357 159.7C558.931 160.087 558.517 160.367 558.117 160.54C557.717 160.713 557.264 160.8 556.757 160.8C556.077 160.8 555.504 160.627 555.037 160.28C554.584 159.92 554.284 159.393 554.137 158.7H561.597C561.611 158.553 561.617 158.427 561.617 158.32C561.631 158.213 561.637 158.087 561.637 157.94ZM558.677 156.8H554.097C554.217 156.107 554.471 155.553 554.857 155.14C555.257 154.727 555.777 154.52 556.417 154.52C557.057 154.52 557.571 154.733 557.957 155.16C558.344 155.573 558.584 156.12 558.677 156.8ZM569.903 151.08V148.56C569.623 148.467 569.31 148.393 568.963 148.34C568.63 148.287 568.223 148.26 567.743 148.26C566.663 148.26 565.836 148.54 565.263 149.1C564.703 149.647 564.423 150.513 564.423 151.7V152.38H563.163V154.88H564.423V163H567.463V154.88H569.883V152.4H567.423V151.98C567.423 151.207 567.79 150.82 568.523 150.82C568.79 150.82 569.03 150.847 569.243 150.9C569.456 150.94 569.676 151 569.903 151.08ZM573.76 154.9L573.66 155L574.12 158.24H576.16L576.38 157.02C576.926 156.913 577.44 156.767 577.92 156.58C578.4 156.38 578.813 156.12 579.16 155.8C579.52 155.48 579.8 155.093 580 154.64C580.213 154.173 580.32 153.62 580.32 152.98C580.32 152.313 580.2 151.72 579.96 151.2C579.733 150.68 579.406 150.247 578.98 149.9C578.553 149.54 578.04 149.273 577.44 149.1C576.853 148.913 576.2 148.82 575.48 148.82C574.386 148.82 573.44 149.02 572.64 149.42C571.853 149.82 571.166 150.34 570.58 150.98L572.42 153C572.886 152.533 573.36 152.187 573.84 151.96C574.333 151.733 574.86 151.62 575.42 151.62C576.006 151.62 576.46 151.747 576.78 152C577.1 152.24 577.26 152.593 577.26 153.06C577.26 153.607 576.993 154.04 576.46 154.36C575.926 154.667 575.026 154.847 573.76 154.9ZM576.7 163V159.8H573.46V163H576.7Z"
        fill="white"
      />
      <circle opacity="0.2" cx="318" cy="202" r="12" fill="#00D6AF" />
      <circle cx="318" cy="202" r="7" fill="#00D6AF" />
      <line
        x1="325"
        y1="201.5"
        x2="360"
        y2="201.5"
        stroke="#00D6AF"
        stroke-dasharray="2 2"
      />
      <path
        d="M596.576 175.939C595.786 172.465 600.645 166.864 610.421 159.794L609.019 167.85L606.066 171.323C606.066 171.323 611.775 170.844 616.194 171.323L616.193 177.473C610.34 178.616 597.365 179.413 596.576 175.939Z"
        fill="#00C6A2"
      />
      <path
        d="M610.421 159.794L610.128 159.389C610.293 159.27 610.513 159.262 610.686 159.37C610.858 159.478 610.948 159.679 610.913 159.88L610.421 159.794ZM596.576 175.939L596.088 176.05L596.576 175.939ZM616.193 177.473L616.693 177.473L616.693 177.885L616.289 177.963L616.193 177.473ZM616.194 171.323L616.248 170.826L616.694 170.874L616.694 171.323L616.194 171.323ZM609.019 167.85L609.512 167.935L609.488 168.07L609.4 168.173L609.019 167.85ZM610.714 160.199C605.839 163.724 602.216 166.866 599.915 169.541C598.765 170.879 597.959 172.084 597.488 173.147C597.018 174.211 596.897 175.099 597.063 175.828L596.088 176.05C595.859 175.042 596.05 173.927 596.574 172.743C597.098 171.558 597.97 170.269 599.157 168.889C601.532 166.128 605.226 162.933 610.128 159.389L610.714 160.199ZM597.063 175.828C597.126 176.105 597.317 176.378 597.691 176.639C598.069 176.903 598.605 177.134 599.285 177.324C600.645 177.703 602.476 177.892 604.497 177.937C608.533 178.029 613.204 177.547 616.097 176.982L616.289 177.963C613.329 178.541 608.586 179.03 604.474 178.937C602.421 178.891 600.494 178.699 599.016 178.287C598.278 178.081 597.624 177.812 597.119 177.459C596.61 177.104 596.222 176.641 596.088 176.05L597.063 175.828ZM615.693 177.473L615.694 171.323L616.694 171.323L616.693 177.473L615.693 177.473ZM616.14 171.82C613.964 171.584 611.459 171.583 609.488 171.643C608.504 171.673 607.658 171.717 607.058 171.755C606.758 171.773 606.52 171.79 606.357 171.802C606.275 171.808 606.213 171.813 606.171 171.816C606.15 171.818 606.134 171.819 606.123 171.82C606.118 171.82 606.114 171.821 606.112 171.821C606.11 171.821 606.109 171.821 606.109 171.821C606.108 171.821 606.108 171.821 606.108 171.821C606.108 171.821 606.108 171.821 606.108 171.821C606.108 171.821 606.108 171.821 606.066 171.323C606.024 170.825 606.024 170.825 606.024 170.825C606.025 170.825 606.025 170.825 606.025 170.825C606.025 170.825 606.025 170.825 606.026 170.825C606.026 170.825 606.028 170.824 606.029 170.824C606.032 170.824 606.036 170.824 606.042 170.823C606.053 170.822 606.07 170.821 606.092 170.819C606.136 170.816 606.2 170.811 606.283 170.805C606.45 170.792 606.692 170.775 606.996 170.757C607.605 170.719 608.462 170.674 609.458 170.644C611.445 170.583 614.004 170.583 616.248 170.826L616.14 171.82ZM605.685 170.999L608.638 167.526L609.4 168.173L606.447 171.647L605.685 170.999ZM606.066 171.323C606.15 171.816 606.15 171.816 606.15 171.816C606.15 171.816 606.15 171.816 606.15 171.816C606.15 171.816 606.15 171.816 606.15 171.816C606.149 171.816 606.149 171.816 606.148 171.816C606.147 171.816 606.144 171.817 606.141 171.817C606.135 171.819 606.125 171.82 606.112 171.823C606.086 171.827 606.048 171.834 605.998 171.843C605.898 171.862 605.754 171.89 605.578 171.927C605.224 172.001 604.744 172.11 604.235 172.251C603.724 172.393 603.195 172.564 602.739 172.761C602.27 172.963 601.933 173.17 601.759 173.358L601.026 172.678C601.347 172.331 601.843 172.058 602.343 171.843C602.856 171.621 603.433 171.436 603.967 171.288C604.503 171.139 605.005 171.025 605.373 170.948C605.557 170.91 605.708 170.88 605.814 170.86C605.867 170.851 605.908 170.843 605.937 170.838C605.951 170.835 605.962 170.834 605.97 170.832C605.974 170.832 605.977 170.831 605.979 170.831C605.98 170.831 605.981 170.83 605.981 170.83C605.982 170.83 605.982 170.83 605.982 170.83C605.982 170.83 605.982 170.83 605.982 170.83C605.982 170.83 605.982 170.83 606.066 171.323ZM610.913 159.88L609.512 167.935L608.527 167.764L609.928 159.708L610.913 159.88Z"
        fill="black"
      />
      <path
        d="M615.26 172.971C616.747 169.733 619.558 168.536 621.166 170.782C620.589 171.874 620.659 178.616 620.659 178.616C621.818 180.236 617.515 180.867 616.101 179.841C614.687 178.815 613.401 177.018 615.26 172.971Z"
        fill="white"
        stroke="black"
      />
      <path
        d="M628.904 168.954C622.162 169.025 620.714 171.103 620.137 172.196C619.41 173.395 618.136 175.113 620.207 178.939C622.278 182.764 632.221 185.527 636.088 184.422C637.697 183.962 639.593 183.215 641.06 182.42C643.118 181.305 644.33 180.095 642.717 179.45C640.812 178.689 638.12 177.926 636.632 177.527C638.511 177.985 642.243 178.738 643.268 177.793C645.063 176.135 633.322 172.196 633.326 172.196C641.059 172.144 633.997 168.901 628.904 168.954Z"
        fill="white"
      />
      <path
        d="M632.774 180.555C633.51 180.923 636.442 181.966 637.745 182.212C638.85 182.42 640.507 182.351 641.06 182.42M641.06 182.42C639.593 183.215 637.697 183.962 636.088 184.422C632.221 185.527 622.278 182.764 620.207 178.939C618.136 175.113 619.41 173.395 620.137 172.196C620.714 171.103 622.162 169.025 628.904 168.954C633.997 168.901 641.059 172.144 633.326 172.196C633.322 172.196 645.063 176.135 643.268 177.793C641.882 179.072 635.536 177.24 635.536 177.24C635.536 177.24 639.954 178.346 642.717 179.45C644.33 180.095 643.118 181.305 641.06 182.42Z"
        stroke="black"
        stroke-linecap="round"
        stroke-linejoin="round"
      />
      <defs>
        <linearGradient
          id="paint0_linear_846_3722"
          x1="617.905"
          y1="135.256"
          x2="616.297"
          y2="181.826"
          gradientUnits="userSpaceOnUse"
        >
          <stop stop-color="white" />
          <stop offset="1" stop-color="#B7B7B7" />
        </linearGradient>
      </defs>
    </svg>