<svg
      
      width="373"
      height="163"
      viewBox="0 0 373 163"
      fill="none"
      xmlns="http://www.w3.org/2000/svg"
    >
      <path
        d="M65.84 58H62.62L59.72 67.48L56.58 57.96H53.94L50.8 67.48L47.9 58H44.6L49.38 72.1H52.06L55.22 62.94L58.38 72.1H61.06L65.84 58ZM77.6214 72V65.06C77.6214 63.82 77.3014 62.8467 76.6614 62.14C76.0347 61.4333 75.1414 61.08 73.9814 61.08C73.5947 61.08 73.2481 61.1267 72.9414 61.22C72.6347 61.3133 72.3547 61.44 72.1014 61.6C71.8481 61.76 71.6147 61.9467 71.4014 62.16C71.2014 62.36 71.0147 62.5733 70.8414 62.8V57.4H67.8014V72H70.8414V66.02C70.8414 65.3 71.0081 64.76 71.3414 64.4C71.6881 64.0267 72.1547 63.84 72.7414 63.84C73.3281 63.84 73.7814 64.0267 74.1014 64.4C74.4214 64.76 74.5814 65.3 74.5814 66.02V72H77.6214ZM89.4823 72V65.78C89.4823 64.3267 89.1023 63.1933 88.3423 62.38C87.5823 61.5667 86.369 61.16 84.7023 61.16C83.7957 61.16 83.0223 61.24 82.3823 61.4C81.7423 61.56 81.129 61.7667 80.5423 62.02L81.3023 64.34C81.7957 64.1533 82.2623 64.0133 82.7023 63.92C83.1557 63.8133 83.6757 63.76 84.2623 63.76C85.0223 63.76 85.5957 63.9267 85.9823 64.26C86.369 64.5933 86.5623 65.08 86.5623 65.72V65.9C86.1757 65.7667 85.7757 65.66 85.3623 65.58C84.9623 65.5 84.489 65.46 83.9423 65.46C83.3023 65.46 82.7157 65.5333 82.1823 65.68C81.6623 65.8133 81.209 66.02 80.8223 66.3C80.449 66.58 80.1557 66.9333 79.9423 67.36C79.729 67.7867 79.6223 68.2933 79.6223 68.88V68.92C79.6223 69.4533 79.7157 69.9267 79.9023 70.34C80.1023 70.74 80.369 71.08 80.7023 71.36C81.0357 71.64 81.4223 71.8533 81.8623 72C82.3157 72.1333 82.7957 72.2 83.3023 72.2C84.049 72.2 84.6823 72.08 85.2023 71.84C85.7223 71.5867 86.169 71.2533 86.5423 70.84V72H89.4823ZM86.6023 68.22C86.6023 68.78 86.3823 69.2333 85.9423 69.58C85.5157 69.9267 84.9423 70.1 84.2223 70.1C83.729 70.1 83.329 69.9867 83.0223 69.76C82.7157 69.5333 82.5623 69.2133 82.5623 68.8V68.76C82.5623 68.28 82.749 67.9133 83.1223 67.66C83.4957 67.4067 84.009 67.28 84.6623 67.28C85.0357 67.28 85.3823 67.32 85.7023 67.4C86.0357 67.4667 86.3357 67.56 86.6023 67.68V68.22ZM98.1183 71.56V69.12C97.6516 69.3733 97.1516 69.5 96.6183 69.5C95.9649 69.5 95.6383 69.1533 95.6383 68.46V63.88H98.1583V61.28H95.6383V58.54H92.5983V61.28H91.3183V63.88H92.5983V68.96C92.5983 69.5867 92.6716 70.1067 92.8183 70.52C92.9783 70.92 93.1916 71.2467 93.4583 71.5C93.7383 71.7533 94.0649 71.9267 94.4383 72.02C94.8249 72.1267 95.2516 72.18 95.7183 72.18C96.2249 72.18 96.6716 72.12 97.0583 72C97.4449 71.8933 97.7983 71.7467 98.1183 71.56ZM99.6591 63.18L99.9191 64.44C101.106 64.4267 102.019 64.1333 102.659 63.56C103.299 62.9733 103.619 62.02 103.619 60.7V58H100.379V61.2H101.619C101.726 62.3733 101.072 63.0333 99.6591 63.18ZM113.982 68.74V68.7C113.982 68.2067 113.882 67.7867 113.682 67.44C113.482 67.0933 113.228 66.8 112.922 66.56C112.615 66.32 112.268 66.12 111.882 65.96C111.495 65.7867 111.115 65.64 110.742 65.52C110.448 65.4267 110.168 65.3333 109.902 65.24C109.648 65.1467 109.422 65.0533 109.222 64.96C109.022 64.8533 108.862 64.7467 108.742 64.64C108.622 64.52 108.562 64.3867 108.562 64.24V64.2C108.562 63.9867 108.655 63.8133 108.842 63.68C109.028 63.5333 109.308 63.46 109.682 63.46C110.068 63.46 110.515 63.5533 111.022 63.74C111.528 63.9133 112.048 64.1533 112.582 64.46L113.742 62.36C113.155 61.9733 112.508 61.6733 111.802 61.46C111.108 61.2333 110.422 61.12 109.742 61.12C109.195 61.12 108.682 61.1933 108.202 61.34C107.735 61.4867 107.322 61.7067 106.962 62C106.615 62.2933 106.335 62.6533 106.122 63.08C105.922 63.4933 105.822 63.9733 105.822 64.52V64.56C105.822 65.08 105.915 65.52 106.102 65.88C106.302 66.24 106.555 66.5467 106.862 66.8C107.168 67.04 107.508 67.24 107.882 67.4C108.268 67.5467 108.648 67.6733 109.022 67.78C109.315 67.8733 109.595 67.96 109.862 68.04C110.128 68.12 110.362 68.2067 110.562 68.3C110.775 68.38 110.942 68.48 111.062 68.6C111.182 68.72 111.242 68.86 111.242 69.02V69.06C111.242 69.3 111.135 69.4933 110.922 69.64C110.722 69.7867 110.402 69.86 109.962 69.86C109.455 69.86 108.908 69.7533 108.322 69.54C107.748 69.3267 107.168 69.0067 106.582 68.58L105.282 70.58C106.002 71.14 106.755 71.5533 107.542 71.82C108.342 72.0733 109.122 72.2 109.882 72.2C110.455 72.2 110.988 72.1333 111.482 72C111.988 71.8533 112.428 71.64 112.802 71.36C113.175 71.08 113.462 70.7267 113.662 70.3C113.875 69.86 113.982 69.34 113.982 68.74ZM134.917 72V58H131.877V66.62L125.317 58H122.477V72H125.517V63.1L132.297 72H134.917ZM147.958 66.94V66.9C147.958 66.14 147.851 65.4133 147.638 64.72C147.438 64.0133 147.118 63.3933 146.678 62.86C146.251 62.3133 145.711 61.88 145.058 61.56C144.404 61.24 143.631 61.08 142.738 61.08C141.951 61.08 141.231 61.2267 140.578 61.52C139.938 61.8133 139.384 62.2133 138.918 62.72C138.451 63.2267 138.084 63.82 137.818 64.5C137.564 65.18 137.438 65.9 137.438 66.66V66.7C137.438 67.5267 137.578 68.28 137.858 68.96C138.138 69.6267 138.524 70.2067 139.018 70.7C139.524 71.1933 140.118 71.5733 140.798 71.84C141.491 72.1067 142.238 72.24 143.038 72.24C144.011 72.24 144.858 72.0667 145.578 71.72C146.298 71.36 146.911 70.8667 147.418 70.24L145.678 68.7C145.251 69.0867 144.838 69.3667 144.438 69.54C144.038 69.7133 143.584 69.8 143.078 69.8C142.398 69.8 141.824 69.6267 141.358 69.28C140.904 68.92 140.604 68.3933 140.458 67.7H147.918C147.931 67.5533 147.938 67.4267 147.938 67.32C147.951 67.2133 147.958 67.0867 147.958 66.94ZM144.998 65.8H140.418C140.538 65.1067 140.791 64.5533 141.178 64.14C141.578 63.7267 142.098 63.52 142.738 63.52C143.378 63.52 143.891 63.7333 144.278 64.16C144.664 64.5733 144.904 65.12 144.998 65.8ZM165.603 61.28H162.583L160.823 67.8L158.783 61.24H156.163L154.143 67.78L152.423 61.28H149.343L152.643 72.08H155.363L157.463 65.5L159.523 72.08H162.263L165.603 61.28ZM184.526 66.66V66.62C184.526 65.8467 184.379 65.1267 184.086 64.46C183.793 63.78 183.386 63.1933 182.866 62.7C182.359 62.1933 181.753 61.8 181.046 61.52C180.339 61.2267 179.573 61.08 178.746 61.08C177.906 61.08 177.133 61.2267 176.426 61.52C175.719 61.8133 175.106 62.2133 174.586 62.72C174.066 63.2267 173.659 63.82 173.366 64.5C173.073 65.1667 172.926 65.8867 172.926 66.66V66.7C172.926 67.4733 173.073 68.2 173.366 68.88C173.659 69.5467 174.059 70.1333 174.566 70.64C175.086 71.1333 175.699 71.5267 176.406 71.82C177.113 72.1 177.879 72.24 178.706 72.24C179.546 72.24 180.319 72.0933 181.026 71.8C181.733 71.5067 182.346 71.1067 182.866 70.6C183.386 70.0933 183.793 69.5067 184.086 68.84C184.379 68.16 184.526 67.4333 184.526 66.66ZM181.526 66.7C181.526 67.1 181.459 67.48 181.326 67.84C181.206 68.1867 181.026 68.4933 180.786 68.76C180.546 69.0267 180.253 69.24 179.906 69.4C179.573 69.5467 179.186 69.62 178.746 69.62C178.319 69.62 177.933 69.54 177.586 69.38C177.253 69.22 176.959 69.0067 176.706 68.74C176.453 68.46 176.259 68.1467 176.126 67.8C175.993 67.44 175.926 67.06 175.926 66.66V66.62C175.926 66.22 175.986 65.8467 176.106 65.5C176.239 65.14 176.426 64.8267 176.666 64.56C176.906 64.2933 177.193 64.0867 177.526 63.94C177.873 63.78 178.266 63.7 178.706 63.7C179.119 63.7 179.499 63.78 179.846 63.94C180.193 64.1 180.493 64.32 180.746 64.6C180.999 64.8667 181.193 65.18 181.326 65.54C181.459 65.8867 181.526 66.26 181.526 66.66V66.7ZM196.547 72V65.06C196.547 63.82 196.227 62.8467 195.587 62.14C194.961 61.4333 194.067 61.08 192.907 61.08C192.521 61.08 192.174 61.1267 191.867 61.22C191.561 61.3133 191.281 61.44 191.027 61.6C190.774 61.76 190.541 61.9467 190.327 62.16C190.127 62.36 189.941 62.5733 189.767 62.8V61.28H186.727V72H189.767V66.02C189.767 65.3 189.934 64.76 190.267 64.4C190.614 64.0267 191.081 63.84 191.667 63.84C192.254 63.84 192.707 64.0267 193.027 64.4C193.347 64.76 193.507 65.3 193.507 66.02V72H196.547ZM217.604 72L214.184 67C215.078 66.6667 215.798 66.1467 216.344 65.44C216.904 64.72 217.184 63.7933 217.184 62.66V62.62C217.184 61.1667 216.718 60.0333 215.784 59.22C214.864 58.4067 213.571 58 211.904 58H205.504V72H208.584V67.52H211.004L214.004 72H217.604ZM214.064 62.82C214.064 63.42 213.858 63.9 213.444 64.26C213.044 64.62 212.464 64.8 211.704 64.8H208.584V60.78H211.644C212.404 60.78 212.998 60.9467 213.424 61.28C213.851 61.6133 214.064 62.1133 214.064 62.78V62.82ZM229.637 66.94V66.9C229.637 66.14 229.531 65.4133 229.317 64.72C229.117 64.0133 228.797 63.3933 228.357 62.86C227.931 62.3133 227.391 61.88 226.737 61.56C226.084 61.24 225.311 61.08 224.417 61.08C223.631 61.08 222.911 61.2267 222.257 61.52C221.617 61.8133 221.064 62.2133 220.597 62.72C220.131 63.2267 219.764 63.82 219.497 64.5C219.244 65.18 219.117 65.9 219.117 66.66V66.7C219.117 67.5267 219.257 68.28 219.537 68.96C219.817 69.6267 220.204 70.2067 220.697 70.7C221.204 71.1933 221.797 71.5733 222.477 71.84C223.171 72.1067 223.917 72.24 224.717 72.24C225.691 72.24 226.537 72.0667 227.257 71.72C227.977 71.36 228.591 70.8667 229.097 70.24L227.357 68.7C226.931 69.0867 226.517 69.3667 226.117 69.54C225.717 69.7133 225.264 69.8 224.757 69.8C224.077 69.8 223.504 69.6267 223.037 69.28C222.584 68.92 222.284 68.3933 222.137 67.7H229.597C229.611 67.5533 229.617 67.4267 229.617 67.32C229.631 67.2133 229.637 67.0867 229.637 66.94ZM226.677 65.8H222.097C222.217 65.1067 222.471 64.5533 222.857 64.14C223.257 63.7267 223.777 63.52 224.417 63.52C225.057 63.52 225.571 63.7333 225.957 64.16C226.344 64.5733 226.584 65.12 226.677 65.8ZM237.903 60.08V57.56C237.623 57.4667 237.31 57.3933 236.963 57.34C236.63 57.2867 236.223 57.26 235.743 57.26C234.663 57.26 233.836 57.54 233.263 58.1C232.703 58.6467 232.423 59.5133 232.423 60.7V61.38H231.163V63.88H232.423V72H235.463V63.88H237.883V61.4H235.423V60.98C235.423 60.2067 235.79 59.82 236.523 59.82C236.79 59.82 237.03 59.8467 237.243 59.9C237.456 59.94 237.676 60 237.903 60.08ZM241.76 63.9L241.66 64L242.12 67.24H244.16L244.38 66.02C244.926 65.9133 245.44 65.7667 245.92 65.58C246.4 65.38 246.813 65.12 247.16 64.8C247.52 64.48 247.8 64.0933 248 63.64C248.213 63.1733 248.32 62.62 248.32 61.98C248.32 61.3133 248.2 60.72 247.96 60.2C247.733 59.68 247.406 59.2467 246.98 58.9C246.553 58.54 246.04 58.2733 245.44 58.1C244.853 57.9133 244.2 57.82 243.48 57.82C242.386 57.82 241.44 58.02 240.64 58.42C239.853 58.82 239.166 59.34 238.58 59.98L240.42 62C240.886 61.5333 241.36 61.1867 241.84 60.96C242.333 60.7333 242.86 60.62 243.42 60.62C244.006 60.62 244.46 60.7467 244.78 61C245.1 61.24 245.26 61.5933 245.26 62.06C245.26 62.6067 244.993 63.04 244.46 63.36C243.926 63.6667 243.026 63.8467 241.76 63.9ZM244.7 72V68.8H241.46V72H244.7Z"
        fill="white"
      />
      <circle opacity="0.2" cx="32" cy="33" r="12" fill="#00D6AF" />
      <circle cx="32" cy="33" r="7" fill="#00D6AF" />
      <line
        x1="32.5"
        y1="40"
        x2="32.5"
        y2="84"
        stroke="#00D6AF"
        stroke-dasharray="2 2"
      />
      <mask
        id="path-5-outside-1_0_1"
        maskUnits="userSpaceOnUse"
        x="277.953"
        y="43.9706"
        width="52.6596"
        height="50.7298"
        fill="black"
      >
        <rect
          fill="white"
          x="277.953"
          y="43.9706"
          width="52.6596"
          height="50.7298"
        />
        <path
          fill-rule="evenodd"
          clip-rule="evenodd"
          d="M280.573 46.0039C280.592 45.452 281.055 45.0199 281.607 45.039L294.63 45.4884C295.182 45.5075 295.614 45.9704 295.595 46.5223L295.305 54.9462C295.274 55.8366 294.182 56.2453 293.574 55.594L292.278 54.2047C291.901 53.801 291.268 53.7791 290.864 54.156L281.705 62.7044C281.053 63.3123 279.992 62.8292 280.023 61.9389L280.573 46.0039ZM290.644 60.5295C291.048 60.1526 291.681 60.1745 292.058 60.5782L294.719 63.4296C294.9 63.6235 294.996 63.8814 294.987 64.1464L294.057 91.0932C294.038 91.6452 293.575 92.0772 293.023 92.0581L280 91.6087C279.448 91.5896 279.016 91.1267 279.035 90.5748L279.706 71.1391C279.715 70.874 279.829 70.6235 280.023 70.4425L290.644 60.5295ZM311.197 73.8651C311.182 74.2863 311.5 74.6474 311.921 74.6619C319.803 74.9339 326.413 68.7649 326.685 60.8831C326.78 58.1337 326.091 55.5391 324.819 53.3143C324.522 52.795 323.827 52.7058 323.375 53.0975L311.89 63.0471C311.679 63.2292 311.555 63.4906 311.545 63.7685L311.197 73.8651ZM311.851 54.8907C311.821 55.7634 312.846 56.2528 313.506 55.6811L320.205 49.8777C320.682 49.4639 320.661 48.7144 320.13 48.3725C318.04 47.0275 315.571 46.2112 312.906 46.1192C312.485 46.1047 312.143 46.443 312.128 46.8642L311.851 54.8907ZM326.927 91.5201C327.535 92.1714 327.052 93.2325 326.162 93.2018L311.547 92.6974C310.995 92.6784 310.563 92.2155 310.582 91.6635L311.086 77.0488C311.117 76.1584 312.209 75.7496 312.817 76.4009L326.927 91.5201ZM310.617 47.0409C310.636 46.4889 310.204 46.026 309.652 46.007L298.131 45.6094C297.579 45.5903 297.116 46.0223 297.097 46.5743L296.686 58.4982C296.676 58.7632 296.773 59.0211 296.954 59.215L301.872 64.4847C302.239 64.8779 302.851 64.9104 303.258 64.5582L309.891 58.8117C310.102 58.6296 310.226 58.3682 310.236 58.0903L310.617 47.0409ZM309.93 66.9681C309.96 66.0954 308.935 65.606 308.275 66.1778L302.926 70.8119C302.52 71.1641 301.907 71.1316 301.54 70.7384L298.099 67.0506C297.491 66.3993 296.399 66.808 296.368 67.6984L295.559 91.1452C295.54 91.6971 295.972 92.16 296.524 92.1791L308.045 92.5767C308.597 92.5957 309.06 92.1637 309.079 91.6117L309.93 66.9681Z"
        />
      </mask>
      <path
        fill-rule="evenodd"
        clip-rule="evenodd"
        d="M280.573 46.0039C280.592 45.452 281.055 45.0199 281.607 45.039L294.63 45.4884C295.182 45.5075 295.614 45.9704 295.595 46.5223L295.305 54.9462C295.274 55.8366 294.182 56.2453 293.574 55.594L292.278 54.2047C291.901 53.801 291.268 53.7791 290.864 54.156L281.705 62.7044C281.053 63.3123 279.992 62.8292 280.023 61.9389L280.573 46.0039ZM290.644 60.5295C291.048 60.1526 291.681 60.1745 292.058 60.5782L294.719 63.4296C294.9 63.6235 294.996 63.8814 294.987 64.1464L294.057 91.0932C294.038 91.6452 293.575 92.0772 293.023 92.0581L280 91.6087C279.448 91.5896 279.016 91.1267 279.035 90.5748L279.706 71.1391C279.715 70.874 279.829 70.6235 280.023 70.4425L290.644 60.5295ZM311.197 73.8651C311.182 74.2863 311.5 74.6474 311.921 74.6619C319.803 74.9339 326.413 68.7649 326.685 60.8831C326.78 58.1337 326.091 55.5391 324.819 53.3143C324.522 52.795 323.827 52.7058 323.375 53.0975L311.89 63.0471C311.679 63.2292 311.555 63.4906 311.545 63.7685L311.197 73.8651ZM311.851 54.8907C311.821 55.7634 312.846 56.2528 313.506 55.6811L320.205 49.8777C320.682 49.4639 320.661 48.7144 320.13 48.3725C318.04 47.0275 315.571 46.2112 312.906 46.1192C312.485 46.1047 312.143 46.443 312.128 46.8642L311.851 54.8907ZM326.927 91.5201C327.535 92.1714 327.052 93.2325 326.162 93.2018L311.547 92.6974C310.995 92.6784 310.563 92.2155 310.582 91.6635L311.086 77.0488C311.117 76.1584 312.209 75.7496 312.817 76.4009L326.927 91.5201ZM310.617 47.0409C310.636 46.4889 310.204 46.026 309.652 46.007L298.131 45.6094C297.579 45.5903 297.116 46.0223 297.097 46.5743L296.686 58.4982C296.676 58.7632 296.773 59.0211 296.954 59.215L301.872 64.4847C302.239 64.8779 302.851 64.9104 303.258 64.5582L309.891 58.8117C310.102 58.6296 310.226 58.3682 310.236 58.0903L310.617 47.0409ZM309.93 66.9681C309.96 66.0954 308.935 65.606 308.275 66.1778L302.926 70.8119C302.52 71.1641 301.907 71.1316 301.54 70.7384L298.099 67.0506C297.491 66.3993 296.399 66.808 296.368 67.6984L295.559 91.1452C295.54 91.6971 295.972 92.16 296.524 92.1791L308.045 92.5767C308.597 92.5957 309.06 92.1637 309.079 91.6117L309.93 66.9681Z"
        fill="url(#paint0_linear_0_1_3)"
      />
      <path
        d="M298.099 67.0506L297.367 67.7329L298.099 67.0506ZM308.275 66.1778L307.621 65.4219L308.275 66.1778ZM302.926 70.8119L303.581 71.5677L302.926 70.8119ZM301.54 70.7384L300.809 71.4207L301.54 70.7384ZM309.891 58.8117L310.546 59.5675L309.891 58.8117ZM310.236 58.0903L309.237 58.0559L310.236 58.0903ZM311.086 77.0488L310.087 77.0143L311.086 77.0488ZM312.817 76.4009L312.086 77.0832L312.817 76.4009ZM326.927 91.5201L326.196 92.2024L326.927 91.5201ZM310.582 91.6635L311.581 91.698L310.582 91.6635ZM313.506 55.6811L314.16 56.4369L313.506 55.6811ZM320.205 49.8777L319.55 49.1219L320.205 49.8777ZM311.89 63.0471L311.235 62.2913L311.89 63.0471ZM311.545 63.7685L312.544 63.803L311.545 63.7685ZM324.819 53.3143L325.687 52.818L324.819 53.3143ZM323.375 53.0975L324.03 53.8533L323.375 53.0975ZM280.023 70.4425L280.705 71.1736L280.023 70.4425ZM280 91.6087L280.034 90.6093L280 91.6087ZM293.023 92.0581L292.989 93.0575L293.023 92.0581ZM292.058 60.5782L291.327 61.2605L292.058 60.5782ZM294.719 63.4296L293.988 64.1119L294.719 63.4296ZM281.705 62.7044L281.022 61.9734L281.705 62.7044ZM292.278 54.2047L293.009 53.5224L292.278 54.2047ZM301.872 64.4847L301.141 65.167L301.872 64.4847ZM303.258 64.5582L302.603 63.8024L303.258 64.5582ZM295.305 54.9462L294.305 54.9117L295.305 54.9462ZM293.574 55.594L294.305 54.9117L293.574 55.594ZM311.197 73.8651L312.196 73.8996L311.197 73.8651ZM310.617 47.0409L309.618 47.0064L310.617 47.0409ZM294.665 44.489L281.641 44.0396L281.572 46.0384L294.596 46.4878L294.665 44.489ZM296.304 54.9807L296.595 46.5568L294.596 46.4878L294.305 54.9117L296.304 54.9807ZM291.547 54.887L292.843 56.2763L294.305 54.9117L293.009 53.5224L291.547 54.887ZM282.387 63.4355L291.547 54.887L290.182 53.4249L281.022 61.9734L282.387 63.4355ZM279.574 45.9694L279.024 61.9044L281.022 61.9734L281.572 46.0384L279.574 45.9694ZM295.45 62.7473L292.789 59.8959L291.327 61.2605L293.988 64.1119L295.45 62.7473ZM295.057 91.1277L295.987 64.1809L293.988 64.1119L293.058 91.0587L295.057 91.1277ZM279.965 92.6081L292.989 93.0575L293.058 91.0587L280.034 90.6093L279.965 92.6081ZM278.706 71.1046L278.035 90.5403L280.034 90.6093L280.705 71.1736L278.706 71.1046ZM289.962 59.7984L279.34 69.7114L280.705 71.1736L291.327 61.2605L289.962 59.7984ZM325.686 60.8486C325.433 68.1785 319.285 73.9155 311.956 73.6625L311.887 75.6613C320.32 75.9524 327.393 69.3513 327.684 60.9175L325.686 60.8486ZM323.951 53.8106C325.133 55.8788 325.774 58.2902 325.686 60.8486L327.684 60.9175C327.786 57.9772 327.049 55.1995 325.687 52.818L323.951 53.8106ZM312.544 63.803L324.03 53.8533L322.72 52.3417L311.235 62.2913L312.544 63.803ZM312.196 73.8996L312.544 63.803L310.546 63.734L310.197 73.8306L312.196 73.8996ZM319.55 49.1219L312.851 54.9252L314.16 56.4369L320.859 50.6335L319.55 49.1219ZM312.872 47.1186C315.351 47.2042 317.646 47.9632 319.589 49.2134L320.671 47.5315C318.433 46.0917 315.79 45.2181 312.941 45.1198L312.872 47.1186ZM312.851 54.9252L313.128 46.8987L311.129 46.8297L310.852 54.8562L312.851 54.9252ZM311.512 93.6968L326.127 94.2012L326.196 92.2024L311.581 91.698L311.512 93.6968ZM310.087 77.0143L309.583 91.6291L311.581 91.698L312.086 77.0832L310.087 77.0143ZM327.658 90.8378L313.548 75.7186L312.086 77.0832L326.196 92.2024L327.658 90.8378ZM298.096 46.6088L309.618 47.0064L309.687 45.0076L298.165 44.61L298.096 46.6088ZM297.685 58.5327L298.096 46.6088L296.098 46.5398L295.686 58.4637L297.685 58.5327ZM302.603 63.8024L297.685 58.5327L296.223 59.8973L301.141 65.167L302.603 63.8024ZM309.237 58.0559L302.603 63.8024L303.913 65.3141L310.546 59.5675L309.237 58.0559ZM309.618 47.0064L309.237 58.0559L311.235 58.1248L311.617 47.0754L309.618 47.0064ZM303.581 71.5677L308.93 66.9336L307.621 65.4219L302.271 70.0561L303.581 71.5677ZM297.367 67.7329L300.809 71.4207L302.271 70.0561L298.83 66.3683L297.367 67.7329ZM296.558 91.1796L297.367 67.7329L295.369 67.6639L294.56 91.1107L296.558 91.1796ZM308.08 91.5772L296.558 91.1796L296.489 93.1785L308.011 93.5761L308.08 91.5772ZM308.93 66.9336L308.08 91.5772L310.079 91.6462L310.929 67.0026L308.93 66.9336ZM308.011 93.5761C309.115 93.6142 310.04 92.7501 310.079 91.6462L308.08 91.5772L308.011 93.5761ZM294.56 91.1107C294.521 92.2146 295.385 93.1404 296.489 93.1785L296.558 91.1796L294.56 91.1107ZM298.83 66.3683C297.614 65.0657 295.43 65.8832 295.369 67.6639L297.367 67.7329L297.367 67.7329L298.83 66.3683ZM308.93 66.9336L308.93 66.9336L310.929 67.0026C310.989 65.2573 308.941 64.2785 307.621 65.4219L308.93 66.9336ZM302.271 70.0561L300.809 71.4207C301.543 72.2071 302.768 72.2721 303.581 71.5677L302.271 70.0561ZM310.546 59.5675C310.966 59.2034 311.216 58.6806 311.235 58.1248L309.237 58.0559L310.546 59.5675ZM298.165 44.61C297.062 44.5719 296.136 45.4359 296.098 46.5398L298.096 46.6088L298.096 46.6088L298.165 44.61ZM312.086 77.0832L313.548 75.7186C312.332 74.416 310.148 75.2335 310.087 77.0143L312.086 77.0832ZM326.127 94.2012C327.908 94.2627 328.874 92.1404 327.658 90.8378L326.196 92.2024L326.196 92.2024L326.127 94.2012ZM311.581 91.698L309.583 91.6291C309.545 92.733 310.409 93.6587 311.512 93.6968L311.581 91.698ZM312.941 45.1198C311.934 45.0851 311.161 45.8907 311.129 46.8297L313.128 46.8987C313.124 46.9953 313.036 47.1243 312.872 47.1186L312.941 45.1198ZM312.851 54.9252L310.852 54.8562C310.792 56.6015 312.84 57.5803 314.16 56.4369L312.851 54.9252ZM320.859 50.6335C321.792 49.8253 321.817 48.2688 320.671 47.5315L319.589 49.2134C319.582 49.2088 319.569 49.197 319.558 49.1787C319.549 49.1622 319.547 49.1484 319.547 49.1404C319.546 49.1252 319.552 49.1195 319.55 49.1219L320.859 50.6335ZM311.235 62.2913C310.815 62.6555 310.565 63.1782 310.546 63.734L312.544 63.803L311.235 62.2913ZM325.687 52.818C325.05 51.7037 323.605 51.5747 322.72 52.3417L324.03 53.8533C324.032 53.8512 324.027 53.8561 324.014 53.8542C324.007 53.8532 323.995 53.8499 323.981 53.8408C323.966 53.8307 323.955 53.8184 323.951 53.8106L325.687 52.818ZM280.705 71.1736L280.705 71.1736L279.34 69.7114C278.953 70.0734 278.724 70.5745 278.706 71.1046L280.705 71.1736ZM280.034 90.6093L280.034 90.6093L278.035 90.5403C277.997 91.6442 278.861 92.57 279.965 92.6081L280.034 90.6093ZM293.058 91.0587L293.058 91.0587L292.989 93.0575C294.093 93.0956 295.019 92.2316 295.057 91.1277L293.058 91.0587ZM292.789 59.8959C292.035 59.0884 290.77 59.0447 289.962 59.7984L291.327 61.2605L292.789 59.8959ZM293.988 64.1119L295.987 64.1809C296.005 63.6508 295.812 63.1351 295.45 62.7473L293.988 64.1119ZM281.022 61.9734L281.022 61.9734L279.024 61.9044C278.962 63.6851 281.084 64.6512 282.387 63.4355L281.022 61.9734ZM293.009 53.5224C292.255 52.7149 290.99 52.6712 290.182 53.4249L291.547 54.887L293.009 53.5224ZM301.141 65.167C301.875 65.9535 303.1 66.0184 303.913 65.3141L302.603 63.8024L302.603 63.8024L301.141 65.167ZM294.305 54.9117L292.843 56.2763C294.059 57.5789 296.243 56.7614 296.304 54.9807L294.305 54.9117ZM295.686 58.4637C295.668 58.9938 295.861 59.5095 296.223 59.8973L297.685 58.5327L295.686 58.4637ZM281.641 44.0396C280.537 44.0015 279.612 44.8655 279.574 45.9694L281.572 46.0384L281.572 46.0384L281.641 44.0396ZM311.956 73.6625C312.12 73.6682 312.199 73.8029 312.196 73.8996L310.197 73.8306C310.165 74.7696 310.88 75.6266 311.887 75.6613L311.956 73.6625ZM309.618 47.0064L311.617 47.0754C311.655 45.9714 310.791 45.0457 309.687 45.0076L309.618 47.0064ZM294.596 46.4878L294.596 46.4878L296.595 46.5568C296.633 45.4529 295.769 44.5271 294.665 44.489L294.596 46.4878Z"
        fill="black"
        mask="url(#path-5-outside-1_0_1)"
      />
      <path
        d="M329.303 43.1766L322.199 42.9314C320.863 42.8854 320.139 44.477 321.051 45.454L327.909 52.8027C328.821 53.7797 330.459 53.1665 330.505 51.831L330.75 44.7274C330.779 43.8995 330.131 43.2052 329.303 43.1766Z"
        fill="#00C08C"
        stroke="black"
      />
      <path
        d="M312.112 74.996C312.112 74.996 323.143 78.7284 329.509 78.7284C336.02 78.7284 343.75 72.511 344.281 71.3746L344.198 71.1978C344.313 71.1913 344.337 71.2546 344.281 71.3746L347.717 78.7284C346.071 78.915 336.707 87.0169 328.068 85.0379C321.128 83.448 318.996 84.2368 316.911 81.5948L312.112 74.996Z"
        fill="#00C6A2"
        stroke="black"
      />
      <path
        d="M344 75C342.5 69.5 346.5 67.5 348.078 69.5469C347.5 70 347.26 72.641 348.5 75C349.74 77.3591 351.126 78.1399 351.126 78.1399C350.969 78.6092 351 80.5 348.5 80.5C346.145 80.5 344.81 77.9708 344 75Z"
        fill="white"
        stroke="black"
      />
      <path
        d="M346.962 61.2606C348.064 64.7039 348.339 67.7966 347.88 69.3907C347.421 70.0284 347.421 72.2602 348.339 74.6513C349.682 78.1499 351.093 77.999 351.093 77.999C352.47 74.6514 356.602 77.999 358.438 76.5643L366.241 70.8254C366.241 69.5202 366.306 68.2939 366.241 66.9995L370.831 64.6083C372.667 63.6518 372.208 62.2171 370.372 61.7389C368.964 61.3721 368.077 61.7389 366.7 62.2171C366.7 62.2171 369.913 60.7824 369.913 59.8259C369.913 58.1016 365.782 57.913 360.274 60.7824L360.274 60.7825C357.448 62.2543 354.766 63.6518 352.929 62.2171C351.093 59.3477 351.093 56 347.88 56C344.867 56 346.197 58.8694 346.962 61.2606Z"
        fill="white"
      />
      <path
        d="M366.7 62.2171C366.7 62.2171 369.913 60.7824 369.913 59.8259C369.913 58.1016 365.782 57.913 360.274 60.7824C357.448 62.2543 354.766 63.6519 352.929 62.2171C351.093 59.3477 351.093 56 347.88 56C344.867 56 346.197 58.8694 346.962 61.2606C348.064 64.7039 348.339 67.7966 347.88 69.3907C347.421 70.0284 347.421 72.2602 348.339 74.6513C349.682 78.1499 351.093 77.999 351.093 77.999C352.47 74.6514 356.602 77.999 358.438 76.5643L366.241 70.8254C366.241 69.5202 366.306 68.2939 366.241 66.9995M366.7 62.2171C364.864 63.1736 360.274 65.5648 360.274 65.5648M366.7 62.2171C368.077 61.7389 368.964 61.3721 370.372 61.7389C372.208 62.2171 372.667 63.6518 370.831 64.6083L366.241 66.9995M356.143 70.3472C357.978 69.3907 357.52 69.3907 360.274 69.3907C362.477 69.3907 362.875 69.0719 363.028 68.9125V67.956C363.028 67.956 363.028 64.1301 365.782 64.6083C366.029 64.6512 366.187 65.9226 366.241 66.9995"
        stroke="black"
        stroke-linecap="round"
      />
      <rect x="16" y="84" width="318" height="79" rx="15" fill="#00D6AF" />
      <path
        d="M43.184 114.224L42.352 113.408C41.8187 113.92 41.2747 114.32 40.72 114.608C40.1653 114.885 39.504 115.024 38.736 115.024C38.1173 115.024 37.5413 114.907 37.008 114.672C36.4853 114.427 36.0267 114.096 35.632 113.68C35.248 113.264 34.944 112.773 34.72 112.208C34.5067 111.643 34.4 111.035 34.4 110.384C34.4 109.733 34.5067 109.131 34.72 108.576C34.944 108.011 35.248 107.52 35.632 107.104C36.0267 106.688 36.4853 106.363 37.008 106.128C37.5413 105.893 38.1173 105.776 38.736 105.776C39.504 105.776 40.16 105.92 40.704 106.208C41.2587 106.496 41.776 106.864 42.256 107.312L43.12 106.384C42.8427 106.117 42.5547 105.877 42.256 105.664C41.9573 105.44 41.632 105.253 41.28 105.104C40.928 104.944 40.544 104.821 40.128 104.736C39.7227 104.651 39.264 104.608 38.752 104.608C37.9307 104.608 37.1733 104.763 36.48 105.072C35.7867 105.371 35.1893 105.787 34.688 106.32C34.1867 106.843 33.792 107.456 33.504 108.16C33.2267 108.864 33.088 109.616 33.088 110.416C33.088 111.227 33.2267 111.984 33.504 112.688C33.792 113.392 34.1867 114.005 34.688 114.528C35.1893 115.04 35.7813 115.445 36.464 115.744C37.1467 116.043 37.8933 116.192 38.704 116.192C39.216 116.192 39.68 116.144 40.096 116.048C40.512 115.952 40.9013 115.819 41.264 115.648C41.6267 115.477 41.9627 115.275 42.272 115.04C42.592 114.795 42.896 114.523 43.184 114.224ZM46.4205 111.264C46.4205 110.88 46.4792 110.528 46.5965 110.208C46.7245 109.888 46.9005 109.616 47.1245 109.392C47.3485 109.157 47.6098 108.981 47.9085 108.864C48.2178 108.736 48.5485 108.672 48.9005 108.672C49.6365 108.672 50.2018 108.896 50.5965 109.344C50.9912 109.792 51.1885 110.4 51.1885 111.168V116H52.4205V110.864C52.4205 110.373 52.3458 109.925 52.1965 109.52C52.0578 109.115 51.8498 108.768 51.5725 108.48C51.3058 108.181 50.9752 107.952 50.5805 107.792C50.1965 107.632 49.7538 107.552 49.2525 107.552C48.5378 107.552 47.9565 107.712 47.5085 108.032C47.0605 108.341 46.6978 108.72 46.4205 109.168V104.32H45.1885V116H46.4205V111.264ZM55.7839 112.32H62.3439C62.3545 112.245 62.3599 112.176 62.3599 112.112C62.3599 112.048 62.3599 111.989 62.3599 111.936C62.3599 111.328 62.2745 110.757 62.1039 110.224C61.9332 109.691 61.6825 109.227 61.3519 108.832C61.0212 108.437 60.6159 108.128 60.1359 107.904C59.6559 107.669 59.1119 107.552 58.5039 107.552C57.9279 107.552 57.3945 107.664 56.9039 107.888C56.4239 108.112 56.0079 108.421 55.6559 108.816C55.3039 109.2 55.0265 109.659 54.8239 110.192C54.6319 110.715 54.5359 111.275 54.5359 111.872C54.5359 112.512 54.6425 113.099 54.8559 113.632C55.0799 114.165 55.3785 114.624 55.7519 115.008C56.1252 115.381 56.5625 115.675 57.0639 115.888C57.5652 116.091 58.0985 116.192 58.6639 116.192C59.4532 116.192 60.1145 116.053 60.6479 115.776C61.1812 115.488 61.6559 115.109 62.0719 114.64L61.3039 113.952C60.9625 114.304 60.5839 114.587 60.1679 114.8C59.7625 115.013 59.2719 115.12 58.6959 115.12C58.3332 115.12 57.9865 115.061 57.6559 114.944C57.3252 114.816 57.0265 114.635 56.7599 114.4C56.4932 114.155 56.2745 113.861 56.1039 113.52C55.9332 113.168 55.8265 112.768 55.7839 112.32ZM55.7839 111.408C55.8265 111.003 55.9225 110.629 56.0719 110.288C56.2212 109.947 56.4132 109.653 56.6479 109.408C56.8825 109.152 57.1545 108.955 57.4639 108.816C57.7732 108.667 58.1092 108.592 58.4719 108.592C58.8879 108.592 59.2505 108.672 59.5599 108.832C59.8799 108.981 60.1465 109.184 60.3599 109.44C60.5839 109.696 60.7545 109.995 60.8719 110.336C60.9999 110.677 61.0799 111.035 61.1119 111.408H55.7839ZM71.6206 114.592L70.8366 113.856C70.506 114.208 70.1326 114.501 69.7166 114.736C69.3113 114.971 68.842 115.088 68.3086 115.088C67.8713 115.088 67.466 115.008 67.0926 114.848C66.73 114.677 66.41 114.448 66.1326 114.16C65.866 113.861 65.6526 113.515 65.4926 113.12C65.3433 112.725 65.2686 112.304 65.2686 111.856C65.2686 111.408 65.3433 110.992 65.4926 110.608C65.642 110.213 65.85 109.872 66.1166 109.584C66.3833 109.285 66.698 109.056 67.0606 108.896C67.4233 108.725 67.8126 108.64 68.2286 108.64C68.794 108.64 69.2686 108.763 69.6526 109.008C70.0473 109.253 70.41 109.547 70.7406 109.888L71.5566 109.024C71.3646 108.821 71.1566 108.629 70.9326 108.448C70.7086 108.267 70.4633 108.112 70.1966 107.984C69.93 107.845 69.6366 107.739 69.3166 107.664C68.9966 107.589 68.6393 107.552 68.2446 107.552C67.6366 107.552 67.0713 107.669 66.5486 107.904C66.0366 108.128 65.5886 108.437 65.2046 108.832C64.8313 109.227 64.538 109.691 64.3246 110.224C64.1113 110.747 64.0046 111.301 64.0046 111.888C64.0046 112.475 64.1113 113.029 64.3246 113.552C64.538 114.075 64.8313 114.533 65.2046 114.928C65.5886 115.312 66.0366 115.621 66.5486 115.856C67.0713 116.08 67.6366 116.192 68.2446 116.192C69.0233 116.192 69.674 116.043 70.1966 115.744C70.73 115.445 71.2046 115.061 71.6206 114.592ZM77.4173 111.28L80.8893 107.728H79.3533L74.8893 112.384V104.32H73.6573V116H74.8893V113.84L76.5693 112.144L79.5293 116H81.0013L77.4173 111.28ZM95.0675 107.728H93.7555L91.0995 114.624L88.0915 107.728H86.7315L90.4915 115.968C90.2462 116.555 89.9955 116.96 89.7395 117.184C89.4835 117.408 89.1688 117.52 88.7955 117.52C88.5288 117.52 88.2942 117.493 88.0915 117.44C87.8995 117.397 87.7022 117.323 87.4995 117.216L87.0835 118.192C87.3608 118.331 87.6382 118.432 87.9155 118.496C88.1928 118.571 88.5022 118.608 88.8435 118.608C89.4622 118.608 89.9848 118.432 90.4115 118.08C90.8488 117.728 91.2435 117.125 91.5955 116.272L95.0675 107.728ZM104.644 111.856C104.644 111.269 104.538 110.715 104.324 110.192C104.111 109.669 103.812 109.216 103.428 108.832C103.044 108.437 102.586 108.128 102.052 107.904C101.53 107.669 100.959 107.552 100.34 107.552C99.7109 107.552 99.1296 107.669 98.5963 107.904C98.0736 108.128 97.6203 108.437 97.2363 108.832C96.8523 109.227 96.5536 109.691 96.3403 110.224C96.1269 110.747 96.0203 111.301 96.0203 111.888C96.0203 112.475 96.1269 113.029 96.3403 113.552C96.5536 114.075 96.8523 114.533 97.2363 114.928C97.6203 115.312 98.0736 115.621 98.5963 115.856C99.1189 116.08 99.6896 116.192 100.308 116.192C100.927 116.192 101.503 116.08 102.036 115.856C102.57 115.621 103.028 115.307 103.412 114.912C103.796 114.517 104.095 114.059 104.308 113.536C104.532 113.003 104.644 112.443 104.644 111.856ZM103.38 111.888C103.38 112.336 103.306 112.757 103.156 113.152C103.007 113.536 102.799 113.872 102.532 114.16C102.266 114.448 101.946 114.677 101.572 114.848C101.199 115.008 100.788 115.088 100.34 115.088C99.9029 115.088 99.4976 115.003 99.1243 114.832C98.7509 114.661 98.4256 114.432 98.1483 114.144C97.8816 113.856 97.6683 113.515 97.5082 113.12C97.3589 112.725 97.2843 112.304 97.2843 111.856C97.2843 111.408 97.3589 110.992 97.5082 110.608C97.6576 110.213 97.8603 109.872 98.1163 109.584C98.3829 109.285 98.7029 109.056 99.0763 108.896C99.4496 108.725 99.8603 108.64 100.308 108.64C100.746 108.64 101.151 108.725 101.524 108.896C101.898 109.067 102.223 109.301 102.5 109.6C102.778 109.888 102.991 110.229 103.14 110.624C103.3 111.019 103.38 111.44 103.38 111.888ZM112.748 112.464C112.748 112.848 112.684 113.2 112.556 113.52C112.428 113.84 112.252 114.117 112.028 114.352C111.815 114.576 111.553 114.752 111.244 114.88C110.945 114.997 110.62 115.056 110.268 115.056C109.532 115.056 108.967 114.832 108.572 114.384C108.177 113.936 107.98 113.328 107.98 112.56V107.728H106.748V112.864C106.748 113.355 106.817 113.803 106.956 114.208C107.105 114.613 107.313 114.965 107.58 115.264C107.857 115.552 108.188 115.776 108.572 115.936C108.967 116.096 109.415 116.176 109.916 116.176C110.631 116.176 111.212 116.021 111.66 115.712C112.108 115.392 112.471 115.008 112.748 114.56V116H113.964V107.728H112.748V112.464ZM117.967 112.704C117.967 112.085 118.053 111.541 118.223 111.072C118.394 110.592 118.629 110.192 118.927 109.872C119.226 109.552 119.573 109.312 119.967 109.152C120.373 108.992 120.799 108.912 121.247 108.912H121.343V107.584C120.949 107.573 120.581 107.621 120.239 107.728C119.898 107.835 119.583 107.995 119.295 108.208C119.007 108.411 118.751 108.656 118.527 108.944C118.303 109.232 118.117 109.547 117.967 109.888V107.728H116.735V116H117.967V112.704ZM129.457 105.92V104.56H128.049V105.92H129.457ZM129.361 116V107.728H128.129V116H129.361ZM133.452 111.264C133.452 110.88 133.51 110.528 133.628 110.208C133.756 109.888 133.932 109.616 134.156 109.392C134.38 109.157 134.641 108.981 134.94 108.864C135.249 108.736 135.58 108.672 135.932 108.672C136.668 108.672 137.233 108.896 137.628 109.344C138.022 109.792 138.22 110.4 138.22 111.168V116H139.452V110.864C139.452 110.373 139.377 109.925 139.228 109.52C139.089 109.115 138.881 108.768 138.604 108.48C138.337 108.181 138.006 107.952 137.612 107.792C137.228 107.632 136.785 107.552 136.284 107.552C135.569 107.552 134.988 107.712 134.54 108.032C134.092 108.341 133.729 108.72 133.452 109.168V107.728H132.22V116H133.452V111.264ZM145.095 114.592L142.311 107.728H140.951L144.535 116.064H145.623L149.223 107.728H147.895L145.095 114.592ZM151.409 112.32H157.969C157.98 112.245 157.985 112.176 157.985 112.112C157.985 112.048 157.985 111.989 157.985 111.936C157.985 111.328 157.9 110.757 157.729 110.224C157.558 109.691 157.308 109.227 156.977 108.832C156.646 108.437 156.241 108.128 155.761 107.904C155.281 107.669 154.737 107.552 154.129 107.552C153.553 107.552 153.02 107.664 152.529 107.888C152.049 108.112 151.633 108.421 151.281 108.816C150.929 109.2 150.652 109.659 150.449 110.192C150.257 110.715 150.161 111.275 150.161 111.872C150.161 112.512 150.268 113.099 150.481 113.632C150.705 114.165 151.004 114.624 151.377 115.008C151.75 115.381 152.188 115.675 152.689 115.888C153.19 116.091 153.724 116.192 154.289 116.192C155.078 116.192 155.74 116.053 156.273 115.776C156.806 115.488 157.281 115.109 157.697 114.64L156.929 113.952C156.588 114.304 156.209 114.587 155.793 114.8C155.388 115.013 154.897 115.12 154.321 115.12C153.958 115.12 153.612 115.061 153.281 114.944C152.95 114.816 152.652 114.635 152.385 114.4C152.118 114.155 151.9 113.861 151.729 113.52C151.558 113.168 151.452 112.768 151.409 112.32ZM151.409 111.408C151.452 111.003 151.548 110.629 151.697 110.288C151.846 109.947 152.038 109.653 152.273 109.408C152.508 109.152 152.78 108.955 153.089 108.816C153.398 108.667 153.734 108.592 154.097 108.592C154.513 108.592 154.876 108.672 155.185 108.832C155.505 108.981 155.772 109.184 155.985 109.44C156.209 109.696 156.38 109.995 156.497 110.336C156.625 110.677 156.705 111.035 156.737 111.408H151.409ZM165.822 113.68V113.648C165.822 113.275 165.742 112.96 165.582 112.704C165.432 112.448 165.23 112.229 164.974 112.048C164.718 111.867 164.43 111.717 164.11 111.6C163.8 111.483 163.486 111.376 163.166 111.28C162.888 111.195 162.622 111.109 162.366 111.024C162.11 110.939 161.88 110.843 161.678 110.736C161.486 110.629 161.331 110.507 161.214 110.368C161.096 110.219 161.038 110.048 161.038 109.856V109.824C161.038 109.483 161.182 109.2 161.47 108.976C161.758 108.741 162.147 108.624 162.638 108.624C163.043 108.624 163.454 108.699 163.87 108.848C164.296 108.987 164.702 109.179 165.086 109.424L165.646 108.496C165.219 108.219 164.744 108 164.222 107.84C163.699 107.669 163.182 107.584 162.67 107.584C162.264 107.584 161.886 107.643 161.534 107.76C161.192 107.867 160.894 108.027 160.638 108.24C160.392 108.443 160.2 108.693 160.062 108.992C159.923 109.28 159.854 109.6 159.854 109.952V109.984C159.854 110.368 159.934 110.688 160.094 110.944C160.264 111.2 160.478 111.413 160.734 111.584C161 111.755 161.294 111.899 161.614 112.016C161.944 112.123 162.27 112.224 162.59 112.32C162.856 112.395 163.112 112.475 163.358 112.56C163.614 112.645 163.838 112.747 164.03 112.864C164.222 112.971 164.371 113.099 164.478 113.248C164.595 113.397 164.654 113.573 164.654 113.776V113.808C164.654 114.213 164.494 114.533 164.174 114.768C163.854 115.003 163.443 115.12 162.942 115.12C162.451 115.12 161.96 115.029 161.47 114.848C160.99 114.667 160.526 114.405 160.078 114.064L159.454 114.944C159.923 115.317 160.462 115.616 161.07 115.84C161.678 116.053 162.28 116.16 162.878 116.16C163.294 116.16 163.678 116.107 164.03 116C164.392 115.883 164.702 115.717 164.958 115.504C165.224 115.291 165.432 115.035 165.582 114.736C165.742 114.427 165.822 114.075 165.822 113.68ZM169.618 108.816H172.242V107.728H169.618V105.232H168.386V107.728H167.234V108.816H168.386V113.808C168.386 114.224 168.445 114.581 168.562 114.88C168.679 115.179 168.839 115.424 169.042 115.616C169.255 115.797 169.506 115.931 169.794 116.016C170.082 116.101 170.391 116.144 170.722 116.144C171.021 116.144 171.287 116.112 171.522 116.048C171.767 115.995 171.997 115.909 172.21 115.792V114.736C171.997 114.843 171.794 114.917 171.602 114.96C171.421 115.003 171.223 115.024 171.01 115.024C170.594 115.024 170.258 114.923 170.002 114.72C169.746 114.517 169.618 114.16 169.618 113.648V108.816ZM180.983 109.2C180.759 108.731 180.428 108.341 179.991 108.032C179.554 107.712 178.999 107.552 178.327 107.552C177.975 107.552 177.666 107.595 177.399 107.68C177.132 107.765 176.892 107.883 176.679 108.032C176.466 108.171 176.274 108.336 176.103 108.528C175.943 108.72 175.794 108.917 175.655 109.12V107.728H174.423V116H175.655V111.28C175.655 110.896 175.714 110.549 175.831 110.24C175.948 109.92 176.108 109.643 176.311 109.408C176.524 109.173 176.77 108.992 177.047 108.864C177.324 108.736 177.628 108.672 177.959 108.672C178.62 108.672 179.138 108.891 179.511 109.328C179.895 109.755 180.087 110.357 180.087 111.136V116H181.303V111.232C181.303 110.827 181.362 110.464 181.479 110.144C181.607 109.824 181.772 109.557 181.975 109.344C182.188 109.12 182.434 108.955 182.711 108.848C182.988 108.731 183.282 108.672 183.591 108.672C184.263 108.672 184.786 108.891 185.159 109.328C185.543 109.755 185.735 110.368 185.735 111.168V116H186.967V110.88C186.967 109.845 186.695 109.035 186.151 108.448C185.607 107.851 184.855 107.552 183.895 107.552C183.532 107.552 183.202 107.595 182.903 107.68C182.615 107.765 182.354 107.883 182.119 108.032C181.884 108.181 181.671 108.357 181.479 108.56C181.298 108.763 181.132 108.976 180.983 109.2ZM190.378 112.32H196.938C196.948 112.245 196.954 112.176 196.954 112.112C196.954 112.048 196.954 111.989 196.954 111.936C196.954 111.328 196.868 110.757 196.698 110.224C196.527 109.691 196.276 109.227 195.946 108.832C195.615 108.437 195.21 108.128 194.73 107.904C194.25 107.669 193.706 107.552 193.098 107.552C192.522 107.552 191.988 107.664 191.498 107.888C191.018 108.112 190.602 108.421 190.25 108.816C189.898 109.2 189.62 109.659 189.418 110.192C189.226 110.715 189.13 111.275 189.13 111.872C189.13 112.512 189.236 113.099 189.45 113.632C189.674 114.165 189.972 114.624 190.346 115.008C190.719 115.381 191.156 115.675 191.658 115.888C192.159 116.091 192.692 116.192 193.258 116.192C194.047 116.192 194.708 116.053 195.242 115.776C195.775 115.488 196.25 115.109 196.666 114.64L195.898 113.952C195.556 114.304 195.178 114.587 194.762 114.8C194.356 115.013 193.866 115.12 193.29 115.12C192.927 115.12 192.58 115.061 192.25 114.944C191.919 114.816 191.62 114.635 191.354 114.4C191.087 114.155 190.868 113.861 190.698 113.52C190.527 113.168 190.42 112.768 190.378 112.32ZM190.378 111.408C190.42 111.003 190.516 110.629 190.666 110.288C190.815 109.947 191.007 109.653 191.242 109.408C191.476 109.152 191.748 108.955 192.058 108.816C192.367 108.667 192.703 108.592 193.066 108.592C193.482 108.592 193.844 108.672 194.154 108.832C194.474 108.981 194.74 109.184 194.954 109.44C195.178 109.696 195.348 109.995 195.466 110.336C195.594 110.677 195.674 111.035 195.706 111.408H190.378ZM200.342 111.264C200.342 110.88 200.401 110.528 200.518 110.208C200.646 109.888 200.822 109.616 201.046 109.392C201.27 109.157 201.532 108.981 201.83 108.864C202.14 108.736 202.47 108.672 202.822 108.672C203.558 108.672 204.124 108.896 204.518 109.344C204.913 109.792 205.11 110.4 205.11 111.168V116H206.342V110.864C206.342 110.373 206.268 109.925 206.118 109.52C205.98 109.115 205.772 108.768 205.494 108.48C205.228 108.181 204.897 107.952 204.502 107.792C204.118 107.632 203.676 107.552 203.174 107.552C202.46 107.552 201.878 107.712 201.43 108.032C200.982 108.341 200.62 108.72 200.342 109.168V107.728H199.11V116H200.342V111.264ZM210.634 108.816H213.258V107.728H210.634V105.232H209.402V107.728H208.25V108.816H209.402V113.808C209.402 114.224 209.46 114.581 209.578 114.88C209.695 115.179 209.855 115.424 210.058 115.616C210.271 115.797 210.522 115.931 210.81 116.016C211.098 116.101 211.407 116.144 211.738 116.144C212.036 116.144 212.303 116.112 212.538 116.048C212.783 115.995 213.012 115.909 213.226 115.792V114.736C213.012 114.843 212.81 114.917 212.618 114.96C212.436 115.003 212.239 115.024 212.026 115.024C211.61 115.024 211.274 114.923 211.018 114.72C210.762 114.517 210.634 114.16 210.634 113.648V108.816ZM221.119 113.68V113.648C221.119 113.275 221.039 112.96 220.879 112.704C220.729 112.448 220.527 112.229 220.271 112.048C220.015 111.867 219.727 111.717 219.407 111.6C219.097 111.483 218.783 111.376 218.463 111.28C218.185 111.195 217.919 111.109 217.663 111.024C217.407 110.939 217.177 110.843 216.975 110.736C216.783 110.629 216.628 110.507 216.511 110.368C216.393 110.219 216.335 110.048 216.335 109.856V109.824C216.335 109.483 216.479 109.2 216.767 108.976C217.055 108.741 217.444 108.624 217.935 108.624C218.34 108.624 218.751 108.699 219.167 108.848C219.593 108.987 219.999 109.179 220.383 109.424L220.943 108.496C220.516 108.219 220.041 108 219.519 107.84C218.996 107.669 218.479 107.584 217.967 107.584C217.561 107.584 217.183 107.643 216.831 107.76C216.489 107.867 216.191 108.027 215.935 108.24C215.689 108.443 215.497 108.693 215.359 108.992C215.22 109.28 215.151 109.6 215.151 109.952V109.984C215.151 110.368 215.231 110.688 215.391 110.944C215.561 111.2 215.775 111.413 216.031 111.584C216.297 111.755 216.591 111.899 216.911 112.016C217.241 112.123 217.567 112.224 217.887 112.32C218.153 112.395 218.409 112.475 218.655 112.56C218.911 112.645 219.135 112.747 219.327 112.864C219.519 112.971 219.668 113.099 219.775 113.248C219.892 113.397 219.951 113.573 219.951 113.776V113.808C219.951 114.213 219.791 114.533 219.471 114.768C219.151 115.003 218.74 115.12 218.239 115.12C217.748 115.12 217.257 115.029 216.767 114.848C216.287 114.667 215.823 114.405 215.375 114.064L214.751 114.944C215.22 115.317 215.759 115.616 216.367 115.84C216.975 116.053 217.577 116.16 218.174 116.16C218.591 116.16 218.975 116.107 219.327 116C219.689 115.883 219.999 115.717 220.255 115.504C220.521 115.291 220.729 115.035 220.879 114.736C221.039 114.427 221.119 114.075 221.119 113.68ZM229.644 105.92V104.56H228.236V105.92H229.644ZM229.548 116V107.728H228.316V116H229.548ZM233.639 111.264C233.639 110.88 233.698 110.528 233.815 110.208C233.943 109.888 234.119 109.616 234.343 109.392C234.567 109.157 234.829 108.981 235.127 108.864C235.437 108.736 235.767 108.672 236.119 108.672C236.855 108.672 237.421 108.896 237.815 109.344C238.21 109.792 238.407 110.4 238.407 111.168V116H239.639V110.864C239.639 110.373 239.565 109.925 239.415 109.52C239.277 109.115 239.069 108.768 238.791 108.48C238.525 108.181 238.194 107.952 237.799 107.792C237.415 107.632 236.973 107.552 236.471 107.552C235.757 107.552 235.175 107.712 234.727 108.032C234.279 108.341 233.917 108.72 233.639 109.168V107.728H232.407V116H233.639V111.264ZM255.896 108.704V108.672C255.896 108.096 255.794 107.573 255.592 107.104C255.4 106.624 255.117 106.213 254.744 105.872C254.381 105.531 253.933 105.269 253.4 105.088C252.877 104.896 252.28 104.8 251.608 104.8H247.032V116H249.496V112.64H251.368C251.997 112.64 252.584 112.56 253.128 112.4C253.682 112.229 254.162 111.979 254.568 111.648C254.984 111.317 255.309 110.907 255.544 110.416C255.778 109.925 255.896 109.355 255.896 108.704ZM253.4 108.752C253.4 109.232 253.229 109.637 252.888 109.968C252.546 110.288 252.066 110.448 251.448 110.448H249.496V107.024H251.4C252.018 107.024 252.504 107.168 252.856 107.456C253.218 107.744 253.4 108.165 253.4 108.72V108.752ZM266.327 111.728V111.696C266.327 111.077 266.21 110.501 265.975 109.968C265.74 109.424 265.415 108.955 264.999 108.56C264.594 108.155 264.108 107.84 263.543 107.616C262.978 107.381 262.364 107.264 261.703 107.264C261.031 107.264 260.412 107.381 259.847 107.616C259.282 107.851 258.791 108.171 258.375 108.576C257.959 108.981 257.634 109.456 257.399 110C257.164 110.533 257.047 111.109 257.047 111.728V111.76C257.047 112.379 257.164 112.96 257.399 113.504C257.634 114.037 257.954 114.507 258.359 114.912C258.775 115.307 259.266 115.621 259.831 115.856C260.396 116.08 261.01 116.192 261.671 116.192C262.343 116.192 262.962 116.075 263.527 115.84C264.092 115.605 264.583 115.285 264.999 114.88C265.415 114.475 265.74 114.005 265.975 113.472C266.21 112.928 266.327 112.347 266.327 111.728ZM263.927 111.76C263.927 112.08 263.874 112.384 263.767 112.672C263.671 112.949 263.527 113.195 263.335 113.408C263.143 113.621 262.908 113.792 262.631 113.92C262.364 114.037 262.055 114.096 261.703 114.096C261.362 114.096 261.052 114.032 260.775 113.904C260.508 113.776 260.274 113.605 260.071 113.392C259.868 113.168 259.714 112.917 259.607 112.64C259.5 112.352 259.447 112.048 259.447 111.728V111.696C259.447 111.376 259.495 111.077 259.591 110.8C259.698 110.512 259.847 110.261 260.039 110.048C260.231 109.835 260.46 109.669 260.727 109.552C261.004 109.424 261.319 109.36 261.671 109.36C262.002 109.36 262.306 109.424 262.583 109.552C262.86 109.68 263.1 109.856 263.303 110.08C263.506 110.293 263.66 110.544 263.767 110.832C263.874 111.109 263.927 111.408 263.927 111.728V111.76ZM273.256 109.808V107.264C272.531 107.232 271.955 107.392 271.528 107.744C271.101 108.096 270.765 108.565 270.52 109.152V107.424H268.088V116H270.52V112.832C270.52 111.797 270.749 111.035 271.208 110.544C271.677 110.053 272.317 109.808 273.128 109.808H273.256ZM279.592 115.648V113.696C279.218 113.899 278.818 114 278.391 114C277.869 114 277.608 113.723 277.608 113.168V109.504H279.624V107.424H277.608V105.232H275.176V107.424H274.152V109.504H275.176V113.568C275.176 114.069 275.234 114.485 275.352 114.816C275.48 115.136 275.65 115.397 275.864 115.6C276.088 115.803 276.349 115.941 276.648 116.016C276.957 116.101 277.298 116.144 277.672 116.144C278.077 116.144 278.434 116.096 278.744 116C279.053 115.915 279.336 115.797 279.592 115.648ZM286.216 106.464V104.448C285.992 104.373 285.741 104.315 285.464 104.272C285.197 104.229 284.872 104.208 284.488 104.208C283.624 104.208 282.963 104.432 282.504 104.88C282.056 105.317 281.832 106.011 281.832 106.96V107.504H280.824V109.504H281.832V116H284.264V109.504H286.2V107.52H284.232V107.184C284.232 106.565 284.525 106.256 285.112 106.256C285.325 106.256 285.517 106.277 285.688 106.32C285.859 106.352 286.035 106.4 286.216 106.464ZM296.39 111.728V111.696C296.39 111.077 296.272 110.501 296.038 109.968C295.803 109.424 295.478 108.955 295.062 108.56C294.656 108.155 294.171 107.84 293.606 107.616C293.04 107.381 292.427 107.264 291.766 107.264C291.094 107.264 290.475 107.381 289.91 107.616C289.344 107.851 288.854 108.171 288.438 108.576C288.022 108.981 287.696 109.456 287.462 110C287.227 110.533 287.11 111.109 287.11 111.728V111.76C287.11 112.379 287.227 112.96 287.462 113.504C287.696 114.037 288.016 114.507 288.422 114.912C288.838 115.307 289.328 115.621 289.894 115.856C290.459 116.08 291.072 116.192 291.734 116.192C292.406 116.192 293.024 116.075 293.59 115.84C294.155 115.605 294.646 115.285 295.062 114.88C295.478 114.475 295.803 114.005 296.038 113.472C296.272 112.928 296.39 112.347 296.39 111.728ZM293.99 111.76C293.99 112.08 293.936 112.384 293.83 112.672C293.734 112.949 293.59 113.195 293.398 113.408C293.206 113.621 292.971 113.792 292.694 113.92C292.427 114.037 292.118 114.096 291.766 114.096C291.424 114.096 291.115 114.032 290.838 113.904C290.571 113.776 290.336 113.605 290.134 113.392C289.931 113.168 289.776 112.917 289.67 112.64C289.563 112.352 289.51 112.048 289.51 111.728V111.696C289.51 111.376 289.558 111.077 289.654 110.8C289.76 110.512 289.91 110.261 290.102 110.048C290.294 109.835 290.523 109.669 290.79 109.552C291.067 109.424 291.382 109.36 291.734 109.36C292.064 109.36 292.368 109.424 292.646 109.552C292.923 109.68 293.163 109.856 293.366 110.08C293.568 110.293 293.723 110.544 293.83 110.832C293.936 111.109 293.99 111.408 293.99 111.728V111.76ZM300.695 116V104.32H298.263V116H300.695ZM305.587 106.48V104.32H303.027V106.48H305.587ZM305.523 116V107.424H303.091V116H305.523ZM316.671 111.728V111.696C316.671 111.077 316.553 110.501 316.319 109.968C316.084 109.424 315.759 108.955 315.343 108.56C314.937 108.155 314.452 107.84 313.887 107.616C313.321 107.381 312.708 107.264 312.047 107.264C311.375 107.264 310.756 107.381 310.191 107.616C309.625 107.851 309.135 108.171 308.719 108.576C308.303 108.981 307.977 109.456 307.743 110C307.508 110.533 307.391 111.109 307.391 111.728V111.76C307.391 112.379 307.508 112.96 307.743 113.504C307.977 114.037 308.297 114.507 308.703 114.912C309.119 115.307 309.609 115.621 310.175 115.856C310.74 116.08 311.353 116.192 312.015 116.192C312.687 116.192 313.305 116.075 313.871 115.84C314.436 115.605 314.927 115.285 315.343 114.88C315.759 114.475 316.084 114.005 316.319 113.472C316.553 112.928 316.671 112.347 316.671 111.728ZM314.271 111.76C314.271 112.08 314.217 112.384 314.111 112.672C314.015 112.949 313.871 113.195 313.679 113.408C313.487 113.621 313.252 113.792 312.975 113.92C312.708 114.037 312.399 114.096 312.047 114.096C311.705 114.096 311.396 114.032 311.119 113.904C310.852 113.776 310.617 113.605 310.415 113.392C310.212 113.168 310.057 112.917 309.951 112.64C309.844 112.352 309.791 112.048 309.791 111.728V111.696C309.791 111.376 309.839 111.077 309.935 110.8C310.041 110.512 310.191 110.261 310.383 110.048C310.575 109.835 310.804 109.669 311.071 109.552C311.348 109.424 311.663 109.36 312.015 109.36C312.345 109.36 312.649 109.424 312.927 109.552C313.204 109.68 313.444 109.856 313.647 110.08C313.849 110.293 314.004 110.544 314.111 110.832C314.217 111.109 314.271 111.408 314.271 111.728V111.76Z"
        fill="black"
      />
      <path
        d="M266.576 85.939C265.786 82.4647 270.645 76.8638 280.421 69.7938L279.02 77.8495L276.067 81.3229C276.067 81.3229 281.775 80.8438 286.194 81.323L286.193 87.4727C280.34 88.6155 267.366 89.4133 266.576 85.939Z"
        fill="#00C6A2"
      />
      <path
        d="M280.421 69.7938L280.128 69.3886C280.293 69.2694 280.514 69.262 280.686 69.3698C280.859 69.4775 280.949 69.6791 280.914 69.8795L280.421 69.7938ZM266.576 85.939L266.088 86.0498L266.576 85.939ZM286.193 87.4727L286.693 87.4727L286.693 87.8845L286.289 87.9634L286.193 87.4727ZM286.194 81.323L286.248 80.8259L286.694 80.8742L286.694 81.323L286.194 81.323ZM279.02 77.8495L279.512 77.9352L279.489 78.0695L279.401 78.1734L279.02 77.8495ZM280.714 70.1989C275.84 73.7242 272.217 76.8655 269.916 79.5408C268.765 80.8786 267.959 82.0836 267.489 83.1471C267.018 84.2113 266.898 85.0992 267.063 85.8282L266.088 86.0498C265.859 85.0417 266.05 83.9266 266.574 82.7426C267.098 81.5578 267.97 80.2693 269.157 78.8887C271.532 76.1276 275.227 72.9333 280.128 69.3886L280.714 70.1989ZM267.063 85.8282C267.126 86.1053 267.317 86.3777 267.692 86.6393C268.07 86.9033 268.605 87.1336 269.286 87.3235C270.645 87.7029 272.476 87.8918 274.497 87.9374C278.533 88.0285 283.204 87.5469 286.098 86.9819L286.289 87.9634C283.329 88.5413 278.586 89.03 274.475 88.9372C272.422 88.8908 270.495 88.6991 269.017 88.2867C268.278 88.0806 267.625 87.8122 267.119 87.4593C266.61 87.104 266.223 86.6413 266.088 86.0498L267.063 85.8282ZM285.693 87.4726L285.694 81.3229L286.694 81.323L286.693 87.4727L285.693 87.4726ZM286.14 81.82C283.965 81.5842 281.46 81.5834 279.488 81.643C278.505 81.6728 277.659 81.7174 277.058 81.7546C276.758 81.7732 276.52 81.7899 276.357 81.8019C276.276 81.8079 276.213 81.8128 276.171 81.8161C276.15 81.8178 276.134 81.819 276.124 81.8199C276.118 81.8203 276.114 81.8206 276.112 81.8209C276.111 81.821 276.11 81.821 276.109 81.8211C276.109 81.8211 276.109 81.8211 276.108 81.8211C276.108 81.8212 276.108 81.8212 276.108 81.8212C276.108 81.8212 276.108 81.8212 276.067 81.3229C276.025 80.8247 276.025 80.8247 276.025 80.8247C276.025 80.8246 276.025 80.8246 276.025 80.8246C276.025 80.8246 276.026 80.8246 276.026 80.8246C276.027 80.8245 276.028 80.8244 276.029 80.8243C276.032 80.824 276.037 80.8237 276.042 80.8232C276.054 80.8223 276.07 80.8209 276.092 80.8192C276.136 80.8157 276.2 80.8108 276.284 80.8046C276.45 80.7923 276.692 80.7753 276.997 80.7565C277.605 80.7188 278.462 80.6736 279.458 80.6435C281.446 80.5833 284.005 80.5826 286.248 80.8259L286.14 81.82ZM275.686 80.999L278.639 77.5257L279.401 78.1734L276.447 81.6468L275.686 80.999ZM276.067 81.3229C276.15 81.8158 276.15 81.8158 276.15 81.8158C276.15 81.8158 276.15 81.8158 276.15 81.8158C276.15 81.8158 276.15 81.8159 276.15 81.8159C276.15 81.8159 276.149 81.816 276.149 81.8161C276.147 81.8164 276.145 81.8168 276.142 81.8173C276.135 81.8185 276.125 81.8202 276.113 81.8225C276.087 81.8271 276.048 81.834 275.998 81.8434C275.899 81.862 275.754 81.8899 275.578 81.9268C275.224 82.0007 274.744 82.1098 274.235 82.2511C273.725 82.393 273.195 82.5644 272.739 82.7609C272.27 82.9632 271.934 83.1694 271.759 83.3576L271.026 82.6774C271.347 82.3311 271.843 82.0583 272.343 81.8426C272.857 81.6212 273.434 81.4358 273.968 81.2876C274.503 81.1389 275.006 81.0248 275.373 80.9479C275.558 80.9095 275.709 80.8802 275.814 80.8604C275.867 80.8505 275.909 80.843 275.937 80.8379C275.952 80.8354 275.963 80.8335 275.97 80.8321C275.974 80.8315 275.977 80.831 275.979 80.8306C275.98 80.8304 275.981 80.8303 275.982 80.8302C275.982 80.8301 275.982 80.8301 275.982 80.83C275.982 80.83 275.983 80.83 275.983 80.83C275.983 80.83 275.983 80.83 276.067 81.3229ZM280.914 69.8795L279.512 77.9352L278.527 77.7638L279.929 69.7081L280.914 69.8795Z"
        fill="black"
      />
      <path
        d="M285.259 82.9705C286.746 79.7326 289.558 78.5356 291.165 80.7816C290.588 81.8738 290.659 88.6164 290.659 88.6164C291.818 90.236 287.514 90.8669 286.101 89.8408C284.687 88.8147 283.401 87.0178 285.259 82.9705Z"
        fill="white"
        stroke="black"
      />
      <path
        d="M298.904 78.9542C292.162 79.0246 290.714 81.1033 290.137 82.1957C289.41 83.3951 288.136 85.1127 290.207 88.9385C292.278 92.7642 302.221 95.5265 306.088 94.4217C307.697 93.962 309.593 93.2153 311.06 92.4204C313.118 91.3051 314.33 90.095 312.717 89.45C310.812 88.6884 308.12 87.9264 306.632 87.5266C308.511 87.9846 312.243 88.7383 313.268 87.7926C315.063 86.1354 303.322 82.1957 303.326 82.1956C311.059 82.1442 303.997 78.901 298.904 78.9542Z"
        fill="white"
      />
      <path
        d="M302.774 90.5548C303.51 90.9231 306.442 91.9663 307.745 92.212C308.85 92.4204 310.507 92.351 311.06 92.4204M311.06 92.4204C309.593 93.2153 307.697 93.962 306.088 94.4217C302.221 95.5265 292.278 92.7642 290.207 88.9385C288.136 85.1127 289.41 83.3951 290.137 82.1957C290.714 81.1033 292.162 79.0246 298.904 78.9542C303.997 78.901 311.059 82.1442 303.326 82.1956C303.322 82.1957 315.063 86.1354 313.268 87.7926C311.882 89.0723 305.536 87.24 305.536 87.24C305.536 87.24 309.954 88.3455 312.717 89.45C314.33 90.095 313.118 91.3051 311.06 92.4204Z"
        stroke="black"
        stroke-linecap="round"
        stroke-linejoin="round"
      />
      <path
        d="M8.968 4.368C8.968 3.81333 8.86667 3.31733 8.664 2.88C8.472 2.432 8.18933 2.05867 7.816 1.76C7.45333 1.45067 7.01067 1.216 6.488 1.056C5.976 0.885333 5.40533 0.799999 4.776 0.799999H0.584V12H1.848V8.048H4.568C5.16533 8.048 5.73067 7.97333 6.264 7.824C6.79733 7.664 7.26133 7.42933 7.656 7.12C8.06133 6.81067 8.38133 6.42667 8.616 5.968C8.85067 5.50933 8.968 4.976 8.968 4.368ZM7.688 4.416C7.688 4.78933 7.61333 5.13067 7.464 5.44C7.32533 5.73867 7.11733 6 6.84 6.224C6.57333 6.43733 6.248 6.60267 5.864 6.72C5.49067 6.83733 5.07467 6.896 4.616 6.896H1.848V1.968H4.68C5.58667 1.968 6.312 2.176 6.856 2.592C7.41067 2.99733 7.688 3.60533 7.688 4.416ZM19.0974 7.856C19.0974 7.26933 18.9907 6.71467 18.7774 6.192C18.564 5.66933 18.2654 5.216 17.8814 4.832C17.4974 4.43733 17.0387 4.128 16.5054 3.904C15.9827 3.66933 15.412 3.552 14.7934 3.552C14.164 3.552 13.5827 3.66933 13.0494 3.904C12.5267 4.128 12.0734 4.43733 11.6894 4.832C11.3054 5.22667 11.0067 5.69067 10.7934 6.224C10.58 6.74667 10.4734 7.30133 10.4734 7.888C10.4734 8.47467 10.58 9.02933 10.7934 9.552C11.0067 10.0747 11.3054 10.5333 11.6894 10.928C12.0734 11.312 12.5267 11.6213 13.0494 11.856C13.572 12.08 14.1427 12.192 14.7614 12.192C15.38 12.192 15.956 12.08 16.4894 11.856C17.0227 11.6213 17.4814 11.3067 17.8654 10.912C18.2494 10.5173 18.548 10.0587 18.7614 9.536C18.9854 9.00267 19.0974 8.44267 19.0974 7.856ZM17.8334 7.888C17.8334 8.336 17.7587 8.75733 17.6094 9.152C17.46 9.536 17.252 9.872 16.9854 10.16C16.7187 10.448 16.3987 10.6773 16.0254 10.848C15.652 11.008 15.2414 11.088 14.7934 11.088C14.356 11.088 13.9507 11.0027 13.5774 10.832C13.204 10.6613 12.8787 10.432 12.6014 10.144C12.3347 9.856 12.1214 9.51467 11.9614 9.12C11.812 8.72533 11.7374 8.304 11.7374 7.856C11.7374 7.408 11.812 6.992 11.9614 6.608C12.1107 6.21333 12.3134 5.872 12.5694 5.584C12.836 5.28533 13.156 5.056 13.5294 4.896C13.9027 4.72533 14.3134 4.64 14.7614 4.64C15.1987 4.64 15.604 4.72533 15.9774 4.896C16.3507 5.06667 16.676 5.30133 16.9534 5.6C17.2307 5.888 17.444 6.22933 17.5934 6.624C17.7534 7.01867 17.8334 7.44 17.8334 7.888ZM22.5611 8.704C22.5611 8.08533 22.6465 7.54133 22.8171 7.072C22.9878 6.592 23.2225 6.192 23.5211 5.872C23.8198 5.552 24.1665 5.312 24.5611 5.152C24.9665 4.992 25.3931 4.912 25.8411 4.912H25.9371V3.584C25.5425 3.57333 25.1745 3.62133 24.8331 3.728C24.4918 3.83467 24.1771 3.99467 23.8891 4.208C23.6011 4.41067 23.3451 4.656 23.1211 4.944C22.8971 5.232 22.7105 5.54667 22.5611 5.888V3.728H21.3291V12H22.5611V8.704ZM29.4775 4.816H32.1015V3.728H29.4775V1.232H28.2455V3.728H27.0935V4.816H28.2455V9.808C28.2455 10.224 28.3042 10.5813 28.4215 10.88C28.5388 11.1787 28.6988 11.424 28.9015 11.616C29.1148 11.7973 29.3655 11.9307 29.6535 12.016C29.9415 12.1013 30.2508 12.144 30.5815 12.144C30.8802 12.144 31.1468 12.112 31.3815 12.048C31.6268 11.9947 31.8562 11.9093 32.0695 11.792V10.736C31.8562 10.8427 31.6535 10.9173 31.4615 10.96C31.2802 11.0027 31.0828 11.024 30.8695 11.024C30.4535 11.024 30.1175 10.9227 29.8615 10.72C29.6055 10.5173 29.4775 10.16 29.4775 9.648V4.816ZM35.9623 3.76V3.088C35.9623 1.91467 36.4423 1.328 37.4023 1.328C37.6156 1.328 37.8129 1.34933 37.9943 1.392C38.1756 1.424 38.3783 1.472 38.6023 1.536V0.464C38.3996 0.389333 38.1916 0.335999 37.9783 0.304C37.7756 0.272 37.5303 0.256 37.2423 0.256C36.4423 0.256 35.8236 0.490666 35.3863 0.959999C34.9596 1.42933 34.7463 2.11733 34.7463 3.024V3.744H33.6103V4.816H34.7463V12H35.9783V4.816H38.5863V3.76H35.9623ZM48.113 7.856C48.113 7.26933 48.0063 6.71467 47.793 6.192C47.5797 5.66933 47.281 5.216 46.897 4.832C46.513 4.43733 46.0543 4.128 45.521 3.904C44.9983 3.66933 44.4277 3.552 43.809 3.552C43.1797 3.552 42.5983 3.66933 42.065 3.904C41.5423 4.128 41.089 4.43733 40.705 4.832C40.321 5.22667 40.0223 5.69067 39.809 6.224C39.5957 6.74667 39.489 7.30133 39.489 7.888C39.489 8.47467 39.5957 9.02933 39.809 9.552C40.0223 10.0747 40.321 10.5333 40.705 10.928C41.089 11.312 41.5423 11.6213 42.065 11.856C42.5877 12.08 43.1583 12.192 43.777 12.192C44.3957 12.192 44.9717 12.08 45.505 11.856C46.0383 11.6213 46.497 11.3067 46.881 10.912C47.265 10.5173 47.5637 10.0587 47.777 9.536C48.001 9.00267 48.113 8.44267 48.113 7.856ZM46.849 7.888C46.849 8.336 46.7743 8.75733 46.625 9.152C46.4757 9.536 46.2677 9.872 46.001 10.16C45.7343 10.448 45.4143 10.6773 45.041 10.848C44.6677 11.008 44.257 11.088 43.809 11.088C43.3717 11.088 42.9663 11.0027 42.593 10.832C42.2197 10.6613 41.8943 10.432 41.617 10.144C41.3503 9.856 41.137 9.51467 40.977 9.12C40.8277 8.72533 40.753 8.304 40.753 7.856C40.753 7.408 40.8277 6.992 40.977 6.608C41.1263 6.21333 41.329 5.872 41.585 5.584C41.8517 5.28533 42.1717 5.056 42.545 4.896C42.9183 4.72533 43.329 4.64 43.777 4.64C44.2143 4.64 44.6197 4.72533 44.993 4.896C45.3663 5.06667 45.6917 5.30133 45.969 5.6C46.2463 5.888 46.4597 6.22933 46.609 6.624C46.769 7.01867 46.849 7.44 46.849 7.888ZM51.6888 12V0.32H50.4568V12H51.6888ZM55.9879 1.92V0.559999H54.5799V1.92H55.9879ZM55.8919 12V3.728H54.6599V12H55.8919ZM66.863 7.856C66.863 7.26933 66.7563 6.71467 66.543 6.192C66.3297 5.66933 66.031 5.216 65.647 4.832C65.263 4.43733 64.8043 4.128 64.271 3.904C63.7483 3.66933 63.1777 3.552 62.559 3.552C61.9297 3.552 61.3483 3.66933 60.815 3.904C60.2923 4.128 59.839 4.43733 59.455 4.832C59.071 5.22667 58.7723 5.69067 58.559 6.224C58.3457 6.74667 58.239 7.30133 58.239 7.888C58.239 8.47467 58.3457 9.02933 58.559 9.552C58.7723 10.0747 59.071 10.5333 59.455 10.928C59.839 11.312 60.2923 11.6213 60.815 11.856C61.3377 12.08 61.9083 12.192 62.527 12.192C63.1457 12.192 63.7217 12.08 64.255 11.856C64.7883 11.6213 65.247 11.3067 65.631 10.912C66.015 10.5173 66.3137 10.0587 66.527 9.536C66.751 9.00267 66.863 8.44267 66.863 7.856ZM65.599 7.888C65.599 8.336 65.5243 8.75733 65.375 9.152C65.2257 9.536 65.0177 9.872 64.751 10.16C64.4843 10.448 64.1643 10.6773 63.791 10.848C63.4177 11.008 63.007 11.088 62.559 11.088C62.1217 11.088 61.7163 11.0027 61.343 10.832C60.9697 10.6613 60.6443 10.432 60.367 10.144C60.1003 9.856 59.887 9.51467 59.727 9.12C59.5777 8.72533 59.503 8.304 59.503 7.856C59.503 7.408 59.5777 6.992 59.727 6.608C59.8763 6.21333 60.079 5.872 60.335 5.584C60.6017 5.28533 60.9217 5.056 61.295 4.896C61.6683 4.72533 62.079 4.64 62.527 4.64C62.9643 4.64 63.3697 4.72533 63.743 4.896C64.1163 5.06667 64.4417 5.30133 64.719 5.6C64.9963 5.888 65.2097 6.22933 65.359 6.624C65.519 7.01867 65.599 7.44 65.599 7.888Z"
        fill="white"
      />
      <defs>
        <linearGradient
          id="paint0_linear_0_1_3"
          x1="287.905"
          y1="45.2564"
          x2="286.298"
          y2="91.8261"
          gradientUnits="userSpaceOnUse"
        >
          <stop stop-color="white" />
          <stop offset="1" stop-color="#B7B7B7" />
        </linearGradient>
      </defs>
    </svg>