<svg
      
      width="20"
      height="20"
      viewBox="0 0 20 20"
      fill="none"
      xmlns="http://www.w3.org/2000/svg"
    >
      <rect
        x="1"
        y="1"
        width="18"
        height="18"
        rx="6"
        fill="#1D2932"
        stroke="#91A2AE"
        stroke-opacity="0.2"
        stroke-width="1.2"
      />
      <path
        d="M11.444 9.99997L14.7799 6.66415C15.0307 6.41332 15.0735 6.0494 14.8756 5.85157L14.1482 5.12424C13.9503 4.92632 13.5869 4.96974 13.3356 5.22041L10.0001 8.55614L6.66433 5.22049C6.41349 4.96941 6.04957 4.92632 5.85165 5.12449L5.12431 5.8519C4.92648 6.04949 4.96931 6.4134 5.22048 6.66423L8.55634 9.99997L5.22048 13.336C4.96973 13.5866 4.92631 13.9503 5.12431 14.1482L5.85165 14.8756C6.04957 15.0735 6.41349 15.0306 6.66433 14.7799L10.0003 11.4439L13.3357 14.7794C13.587 15.0307 13.9504 15.0735 14.1483 14.8756L14.8757 14.1482C15.0735 13.9503 15.0307 13.5866 14.78 13.3356L11.444 9.99997Z"
        fill="#7E8A93"
      />
    </svg>