<svg
      width="124"
      height="44"
      viewBox="0 0 124 44"
      fill="none"
      xmlns="http://www.w3.org/2000/svg"
    >
      <g opacity="0.1">
        <path
          d="M37.3159 24.3V0.599999H28.0759V24.66C28.0759 31.32 24.6559 34.74 19.0159 34.74C13.3759 34.74 9.95594 31.2 9.95594 24.36V0.599999H0.715942V24.6C0.715942 36.96 7.61594 43.26 18.8959 43.26C30.1759 43.26 37.3159 37.02 37.3159 24.3Z"
          fill="url(#paint0_linear_1536_104)"
        />
        <path
          d="M77.0875 30.18V30.06C77.0875 22.74 72.2875 19.68 63.7675 17.46C56.5075 15.6 54.7075 14.7 54.7075 11.94V11.82C54.7075 9.78 56.5675 8.16 60.1075 8.16C63.6475 8.16 67.3075 9.72 71.0275 12.3L75.8275 5.34C71.5675 1.92 66.3475 0 60.2275 0C51.6475 0 45.5275 5.04 45.5275 12.66V12.78C45.5275 21.12 50.9875 23.46 59.4475 25.62C66.4675 27.42 67.9075 28.62 67.9075 30.96V31.08C67.9075 33.54 65.6275 35.04 61.8475 35.04C57.0475 35.04 53.0875 33.06 49.3075 29.94L43.8475 36.48C48.8875 40.98 55.3075 43.2 61.6675 43.2C70.7275 43.2 77.0875 38.52 77.0875 30.18Z"
          fill="url(#paint1_linear_1536_104)"
        />
        <path
          d="M123.806 21.6V21.48C123.806 9.66 114.686 0.599999 101.486 0.599999H85.1064V42.6H101.486C114.686 42.6 123.806 33.42 123.806 21.6ZM114.146 21.72C114.146 29.16 109.046 34.26 101.486 34.26H94.3464V8.94H101.486C109.046 8.94 114.146 14.16 114.146 21.6V21.72Z"
          fill="url(#paint2_linear_1536_104)"
        />
      </g>
      <defs>
        <linearGradient
          id="paint0_linear_1536_104"
          x1="61.5"
          y1="-2.3999"
          x2="61.5"
          y2="52.6001"
          gradientUnits="userSpaceOnUse"
        >
          <stop stop-color="#7E8A93" />
          <stop offset="1" stop-color="#7E8A93" stop-opacity="0.29" />
        </linearGradient>
        <linearGradient
          id="paint1_linear_1536_104"
          x1="61.5"
          y1="-2.3999"
          x2="61.5"
          y2="52.6001"
          gradientUnits="userSpaceOnUse"
        >
          <stop stop-color="#7E8A93" />
          <stop offset="1" stop-color="#7E8A93" stop-opacity="0.29" />
        </linearGradient>
        <linearGradient
          id="paint2_linear_1536_104"
          x1="61.5"
          y1="-2.3999"
          x2="61.5"
          y2="52.6001"
          gradientUnits="userSpaceOnUse"
        >
          <stop stop-color="#7E8A93" />
          <stop offset="1" stop-color="#7E8A93" stop-opacity="0.29" />
        </linearGradient>
      </defs>
    </svg>