<svg
      
      width="14"
      height="14"
      viewBox="0 0 14 14"
      fill="none"
      xmlns="http://www.w3.org/2000/svg"
    >
      <g clip-path="url(#clip0_1859_401)">
        <path
          d="M0 7C0.00218939 5.14416 0.74039 3.36495 2.05267 2.05267C3.36495 0.74039 5.14416 0.00218939 7 0C8.85584 0.00218939 10.635 0.74039 11.9473 2.05267C13.2596 3.36495 13.9978 5.14416 14 7C13.998 8.8559 13.2598 10.6352 11.9475 11.9475C10.6352 13.2598 8.8559 13.998 7 14C5.14416 13.9978 3.36495 13.2596 2.05267 11.9473C0.74039 10.635 0.00218939 8.85584 0 7H0ZM1.27273 7C1.27458 8.5184 1.87858 9.97408 2.95225 11.0477C4.02592 12.1214 5.4816 12.7254 7 12.7273C8.5184 12.7254 9.97408 12.1214 11.0477 11.0477C12.1214 9.97408 12.7254 8.5184 12.7273 7C12.7253 5.48165 12.1212 4.02607 11.0476 2.95244C9.97393 1.8788 8.51835 1.27475 7 1.27273C5.48165 1.27475 4.02607 1.8788 2.95244 2.95244C1.8788 4.02607 1.27475 5.48165 1.27273 7ZM6.04545 10.1634C6.04545 9.9102 6.14602 9.66741 6.32503 9.4884C6.50405 9.30939 6.74684 9.20882 7 9.20882C7.25316 9.20882 7.49595 9.30939 7.67497 9.4884C7.85398 9.66741 7.95455 9.9102 7.95455 10.1634C7.95455 10.4165 7.85398 10.6593 7.67497 10.8383C7.49595 11.0173 7.25316 11.1179 7 11.1179C6.74695 11.1179 6.50425 11.0174 6.32526 10.8386C6.14627 10.6597 6.04562 10.4171 6.04545 10.164V10.1634ZM6.36364 7.95709V3.04373H7.63636V7.95709H6.36364Z"
          fill="#00C6A2"
        />
      </g>
      <defs>
        <clipPath id="clip0_1859_401">
          <rect width="14" height="14" fill="white" />
        </clipPath>
      </defs>
    </svg>