<svg
      
      width="8"
      height="9"
      viewBox="0 0 8 9"
      fill="none"
      xmlns="http://www.w3.org/2000/svg"
    >
      <path
        d="M7.41176 5.29412C7.41176 7.34082 5.75258 9 3.70588 9C1.65918 9 0 7.34082 0 5.29412C0 3.78776 2.00742 1.631 3.06737 0.597185C3.4264 0.247001 3.98536 0.247001 4.3444 0.597185C5.40435 1.631 7.41176 3.78776 7.41176 5.29412Z"
        fill="#273848"
      />
      <path
        d="M7.41176 5.29419C7.41176 7.34089 5.75258 9.00007 3.70588 9.00007C1.65918 9.00007 0 7.34089 0 5.29419C0 3.24748 0.463235 7.1471 3.24265 5.7574C6.02206 4.3677 7.41176 3.24748 7.41176 5.29419Z"
        fill="#62C340"
      />
    </svg>