<svg
      
      width="25"
      height="18"
      viewBox="0 0 25 18"
      fill="none"
      xmlns="http://www.w3.org/2000/svg"
    >
      <path
        fill-rule="evenodd"
        clip-rule="evenodd"
        d="M5.30524 6.35734V11.7017L8.14734 9.65985L8.43155 9.89951L6.04826 13.1273C5.16274 13.9085 3.59998 13.3799 3.59998 12.2993V5.70068C3.59998 4.58299 5.25423 4.07389 6.10801 4.92882L12.6947 11.5244V6.3993L10.1368 8.2219L9.85261 7.98224L11.8797 4.96921C12.7258 4.09845 14.4 4.60294 14.4 5.72866V12.1811C14.4 13.2988 12.7457 13.8079 11.8919 12.9529L5.30524 6.35734Z"
        fill="currentColor"
      />
      <circle cx="9" cy="9" r="8.5" stroke="currentColor" />
      <circle cx="16" cy="9" r="8.5" fill="#172128" stroke="currentColor" />
      <path
        d="M11.5138 9.34984L11.5138 13.0567C11.5138 13.4269 11.9412 13.6334 12.2312 13.4034L14.8746 11.3069C15.1158 11.1156 15.0928 10.7425 14.8298 10.5823L12.1864 8.97198C11.8916 8.79236 11.5138 9.00459 11.5138 9.34984Z"
        fill="currentColor"
      />
      <path
        d="M21.3693 8.6399V4.93303C21.3693 4.56289 20.9419 4.35637 20.6519 4.58637L18.0085 6.68288C17.7673 6.87419 17.7903 7.24724 18.0532 7.40741L20.6966 9.01777C20.9915 9.19739 21.3693 8.98516 21.3693 8.6399Z"
        fill="currentColor"
      />
      <path
        d="M11.5 4.83479V7.23292C11.5 7.38427 11.5774 7.52512 11.7051 7.60632L20.7202 13.3373C21.0147 13.5246 21.4 13.313 21.4 12.9639V10.7273C21.4 10.578 21.3246 10.4387 21.1996 10.357L12.1845 4.46443C11.8903 4.27208 11.5 4.48322 11.5 4.83479Z"
        fill="currentColor"
      />
    </svg>