<svg
      width="82"
      height="20"
      viewBox="0 0 82 20"
      fill="none"
      xmlns="http://www.w3.org/2000/svg"
    >
      <rect
        width="82"
        height="20"
        rx="6"
        fill="url(#paint0_linear_17901_1473)"
      />
      <path
        d="M18.012 6.3H16.241L14.646 11.514L12.919 6.278H11.467L9.74 11.514L8.145 6.3H6.33L8.959 14.055H10.433L12.171 9.017L13.909 14.055H15.383L18.012 6.3ZM25.9218 14L24.0408 11.25C25.0198 10.887 25.6908 10.106 25.6908 8.863V8.841C25.6908 7.257 24.6018 6.3 22.7868 6.3H19.2668V14H20.9608V11.536H22.2918L23.9418 14H25.9218ZM23.9748 8.951C23.9748 9.6 23.5018 10.04 22.6768 10.04H20.9608V7.829H22.6438C23.4688 7.829 23.9748 8.203 23.9748 8.929V8.951ZM34.718 14L31.418 6.245H29.856L26.556 14H28.283L28.987 12.273H32.243L32.947 14H34.718ZM31.638 10.777H29.592L30.615 8.28L31.638 10.777ZM42.0004 8.984V8.962C42.0004 7.389 40.8894 6.3 39.0524 6.3H35.9064V14H37.6004V11.69H38.8874C40.6144 11.69 42.0004 10.766 42.0004 8.984ZM40.2844 9.017C40.2844 9.677 39.7894 10.183 38.9424 10.183H37.6004V7.829H38.9094C39.7564 7.829 40.2844 8.236 40.2844 8.995V9.017Z"
        fill="white"
      />
      <path
        d="M66.0091 10.5057L66.0091 13.1268C66.0091 13.3885 66.3113 13.5345 66.5164 13.3719L68.3855 11.8895C68.556 11.7542 68.5397 11.4905 68.3538 11.3772L66.4847 10.2386C66.2763 10.1116 66.0091 10.2616 66.0091 10.5057Z"
        fill="white"
      />
      <path
        d="M72.9782 10.0036V7.38259C72.9782 7.12087 72.676 6.97484 72.4709 7.13747L70.6019 8.61985C70.4313 8.75512 70.4476 9.01889 70.6335 9.13215L72.5026 10.2708C72.7111 10.3978 72.9782 10.2477 72.9782 10.0036Z"
        fill="white"
      />
      <path
        d="M66 7.31337V9.00902C66 9.11603 66.0547 9.21562 66.145 9.27303L72.5193 13.3253C72.7276 13.4577 73 13.308 73 13.0612V11.4798C73 11.3742 72.9467 11.2757 72.8583 11.2179L66.484 7.0515C66.2759 6.91549 66 7.06478 66 7.31337Z"
        fill="white"
      />
      <path
        opacity="0.3"
        fill-rule="evenodd"
        clip-rule="evenodd"
        d="M53.9048 3.93333C50.5998 3.93333 47.9206 6.64947 47.9206 10C47.9206 13.3505 50.5998 16.0667 53.9048 16.0667C55.8117 16.0667 57.5102 15.1629 58.6068 13.753C59.0187 13.2234 59.9231 11.7743 60.7419 10.426C61.1471 9.75851 61.5256 9.12551 61.8028 8.65927C61.9413 8.42619 62.0546 8.23488 62.1331 8.1019L62.2467 7.90917L62.265 7.87257C62.2821 7.83893 62.3069 7.79052 62.3392 7.72934C62.4039 7.60703 62.4988 7.43339 62.6212 7.22445C62.8655 6.80738 63.222 6.24554 63.6703 5.66917C64.9339 4.04442 66.8944 3 69.0952 3C72.9086 3 76 6.13401 76 10C76 13.866 72.9086 17 69.0952 17C65.9667 17 63.3252 14.8909 62.4765 11.9998C62.404 11.7528 62.5427 11.4929 62.7864 11.4194C63.03 11.3459 63.2863 11.4865 63.3589 11.7336C64.0946 14.2398 66.3851 16.0667 69.0952 16.0667C72.4002 16.0667 75.0794 13.3505 75.0794 10C75.0794 6.64947 72.4002 3.93333 69.0952 3.93333C67.1883 3.93333 65.4898 4.8371 64.3932 6.24705C63.9766 6.78271 63.6427 7.30849 63.4127 7.70102C63.298 7.89688 63.2098 8.05854 63.1506 8.17033C63.1211 8.2262 63.0989 8.26954 63.0843 8.29839L63.0682 8.33052L63.0645 8.33795L63.0638 8.33938L63.0557 8.3561L63.0463 8.37212L62.923 8.58132C62.844 8.71499 62.7304 8.90709 62.5913 9.14106C62.3131 9.60892 61.9331 10.2446 61.5258 10.9152C60.7195 12.2431 59.7827 13.7484 59.3297 14.3308C58.0661 15.9556 56.1056 17 53.9048 17C50.0914 17 47 13.866 47 10C47 6.13401 50.0914 3 53.9048 3C57.0333 3 59.6748 5.10906 60.5235 8.00022C60.596 8.24724 60.4573 8.50709 60.2136 8.58061C59.97 8.65413 59.7137 8.51348 59.6411 8.26645C58.9054 5.76016 56.6149 3.93333 53.9048 3.93333Z"
        fill="white"
      />
      <path
        fill-rule="evenodd"
        clip-rule="evenodd"
        d="M51.2632 8.23823V11.8012L53.3684 10.4399L53.5789 10.5997L51.8135 12.7515C51.1576 13.2723 50 12.92 50 12.1995V7.80046C50 7.05533 51.2254 6.71593 51.8578 7.28588L56.7368 11.6829V8.2662L54.8421 9.48127L54.6316 9.3215L56.1331 7.31281C56.7599 6.7323 58 7.06863 58 7.81911V12.1207C58 12.8658 56.7746 13.2052 56.1422 12.6353L51.2632 8.23823Z"
        fill="white"
      />
      <defs>
        <linearGradient
          id="paint0_linear_17901_1473"
          x1="41"
          y1="0"
          x2="41"
          y2="20"
          gradientUnits="userSpaceOnUse"
        >
          <stop stop-color="#00C6A2" />
          <stop offset="1" stop-color="#008B72" />
        </linearGradient>
      </defs>
    </svg>