
<svg width="116" height="30" viewBox="0 0 116 30" fill="none" xmlns="http://www.w3.org/2000/svg">
<rect width="116" height="30" rx="6" fill="url(#paint0_linear_17896_1437)"/>
<path d="M23.288 10.2H21.034L19.004 16.836L16.806 10.172H14.958L12.76 16.836L10.73 10.2H8.42L11.766 20.07H13.642L15.854 13.658L18.066 20.07H19.942L23.288 10.2ZM33.355 20L30.961 16.5C32.207 16.038 33.061 15.044 33.061 13.462V13.434C33.061 11.418 31.675 10.2 29.365 10.2H24.885V20H27.041V16.864H28.735L30.835 20H33.355ZM30.877 13.574C30.877 14.4 30.275 14.96 29.225 14.96H27.041V12.146H29.183C30.233 12.146 30.877 12.622 30.877 13.546V13.574ZM44.5502 20L40.3502 10.13H38.3622L34.1622 20H36.3602L37.2562 17.802H41.4002L42.2962 20H44.5502ZM40.6302 15.898H38.0262L39.3282 12.72L40.6302 15.898ZM53.8187 13.616V13.588C53.8187 11.586 52.4047 10.2 50.0667 10.2H46.0627V20H48.2187V17.06H49.8567C52.0547 17.06 53.8187 15.884 53.8187 13.616ZM51.6347 13.658C51.6347 14.498 51.0047 15.142 49.9267 15.142H48.2187V12.146H49.8847C50.9627 12.146 51.6347 12.664 51.6347 13.63V13.658Z" fill="white"/>
<path d="M92.0171 15.822L92.0171 20.1747C92.0171 20.6093 92.5189 20.8518 92.8595 20.5817L95.9634 18.12C96.2467 17.8953 96.2196 17.4573 95.9109 17.2692L92.8069 15.3783C92.4607 15.1673 92.0171 15.4166 92.0171 15.822Z" fill="white"/>
<path d="M103.586 14.9881V10.6354C103.586 10.2008 103.085 9.95825 102.744 10.2283L99.6401 12.6901C99.3568 12.9147 99.3839 13.3528 99.6926 13.5409L102.797 15.4318C103.143 15.6427 103.586 15.3935 103.586 14.9881Z" fill="white"/>
<path d="M92 10.5204V13.3364C92 13.5141 92.0908 13.6795 92.2408 13.7748L102.827 20.5043C103.172 20.7242 103.625 20.4757 103.625 20.0659V17.4396C103.625 17.2642 103.536 17.1007 103.39 17.0047L92.8038 10.0855C92.4582 9.85965 92 10.1076 92 10.5204Z" fill="white"/>
<path opacity="0.3" fill-rule="evenodd" clip-rule="evenodd" d="M71.75 4.6C66.0062 4.6 61.35 9.25624 61.35 15C61.35 20.7438 66.0062 25.4 71.75 25.4C75.0642 25.4 78.016 23.8507 79.9218 21.4336C80.6376 20.5258 82.2095 18.0417 83.6324 15.7302C84.3367 14.586 84.9945 13.5009 85.4762 12.7016C85.717 12.302 85.9138 11.9741 86.0503 11.7461L86.2477 11.4157L86.2796 11.353C86.3092 11.2953 86.3523 11.2123 86.4086 11.1074C86.521 10.8978 86.6858 10.6001 86.8985 10.2419C87.3231 9.52693 87.9427 8.56378 88.7218 7.57572C90.9179 4.79043 94.3251 3 98.15 3C104.777 3 110.15 8.37258 110.15 15C110.15 21.6274 104.777 27 98.15 27C92.7128 27 88.1221 23.3845 86.647 18.4282C86.521 18.0047 86.7621 17.5593 87.1856 17.4332C87.6091 17.3072 88.0545 17.5483 88.1806 17.9718C89.4593 22.2683 93.44 25.4 98.15 25.4C103.894 25.4 108.55 20.7438 108.55 15C108.55 9.25624 103.894 4.6 98.15 4.6C94.8358 4.6 91.884 6.14931 89.9782 8.56637C89.2542 9.48465 88.6738 10.386 88.2742 11.0589C88.0748 11.3946 87.9214 11.6718 87.8187 11.8634C87.7674 11.9592 87.7287 12.0335 87.7034 12.0829L87.6754 12.138L87.669 12.1508L87.6678 12.1532L87.6537 12.1819L87.6373 12.2093L87.423 12.568C87.2859 12.7971 87.0883 13.1264 86.8465 13.5275C86.3631 14.3296 85.7027 15.4192 84.9949 16.569C83.5936 18.8454 81.9655 21.4258 81.1782 22.4243C78.9821 25.2096 75.5749 27 71.75 27C65.1226 27 59.75 21.6274 59.75 15C59.75 8.37258 65.1226 3 71.75 3C77.1872 3 81.7779 6.61553 83.253 11.5718C83.379 11.9953 83.1379 12.4407 82.7144 12.5668C82.2909 12.6928 81.8455 12.4517 81.7194 12.0282C80.4407 7.73171 76.46 4.6 71.75 4.6Z" fill="white"/>
<path fill-rule="evenodd" clip-rule="evenodd" d="M67.1316 12.1669V18.402L70.6842 16.0198L71.0395 16.2994L68.0604 20.0652C66.9535 20.9765 65 20.3599 65 19.0992V11.4008C65 10.0968 67.0678 9.50287 68.135 10.5003L76.3684 18.1952V12.2159L73.1711 14.3422L72.8158 14.0626L75.3497 10.5474C76.4073 9.53152 78.5 10.1201 78.5 11.4334V18.9613C78.5 20.2652 76.4322 20.8592 75.365 19.8618L67.1316 12.1669Z" fill="white"/>
<defs>
<linearGradient id="paint0_linear_17896_1437" x1="58" y1="0" x2="58" y2="30" gradientUnits="userSpaceOnUse">
<stop stop-color="#00C6A2"/>
<stop offset="1" stop-color="#008B72"/>
</linearGradient>
</defs>
</svg>
