<svg
      
      width="247"
      height="59"
      viewBox="0 0 247 59"
      fill="none"
      xmlns="http://www.w3.org/2000/svg"
    >
      <rect
        x="7.47654"
        y="11.5813"
        width="231"
        height="47.1524"
        rx="10.5"
        transform="rotate(-2.75535 7.47654 11.5813)"
        fill="#B84040"
        stroke="black"
      />
      <rect
        x="12.5"
        y="9.65576"
        width="231"
        height="47"
        rx="10.5"
        fill="#FF6D6D"
        stroke="black"
      />
      <path
        d="M233.559 6.76248C233.877 5.88171 235.123 5.88171 235.441 6.76248L236.061 8.48154C237.172 11.56 239.596 13.9839 242.674 15.0948L244.393 15.7151C245.274 16.033 245.274 17.2786 244.393 17.5964L242.674 18.2167C239.596 19.3276 237.172 21.7515 236.061 24.83L235.441 26.549C235.123 27.4298 233.877 27.4298 233.559 26.549L232.939 24.83C231.828 21.7515 229.404 19.3276 226.326 18.2167L224.607 17.5964C223.726 17.2786 223.726 16.033 224.607 15.7151L226.326 15.0948C229.404 13.9839 231.828 11.56 232.939 8.48154L233.559 6.76248Z"
        fill="#FCFF51"
        stroke="black"
        stroke-linejoin="round"
      />
      <path
        d="M39.485 38.4608L38.015 36.9758C37.19 37.7258 36.455 38.2058 35.255 38.2058C33.455 38.2058 32.21 36.7058 32.21 34.9058V34.8758C32.21 33.0758 33.485 31.6058 35.255 31.6058C36.305 31.6058 37.13 32.0558 37.94 32.7908L39.41 31.0958C38.435 30.1358 37.25 29.4758 35.27 29.4758C32.045 29.4758 29.795 31.9208 29.795 34.9058V34.9358C29.795 37.9508 32.09 40.3358 35.18 40.3358C37.205 40.3358 38.405 39.6158 39.485 38.4608ZM49.2577 36.1508V36.1208C49.2577 33.8108 47.4127 31.9658 44.9227 31.9658C42.4177 31.9658 40.5577 33.8408 40.5577 36.1508V36.1808C40.5577 38.4908 42.4027 40.3358 44.8927 40.3358C47.3977 40.3358 49.2577 38.4608 49.2577 36.1508ZM47.0077 36.1808C47.0077 37.3658 46.2277 38.3708 44.9227 38.3708C43.6627 38.3708 42.8077 37.3358 42.8077 36.1508V36.1208C42.8077 34.9358 43.5877 33.9308 44.8927 33.9308C46.1527 33.9308 47.0077 34.9658 47.0077 36.1508V36.1808ZM58.2737 40.1558V34.9508C58.2737 33.1058 57.2687 31.9658 55.5437 31.9658C54.3887 31.9658 53.7137 32.5808 53.1887 33.2558V32.1158H50.9087V40.1558H53.1887V35.6708C53.1887 34.5908 53.7437 34.0358 54.6137 34.0358C55.4837 34.0358 55.9937 34.5908 55.9937 35.6708V40.1558H58.2737ZM68.3394 38.3408V32.1158H66.0594V33.1658C65.4444 32.4908 64.7094 31.9658 63.4644 31.9658C61.6194 31.9658 59.8944 33.3158 59.8944 35.7158V35.7458C59.8944 38.1308 61.5894 39.4958 63.4644 39.4958C64.6794 39.4958 65.4144 39.0008 66.0894 38.1908V38.5808C66.0894 40.0208 65.3544 40.7708 63.7944 40.7708C62.7294 40.7708 61.9044 40.5008 61.0794 40.0358L60.2994 41.7458C61.3194 42.2858 62.5494 42.5858 63.8544 42.5858C66.8394 42.5858 68.3394 41.3708 68.3394 38.3408ZM66.0894 35.7458C66.0894 36.8408 65.2344 37.6058 64.1244 37.6058C63.0144 37.6058 62.1744 36.8558 62.1744 35.7458V35.7158C62.1744 34.6208 63.0144 33.8558 64.1244 33.8558C65.2344 33.8558 66.0894 34.6208 66.0894 35.7158V35.7458ZM75.2214 34.3508V31.9658C73.8714 31.9058 73.1214 32.6258 72.6564 33.7358V32.1158H70.3764V40.1558H72.6564V37.1858C72.6564 35.2658 73.5864 34.3508 75.1014 34.3508H75.2214ZM83.1801 40.1558V35.4908C83.1801 33.3158 82.0851 32.0258 79.5951 32.0258C78.2301 32.0258 77.3601 32.2808 76.4751 32.6708L77.0451 34.4108C77.7801 34.1408 78.3951 33.9758 79.2651 33.9758C80.4051 33.9758 80.9901 34.5008 80.9901 35.4458V35.5808C80.4201 35.3858 79.8351 35.2508 79.0251 35.2508C77.1201 35.2508 75.7851 36.0608 75.7851 37.8158V37.8458C75.7851 39.4358 77.0301 40.3058 78.5451 40.3058C79.6551 40.3058 80.4201 39.9008 80.9751 39.2858V40.1558H83.1801ZM81.0201 37.3208C81.0201 38.1458 80.3001 38.7308 79.2351 38.7308C78.5001 38.7308 77.9901 38.3708 77.9901 37.7558V37.7258C77.9901 37.0058 78.5901 36.6158 79.5651 36.6158C80.1201 36.6158 80.6301 36.7358 81.0201 36.9158V37.3208ZM91.0371 37.7108V37.6808C91.0371 36.2108 89.7321 35.6708 88.6071 35.2958C87.7371 34.9958 86.9721 34.7858 86.9721 34.3358V34.3058C86.9721 33.9908 87.2571 33.7508 87.8121 33.7508C88.3971 33.7508 89.1921 34.0358 89.9871 34.5008L90.8571 32.9258C89.9871 32.3408 88.8771 31.9958 87.8571 31.9958C86.2371 31.9958 84.9171 32.9108 84.9171 34.5458V34.5758C84.9171 36.1358 86.1921 36.6608 87.3171 36.9908C88.2021 37.2608 88.9821 37.4258 88.9821 37.9208V37.9508C88.9821 38.3108 88.6821 38.5508 88.0221 38.5508C87.2721 38.5508 86.3571 38.2208 85.4871 37.5908L84.5121 39.0908C85.5771 39.9308 86.8371 40.3058 87.9621 40.3058C89.7021 40.3058 91.0371 39.4958 91.0371 37.7108ZM92.7464 29.6558V29.9558L93.4514 36.5858H94.7114L95.4164 29.9558V29.6558H92.7464ZM95.2964 40.1558V37.7558H92.8664V40.1558H95.2964ZM111.572 29.6558H108.947L106.397 33.8708L103.892 29.6558H101.192L105.227 36.0158V40.1558H107.537V35.9708L111.572 29.6558ZM119.424 36.1508V36.1208C119.424 33.8108 117.579 31.9658 115.089 31.9658C112.584 31.9658 110.724 33.8408 110.724 36.1508V36.1808C110.724 38.4908 112.569 40.3358 115.059 40.3358C117.564 40.3358 119.424 38.4608 119.424 36.1508ZM117.174 36.1808C117.174 37.3658 116.394 38.3708 115.089 38.3708C113.829 38.3708 112.974 37.3358 112.974 36.1508V36.1208C112.974 34.9358 113.754 33.9308 115.059 33.9308C116.319 33.9308 117.174 34.9658 117.174 36.1508V36.1808ZM128.38 40.1558V32.1158H126.1V36.6008C126.1 37.6808 125.545 38.2358 124.675 38.2358C123.805 38.2358 123.295 37.6808 123.295 36.6008V32.1158H121.015V37.3208C121.015 39.1658 122.02 40.3058 123.745 40.3058C124.9 40.3058 125.575 39.6908 126.1 39.0158V40.1558H128.38ZM135.265 34.3508V31.9658C133.915 31.9058 133.165 32.6258 132.7 33.7358V32.1158H130.42V40.1558H132.7V37.1858C132.7 35.2658 133.63 34.3508 135.145 34.3508H135.265ZM149.272 38.3408V32.1158H146.992V33.1658C146.377 32.4908 145.642 31.9658 144.397 31.9658C142.552 31.9658 140.827 33.3158 140.827 35.7158V35.7458C140.827 38.1308 142.522 39.4958 144.397 39.4958C145.612 39.4958 146.347 39.0008 147.022 38.1908V38.5808C147.022 40.0208 146.287 40.7708 144.727 40.7708C143.662 40.7708 142.837 40.5008 142.012 40.0358L141.232 41.7458C142.252 42.2858 143.482 42.5858 144.787 42.5858C147.772 42.5858 149.272 41.3708 149.272 38.3408ZM147.022 35.7458C147.022 36.8408 146.167 37.6058 145.057 37.6058C143.947 37.6058 143.107 36.8558 143.107 35.7458V35.7158C143.107 34.6208 143.947 33.8558 145.057 33.8558C146.167 33.8558 147.022 34.6208 147.022 35.7158V35.7458ZM153.754 31.2308V29.2058H151.354V31.2308H153.754ZM153.694 40.1558V32.1158H151.414V40.1558H153.694ZM160.335 31.2158V29.3258C159.915 29.1908 159.435 29.1008 158.715 29.1008C157.11 29.1008 156.225 29.9108 156.225 31.6808V32.1908H155.28V34.0658H156.225V40.1558H158.505V34.0658H160.32V32.2058H158.475V31.8908C158.475 31.2908 158.775 31.0208 159.3 31.0208C159.69 31.0208 160.005 31.0958 160.335 31.2158ZM166.078 39.8258V37.9958C165.748 38.1758 165.373 38.2808 164.953 38.2808C164.443 38.2808 164.218 38.0258 164.218 37.5008V34.0658H166.108V32.1158H164.218V30.0608H161.938V32.1158H160.978V34.0658H161.938V37.8758C161.938 39.7358 162.883 40.2908 164.278 40.2908C165.043 40.2908 165.598 40.1108 166.078 39.8258ZM174.731 31.2308V29.2058H172.331V31.2308H174.731ZM174.671 40.1558V32.1158H172.391V40.1558H174.671ZM182.707 37.7108V37.6808C182.707 36.2108 181.402 35.6708 180.277 35.2958C179.407 34.9958 178.642 34.7858 178.642 34.3358V34.3058C178.642 33.9908 178.927 33.7508 179.482 33.7508C180.067 33.7508 180.862 34.0358 181.657 34.5008L182.527 32.9258C181.657 32.3408 180.547 31.9958 179.527 31.9958C177.907 31.9958 176.587 32.9108 176.587 34.5458V34.5758C176.587 36.1358 177.862 36.6608 178.987 36.9908C179.872 37.2608 180.652 37.4258 180.652 37.9208V37.9508C180.652 38.3108 180.352 38.5508 179.692 38.5508C178.942 38.5508 178.027 38.2208 177.157 37.5908L176.182 39.0908C177.247 39.9308 178.507 40.3058 179.632 40.3058C181.372 40.3058 182.707 39.4958 182.707 37.7108ZM193.683 34.3508V31.9658C192.333 31.9058 191.583 32.6258 191.118 33.7358V32.1158H188.838V40.1558H191.118V37.1858C191.118 35.2658 192.048 34.3508 193.563 34.3508H193.683ZM202.388 36.3608V36.3308C202.388 34.0508 201.158 31.9658 198.473 31.9658C196.133 31.9658 194.498 33.8558 194.498 36.1508V36.1808C194.498 38.6408 196.283 40.3358 198.698 40.3358C200.153 40.3358 201.233 39.7658 201.983 38.8358L200.678 37.6808C200.048 38.2658 199.493 38.5058 198.728 38.5058C197.708 38.5058 196.988 37.9658 196.763 36.9308H202.358C202.373 36.7208 202.388 36.5858 202.388 36.3608ZM200.168 35.5058H196.733C196.913 34.4708 197.528 33.7958 198.473 33.7958C199.433 33.7958 200.033 34.4858 200.168 35.5058ZM211.002 40.1558V35.4908C211.002 33.3158 209.907 32.0258 207.417 32.0258C206.052 32.0258 205.182 32.2808 204.297 32.6708L204.867 34.4108C205.602 34.1408 206.217 33.9758 207.087 33.9758C208.227 33.9758 208.812 34.5008 208.812 35.4458V35.5808C208.242 35.3858 207.657 35.2508 206.847 35.2508C204.942 35.2508 203.607 36.0608 203.607 37.8158V37.8458C203.607 39.4358 204.852 40.3058 206.367 40.3058C207.477 40.3058 208.242 39.9008 208.797 39.2858V40.1558H211.002ZM208.842 37.3208C208.842 38.1458 208.122 38.7308 207.057 38.7308C206.322 38.7308 205.812 38.3708 205.812 37.7558V37.7258C205.812 37.0058 206.412 36.6158 207.387 36.6158C207.942 36.6158 208.452 36.7358 208.842 36.9158V37.3208ZM221.049 40.1558V29.2058H218.769V33.1658C218.229 32.5208 217.479 31.9658 216.264 31.9658C214.359 31.9658 212.604 33.4358 212.604 36.1208V36.1508C212.604 38.8358 214.389 40.3058 216.264 40.3058C217.449 40.3058 218.214 39.7508 218.769 39.0008V40.1558H221.049ZM218.799 36.1508C218.799 37.4858 217.914 38.3708 216.849 38.3708C215.784 38.3708 214.884 37.4858 214.884 36.1508V36.1208C214.884 34.7708 215.784 33.9008 216.849 33.9008C217.914 33.9008 218.799 34.7858 218.799 36.1208V36.1508ZM230.736 32.1158H228.366L226.611 37.5908L224.781 32.1158H222.366L225.516 40.1858C225.321 40.5908 225.111 40.7108 224.721 40.7108C224.421 40.7108 224.046 40.5758 223.746 40.3958L222.981 42.0458C223.566 42.3908 224.181 42.6008 225.006 42.6008C226.371 42.6008 227.031 41.9858 227.646 40.3508L230.736 32.1158Z"
        fill="black"
      />
      <path
        d="M12 41.7598H11.5V42.2598V52.892V52.9553L11.5158 53.0166L12 52.892C11.5158 53.0166 11.5159 53.017 11.516 53.0175L11.5163 53.0185L11.5168 53.0205L11.518 53.025L11.521 53.0356C11.5233 53.0434 11.5261 53.0526 11.5295 53.0632C11.5364 53.0843 11.5458 53.1107 11.5583 53.1417C11.5833 53.2036 11.6209 53.2838 11.6762 53.3758C11.7871 53.5608 11.9671 53.7898 12.2524 54.0117C12.8272 54.4586 13.7831 54.8419 15.3561 54.8419C16.9292 54.8419 17.8851 54.4586 18.4598 54.0117C18.7451 53.7898 18.9251 53.5608 19.0361 53.3758C19.0913 53.2838 19.129 53.2036 19.154 53.1417C19.1665 53.1107 19.1759 53.0843 19.1828 53.0632C19.1862 53.0526 19.189 53.0434 19.1913 53.0356L19.1943 53.025L19.1955 53.0205L19.196 53.0185L19.1963 53.0175C19.1964 53.017 19.1965 53.0166 18.7123 52.892L19.1965 53.0166L19.2123 52.9553V52.892V42.2598V41.7598H18.7123H12Z"
        fill="#9F7258"
        stroke="black"
      />
      <path
        d="M18.7063 52.4667V42.2598H14.6849V54.3419C19.0415 54.3419 18.7063 52.4667 18.7063 52.4667Z"
        fill="#C8A18C"
      />
      <path
        d="M1.52336 43.6192L1.46493 43.8036L1.54579 43.9793C1.91921 44.7907 3.02838 45.9936 5.09092 46.9893C7.16885 47.9925 10.2419 48.801 14.6031 48.801C18.9635 48.801 21.9782 47.9928 23.9832 46.9859C25.9715 45.9873 26.9985 44.7745 27.3046 43.943L27.363 43.7846L27.3133 43.6233L15.081 3.85301L14.6102 2.32239L14.1264 3.84895L1.52336 43.6192Z"
        fill="#008F2C"
        stroke="black"
      />
      <path
        d="M14.4575 4H14.4602C14.4679 4.01651 14.474 4.03932 14.4788 4.06827L26.8354 43.7702C26.3352 45.1127 23.1595 48.301 14.4575 48.301C5.86256 48.301 14.8585 6.39279 14.4788 4.06827L14.4575 4Z"
        fill="#68F794"
      />
      <rect
        x="5.18958"
        y="23.3276"
        width="9.75862"
        height="13.3448"
        rx="4.87931"
        fill="white"
        stroke="black"
      />
      <rect
        x="5.58612"
        y="29.103"
        width="5.37931"
        height="6.27586"
        rx="2.68966"
        fill="black"
      />
      <rect
        x="15.0517"
        y="23.3276"
        width="9.75862"
        height="13.3448"
        rx="4.87931"
        fill="white"
        stroke="black"
      />
      <path
        d="M21.7241 30L17.2413 31.9923L21.7241 33.5862"
        stroke="black"
        stroke-linecap="round"
        stroke-linejoin="round"
      />
      <path
        d="M17.8358 36.539C17.8358 37.9209 16.7846 38.9917 15.5472 38.9917C14.3098 38.9917 13.2586 37.9209 13.2586 36.539C13.2586 35.1572 14.3098 34.0864 15.5472 34.0864C16.7846 34.0864 17.8358 35.1572 17.8358 36.539Z"
        fill="#FF5C00"
        stroke="black"
      />
    </svg>