<svg
      width="12"
      height="12"
      viewBox="0 0 12 12"
      fill="none"
      xmlns="http://www.w3.org/2000/svg"
    >
      <g clip-path="url(#clip0_1034_758)">
        <path
          d="M12 6C12 7.18669 11.6481 8.34673 10.9888 9.33342C10.3295 10.3201 9.39246 11.0892 8.2961 11.5433C7.19975 11.9974 5.99335 12.1162 4.82946 11.8847C3.66558 11.6532 2.59648 11.0818 1.75736 10.2426C0.918247 9.40353 0.346802 8.33443 0.115291 7.17054C-0.11622 6.00666 0.00259969 4.80026 0.456725 3.7039C0.910851 2.60754 1.67989 1.67047 2.66658 1.01118C3.65328 0.351894 4.81331 0 6 0C7.5913 0 9.11743 0.632141 10.2426 1.75736C11.3679 2.88258 12 4.4087 12 6ZM8.57455 9.16909C8.64005 9.11285 8.68177 9.03385 8.69129 8.94804C8.70081 8.86224 8.67742 8.77601 8.62584 8.70678C8.57426 8.63755 8.49834 8.59046 8.41339 8.57503C8.32845 8.5596 8.24082 8.57697 8.16818 8.62364C7.54204 9.09004 6.78212 9.34196 6.00137 9.34196C5.22061 9.34196 4.46069 9.09004 3.83455 8.62364C3.79873 8.59678 3.75798 8.57723 3.71461 8.56612C3.67124 8.55501 3.62611 8.55255 3.58179 8.55888C3.53747 8.56521 3.49483 8.58021 3.45631 8.60302C3.41779 8.62583 3.38414 8.656 3.35728 8.69182C3.33041 8.72763 3.31087 8.76839 3.29976 8.81176C3.28865 8.85512 3.28619 8.90026 3.29252 8.94458C3.29885 8.98889 3.31385 9.03153 3.33666 9.07005C3.35947 9.10858 3.38964 9.14223 3.42546 9.16909C4.16937 9.72336 5.0723 10.0228 6 10.0228C6.9277 10.0228 7.83063 9.72336 8.57455 9.16909Z"
          fill="#00C6A2"
        />
      </g>
      <defs>
        <clipPath id="clip0_1034_758">
          <rect width="12" height="12" fill="white" />
        </clipPath>
      </defs>
    </svg>